<?xml version="1.0" encoding="UTF-8" standalone="no"?><!-- Generator: Gravit.io --><svg xmlns="http://www.w3.org/2000/svg" xmlns:xlink="http://www.w3.org/1999/xlink" style="isolation:isolate" viewBox="0 0 626.4 720" width="626.4pt" height="720pt"><defs><clipPath id="_clipPath_O3tLqWVJkeyMnO1mi330qXbEUofWZtbv"><rect x="0" y="0" width="626.4" height="720"/></clipPath></defs><g clip-path="url(#_clipPath_O3tLqWVJkeyMnO1mi330qXbEUofWZtbv)"><clipPath id="_clipPath_25I7ibHEN8Lpkyk7BEXPyd8t5KzAd1uj"><path d=" M 0 0 L 626.4 0 L 626.4 720 L 0 720 L 0 0 Z " fill="rgb(255,255,255)"/></clipPath><g clip-path="url(#_clipPath_25I7ibHEN8Lpkyk7BEXPyd8t5KzAd1uj)"><g opacity="0.5"><path d=" M 607.315 529.08 L 313.543 698.689 L 19.771 529.08 L 19.771 189.861 L 313.543 20.251 L 607.315 189.861 L 607.315 529.08 Z " fill="rgb(70,119,186)"/></g><path d=" M 622.31 537.74 L 313.54 716.01 L 4.77 537.74 L 4.77 181.2 L 313.54 2.93 L 622.31 181.2 L 622.31 537.74 Z  M 592.31 520.42 L 313.54 681.37 L 34.77 520.42 L 34.77 198.52 L 313.54 37.57 L 592.31 198.52 L 592.31 520.42 Z " fill-rule="evenodd" fill="rgb(70,119,186)"/></g><g><path d=" M 104.138 476.471 L 104.138 476.491 C 56.201 372.645 223.879 295.264 271.782 399.108 C 319.721 502.928 152.042 580.295 104.138 476.471 Z " fill="rgb(110,165,216)"/><clipPath id="_clipPath_SFH28xrigxs08qSLhNp3cLTP8WG5WQWm"><path d=" M 97.111 485.219 L 97.111 485.197 C 149.029 597.727 330.77 513.871 278.809 401.348 L 278.809 401.348 C 261.456 363.731 229.611 348.056 196.828 348.059 L 196.828 348.059 C 131.523 348.065 62.521 410.284 97.111 485.219 Z " fill="rgb(255,255,255)"/></clipPath><g clip-path="url(#_clipPath_SFH28xrigxs08qSLhNp3cLTP8WG5WQWm)"><path d=" M 207.563 424.895 C 207.563 429.284 204.008 432.84 199.617 432.84 C 195.231 432.84 191.671 429.284 191.671 424.895 C 191.671 420.504 195.231 416.948 199.617 416.948 C 204.008 416.948 207.563 420.504 207.563 424.895 Z " fill="rgb(169,171,174)"/><path d=" M 207.563 424.895 C 207.563 429.284 204.008 432.84 199.617 432.84 C 195.231 432.84 191.671 429.284 191.671 424.895 C 191.671 420.504 195.231 416.948 199.617 416.948 C 204.008 416.948 207.563 420.504 207.563 424.895 Z " fill="none" vector-effect="non-scaling-stroke" stroke-width="1" stroke="rgb(42,42,42)" stroke-linejoin="miter" stroke-linecap="square" stroke-miterlimit="3"/><path d=" M 180.19 437.955 C 180.19 442.342 176.636 445.898 172.244 445.898 C 167.854 445.898 164.299 442.342 164.299 437.955 C 164.299 433.564 167.854 430.006 172.244 430.006 C 176.636 430.006 180.19 433.564 180.19 437.955 Z " fill="rgb(169,171,174)"/><path d=" M 180.19 437.955 C 180.19 442.342 176.636 445.898 172.244 445.898 C 167.854 445.898 164.299 442.342 164.299 437.955 C 164.299 433.564 167.854 430.006 172.244 430.006 C 176.636 430.006 180.19 433.564 180.19 437.955 Z " fill="none" vector-effect="non-scaling-stroke" stroke-width="1" stroke="rgb(42,42,42)" stroke-linejoin="miter" stroke-linecap="square" stroke-miterlimit="3"/><path d=" M 206.47 451.205 C 206.47 455.596 202.639 459.154 197.913 459.154 C 193.192 459.154 189.362 455.596 189.362 451.205 C 189.362 446.816 193.192 443.262 197.913 443.262 C 202.639 443.262 206.47 446.816 206.47 451.205 Z " fill="rgb(244,137,57)"/><path d=" M 206.47 451.205 C 206.47 455.596 202.639 459.154 197.913 459.154 C 193.192 459.154 189.362 455.596 189.362 451.205 C 189.362 446.816 193.192 443.262 197.913 443.262 C 202.639 443.262 206.47 446.816 206.47 451.205 Z " fill="none" vector-effect="non-scaling-stroke" stroke-width="1" stroke="rgb(42,42,42)" stroke-linejoin="miter" stroke-linecap="square" stroke-miterlimit="3"/><path d=" M 185.523 426.561 C 185.523 430.953 181.965 434.51 177.576 434.51 C 173.185 434.51 169.63 430.953 169.63 426.561 C 169.63 422.174 173.185 418.618 177.576 418.618 C 181.965 418.618 185.523 422.174 185.523 426.561 Z " fill="rgb(244,137,57)"/><path d=" M 185.523 426.561 C 185.523 430.953 181.965 434.51 177.576 434.51 C 173.185 434.51 169.63 430.953 169.63 426.561 C 169.63 422.174 173.185 418.618 177.576 418.618 C 181.965 418.618 185.523 422.174 185.523 426.561 Z " fill="none" vector-effect="non-scaling-stroke" stroke-width="1" stroke="rgb(42,42,42)" stroke-linejoin="miter" stroke-linecap="square" stroke-miterlimit="3"/><path d=" M 201.272 430.041 C 201.272 434.43 197.713 437.988 193.325 437.988 C 188.934 437.988 185.374 434.43 185.374 430.041 C 185.374 425.654 188.934 422.096 193.325 422.096 C 197.713 422.096 201.272 425.654 201.272 430.041 Z " fill="rgb(244,137,57)"/><path d=" M 201.272 430.041 C 201.272 434.43 197.713 437.988 193.325 437.988 C 188.934 437.988 185.374 434.43 185.374 430.041 C 185.374 425.654 188.934 422.096 193.325 422.096 C 197.713 422.096 201.272 425.654 201.272 430.041 Z " fill="none" vector-effect="non-scaling-stroke" stroke-width="1" stroke="rgb(42,42,42)" stroke-linejoin="miter" stroke-linecap="square" stroke-miterlimit="3"/><path d=" M 213.128 434.551 C 213.128 438.938 209.566 442.498 205.18 442.498 C 200.793 442.498 197.23 438.938 197.23 434.551 C 197.23 430.162 200.793 426.606 205.18 426.606 C 209.566 426.606 213.128 430.162 213.128 434.551 Z " fill="rgb(169,171,174)"/><path d=" M 213.128 434.551 C 213.128 438.938 209.566 442.498 205.18 442.498 C 200.793 442.498 197.23 438.938 197.23 434.551 C 197.23 430.162 200.793 426.606 205.18 426.606 C 209.566 426.606 213.128 430.162 213.128 434.551 Z " fill="none" vector-effect="non-scaling-stroke" stroke-width="1" stroke="rgb(42,42,42)" stroke-linejoin="miter" stroke-linecap="square" stroke-miterlimit="3"/><path d=" M 184.043 448.531 C 184.043 452.92 180.487 456.48 176.098 456.48 C 171.711 456.48 168.152 452.92 168.152 448.531 C 168.152 444.142 171.711 440.584 176.098 440.584 C 180.487 440.584 184.043 444.142 184.043 448.531 Z " fill="rgb(244,137,57)"/><path d=" M 184.043 448.531 C 184.043 452.92 180.487 456.48 176.098 456.48 C 171.711 456.48 168.152 452.92 168.152 448.531 C 168.152 444.142 171.711 440.584 176.098 440.584 C 180.487 440.584 184.043 444.142 184.043 448.531 Z " fill="none" vector-effect="non-scaling-stroke" stroke-width="1" stroke="rgb(42,42,42)" stroke-linejoin="miter" stroke-linecap="square" stroke-miterlimit="3"/><path d=" M 195.918 421.334 C 195.918 425.723 192.358 429.281 187.967 429.281 C 183.581 429.281 180.022 425.723 180.022 421.334 C 180.022 416.943 183.581 413.387 187.967 413.387 C 192.358 413.387 195.918 416.943 195.918 421.334 Z " fill="rgb(169,171,174)"/><path d=" M 195.918 421.334 C 195.918 425.723 192.358 429.281 187.967 429.281 C 183.581 429.281 180.022 425.723 180.022 421.334 C 180.022 416.943 183.581 413.387 187.967 413.387 C 192.358 413.387 195.918 416.943 195.918 421.334 Z " fill="none" vector-effect="non-scaling-stroke" stroke-width="1" stroke="rgb(42,42,42)" stroke-linejoin="miter" stroke-linecap="square" stroke-miterlimit="3"/><path d=" M 211.808 444.539 C 211.808 448.928 208.254 452.488 203.865 452.488 C 199.473 452.488 195.918 448.928 195.918 444.539 C 195.918 440.152 199.473 436.594 203.865 436.594 C 208.254 436.594 211.808 440.152 211.808 444.539 Z " fill="rgb(244,137,57)"/><path d=" M 211.808 444.539 C 211.808 448.928 208.254 452.488 203.865 452.488 C 199.473 452.488 195.918 448.928 195.918 444.539 C 195.918 440.152 199.473 436.594 203.865 436.594 C 208.254 436.594 211.808 440.152 211.808 444.539 Z " fill="none" vector-effect="non-scaling-stroke" stroke-width="1" stroke="rgb(42,42,42)" stroke-linejoin="miter" stroke-linecap="square" stroke-miterlimit="3"/><path d=" M 195.918 454.402 C 195.918 458.791 192.358 462.345 187.967 462.345 C 183.581 462.345 180.022 458.791 180.022 454.402 C 180.022 450.011 183.581 446.455 187.967 446.455 C 192.358 446.455 195.918 450.011 195.918 454.402 Z " fill="rgb(169,171,174)"/><path d=" M 195.918 454.402 C 195.918 458.791 192.358 462.345 187.967 462.345 C 183.581 462.345 180.022 458.791 180.022 454.402 C 180.022 450.011 183.581 446.455 187.967 446.455 C 192.358 446.455 195.918 450.011 195.918 454.402 Z " fill="none" vector-effect="non-scaling-stroke" stroke-width="1" stroke="rgb(42,42,42)" stroke-linejoin="miter" stroke-linecap="square" stroke-miterlimit="3"/><path d=" M 191.792 446.455 C 191.792 450.842 188.233 454.402 183.842 454.402 C 179.456 454.402 175.896 450.842 175.896 446.455 C 175.896 442.064 179.456 438.508 183.842 438.508 C 188.233 438.508 191.792 442.064 191.792 446.455 Z " fill="rgb(169,171,174)"/><path d=" M 191.792 446.455 C 191.792 450.842 188.233 454.402 183.842 454.402 C 179.456 454.402 175.896 450.842 175.896 446.455 C 175.896 442.064 179.456 438.508 183.842 438.508 C 188.233 438.508 191.792 442.064 191.792 446.455 Z " fill="none" vector-effect="non-scaling-stroke" stroke-width="1" stroke="rgb(42,42,42)" stroke-linejoin="miter" stroke-linecap="square" stroke-miterlimit="3"/><path d=" M 203.146 442.02 C 203.146 446.409 199.584 449.967 195.199 449.967 C 190.808 449.967 187.248 446.409 187.248 442.02 C 187.248 437.631 190.808 434.073 195.199 434.073 C 199.584 434.073 203.146 437.631 203.146 442.02 Z " fill="rgb(169,171,174)"/><path d=" M 203.146 442.02 C 203.146 446.409 199.584 449.967 195.199 449.967 C 190.808 449.967 187.248 446.409 187.248 442.02 C 187.248 437.631 190.808 434.073 195.199 434.073 C 199.584 434.073 203.146 437.631 203.146 442.02 Z " fill="none" vector-effect="non-scaling-stroke" stroke-width="1" stroke="rgb(42,42,42)" stroke-linejoin="miter" stroke-linecap="square" stroke-miterlimit="3"/><path d=" M 191.987 434.715 C 191.987 439.102 188.429 442.66 184.042 442.66 C 179.654 442.66 176.097 439.102 176.097 434.715 C 176.097 430.326 179.654 426.768 184.042 426.768 C 188.429 426.768 191.987 430.326 191.987 434.715 Z " fill="rgb(244,137,57)"/><path d=" M 191.987 434.715 C 191.987 439.102 188.429 442.66 184.042 442.66 C 179.654 442.66 176.097 439.102 176.097 434.715 C 176.097 430.326 179.654 426.768 184.042 426.768 C 188.429 426.768 191.987 430.326 191.987 434.715 Z " fill="none" vector-effect="non-scaling-stroke" stroke-width="1" stroke="rgb(42,42,42)" stroke-linejoin="miter" stroke-linecap="square" stroke-miterlimit="3"/><path d=" M 68.498 436.873 C 68.2 444.535 72.807 450.508 78.399 455.15 C 84.552 459.727 93.163 463.824 103.815 467.172 C 125.113 473.871 154.39 477.941 186.585 477.941 L 188.711 477.941 L 188.711 476.939 C 124.017 476.939 76.511 458.434 76.511 436.873 L 68.498 436.873 Z " fill="rgb(70,119,186)"/><path d=" M 68.498 438.873 C 68.2 431.213 72.807 425.24 78.399 420.596 C 84.552 416.021 93.163 411.92 103.815 408.572 C 125.113 401.875 154.39 397.805 186.585 397.805 L 188.711 397.805 L 188.711 398.809 C 124.017 398.809 76.511 417.312 76.511 438.873 L 68.498 438.873 Z " fill="rgb(70,119,186)"/><path d=" M 308.909 436.873 C 309.204 444.535 304.596 450.508 299.01 455.15 C 292.859 459.727 284.243 463.824 273.59 467.172 C 252.288 473.871 223.017 477.941 190.824 477.941 L 188.695 477.941 L 188.695 476.939 C 253.393 476.939 300.894 458.434 300.894 436.873 L 308.909 436.873 Z " fill="rgb(70,119,186)"/><path d=" M 308.909 438.873 C 309.204 431.213 304.596 425.24 299.01 420.596 C 292.859 416.021 284.243 411.92 273.59 408.572 C 252.288 401.875 223.017 397.805 190.824 397.805 L 188.695 397.805 L 188.695 398.809 C 253.393 398.809 300.894 417.312 300.894 438.873 L 308.909 438.873 Z " fill="rgb(70,119,186)"/><path d=" M 102.995 522.162 C 108.206 527.789 115.688 528.754 122.922 528.088 C 130.509 526.971 139.495 523.779 149.396 518.615 C 169.197 508.285 192.772 490.469 215.537 467.701 L 217.042 466.201 L 216.332 465.49 C 170.591 511.238 123.913 531.74 108.664 516.496 L 102.995 522.162 Z " fill="rgb(70,119,186)"/><path d=" M 104.413 523.576 C 98.786 518.369 97.821 510.887 98.488 503.652 C 99.603 496.07 102.795 487.076 107.961 477.178 C 118.287 457.379 136.108 433.803 158.872 411.037 L 160.375 409.533 L 161.081 410.244 C 115.34 455.986 94.832 502.664 110.081 517.912 L 104.413 523.576 Z " fill="rgb(70,119,186)"/><path d=" M 272.997 352.165 C 278.622 357.373 279.587 364.854 278.921 372.09 C 277.805 379.674 274.611 388.665 269.449 398.565 C 259.122 418.364 241.3 441.94 218.537 464.706 L 217.029 466.207 L 216.324 465.5 C 262.069 419.754 282.575 373.079 267.329 357.832 L 272.997 352.167 L 272.997 352.165 Z " fill="rgb(70,119,186)"/><path d=" M 274.41 353.58 C 269.204 347.954 261.72 346.99 254.485 347.656 C 246.897 348.772 237.91 351.964 228.009 357.129 C 208.211 367.455 184.638 385.276 161.868 408.039 L 160.362 409.543 L 161.077 410.25 C 206.82 364.508 253.497 343.998 268.743 359.247 L 274.41 353.58 Z " fill="rgb(70,119,186)"/><path d=" M 104.413 352.168 C 98.786 357.377 97.821 364.858 98.488 372.094 C 99.603 379.678 102.795 388.668 107.961 398.569 C 118.287 418.366 136.108 441.942 158.872 464.708 L 160.375 466.21 L 161.081 465.504 C 115.34 419.758 94.832 373.083 110.081 357.835 L 104.413 352.168 Z " fill="rgb(70,119,186)"/><path d=" M 102.995 353.582 C 108.206 347.957 115.688 346.992 122.922 347.658 C 130.509 348.775 139.495 351.966 149.396 357.13 C 169.197 367.456 192.772 385.278 215.537 408.041 L 217.042 409.547 L 216.332 410.254 C 170.591 364.508 123.913 344.003 108.664 359.25 L 102.995 353.585 L 102.995 353.582 Z " fill="rgb(70,119,186)"/><path d=" M 274.41 522.166 C 269.204 527.793 261.72 528.756 254.485 528.09 C 246.897 526.973 237.91 523.781 228.009 518.619 C 208.211 508.289 184.638 490.471 161.868 467.709 L 160.362 466.203 L 161.077 465.494 C 206.82 511.238 253.497 531.746 268.743 516.496 L 274.41 522.162 L 274.41 522.166 Z " fill="rgb(70,119,186)"/><path d=" M 272.997 523.58 C 278.622 518.369 279.587 510.892 278.921 503.654 C 277.805 496.072 274.611 487.08 269.449 477.182 C 259.122 457.385 241.3 433.805 218.537 411.039 L 217.029 409.537 L 216.324 410.246 C 262.069 455.988 282.575 502.666 267.329 517.912 L 272.997 523.576 L 272.997 523.58 Z " fill="rgb(70,119,186)"/><path d=" M 189.703 317.668 C 182.041 317.371 176.071 321.979 171.425 327.567 C 166.849 333.721 162.754 342.333 159.406 352.984 C 152.703 374.285 148.635 403.559 148.635 435.752 L 148.635 437.877 L 149.635 437.877 C 149.635 373.188 168.14 325.682 189.703 325.682 L 189.703 317.668 Z " fill="rgb(70,119,186)"/><path d=" M 187.702 317.668 C 195.36 317.371 201.336 321.979 205.979 327.567 C 210.555 333.721 214.654 342.333 218.002 352.984 C 224.7 374.285 228.772 403.559 228.772 435.752 L 228.772 437.877 L 227.772 437.877 C 227.772 373.188 209.266 325.682 187.702 325.682 L 187.702 317.668 Z " fill="rgb(70,119,186)"/><path d=" M 189.703 558.08 C 182.041 558.373 176.071 553.768 171.425 548.178 C 166.849 542.027 162.754 533.412 159.406 522.762 C 152.703 501.461 148.635 472.185 148.635 439.99 L 148.635 437.867 L 149.635 437.867 C 149.635 502.56 168.14 550.064 189.703 550.064 L 189.703 558.08 Z " fill="rgb(70,119,186)"/><path d=" M 187.702 558.08 C 195.36 558.373 201.336 553.768 205.979 548.178 C 210.555 542.027 214.654 533.412 218.002 522.762 C 224.7 501.461 228.772 472.185 228.772 439.99 L 228.772 437.867 L 227.772 437.867 C 227.772 502.56 209.266 550.064 187.702 550.064 L 187.702 558.08 Z " fill="rgb(70,119,186)"/></g><clipPath id="_clipPath_8kced4algplvefUktufVb0FYmpb8M089"><path d=" M 0 0 L 626.4 0 L 626.4 720 L 0 720 L 0 0 Z " fill="rgb(255,255,255)"/></clipPath><g clip-path="url(#_clipPath_8kced4algplvefUktufVb0FYmpb8M089)"><path d=" M 109.559 476.945 L 109.559 476.963 C 65.388 381.277 219.891 309.974 264.033 405.66 C 308.209 501.324 153.7 572.613 109.559 476.945 Z  M 342.063 476.525 C 337.905 467.463 321.725 464.66 313.218 461.726 C 306.6 459.439 302.743 460.513 303.746 453.16 C 305.104 443.289 305.143 433.254 303.882 423.334 C 301.865 408.056 345.793 412.959 338.969 389.357 C 336.506 380.89 328.506 360.604 320.432 357.538 C 310.737 353.846 296.156 364.162 287.785 368.22 C 279.455 372.205 278.373 365.228 272.293 359.121 C 266.715 353.557 250.905 345.856 253.813 338.885 C 261.833 319.687 271.733 302.737 247.102 294.331 C 238.693 291.049 226.2 283.665 218.163 290.395 C 210.542 296.791 207.93 311.985 204.798 320.927 C 201.941 329.021 195.861 325.105 187.875 325.168 C 180.9 325.233 163.814 330.475 161.359 324.388 C 155.014 308.657 149.141 284.328 127.852 294.165 L 127.795 294.18 C 119.709 297.902 105.139 301.7 101.784 310.411 C 98.072 320.348 108.961 335.715 113.102 344.319 C 116.868 352.177 109.293 353.557 103.423 359.041 C 100.704 361.599 87.331 378.789 85.487 378.056 C 76.032 374.295 61.884 365.666 51.342 367.371 C 41.023 369.086 38.537 383.435 35.575 391.949 C 28.543 409.886 35.538 415.672 51.758 421.363 C 56.753 423.142 61.788 424.916 66.821 426.681 C 65.013 437.379 64.73 448.347 66.079 459.107 C 67.402 469.841 68.948 469.355 59.533 473.474 C 54.075 475.853 48.12 477.92 43.051 481.111 C 29.642 489.441 38.389 502.539 43.313 513.429 C 51.424 531.355 60.094 531.48 76.254 523.709 C 81.142 521.373 86.029 519.006 90.935 516.675 C 97.607 524.748 105.449 531.812 114.144 537.705 C 119.473 541.336 124.199 540.613 121.347 547.429 C 119.346 552.256 117.405 557.164 115.505 562.086 C 112.786 569.322 108.252 579.427 115.096 585.939 C 120.684 591.279 142.397 599.271 150.13 598.865 C 162.174 598.207 165.143 580.318 168.287 571.275 C 169.841 566.775 171.371 562.269 172.967 557.777 C 183.808 558.504 194.731 557.75 205.376 555.615 C 212.818 554.133 210.952 555.285 213.454 561.49 C 215.128 565.674 216.934 569.824 218.763 573.978 C 222.157 581.654 225.996 595.049 236.399 595.408 C 244.789 595.693 258.418 587.855 265.882 583.691 C 283.353 573.933 266.83 551.588 260.634 539.259 C 257.618 533.326 255.476 533.744 261.221 528.933 C 265.302 525.541 269.158 521.867 272.779 517.99 C 276.39 514.066 279.737 509.953 282.809 505.617 C 286.352 507.248 289.949 508.806 293.564 510.261 C 307.795 516.078 327.053 527.582 334.735 507.818 C 338.096 499.267 345.825 485.088 342.063 476.525 Z " fill="rgb(156,158,160)"/><path d=" M 109.559 476.945 L 109.559 476.963 C 65.388 381.277 219.891 309.974 264.033 405.66 C 308.209 501.324 153.7 572.613 109.559 476.945 Z  M 342.063 476.525 C 337.905 467.463 321.725 464.66 313.218 461.726 C 306.6 459.439 302.743 460.513 303.746 453.16 C 305.104 443.289 305.143 433.254 303.882 423.334 C 301.865 408.056 345.793 412.959 338.969 389.357 C 336.506 380.89 328.506 360.604 320.432 357.538 C 310.737 353.846 296.156 364.162 287.785 368.22 C 279.455 372.205 278.373 365.228 272.293 359.121 C 266.715 353.557 250.905 345.856 253.813 338.885 C 261.833 319.687 271.733 302.737 247.102 294.331 C 238.693 291.049 226.2 283.665 218.163 290.395 C 210.542 296.791 207.93 311.985 204.798 320.927 C 201.941 329.021 195.861 325.105 187.875 325.168 C 180.9 325.233 163.814 330.475 161.359 324.388 C 155.014 308.657 149.141 284.328 127.852 294.165 L 127.795 294.18 C 119.709 297.902 105.139 301.7 101.784 310.411 C 98.072 320.348 108.961 335.715 113.102 344.319 C 116.868 352.177 109.293 353.557 103.423 359.041 C 100.704 361.599 87.331 378.789 85.487 378.056 C 76.032 374.295 61.884 365.666 51.342 367.371 C 41.023 369.086 38.537 383.435 35.575 391.949 C 28.543 409.886 35.538 415.672 51.758 421.363 C 56.753 423.142 61.788 424.916 66.821 426.681 C 65.013 437.379 64.73 448.347 66.079 459.107 C 67.402 469.841 68.948 469.355 59.533 473.474 C 54.075 475.853 48.12 477.92 43.051 481.111 C 29.642 489.441 38.389 502.539 43.313 513.429 C 51.424 531.355 60.094 531.48 76.254 523.709 C 81.142 521.373 86.029 519.006 90.935 516.675 C 97.607 524.748 105.449 531.812 114.144 537.705 C 119.473 541.336 124.199 540.613 121.347 547.429 C 119.346 552.256 117.405 557.164 115.505 562.086 C 112.786 569.322 108.252 579.427 115.096 585.939 C 120.684 591.279 142.397 599.271 150.13 598.865 C 162.174 598.207 165.143 580.318 168.287 571.275 C 169.841 566.775 171.371 562.269 172.967 557.777 C 183.808 558.504 194.731 557.75 205.376 555.615 C 212.818 554.133 210.952 555.285 213.454 561.49 C 215.128 565.674 216.934 569.824 218.763 573.978 C 222.157 581.654 225.996 595.049 236.399 595.408 C 244.789 595.693 258.418 587.855 265.882 583.691 C 283.353 573.933 266.83 551.588 260.634 539.259 C 257.618 533.326 255.476 533.744 261.221 528.933 C 265.302 525.541 269.158 521.867 272.779 517.99 C 276.39 514.066 279.737 509.953 282.809 505.617 C 286.352 507.248 289.949 508.806 293.564 510.261 C 307.795 516.078 327.053 527.582 334.735 507.818 C 338.096 499.267 345.825 485.088 342.063 476.525 Z " fill-rule="evenodd" fill="none" vector-effect="non-scaling-stroke" stroke-width="4" stroke="rgb(42,42,42)" stroke-linejoin="miter" stroke-linecap="square" stroke-miterlimit="3"/><path d=" M 341.078 298.641 L 341.078 298.659 C 293.142 194.813 460.818 117.433 508.721 221.276 C 556.664 325.097 388.98 402.465 341.078 298.641 Z " fill="rgb(110,165,216)"/></g><clipPath id="_clipPath_FbT5FhcxyLC3IrksLMtaFALjTQ9tsYS2"><path d=" M 334.053 307.387 L 334.053 307.368 C 385.97 419.894 567.709 336.041 515.75 223.517 L 515.75 223.517 C 498.397 185.9 466.552 170.225 433.768 170.228 L 433.768 170.228 C 368.464 170.235 299.463 232.453 334.053 307.387 Z " fill="rgb(255,255,255)"/></clipPath><g clip-path="url(#_clipPath_FbT5FhcxyLC3IrksLMtaFALjTQ9tsYS2)"><path d=" M 416.889 260.031 C 416.889 264.161 413.535 267.51 409.407 267.51 C 405.274 267.51 401.924 264.161 401.924 260.031 C 401.924 255.9 405.274 252.549 409.407 252.549 C 413.535 252.549 416.889 255.9 416.889 260.031 Z " fill="rgb(169,171,174)"/><path d=" M 416.889 260.031 C 416.889 264.161 413.535 267.51 409.407 267.51 C 405.274 267.51 401.924 264.161 401.924 260.031 C 401.924 255.9 405.274 252.549 409.407 252.549 C 413.535 252.549 416.889 255.9 416.889 260.031 Z " fill="none" vector-effect="non-scaling-stroke" stroke-width="1" stroke="rgb(42,42,42)" stroke-linejoin="miter" stroke-linecap="square" stroke-miterlimit="3"/><path d=" M 440.494 273.64 C 440.494 277.769 436.885 281.121 432.441 281.121 C 427.992 281.121 424.387 277.769 424.387 273.64 C 424.387 269.511 427.992 266.159 432.441 266.159 C 436.885 266.159 440.494 269.511 440.494 273.64 Z " fill="rgb(244,137,57)"/><path d=" M 440.494 273.64 C 440.494 277.769 436.885 281.121 432.441 281.121 C 427.992 281.121 424.387 277.769 424.387 273.64 C 424.387 269.511 427.992 266.159 432.441 266.159 C 436.885 266.159 440.494 269.511 440.494 273.64 Z " fill="none" vector-effect="non-scaling-stroke" stroke-width="1" stroke="rgb(42,42,42)" stroke-linejoin="miter" stroke-linecap="square" stroke-miterlimit="3"/><path d=" M 421.904 249.304 C 421.904 253.44 418.554 256.789 414.422 256.789 C 410.291 256.789 406.945 253.44 406.945 249.304 C 406.945 245.175 410.291 241.826 414.422 241.826 C 418.554 241.826 421.904 245.175 421.904 249.304 Z " fill="rgb(244,137,57)"/><path d=" M 421.904 249.304 C 421.904 253.44 418.554 256.789 414.422 256.789 C 410.291 256.789 406.945 253.44 406.945 249.304 C 406.945 245.175 410.291 241.826 414.422 241.826 C 418.554 241.826 421.904 245.175 421.904 249.304 Z " fill="none" vector-effect="non-scaling-stroke" stroke-width="1" stroke="rgb(42,42,42)" stroke-linejoin="miter" stroke-linecap="square" stroke-miterlimit="3"/><path d=" M 442.188 247.478 C 442.188 251.607 438.84 254.956 434.704 254.956 C 430.575 254.956 427.227 251.607 427.227 247.478 C 427.227 243.344 430.575 239.992 434.704 239.992 C 438.84 239.992 442.188 243.344 442.188 247.478 Z " fill="rgb(244,137,57)"/><path d=" M 442.188 247.478 C 442.188 251.607 438.84 254.956 434.704 254.956 C 430.575 254.956 427.227 251.607 427.227 247.478 C 427.227 243.344 430.575 239.992 434.704 239.992 C 438.84 239.992 442.188 243.344 442.188 247.478 Z " fill="none" vector-effect="non-scaling-stroke" stroke-width="1" stroke="rgb(42,42,42)" stroke-linejoin="miter" stroke-linecap="square" stroke-miterlimit="3"/><path d=" M 447.893 256.826 C 447.893 260.961 444.543 264.309 440.414 264.309 C 436.286 264.309 432.928 260.961 432.928 256.826 C 432.928 252.701 436.286 249.347 440.414 249.347 C 444.543 249.347 447.893 252.701 447.893 256.826 Z " fill="rgb(169,171,174)"/><path d=" M 447.893 256.826 C 447.893 260.961 444.543 264.309 440.414 264.309 C 436.286 264.309 432.928 260.961 432.928 256.826 C 432.928 252.701 436.286 249.347 440.414 249.347 C 444.543 249.347 447.893 252.701 447.893 256.826 Z " fill="none" vector-effect="non-scaling-stroke" stroke-width="1" stroke="rgb(42,42,42)" stroke-linejoin="miter" stroke-linecap="square" stroke-miterlimit="3"/><path d=" M 420.518 269.988 C 420.518 274.12 417.168 277.471 413.032 277.471 C 408.901 277.471 405.553 274.12 405.553 269.988 C 405.553 265.86 408.901 262.509 413.032 262.509 C 417.168 262.509 420.518 265.86 420.518 269.988 Z " fill="rgb(244,137,57)"/><path d=" M 420.518 269.988 C 420.518 274.12 417.168 277.471 413.032 277.471 C 408.901 277.471 405.553 274.12 405.553 269.988 C 405.553 265.86 408.901 262.509 413.032 262.509 C 417.168 262.509 420.518 265.86 420.518 269.988 Z " fill="none" vector-effect="non-scaling-stroke" stroke-width="1" stroke="rgb(42,42,42)" stroke-linejoin="miter" stroke-linecap="square" stroke-miterlimit="3"/><path d=" M 431.69 244.385 C 431.69 248.515 428.344 251.865 424.208 251.865 C 420.079 251.865 416.733 248.515 416.733 244.385 C 416.733 240.254 420.079 236.905 424.208 236.905 C 428.344 236.905 431.69 240.254 431.69 244.385 Z " fill="rgb(169,171,174)"/><path d=" M 431.69 244.385 C 431.69 248.515 428.344 251.865 424.208 251.865 C 420.079 251.865 416.733 248.515 416.733 244.385 C 416.733 240.254 420.079 236.905 424.208 236.905 C 428.344 236.905 431.69 240.254 431.69 244.385 Z " fill="none" vector-effect="non-scaling-stroke" stroke-width="1" stroke="rgb(42,42,42)" stroke-linejoin="miter" stroke-linecap="square" stroke-miterlimit="3"/><path d=" M 446.652 266.231 C 446.652 270.363 443.298 273.71 439.17 273.71 C 435.037 273.71 431.689 270.363 431.689 266.231 C 431.689 262.101 435.037 258.751 439.17 258.751 C 443.298 258.751 446.652 262.101 446.652 266.231 Z " fill="rgb(244,137,57)"/><path d=" M 446.652 266.231 C 446.652 270.363 443.298 273.71 439.17 273.71 C 435.037 273.71 431.689 270.363 431.689 266.231 C 431.689 262.101 435.037 258.751 439.17 258.751 C 443.298 258.751 446.652 262.101 446.652 266.231 Z " fill="none" vector-effect="non-scaling-stroke" stroke-width="1" stroke="rgb(42,42,42)" stroke-linejoin="miter" stroke-linecap="square" stroke-miterlimit="3"/><path d=" M 429.426 275.514 C 429.426 279.647 426.072 282.995 421.944 282.995 C 417.811 282.995 414.467 279.647 414.467 275.514 C 414.467 271.381 417.811 268.031 421.944 268.031 C 426.072 268.031 429.426 271.381 429.426 275.514 Z " fill="rgb(169,171,174)"/><path d=" M 429.426 275.514 C 429.426 279.647 426.072 282.995 421.944 282.995 C 417.811 282.995 414.467 279.647 414.467 275.514 C 414.467 271.381 417.811 268.031 421.944 268.031 C 426.072 268.031 429.426 271.381 429.426 275.514 Z " fill="none" vector-effect="non-scaling-stroke" stroke-width="1" stroke="rgb(42,42,42)" stroke-linejoin="miter" stroke-linecap="square" stroke-miterlimit="3"/><path d=" M 434.602 266.898 C 434.602 271.028 431.256 274.38 427.123 274.38 C 422.997 274.38 419.643 271.028 419.643 266.898 C 419.643 262.763 422.997 259.417 427.123 259.417 C 431.256 259.417 434.602 262.763 434.602 266.898 Z " fill="rgb(169,171,174)"/><path d=" M 434.602 266.898 C 434.602 271.028 431.256 274.38 427.123 274.38 C 422.997 274.38 419.643 271.028 419.643 266.898 C 419.643 262.763 422.997 259.417 427.123 259.417 C 431.256 259.417 434.602 262.763 434.602 266.898 Z " fill="none" vector-effect="non-scaling-stroke" stroke-width="1" stroke="rgb(42,42,42)" stroke-linejoin="miter" stroke-linecap="square" stroke-miterlimit="3"/><path d=" M 436.227 255.925 C 436.227 260.056 432.877 263.407 428.748 263.407 C 424.612 263.407 421.266 260.056 421.266 255.925 C 421.266 251.794 424.612 248.448 428.748 248.448 C 432.877 248.448 436.227 251.794 436.227 255.925 Z " fill="rgb(169,171,174)"/><path d=" M 436.227 255.925 C 436.227 260.056 432.877 263.407 428.748 263.407 C 424.612 263.407 421.266 260.056 421.266 255.925 C 421.266 251.794 424.612 248.448 428.748 248.448 C 432.877 248.448 436.227 251.794 436.227 255.925 Z " fill="none" vector-effect="non-scaling-stroke" stroke-width="1" stroke="rgb(42,42,42)" stroke-linejoin="miter" stroke-linecap="square" stroke-miterlimit="3"/><path d=" M 426.481 258.113 C 426.481 262.246 423.131 265.594 418.997 265.594 C 414.874 265.594 411.516 262.246 411.516 258.113 C 411.516 253.983 414.874 250.632 418.997 250.632 C 423.131 250.632 426.481 253.983 426.481 258.113 Z " fill="rgb(244,137,57)"/><path d=" M 426.481 258.113 C 426.481 262.246 423.131 265.594 418.997 265.594 C 414.874 265.594 411.516 262.246 411.516 258.113 C 411.516 253.983 414.874 250.632 418.997 250.632 C 423.131 250.632 426.481 253.983 426.481 258.113 Z " fill="none" vector-effect="non-scaling-stroke" stroke-width="1" stroke="rgb(42,42,42)" stroke-linejoin="miter" stroke-linecap="square" stroke-miterlimit="3"/><path d=" M 311.741 259.012 C 311.46 266.224 315.801 271.848 321.06 276.218 C 326.853 280.527 334.961 284.385 344.992 287.535 C 365.039 293.84 392.597 297.673 422.904 297.673 L 424.9 297.673 L 424.9 296.729 C 364.002 296.729 319.283 279.309 319.283 259.012 L 311.741 259.012 Z " fill="rgb(70,119,186)"/><path d=" M 311.741 260.896 C 311.46 253.683 315.801 248.064 321.06 243.691 C 326.853 239.385 334.961 235.525 344.992 232.372 C 365.039 226.068 392.597 222.235 422.904 222.235 L 424.9 222.235 L 424.9 223.177 C 364.002 223.177 319.283 240.597 319.283 260.896 L 311.741 260.896 Z " fill="rgb(70,119,186)"/><path d=" M 538.063 259.012 C 538.336 266.224 533.999 271.848 528.741 276.218 C 522.946 280.527 514.836 284.385 504.811 287.535 C 484.758 293.84 457.204 297.673 426.891 297.673 L 424.893 297.673 L 424.893 296.729 C 485.795 296.729 530.514 279.309 530.514 259.012 L 538.053 259.012 L 538.063 259.012 Z " fill="rgb(70,119,186)"/><path d=" M 538.063 260.896 C 538.336 253.683 533.999 248.064 528.741 243.691 C 522.946 239.385 514.836 235.525 504.811 232.372 C 484.758 226.068 457.204 222.235 426.891 222.235 L 424.893 222.235 L 424.893 223.177 C 485.795 223.177 530.514 240.597 530.514 260.896 L 538.053 260.896 L 538.063 260.896 Z " fill="rgb(70,119,186)"/><path d=" M 344.219 339.299 C 349.121 344.597 356.168 345.503 362.973 344.879 C 370.119 343.829 378.578 340.821 387.901 335.961 C 406.539 326.239 428.729 309.466 450.162 288.036 L 451.578 286.62 L 450.912 285.954 C 407.848 329.02 363.905 348.32 349.555 333.967 L 344.219 339.299 Z " fill="rgb(70,119,186)"/><path d=" M 345.551 340.635 C 340.256 335.733 339.346 328.685 339.975 321.878 C 341.026 314.738 344.031 306.275 348.889 296.954 C 358.615 278.316 375.389 256.125 396.819 234.694 L 398.233 233.278 L 398.897 233.944 C 355.84 277.006 336.535 320.946 350.885 335.299 L 345.551 340.635 Z " fill="rgb(70,119,186)"/><path d=" M 504.254 179.27 C 509.549 184.172 510.451 191.218 509.824 198.028 C 508.775 205.167 505.772 213.628 500.908 222.949 C 491.188 241.588 474.416 263.782 452.986 285.213 L 451.568 286.629 L 450.897 285.965 C 493.963 242.895 513.272 198.958 498.916 184.607 L 504.254 179.27 Z " fill="rgb(70,119,186)"/><path d=" M 505.582 180.606 C 500.678 175.308 493.633 174.398 486.824 175.026 C 479.684 176.078 471.223 179.085 461.902 183.943 C 443.266 193.662 421.072 210.441 399.639 231.869 L 398.225 233.285 L 398.893 233.952 C 441.953 190.889 485.893 171.585 500.248 185.937 L 505.582 180.606 Z " fill="rgb(70,119,186)"/><path d=" M 345.551 179.275 C 340.256 184.175 339.346 191.218 339.975 198.032 C 341.026 205.171 344.031 213.634 348.889 222.953 C 358.615 241.588 375.389 263.782 396.819 285.215 L 398.233 286.628 L 398.897 285.964 C 355.84 242.901 336.535 198.958 350.885 184.608 L 345.551 179.275 Z " fill="rgb(70,119,186)"/><path d=" M 344.219 180.606 C 349.121 175.308 356.168 174.401 362.973 175.029 C 370.119 176.082 378.578 179.085 387.901 183.945 C 406.539 193.667 428.729 210.444 450.162 231.87 L 451.578 233.288 L 450.912 233.954 C 407.848 190.89 363.905 171.586 349.555 185.941 L 344.219 180.607 L 344.219 180.606 Z " fill="rgb(70,119,186)"/><path d=" M 505.582 339.303 C 500.678 344.6 493.633 345.507 486.824 344.882 C 479.684 343.829 471.223 340.824 461.902 335.965 C 443.266 326.245 421.072 309.469 399.639 288.036 L 398.225 286.622 L 398.893 285.955 C 441.953 329.02 485.893 348.323 500.248 333.971 L 505.582 339.299 L 505.582 339.303 Z " fill="rgb(70,119,186)"/><path d=" M 504.254 340.635 C 509.549 335.733 510.451 328.689 509.824 321.882 C 508.775 314.741 505.772 306.275 500.908 296.956 C 491.188 278.316 474.416 256.125 452.986 234.694 L 451.568 233.278 L 450.897 233.946 C 493.963 277.006 513.272 320.95 498.916 335.302 L 504.254 340.635 Z " fill="rgb(70,119,186)"/><path d=" M 425.844 146.798 C 418.631 146.518 413.012 150.857 408.635 156.115 C 404.328 161.91 400.469 170.016 397.313 180.043 C 391.012 200.098 387.178 227.651 387.178 257.959 L 387.178 259.962 L 388.121 259.962 C 388.121 199.06 405.543 154.342 425.844 154.342 L 425.844 146.798 Z " fill="rgb(70,119,186)"/><path d=" M 423.957 146.798 C 431.17 146.518 436.791 150.857 441.166 156.115 C 445.471 161.91 449.334 170.016 452.48 180.043 C 458.785 200.098 462.623 227.651 462.623 257.959 L 462.623 259.962 L 461.676 259.962 C 461.676 199.06 444.252 154.342 423.957 154.342 L 423.957 146.798 Z " fill="rgb(70,119,186)"/><path d=" M 425.844 373.111 C 418.631 373.392 413.012 369.052 408.635 363.793 C 404.328 357.999 400.469 349.891 397.313 339.867 C 391.012 319.814 387.178 292.255 387.178 261.948 L 387.178 259.948 L 388.121 259.948 C 388.121 320.848 405.543 365.568 425.844 365.568 L 425.844 373.111 Z " fill="rgb(70,119,186)"/><path d=" M 423.957 373.111 C 431.17 373.392 436.791 369.052 441.166 363.793 C 445.471 357.999 449.334 349.891 452.48 339.867 C 458.785 319.814 462.623 292.255 462.623 261.948 L 462.623 259.948 L 461.676 259.948 C 461.676 320.848 444.252 365.568 423.957 365.568 L 423.957 373.111 Z " fill="rgb(70,119,186)"/></g><clipPath id="_clipPath_L4bqWgC71eQksFpVabyxmhLHOiP1ZNKy"><path d=" M 0 0 L 626.4 0 L 626.4 720 L 0 720 L 0 0 Z " fill="rgb(255,255,255)"/></clipPath><g clip-path="url(#_clipPath_L4bqWgC71eQksFpVabyxmhLHOiP1ZNKy)"><path d=" M 346.5 299.116 L 346.5 299.133 C 302.329 203.447 456.832 132.143 500.973 227.831 C 545.148 323.493 390.639 394.783 346.5 299.116 Z  M 579.004 298.695 C 574.844 289.632 558.666 286.829 550.158 283.897 C 543.539 281.61 539.682 282.683 540.686 275.33 C 542.045 265.46 542.084 255.425 540.822 245.504 C 538.805 230.227 582.734 235.128 575.91 211.527 C 573.447 203.061 565.447 182.772 557.373 179.708 C 547.678 176.016 533.096 186.333 524.725 190.39 C 516.395 194.375 515.312 187.398 509.234 181.29 C 503.656 175.726 487.846 168.025 490.754 161.055 C 498.773 141.857 508.674 124.907 484.043 116.501 C 475.633 113.219 463.141 105.836 455.104 112.563 C 447.482 118.961 444.869 134.155 441.738 143.097 C 438.881 151.19 432.801 147.275 424.814 147.337 C 417.838 147.403 400.754 152.644 398.301 146.557 C 391.955 130.827 386.08 106.497 364.791 116.335 L 364.736 116.349 C 356.65 120.073 342.08 123.869 338.725 132.58 C 335.012 142.518 345.9 157.885 350.041 166.488 C 353.807 174.346 346.232 175.726 340.363 181.211 C 337.645 183.768 324.271 200.959 322.428 200.227 C 312.972 196.464 298.825 187.835 288.282 189.541 C 277.964 191.255 275.478 205.604 272.516 214.12 C 265.484 232.056 272.478 237.842 288.699 243.532 C 293.693 245.311 298.729 247.086 303.761 248.851 C 301.953 259.549 301.671 270.519 303.019 281.277 C 304.343 292.011 305.889 291.525 296.473 295.644 C 291.016 298.022 285.062 300.09 279.992 303.282 C 266.583 311.611 275.329 324.709 280.253 335.598 C 288.365 353.526 297.034 353.649 313.195 345.88 C 318.082 343.543 322.969 341.174 327.875 338.845 C 334.547 346.918 342.389 353.981 351.084 359.875 C 356.414 363.506 361.139 362.783 358.287 369.6 C 356.285 374.424 354.346 379.334 352.445 384.256 C 349.727 391.491 345.191 401.598 352.035 408.108 C 357.625 413.448 379.338 421.442 387.07 421.033 C 399.113 420.375 402.082 402.487 405.227 393.446 C 406.781 388.944 408.311 384.44 409.906 379.948 C 420.748 380.674 431.672 379.918 442.316 377.785 C 449.76 376.303 447.893 377.455 450.395 383.658 C 452.068 387.844 453.873 391.994 455.703 396.147 C 459.098 403.824 462.936 417.219 473.338 417.578 C 481.73 417.864 495.357 410.026 502.822 405.86 C 520.293 396.102 503.77 373.756 497.574 361.428 C 494.559 355.495 492.418 355.915 498.162 351.104 C 502.242 347.71 506.098 344.036 509.721 340.159 C 513.33 336.236 516.676 332.124 519.748 327.787 C 523.291 329.418 526.889 330.976 530.504 332.432 C 544.736 338.248 563.994 349.752 571.674 329.989 C 575.037 321.438 582.766 307.257 579.004 298.695 Z " fill="rgb(156,158,160)"/><path d=" M 346.5 299.116 L 346.5 299.133 C 302.329 203.447 456.832 132.143 500.973 227.831 C 545.148 323.493 390.639 394.783 346.5 299.116 Z  M 579.004 298.695 C 574.844 289.632 558.666 286.829 550.158 283.897 C 543.539 281.61 539.682 282.683 540.686 275.33 C 542.045 265.46 542.084 255.425 540.822 245.504 C 538.805 230.227 582.734 235.128 575.91 211.527 C 573.447 203.061 565.447 182.772 557.373 179.708 C 547.678 176.016 533.096 186.333 524.725 190.39 C 516.395 194.375 515.312 187.398 509.234 181.29 C 503.656 175.726 487.846 168.025 490.754 161.055 C 498.773 141.857 508.674 124.907 484.043 116.501 C 475.633 113.219 463.141 105.836 455.104 112.563 C 447.482 118.961 444.869 134.155 441.738 143.097 C 438.881 151.19 432.801 147.275 424.814 147.337 C 417.838 147.403 400.754 152.644 398.301 146.557 C 391.955 130.827 386.08 106.497 364.791 116.335 L 364.736 116.349 C 356.65 120.073 342.08 123.869 338.725 132.58 C 335.012 142.518 345.9 157.885 350.041 166.488 C 353.807 174.346 346.232 175.726 340.363 181.211 C 337.645 183.768 324.271 200.959 322.428 200.227 C 312.972 196.464 298.825 187.835 288.282 189.541 C 277.964 191.255 275.478 205.604 272.516 214.12 C 265.484 232.056 272.478 237.842 288.699 243.532 C 293.693 245.311 298.729 247.086 303.761 248.851 C 301.953 259.549 301.671 270.519 303.019 281.277 C 304.343 292.011 305.889 291.525 296.473 295.644 C 291.016 298.022 285.062 300.09 279.992 303.282 C 266.583 311.611 275.329 324.709 280.253 335.598 C 288.365 353.526 297.034 353.649 313.195 345.88 C 318.082 343.543 322.969 341.174 327.875 338.845 C 334.547 346.918 342.389 353.981 351.084 359.875 C 356.414 363.506 361.139 362.783 358.287 369.6 C 356.285 374.424 354.346 379.334 352.445 384.256 C 349.727 391.491 345.191 401.598 352.035 408.108 C 357.625 413.448 379.338 421.442 387.07 421.033 C 399.113 420.375 402.082 402.487 405.227 393.446 C 406.781 388.944 408.311 384.44 409.906 379.948 C 420.748 380.674 431.672 379.918 442.316 377.785 C 449.76 376.303 447.893 377.455 450.395 383.658 C 452.068 387.844 453.873 391.994 455.703 396.147 C 459.098 403.824 462.936 417.219 473.338 417.578 C 481.73 417.864 495.357 410.026 502.822 405.86 C 520.293 396.102 503.77 373.756 497.574 361.428 C 494.559 355.495 492.418 355.915 498.162 351.104 C 502.242 347.71 506.098 344.036 509.721 340.159 C 513.33 336.236 516.676 332.124 519.748 327.787 C 523.291 329.418 526.889 330.976 530.504 332.432 C 544.736 338.248 563.994 349.752 571.674 329.989 C 575.037 321.438 582.766 307.257 579.004 298.695 Z " fill-rule="evenodd" fill="none" vector-effect="non-scaling-stroke" stroke-width="5" stroke="rgb(42,42,42)" stroke-linejoin="miter" stroke-linecap="square" stroke-miterlimit="3"/></g></g><g><path d=" M 579.305 326.617 L 578.71 338.939 L 578.71 338.939 Q 577.775 338.686 576.882 338.601 L 576.882 338.601 L 576.882 338.601 Q 575.99 338.517 575.14 338.517 L 575.14 338.517 L 575.14 338.517 Q 572.335 338.517 570.422 339.534 L 570.422 339.534 L 570.422 339.534 Q 568.51 340.551 567.362 341.992 L 567.362 341.992 L 567.362 341.992 Q 566.215 343.434 565.705 345.129 L 565.705 345.129 L 565.705 345.129 Q 565.195 346.824 565.195 348.096 L 565.195 348.096 L 565.195 369.797 L 551.255 369.797 L 551.255 327.512 L 564.685 327.512 L 564.685 333.638 L 564.855 333.638 L 564.855 333.638 Q 566.47 330.385 569.445 328.331 L 569.445 328.331 L 569.445 328.331 Q 572.42 326.277 576.33 326.277 L 576.33 326.277 L 576.33 326.277 Q 577.18 326.277 577.987 326.362 L 577.987 326.362 L 577.987 326.362 Q 578.795 326.447 579.305 326.617 L 579.305 326.617 Z  M 542.415 348.462 L 542.415 348.462 L 542.415 348.462 Q 542.415 353.647 540.545 357.854 L 540.545 357.854 L 540.545 357.854 Q 538.675 362.062 535.445 364.994 L 535.445 364.994 L 535.445 364.994 Q 532.215 367.927 527.965 369.542 L 527.965 369.542 L 527.965 369.542 Q 523.715 371.157 518.87 371.157 L 518.87 371.157 L 518.87 371.157 Q 514.11 371.157 509.817 369.542 L 509.817 369.542 L 509.817 369.542 Q 505.525 367.927 502.337 364.994 L 502.337 364.994 L 502.337 364.994 Q 499.15 362.062 497.28 357.854 L 497.28 357.854 L 497.28 357.854 Q 495.41 353.647 495.41 348.462 L 495.41 348.462 L 495.41 348.462 Q 495.41 343.277 497.28 339.112 L 497.28 339.112 L 497.28 339.112 Q 499.15 334.947 502.337 332.057 L 502.337 332.057 L 502.337 332.057 Q 505.525 329.167 509.817 327.637 L 509.817 327.637 L 509.817 327.637 Q 514.11 326.107 518.87 326.107 L 518.87 326.107 L 518.87 326.107 Q 523.715 326.107 527.965 327.637 L 527.965 327.637 L 527.965 327.637 Q 532.215 329.167 535.445 332.057 L 535.445 332.057 L 535.445 332.057 Q 538.675 334.947 540.545 339.112 L 540.545 339.112 L 540.545 339.112 Q 542.415 343.277 542.415 348.462 Z  M 528.985 348.462 L 528.985 348.462 L 528.985 348.462 Q 528.985 346.422 528.305 344.467 L 528.305 344.467 L 528.305 344.467 Q 527.625 342.512 526.35 341.024 L 526.35 341.024 L 526.35 341.024 Q 525.075 339.537 523.205 338.602 L 523.205 338.602 L 523.205 338.602 Q 521.335 337.667 518.87 337.667 L 518.87 337.667 L 518.87 337.667 Q 516.405 337.667 514.535 338.602 L 514.535 338.602 L 514.535 338.602 Q 512.665 339.537 511.432 341.024 L 511.432 341.024 L 511.432 341.024 Q 510.2 342.512 509.562 344.467 L 509.562 344.467 L 509.562 344.467 Q 508.925 346.422 508.925 348.462 L 508.925 348.462 L 508.925 348.462 Q 508.925 350.502 509.562 352.457 L 509.562 352.457 L 509.562 352.457 Q 510.2 354.412 511.475 355.984 L 511.475 355.984 L 511.475 355.984 Q 512.75 357.557 514.62 358.492 L 514.62 358.492 L 514.62 358.492 Q 516.49 359.427 518.955 359.427 L 518.955 359.427 L 518.955 359.427 Q 521.42 359.427 523.29 358.492 L 523.29 358.492 L 523.29 358.492 Q 525.16 357.557 526.435 355.984 L 526.435 355.984 L 526.435 355.984 Q 527.71 354.412 528.347 352.457 L 528.347 352.457 L 528.347 352.457 Q 528.985 350.502 528.985 348.462 Z  M 489.97 332.057 L 482.32 339.962 L 482.32 339.962 Q 480.62 338.347 478.325 337.242 L 478.325 337.242 L 478.325 337.242 Q 476.03 336.137 473.48 336.137 L 473.48 336.137 L 473.48 336.137 Q 471.525 336.137 469.867 336.902 L 469.867 336.902 L 469.867 336.902 Q 468.21 337.667 468.21 339.537 L 468.21 339.537 L 468.21 339.537 Q 468.21 341.322 470.037 342.087 L 470.037 342.087 L 470.037 342.087 Q 471.865 342.852 475.945 343.787 L 475.945 343.787 L 475.945 343.787 Q 478.325 344.297 480.747 345.232 L 480.747 345.232 L 480.747 345.232 Q 483.17 346.167 485.125 347.697 L 485.125 347.697 L 485.125 347.697 Q 487.08 349.227 488.27 351.437 L 488.27 351.437 L 488.27 351.437 Q 489.46 353.647 489.46 356.707 L 489.46 356.707 L 489.46 356.707 Q 489.46 360.702 487.845 363.464 L 487.845 363.464 L 487.845 363.464 Q 486.23 366.227 483.637 367.927 L 483.637 367.927 L 483.637 367.927 Q 481.045 369.627 477.815 370.392 L 477.815 370.392 L 477.815 370.392 Q 474.585 371.157 471.355 371.157 L 471.355 371.157 L 471.355 371.157 Q 466.17 371.157 461.197 369.499 L 461.197 369.499 L 461.197 369.499 Q 456.225 367.842 452.91 364.612 L 452.91 364.612 L 460.73 356.367 L 460.73 356.367 Q 462.6 358.407 465.32 359.767 L 465.32 359.767 L 465.32 359.767 Q 468.04 361.127 471.1 361.127 L 471.1 361.127 L 471.1 361.127 Q 472.8 361.127 474.457 360.319 L 474.457 360.319 L 474.457 360.319 Q 476.115 359.512 476.115 357.472 L 476.115 357.472 L 476.115 357.472 Q 476.115 355.517 474.075 354.582 L 474.075 354.582 L 474.075 354.582 Q 472.035 353.647 467.7 352.627 L 467.7 352.627 L 467.7 352.627 Q 465.49 352.117 463.28 351.267 L 463.28 351.267 L 463.28 351.267 Q 461.07 350.417 459.327 348.972 L 459.327 348.972 L 459.327 348.972 Q 457.585 347.527 456.48 345.402 L 456.48 345.402 L 456.48 345.402 Q 455.375 343.277 455.375 340.302 L 455.375 340.302 L 455.375 340.302 Q 455.375 336.477 456.99 333.799 L 456.99 333.799 L 456.99 333.799 Q 458.605 331.122 461.155 329.422 L 461.155 329.422 L 461.155 329.422 Q 463.705 327.722 466.807 326.914 L 466.807 326.914 L 466.807 326.914 Q 469.91 326.107 472.97 326.107 L 472.97 326.107 L 472.97 326.107 Q 477.73 326.107 482.277 327.594 L 482.277 327.594 L 482.277 327.594 Q 486.825 329.082 489.97 332.057 L 489.97 332.057 Z  M 449.85 332.057 L 442.2 339.962 L 442.2 339.962 Q 440.5 338.347 438.205 337.242 L 438.205 337.242 L 438.205 337.242 Q 435.91 336.137 433.36 336.137 L 433.36 336.137 L 433.36 336.137 Q 431.405 336.137 429.747 336.902 L 429.747 336.902 L 429.747 336.902 Q 428.09 337.667 428.09 339.537 L 428.09 339.537 L 428.09 339.537 Q 428.09 341.322 429.917 342.087 L 429.917 342.087 L 429.917 342.087 Q 431.745 342.852 435.825 343.787 L 435.825 343.787 L 435.825 343.787 Q 438.205 344.297 440.627 345.232 L 440.627 345.232 L 440.627 345.232 Q 443.05 346.167 445.005 347.697 L 445.005 347.697 L 445.005 347.697 Q 446.96 349.227 448.15 351.437 L 448.15 351.437 L 448.15 351.437 Q 449.34 353.647 449.34 356.707 L 449.34 356.707 L 449.34 356.707 Q 449.34 360.702 447.725 363.464 L 447.725 363.464 L 447.725 363.464 Q 446.11 366.227 443.517 367.927 L 443.517 367.927 L 443.517 367.927 Q 440.925 369.627 437.695 370.392 L 437.695 370.392 L 437.695 370.392 Q 434.465 371.157 431.235 371.157 L 431.235 371.157 L 431.235 371.157 Q 426.05 371.157 421.077 369.499 L 421.077 369.499 L 421.077 369.499 Q 416.105 367.842 412.79 364.612 L 412.79 364.612 L 420.61 356.367 L 420.61 356.367 Q 422.48 358.407 425.2 359.767 L 425.2 359.767 L 425.2 359.767 Q 427.92 361.127 430.98 361.127 L 430.98 361.127 L 430.98 361.127 Q 432.68 361.127 434.337 360.319 L 434.337 360.319 L 434.337 360.319 Q 435.995 359.512 435.995 357.472 L 435.995 357.472 L 435.995 357.472 Q 435.995 355.517 433.955 354.582 L 433.955 354.582 L 433.955 354.582 Q 431.915 353.647 427.58 352.627 L 427.58 352.627 L 427.58 352.627 Q 425.37 352.117 423.16 351.267 L 423.16 351.267 L 423.16 351.267 Q 420.95 350.417 419.207 348.972 L 419.207 348.972 L 419.207 348.972 Q 417.465 347.527 416.36 345.402 L 416.36 345.402 L 416.36 345.402 Q 415.255 343.277 415.255 340.302 L 415.255 340.302 L 415.255 340.302 Q 415.255 336.477 416.87 333.799 L 416.87 333.799 L 416.87 333.799 Q 418.485 331.122 421.035 329.422 L 421.035 329.422 L 421.035 329.422 Q 423.585 327.722 426.687 326.914 L 426.687 326.914 L 426.687 326.914 Q 429.79 326.107 432.85 326.107 L 432.85 326.107 L 432.85 326.107 Q 437.61 326.107 442.157 327.594 L 442.157 327.594 L 442.157 327.594 Q 446.705 329.082 449.85 332.057 L 449.85 332.057 Z  M 377.855 343.787 L 395.79 343.787 L 395.79 343.787 Q 395.79 340.472 393.707 338.092 L 393.707 338.092 L 393.707 338.092 Q 391.625 335.712 387.46 335.712 L 387.46 335.712 L 387.46 335.712 Q 385.42 335.712 383.72 336.349 L 383.72 336.349 L 383.72 336.349 Q 382.02 336.987 380.745 338.092 L 380.745 338.092 L 380.745 338.092 Q 379.47 339.197 378.705 340.684 L 378.705 340.684 L 378.705 340.684 Q 377.94 342.172 377.855 343.787 L 377.855 343.787 Z  M 408.625 349.142 L 408.625 349.142 L 408.625 349.142 Q 408.625 349.992 408.625 350.842 L 408.625 350.842 L 408.625 350.842 Q 408.625 351.692 408.54 352.457 L 408.54 352.457 L 377.855 352.457 L 377.855 352.457 Q 378.025 354.242 378.917 355.687 L 378.917 355.687 L 378.917 355.687 Q 379.81 357.132 381.212 358.194 L 381.212 358.194 L 381.212 358.194 Q 382.615 359.257 384.357 359.852 L 384.357 359.852 L 384.357 359.852 Q 386.1 360.447 387.97 360.447 L 387.97 360.447 L 387.97 360.447 Q 391.285 360.447 393.58 359.214 L 393.58 359.214 L 393.58 359.214 Q 395.875 357.982 397.32 356.027 L 397.32 356.027 L 407.01 362.147 L 407.01 362.147 Q 404.035 366.482 399.147 368.819 L 399.147 368.819 L 399.147 368.819 Q 394.26 371.157 387.8 371.157 L 387.8 371.157 L 387.8 371.157 Q 383.04 371.157 378.79 369.669 L 378.79 369.669 L 378.79 369.669 Q 374.54 368.182 371.352 365.334 L 371.352 365.334 L 371.352 365.334 Q 368.165 362.487 366.337 358.322 L 366.337 358.322 L 366.337 358.322 Q 364.51 354.157 364.51 348.802 L 364.51 348.802 L 364.51 348.802 Q 364.51 343.617 366.295 339.409 L 366.295 339.409 L 366.295 339.409 Q 368.08 335.202 371.14 332.269 L 371.14 332.269 L 371.14 332.269 Q 374.2 329.337 378.365 327.722 L 378.365 327.722 L 378.365 327.722 Q 382.53 326.107 387.375 326.107 L 387.375 326.107 L 387.375 326.107 Q 392.05 326.107 395.96 327.679 L 395.96 327.679 L 395.96 327.679 Q 399.87 329.252 402.675 332.227 L 402.675 332.227 L 402.675 332.227 Q 405.48 335.202 407.052 339.452 L 407.052 339.452 L 407.052 339.452 Q 408.625 343.702 408.625 349.142 Z  M 361.162 331.802 L 353.09 341.152 L 353.09 341.152 Q 351.9 339.622 349.862 338.687 L 349.862 338.687 L 349.862 338.687 Q 347.823 337.752 345.7 337.752 L 345.7 337.752 L 345.7 337.752 Q 343.493 337.752 341.711 338.644 L 341.711 338.644 L 341.711 338.644 Q 339.929 339.537 338.659 341.024 L 338.659 341.024 L 338.659 341.024 Q 337.388 342.512 336.669 344.467 L 336.669 344.467 L 336.669 344.467 Q 335.95 346.422 335.95 348.632 L 335.95 348.632 L 335.95 348.632 Q 335.95 350.842 336.626 352.797 L 336.626 352.797 L 336.626 352.797 Q 337.303 354.752 338.616 356.239 L 338.616 356.239 L 338.616 356.239 Q 339.929 357.727 341.754 358.577 L 341.754 358.577 L 341.754 358.577 Q 343.578 359.427 345.87 359.427 L 345.87 359.427 L 345.87 359.427 Q 347.993 359.427 350.074 358.619 L 350.074 358.619 L 350.074 358.619 Q 352.155 357.812 353.43 356.282 L 353.43 356.282 L 361.162 365.717 L 361.162 365.717 Q 358.527 368.267 354.364 369.712 L 354.364 369.712 L 354.364 369.712 Q 350.201 371.157 345.53 371.157 L 345.53 371.157 L 345.53 371.157 Q 340.523 371.157 336.184 369.627 L 336.184 369.627 L 336.184 369.627 Q 331.845 368.097 328.639 365.164 L 328.639 365.164 L 328.639 365.164 Q 325.432 362.232 323.593 358.067 L 323.593 358.067 L 323.593 358.067 Q 321.755 353.902 321.755 348.632 L 321.755 348.632 L 321.755 348.632 Q 321.755 343.447 323.593 339.282 L 323.593 339.282 L 323.593 339.282 Q 325.432 335.117 328.639 332.184 L 328.639 332.184 L 328.639 332.184 Q 331.845 329.252 336.184 327.679 L 336.184 327.679 L 336.184 327.679 Q 340.523 326.107 345.445 326.107 L 345.445 326.107 L 345.445 326.107 Q 347.738 326.107 349.989 326.532 L 349.989 326.532 L 349.989 326.532 Q 352.24 326.957 354.322 327.679 L 354.322 327.679 L 354.322 327.679 Q 356.403 328.402 358.145 329.464 L 358.145 329.464 L 358.145 329.464 Q 359.887 330.527 361.162 331.802 L 361.162 331.802 Z  M 315.04 348.462 L 315.04 348.462 L 315.04 348.462 Q 315.04 353.647 313.17 357.854 L 313.17 357.854 L 313.17 357.854 Q 311.3 362.062 308.07 364.994 L 308.07 364.994 L 308.07 364.994 Q 304.84 367.927 300.59 369.542 L 300.59 369.542 L 300.59 369.542 Q 296.34 371.157 291.495 371.157 L 291.495 371.157 L 291.495 371.157 Q 286.735 371.157 282.442 369.542 L 282.442 369.542 L 282.442 369.542 Q 278.15 367.927 274.962 364.994 L 274.962 364.994 L 274.962 364.994 Q 271.775 362.062 269.905 357.854 L 269.905 357.854 L 269.905 357.854 Q 268.035 353.647 268.035 348.462 L 268.035 348.462 L 268.035 348.462 Q 268.035 343.277 269.905 339.112 L 269.905 339.112 L 269.905 339.112 Q 271.775 334.947 274.962 332.057 L 274.962 332.057 L 274.962 332.057 Q 278.15 329.167 282.442 327.637 L 282.442 327.637 L 282.442 327.637 Q 286.735 326.107 291.495 326.107 L 291.495 326.107 L 291.495 326.107 Q 296.34 326.107 300.59 327.637 L 300.59 327.637 L 300.59 327.637 Q 304.84 329.167 308.07 332.057 L 308.07 332.057 L 308.07 332.057 Q 311.3 334.947 313.17 339.112 L 313.17 339.112 L 313.17 339.112 Q 315.04 343.277 315.04 348.462 Z  M 301.61 348.462 L 301.61 348.462 L 301.61 348.462 Q 301.61 346.422 300.93 344.467 L 300.93 344.467 L 300.93 344.467 Q 300.25 342.512 298.975 341.024 L 298.975 341.024 L 298.975 341.024 Q 297.7 339.537 295.83 338.602 L 295.83 338.602 L 295.83 338.602 Q 293.96 337.667 291.495 337.667 L 291.495 337.667 L 291.495 337.667 Q 289.03 337.667 287.16 338.602 L 287.16 338.602 L 287.16 338.602 Q 285.29 339.537 284.057 341.024 L 284.057 341.024 L 284.057 341.024 Q 282.825 342.512 282.187 344.467 L 282.187 344.467 L 282.187 344.467 Q 281.55 346.422 281.55 348.462 L 281.55 348.462 L 281.55 348.462 Q 281.55 350.502 282.187 352.457 L 282.187 352.457 L 282.187 352.457 Q 282.825 354.412 284.1 355.984 L 284.1 355.984 L 284.1 355.984 Q 285.375 357.557 287.245 358.492 L 287.245 358.492 L 287.245 358.492 Q 289.115 359.427 291.58 359.427 L 291.58 359.427 L 291.58 359.427 Q 294.045 359.427 295.915 358.492 L 295.915 358.492 L 295.915 358.492 Q 297.785 357.557 299.06 355.984 L 299.06 355.984 L 299.06 355.984 Q 300.335 354.412 300.972 352.457 L 300.972 352.457 L 300.972 352.457 Q 301.61 350.502 301.61 348.462 Z  M 264.55 326.617 L 263.955 338.939 L 263.955 338.939 Q 263.02 338.686 262.127 338.601 L 262.127 338.601 L 262.127 338.601 Q 261.235 338.517 260.385 338.517 L 260.385 338.517 L 260.385 338.517 Q 257.58 338.517 255.667 339.534 L 255.667 339.534 L 255.667 339.534 Q 253.755 340.551 252.607 341.992 L 252.607 341.992 L 252.607 341.992 Q 251.46 343.434 250.95 345.129 L 250.95 345.129 L 250.95 345.129 Q 250.44 346.824 250.44 348.096 L 250.44 348.096 L 250.44 369.797 L 236.5 369.797 L 236.5 327.512 L 249.93 327.512 L 249.93 333.638 L 250.1 333.638 L 250.1 333.638 Q 251.715 330.385 254.69 328.331 L 254.69 328.331 L 254.69 328.331 Q 257.665 326.277 261.575 326.277 L 261.575 326.277 L 261.575 326.277 Q 262.425 326.277 263.232 326.362 L 263.232 326.362 L 263.232 326.362 Q 264.04 326.447 264.55 326.617 L 264.55 326.617 Z  M 227.745 348.462 L 227.745 348.462 L 227.745 348.462 Q 227.745 352.882 226.385 356.962 L 226.385 356.962 L 226.385 356.962 Q 225.025 361.042 222.432 364.144 L 222.432 364.144 L 222.432 364.144 Q 219.84 367.247 216.1 369.117 L 216.1 369.117 L 216.1 369.117 Q 212.36 370.987 207.6 370.987 L 207.6 370.987 L 207.6 370.987 Q 203.69 370.987 200.205 369.414 L 200.205 369.414 L 200.205 369.414 Q 196.72 367.842 194.765 365.122 L 194.765 365.122 L 194.595 365.122 L 194.595 390.197 L 180.655 390.197 L 180.655 327.467 L 193.915 327.467 L 193.915 332.652 L 194.17 332.652 L 194.17 332.652 Q 196.125 330.102 199.567 328.189 L 199.567 328.189 L 199.567 328.189 Q 203.01 326.277 207.685 326.277 L 207.685 326.277 L 207.685 326.277 Q 212.275 326.277 216.015 328.062 L 216.015 328.062 L 216.015 328.062 Q 219.755 329.847 222.347 332.907 L 222.347 332.907 L 222.347 332.907 Q 224.94 335.967 226.342 340.004 L 226.342 340.004 L 226.342 340.004 Q 227.745 344.042 227.745 348.462 Z  M 214.23 348.462 L 214.23 348.462 L 214.23 348.462 Q 214.23 346.422 213.592 344.467 L 213.592 344.467 L 213.592 344.467 Q 212.955 342.512 211.722 341.024 L 211.722 341.024 L 211.722 341.024 Q 210.49 339.537 208.62 338.602 L 208.62 338.602 L 208.62 338.602 Q 206.75 337.667 204.285 337.667 L 204.285 337.667 L 204.285 337.667 Q 201.905 337.667 200.035 338.602 L 200.035 338.602 L 200.035 338.602 Q 198.165 339.537 196.847 341.067 L 196.847 341.067 L 196.847 341.067 Q 195.53 342.597 194.807 344.552 L 194.807 344.552 L 194.807 344.552 Q 194.085 346.507 194.085 348.547 L 194.085 348.547 L 194.085 348.547 Q 194.085 350.587 194.807 352.542 L 194.807 352.542 L 194.807 352.542 Q 195.53 354.497 196.847 356.027 L 196.847 356.027 L 196.847 356.027 Q 198.165 357.557 200.035 358.492 L 200.035 358.492 L 200.035 358.492 Q 201.905 359.427 204.285 359.427 L 204.285 359.427 L 204.285 359.427 Q 206.75 359.427 208.62 358.492 L 208.62 358.492 L 208.62 358.492 Q 210.49 357.557 211.722 356.027 L 211.722 356.027 L 211.722 356.027 Q 212.955 354.497 213.592 352.499 L 213.592 352.499 L 213.592 352.499 Q 214.23 350.502 214.23 348.462 Z  M 171.815 348.462 L 171.815 348.462 L 171.815 348.462 Q 171.815 353.647 169.945 357.854 L 169.945 357.854 L 169.945 357.854 Q 168.075 362.062 164.845 364.994 L 164.845 364.994 L 164.845 364.994 Q 161.615 367.927 157.365 369.542 L 157.365 369.542 L 157.365 369.542 Q 153.115 371.157 148.27 371.157 L 148.27 371.157 L 148.27 371.157 Q 143.51 371.157 139.217 369.542 L 139.217 369.542 L 139.217 369.542 Q 134.925 367.927 131.737 364.994 L 131.737 364.994 L 131.737 364.994 Q 128.55 362.062 126.68 357.854 L 126.68 357.854 L 126.68 357.854 Q 124.81 353.647 124.81 348.462 L 124.81 348.462 L 124.81 348.462 Q 124.81 343.277 126.68 339.112 L 126.68 339.112 L 126.68 339.112 Q 128.55 334.947 131.737 332.057 L 131.737 332.057 L 131.737 332.057 Q 134.925 329.167 139.217 327.637 L 139.217 327.637 L 139.217 327.637 Q 143.51 326.107 148.27 326.107 L 148.27 326.107 L 148.27 326.107 Q 153.115 326.107 157.365 327.637 L 157.365 327.637 L 157.365 327.637 Q 161.615 329.167 164.845 332.057 L 164.845 332.057 L 164.845 332.057 Q 168.075 334.947 169.945 339.112 L 169.945 339.112 L 169.945 339.112 Q 171.815 343.277 171.815 348.462 Z  M 158.385 348.462 L 158.385 348.462 L 158.385 348.462 Q 158.385 346.422 157.705 344.467 L 157.705 344.467 L 157.705 344.467 Q 157.025 342.512 155.75 341.024 L 155.75 341.024 L 155.75 341.024 Q 154.475 339.537 152.605 338.602 L 152.605 338.602 L 152.605 338.602 Q 150.735 337.667 148.27 337.667 L 148.27 337.667 L 148.27 337.667 Q 145.805 337.667 143.935 338.602 L 143.935 338.602 L 143.935 338.602 Q 142.065 339.537 140.832 341.024 L 140.832 341.024 L 140.832 341.024 Q 139.6 342.512 138.962 344.467 L 138.962 344.467 L 138.962 344.467 Q 138.325 346.422 138.325 348.462 L 138.325 348.462 L 138.325 348.462 Q 138.325 350.502 138.962 352.457 L 138.962 352.457 L 138.962 352.457 Q 139.6 354.412 140.875 355.984 L 140.875 355.984 L 140.875 355.984 Q 142.15 357.557 144.02 358.492 L 144.02 358.492 L 144.02 358.492 Q 145.89 359.427 148.355 359.427 L 148.355 359.427 L 148.355 359.427 Q 150.82 359.427 152.69 358.492 L 152.69 358.492 L 152.69 358.492 Q 154.56 357.557 155.835 355.984 L 155.835 355.984 L 155.835 355.984 Q 157.11 354.412 157.747 352.457 L 157.747 352.457 L 157.747 352.457 Q 158.385 350.502 158.385 348.462 Z  M 119.37 332.057 L 111.72 339.962 L 111.72 339.962 Q 110.02 338.347 107.725 337.242 L 107.725 337.242 L 107.725 337.242 Q 105.43 336.137 102.88 336.137 L 102.88 336.137 L 102.88 336.137 Q 100.925 336.137 99.267 336.902 L 99.267 336.902 L 99.267 336.902 Q 97.61 337.667 97.61 339.537 L 97.61 339.537 L 97.61 339.537 Q 97.61 341.322 99.437 342.087 L 99.437 342.087 L 99.437 342.087 Q 101.265 342.852 105.345 343.787 L 105.345 343.787 L 105.345 343.787 Q 107.725 344.297 110.147 345.232 L 110.147 345.232 L 110.147 345.232 Q 112.57 346.167 114.525 347.697 L 114.525 347.697 L 114.525 347.697 Q 116.48 349.227 117.67 351.437 L 117.67 351.437 L 117.67 351.437 Q 118.86 353.647 118.86 356.707 L 118.86 356.707 L 118.86 356.707 Q 118.86 360.702 117.245 363.464 L 117.245 363.464 L 117.245 363.464 Q 115.63 366.227 113.037 367.927 L 113.037 367.927 L 113.037 367.927 Q 110.445 369.627 107.215 370.392 L 107.215 370.392 L 107.215 370.392 Q 103.985 371.157 100.755 371.157 L 100.755 371.157 L 100.755 371.157 Q 95.57 371.157 90.597 369.499 L 90.597 369.499 L 90.597 369.499 Q 85.625 367.842 82.31 364.612 L 82.31 364.612 L 90.13 356.367 L 90.13 356.367 Q 92 358.407 94.72 359.767 L 94.72 359.767 L 94.72 359.767 Q 97.44 361.127 100.5 361.127 L 100.5 361.127 L 100.5 361.127 Q 102.2 361.127 103.857 360.319 L 103.857 360.319 L 103.857 360.319 Q 105.515 359.512 105.515 357.472 L 105.515 357.472 L 105.515 357.472 Q 105.515 355.517 103.475 354.582 L 103.475 354.582 L 103.475 354.582 Q 101.435 353.647 97.1 352.627 L 97.1 352.627 L 97.1 352.627 Q 94.89 352.117 92.68 351.267 L 92.68 351.267 L 92.68 351.267 Q 90.47 350.417 88.727 348.972 L 88.727 348.972 L 88.727 348.972 Q 86.985 347.527 85.88 345.402 L 85.88 345.402 L 85.88 345.402 Q 84.775 343.277 84.775 340.302 L 84.775 340.302 L 84.775 340.302 Q 84.775 336.477 86.39 333.799 L 86.39 333.799 L 86.39 333.799 Q 88.005 331.122 90.555 329.422 L 90.555 329.422 L 90.555 329.422 Q 93.105 327.722 96.207 326.914 L 96.207 326.914 L 96.207 326.914 Q 99.31 326.107 102.37 326.107 L 102.37 326.107 L 102.37 326.107 Q 107.13 326.107 111.677 327.594 L 111.677 327.594 L 111.677 327.594 Q 116.225 329.082 119.37 332.057 L 119.37 332.057 Z  M 76.785 313.952 L 76.785 313.952 L 76.785 313.952 Q 76.785 315.567 76.147 316.969 L 76.147 316.969 L 76.147 316.969 Q 75.51 318.372 74.447 319.392 L 74.447 319.392 L 74.447 319.392 Q 73.385 320.412 71.897 321.007 L 71.897 321.007 L 71.897 321.007 Q 70.41 321.602 68.795 321.602 L 68.795 321.602 L 68.795 321.602 Q 65.395 321.602 63.1 319.349 L 63.1 319.349 L 63.1 319.349 Q 60.805 317.097 60.805 313.952 L 60.805 313.952 L 60.805 313.952 Q 60.805 312.422 61.4 311.019 L 61.4 311.019 L 61.4 311.019 Q 61.995 309.617 63.1 308.597 L 63.1 308.597 L 63.1 308.597 Q 64.205 307.577 65.65 306.939 L 65.65 306.939 L 65.65 306.939 Q 67.095 306.302 68.795 306.302 L 68.795 306.302 L 68.795 306.302 Q 70.41 306.302 71.897 306.897 L 71.897 306.897 L 71.897 306.897 Q 73.385 307.492 74.447 308.512 L 74.447 308.512 L 74.447 308.512 Q 75.51 309.532 76.147 310.934 L 76.147 310.934 L 76.147 310.934 Q 76.785 312.337 76.785 313.952 Z  M 75.765 369.797 L 61.825 369.797 L 61.825 327.467 L 75.765 327.467 L 75.765 369.797 Z " fill-rule="evenodd" fill="rgb(254,254,254)"/><path d=" M 504.923 588.111 L 504.923 588.111 L 504.923 588.111 Q 505.971 589.924 505.646 591.469 L 505.646 591.469 L 505.646 591.469 Q 505.321 593.015 503.711 593.945 L 503.711 593.945 L 503.711 593.945 Q 502.716 594.52 501.675 594.498 L 501.675 594.498 L 501.675 594.498 Q 500.635 594.477 499.711 593.847 L 499.711 593.847 L 499.711 593.847 Q 498.787 593.216 498.111 592.046 L 498.111 592.046 L 498.111 592.046 Q 497.064 590.233 497.386 588.698 L 497.386 588.698 L 497.386 588.698 Q 497.708 587.163 499.318 586.233 L 499.318 586.233 L 499.318 586.233 Q 500.874 585.334 502.389 585.84 L 502.389 585.84 L 502.389 585.84 Q 503.903 586.345 504.923 588.111 Z  M 499.275 591.374 L 499.275 591.374 L 499.275 591.374 Q 500.096 592.795 501.094 593.21 L 501.094 593.21 L 501.094 593.21 Q 502.092 593.626 503.194 592.989 L 503.194 592.989 L 503.194 592.989 Q 504.297 592.352 504.441 591.281 L 504.441 591.281 L 504.441 591.281 Q 504.584 590.21 503.76 588.783 L 503.76 588.783 L 503.76 588.783 Q 502.943 587.369 501.947 586.965 L 501.947 586.965 L 501.947 586.965 Q 500.952 586.562 499.835 587.206 L 499.835 587.206 L 499.835 587.206 Q 498.733 587.843 498.59 588.892 L 498.59 588.892 L 498.59 588.892 Q 498.446 589.94 499.275 591.374 Z  M 508.058 581.184 L 508.058 581.184 L 508.058 581.184 Q 508.552 580.898 508.991 580.753 L 508.991 580.753 L 509.438 581.884 L 509.438 581.884 Q 508.919 582.049 508.567 582.252 L 508.567 582.252 L 508.567 582.252 Q 507.667 582.772 507.45 583.872 L 507.45 583.872 L 507.45 583.872 Q 507.233 584.972 507.862 586.061 L 507.862 586.061 L 510.16 590.038 L 509.037 590.687 L 504.754 583.273 L 505.681 582.738 L 506.603 584.037 L 506.657 584.005 L 506.657 584.005 Q 506.651 583.043 507.006 582.315 L 507.006 582.315 L 507.006 582.315 Q 507.361 581.586 508.058 581.184 Z  M 513.913 577.981 L 516.477 576.5 L 516.888 577.21 L 515.608 578.166 L 515.608 578.166 Q 515.934 578.293 516.304 578.59 L 516.304 578.59 L 516.304 578.59 Q 516.674 578.886 516.951 579.366 L 516.951 579.366 L 516.951 579.366 Q 517.58 580.455 517.211 581.534 L 517.211 581.534 L 517.211 581.534 Q 516.843 582.614 515.544 583.364 L 515.544 583.364 L 515.544 583.364 Q 515.212 583.556 514.89 583.67 L 514.89 583.67 L 514.89 583.67 Q 514.392 584.463 514.724 585.038 L 514.724 585.038 L 514.724 585.038 Q 514.9 585.342 515.234 585.343 L 515.234 585.343 L 515.234 585.343 Q 515.569 585.344 516.177 584.992 L 516.177 584.992 L 517.49 584.234 L 517.49 584.234 Q 518.694 583.538 519.633 583.672 L 519.633 583.672 L 519.633 583.672 Q 520.572 583.806 521.131 584.774 L 521.131 584.774 L 521.131 584.774 Q 521.842 586.005 521.228 587.222 L 521.228 587.222 L 521.228 587.222 Q 520.614 588.438 518.719 589.533 L 518.719 589.533 L 518.719 589.533 Q 517.265 590.373 516.164 590.287 L 516.164 590.287 L 516.164 590.287 Q 515.064 590.201 514.493 589.213 L 514.493 589.213 L 514.493 589.213 Q 514.102 588.537 514.25 587.793 L 514.25 587.793 L 514.25 587.793 Q 514.397 587.049 515.08 586.42 L 515.08 586.42 L 515.08 586.42 Q 514.722 586.455 514.373 586.296 L 514.373 586.296 L 514.373 586.296 Q 514.024 586.137 513.817 585.779 L 513.817 585.779 L 513.817 585.779 Q 513.582 585.373 513.623 584.943 L 513.623 584.943 L 513.623 584.943 Q 513.663 584.514 513.966 583.96 L 513.966 583.96 L 513.966 583.96 Q 513.254 584.055 512.564 583.696 L 512.564 583.696 L 512.564 583.696 Q 511.874 583.337 511.452 582.607 L 511.452 582.607 L 511.452 582.607 Q 510.748 581.389 511.098 580.307 L 511.098 580.307 L 511.098 580.307 Q 511.447 579.226 512.787 578.452 L 512.787 578.452 L 512.787 578.452 Q 513.369 578.116 513.913 577.981 L 513.913 577.981 Z  M 515.567 588.575 L 515.567 588.575 L 515.567 588.575 Q 515.915 589.177 516.602 589.195 L 516.602 589.195 L 516.602 589.195 Q 517.29 589.213 518.237 588.666 L 518.237 588.666 L 518.237 588.666 Q 519.65 587.849 520.086 587.033 L 520.086 587.033 L 520.086 587.033 Q 520.522 586.218 520.103 585.494 L 520.103 585.494 L 520.103 585.494 Q 519.756 584.892 519.249 584.873 L 519.249 584.873 L 519.249 584.873 Q 518.742 584.855 517.714 585.449 L 517.714 585.449 L 516.367 586.227 L 516.367 586.227 Q 515.603 586.668 515.388 587.28 L 515.388 587.28 L 515.388 587.28 Q 515.173 587.891 515.567 588.575 Z  M 512.546 581.938 L 512.546 581.938 L 512.546 581.938 Q 512.995 582.716 513.665 582.862 L 513.665 582.862 L 513.665 582.862 Q 514.336 583.007 515.12 582.553 L 515.12 582.553 L 515.12 582.553 Q 516.764 581.604 515.842 580.007 L 515.842 580.007 L 515.842 580.007 Q 514.876 578.336 513.212 579.298 L 513.212 579.298 L 513.212 579.298 Q 512.421 579.755 512.241 580.427 L 512.241 580.427 L 512.241 580.427 Q 512.061 581.1 512.546 581.938 Z  M 440.591 620.343 L 444.875 627.757 L 443.752 628.406 L 439.468 620.992 L 440.591 620.343 Z  M 438.213 619.037 L 438.213 619.037 L 438.213 619.037 Q 437.99 618.652 438.076 618.363 L 438.076 618.363 L 438.076 618.363 Q 438.162 618.074 438.446 617.91 L 438.446 617.91 L 438.446 617.91 Q 438.716 617.754 439.018 617.823 L 439.018 617.823 L 439.018 617.823 Q 439.32 617.892 439.539 618.271 L 439.539 618.271 L 439.539 618.271 Q 439.757 618.65 439.669 618.949 L 439.669 618.949 L 439.669 618.949 Q 439.58 619.249 439.309 619.405 L 439.309 619.405 L 439.309 619.405 Q 439.025 619.569 438.728 619.493 L 438.728 619.493 L 438.728 619.493 Q 438.432 619.416 438.213 619.037 Z  M 450.87 621.595 L 450.87 621.595 L 450.87 621.595 Q 451.468 622.63 451.021 623.638 L 451.021 623.638 L 451.021 623.638 Q 450.574 624.645 449.181 625.45 L 449.181 625.45 L 449.181 625.45 Q 447.706 626.302 446.611 626.312 L 446.611 626.312 L 446.009 625.27 L 446.009 625.27 Q 446.7 625.232 447.402 625.034 L 447.402 625.034 L 447.402 625.034 Q 448.104 624.836 448.672 624.507 L 448.672 624.507 L 448.672 624.507 Q 449.552 623.999 449.863 623.445 L 449.863 623.445 L 449.863 623.445 Q 450.174 622.891 449.842 622.315 L 449.842 622.315 L 449.842 622.315 Q 449.592 621.883 449.039 621.792 L 449.039 621.792 L 449.039 621.792 Q 448.485 621.701 447.154 621.911 L 447.154 621.911 L 447.154 621.911 Q 445.896 622.123 445.294 622.088 L 445.294 622.088 L 445.294 622.088 Q 444.691 622.052 444.267 621.81 L 444.267 621.81 L 444.267 621.81 Q 443.843 621.568 443.55 621.06 L 443.55 621.06 L 443.55 621.06 Q 443.026 620.154 443.461 619.204 L 443.461 619.204 L 443.461 619.204 Q 443.895 618.253 445.181 617.511 L 445.181 617.511 L 445.181 617.511 Q 446.378 616.819 447.802 616.646 L 447.802 616.646 L 447.931 617.789 L 447.931 617.789 Q 446.549 617.974 445.643 618.498 L 445.643 618.498 L 445.643 618.498 Q 444.844 618.959 444.583 619.444 L 444.583 619.444 L 444.583 619.444 Q 444.322 619.929 444.576 620.369 L 444.576 620.369 L 444.576 620.369 Q 444.748 620.666 445.021 620.788 L 445.021 620.788 L 445.021 620.788 Q 445.295 620.91 445.742 620.904 L 445.742 620.904 L 445.742 620.904 Q 446.19 620.898 447.358 620.701 L 447.358 620.701 L 447.358 620.701 Q 448.954 620.419 449.699 620.639 L 449.699 620.639 L 449.699 620.639 Q 450.444 620.858 450.87 621.595 Z  M 458.119 615.152 L 458.119 615.152 L 458.119 615.152 Q 459.166 616.965 458.841 618.51 L 458.841 618.51 L 458.841 618.51 Q 458.516 620.056 456.906 620.986 L 456.906 620.986 L 456.906 620.986 Q 455.911 621.561 454.871 621.54 L 454.871 621.54 L 454.871 621.54 Q 453.83 621.518 452.906 620.888 L 452.906 620.888 L 452.906 620.888 Q 451.983 620.258 451.306 619.087 L 451.306 619.087 L 451.306 619.087 Q 450.259 617.275 450.581 615.74 L 450.581 615.74 L 450.581 615.74 Q 450.903 614.205 452.513 613.274 L 452.513 613.274 L 452.513 613.274 Q 454.069 612.375 455.584 612.881 L 455.584 612.881 L 455.584 612.881 Q 457.098 613.386 458.119 615.152 Z  M 452.47 618.415 L 452.47 618.415 L 452.47 618.415 Q 453.291 619.836 454.289 620.252 L 454.289 620.252 L 454.289 620.252 Q 455.287 620.667 456.39 620.03 L 456.39 620.03 L 456.39 620.03 Q 457.492 619.393 457.636 618.322 L 457.636 618.322 L 457.636 618.322 Q 457.78 617.251 456.955 615.824 L 456.955 615.824 L 456.955 615.824 Q 456.138 614.41 455.143 614.007 L 455.143 614.007 L 455.143 614.007 Q 454.147 613.603 453.031 614.248 L 453.031 614.248 L 453.031 614.248 Q 451.928 614.885 451.785 615.933 L 451.785 615.933 L 451.785 615.933 Q 451.641 616.981 452.47 618.415 Z  M 465.169 616.032 L 463.856 616.79 L 456.759 611.002 L 457.963 610.306 L 462.1 613.781 L 462.1 613.781 Q 463.532 615.011 463.892 615.416 L 463.892 615.416 L 463.946 615.385 L 463.946 615.385 Q 463.814 614.983 463.559 613.628 L 463.559 613.628 L 463.559 613.628 Q 463.304 612.273 462.495 607.688 L 462.495 607.688 L 463.699 606.992 L 465.169 616.032 Z  M 472.383 612.044 L 472.383 612.044 L 472.383 612.044 Q 470.74 612.994 469.211 612.542 L 469.211 612.542 L 469.211 612.542 Q 467.682 612.09 466.654 610.311 L 466.654 610.311 L 466.654 610.311 Q 465.618 608.518 465.891 606.953 L 465.891 606.953 L 465.891 606.953 Q 466.165 605.387 467.653 604.528 L 467.653 604.528 L 467.653 604.528 Q 469.046 603.723 470.388 604.17 L 470.388 604.17 L 470.388 604.17 Q 471.729 604.618 472.597 606.12 L 472.597 606.12 L 473.007 606.83 L 467.9 609.781 L 467.9 609.781 Q 468.688 611.067 469.704 611.382 L 469.704 611.382 L 469.704 611.382 Q 470.721 611.697 471.857 611.04 L 471.857 611.04 L 471.857 611.04 Q 473.055 610.348 473.936 609.171 L 473.936 609.171 L 474.514 610.173 L 474.514 610.173 Q 474.067 610.774 473.601 611.192 L 473.601 611.192 L 473.601 611.192 Q 473.134 611.61 472.383 612.044 Z  M 468.183 605.476 L 468.183 605.476 L 468.183 605.476 Q 467.29 605.992 467.095 606.88 L 467.095 606.88 L 467.095 606.88 Q 466.9 607.769 467.399 608.852 L 467.399 608.852 L 471.275 606.612 L 471.275 606.612 Q 470.662 605.55 469.862 605.259 L 469.862 605.259 L 469.862 605.259 Q 469.062 604.968 468.183 605.476 Z  M 475.967 599.724 L 475.967 599.724 L 475.967 599.724 Q 476.46 599.439 476.9 599.294 L 476.9 599.294 L 477.346 600.425 L 477.346 600.425 Q 476.827 600.59 476.476 600.793 L 476.476 600.793 L 476.476 600.793 Q 475.576 601.313 475.359 602.412 L 475.359 602.412 L 475.359 602.412 Q 475.142 603.512 475.771 604.602 L 475.771 604.602 L 478.069 608.579 L 476.946 609.228 L 472.662 601.814 L 473.589 601.278 L 474.511 602.577 L 474.565 602.546 L 474.565 602.546 Q 474.56 601.584 474.915 600.855 L 474.915 600.855 L 474.915 600.855 Q 475.27 600.127 475.967 599.724 Z  M 486.215 601.175 L 486.215 601.175 L 486.215 601.175 Q 486.813 602.21 486.366 603.217 L 486.366 603.217 L 486.366 603.217 Q 485.92 604.224 484.526 605.029 L 484.526 605.029 L 484.526 605.029 Q 483.051 605.881 481.956 605.891 L 481.956 605.891 L 481.355 604.849 L 481.355 604.849 Q 482.045 604.811 482.747 604.613 L 482.747 604.613 L 482.747 604.613 Q 483.449 604.415 484.018 604.087 L 484.018 604.087 L 484.018 604.087 Q 484.897 603.578 485.208 603.024 L 485.208 603.024 L 485.208 603.024 Q 485.52 602.47 485.188 601.895 L 485.188 601.895 L 485.188 601.895 Q 484.937 601.462 484.384 601.371 L 484.384 601.371 L 484.384 601.371 Q 483.831 601.28 482.499 601.49 L 482.499 601.49 L 482.499 601.49 Q 481.242 601.702 480.639 601.667 L 480.639 601.667 L 480.639 601.667 Q 480.037 601.631 479.613 601.389 L 479.613 601.389 L 479.613 601.389 Q 479.189 601.147 478.895 600.64 L 478.895 600.64 L 478.895 600.64 Q 478.372 599.733 478.806 598.783 L 478.806 598.783 L 478.806 598.783 Q 479.241 597.833 480.526 597.09 L 480.526 597.09 L 480.526 597.09 Q 481.723 596.398 483.148 596.225 L 483.148 596.225 L 483.276 597.369 L 483.276 597.369 Q 481.895 597.554 480.988 598.077 L 480.988 598.077 L 480.988 598.077 Q 480.19 598.539 479.929 599.023 L 479.929 599.023 L 479.929 599.023 Q 479.667 599.508 479.921 599.948 L 479.921 599.948 L 479.921 599.948 Q 480.093 600.245 480.367 600.367 L 480.367 600.367 L 480.367 600.367 Q 480.64 600.489 481.088 600.483 L 481.088 600.483 L 481.088 600.483 Q 481.535 600.477 482.703 600.281 L 482.703 600.281 L 482.703 600.281 Q 484.3 599.999 485.044 600.218 L 485.044 600.218 L 485.044 600.218 Q 485.789 600.437 486.215 601.175 Z  M 492.42 600.468 L 492.42 600.468 L 492.42 600.468 Q 490.777 601.418 489.248 600.966 L 489.248 600.966 L 489.248 600.966 Q 487.719 600.514 486.691 598.734 L 486.691 598.734 L 486.691 598.734 Q 485.655 596.942 485.928 595.377 L 485.928 595.377 L 485.928 595.377 Q 486.202 593.811 487.69 592.951 L 487.69 592.951 L 487.69 592.951 Q 489.083 592.146 490.425 592.594 L 490.425 592.594 L 490.425 592.594 Q 491.766 593.042 492.634 594.543 L 492.634 594.543 L 493.044 595.254 L 487.937 598.204 L 487.937 598.204 Q 488.725 599.49 489.741 599.805 L 489.741 599.805 L 489.741 599.805 Q 490.758 600.12 491.894 599.464 L 491.894 599.464 L 491.894 599.464 Q 493.092 598.772 493.973 597.595 L 493.973 597.595 L 494.551 598.596 L 494.551 598.596 Q 494.104 599.197 493.638 599.616 L 493.638 599.616 L 493.638 599.616 Q 493.171 600.034 492.42 600.468 Z  M 488.219 593.899 L 488.219 593.899 L 488.219 593.899 Q 487.327 594.415 487.132 595.304 L 487.132 595.304 L 487.132 595.304 Q 486.937 596.193 487.436 597.275 L 487.436 597.275 L 491.312 595.036 L 491.312 595.036 Q 490.699 593.974 489.899 593.683 L 489.899 593.683 L 489.899 593.683 Q 489.099 593.391 488.219 593.899 Z  M 496.406 597.028 L 496.406 597.028 L 496.406 597.028 Q 496.144 596.575 496.216 596.223 L 496.216 596.223 L 496.216 596.223 Q 496.287 595.87 496.673 595.647 L 496.673 595.647 L 496.673 595.647 Q 497.065 595.421 497.42 595.527 L 497.42 595.527 L 497.42 595.527 Q 497.775 595.633 498.037 596.086 L 498.037 596.086 L 498.037 596.086 Q 498.291 596.526 498.204 596.892 L 498.204 596.892 L 498.204 596.892 Q 498.118 597.258 497.732 597.48 L 497.732 597.48 L 497.732 597.48 Q 497.387 597.68 497.037 597.598 L 497.037 597.598 L 497.037 597.598 Q 496.688 597.515 496.406 597.028 Z  M 436.676 632.494 L 435.343 633.264 L 431.47 629.7 L 431.47 629.7 Q 431.111 629.375 429.943 628.164 L 429.943 628.164 L 429.889 628.195 L 429.889 628.195 Q 430.302 629.536 430.47 630.295 L 430.47 630.295 L 431.575 635.441 L 430.276 636.191 L 423.97 629.945 L 425.147 629.265 L 425.147 629.265 Q 427.478 631.645 428.698 632.889 L 428.698 632.889 L 428.698 632.889 Q 429.918 634.134 430.265 634.61 L 430.265 634.61 L 430.319 634.578 L 430.319 634.578 Q 430.171 634.15 429.983 633.442 L 429.983 633.442 L 429.983 633.442 Q 429.795 632.734 429.709 632.305 L 429.709 632.305 L 428.611 627.264 L 429.828 626.561 L 433.613 630.05 L 433.613 630.05 Q 434.664 630.995 435.256 631.708 L 435.256 631.708 L 435.31 631.677 L 435.31 631.677 Q 435.197 631.417 435.022 630.842 L 435.022 630.842 L 435.022 630.842 Q 434.847 630.266 433.278 624.568 L 433.278 624.568 L 434.442 623.896 L 436.676 632.494 Z  M 439.488 629.912 L 439.488 629.912 L 439.488 629.912 Q 439.226 629.459 439.298 629.107 L 439.298 629.107 L 439.298 629.107 Q 439.369 628.754 439.755 628.531 L 439.755 628.531 L 439.755 628.531 Q 440.147 628.305 440.502 628.411 L 440.502 628.411 L 440.502 628.411 Q 440.857 628.517 441.119 628.971 L 441.119 628.971 L 441.119 628.971 Q 441.373 629.41 441.286 629.776 L 441.286 629.776 L 441.286 629.776 Q 441.2 630.142 440.814 630.365 L 440.814 630.365 L 440.814 630.365 Q 440.469 630.564 440.119 630.482 L 440.119 630.482 L 440.119 630.482 Q 439.77 630.4 439.488 629.912 Z  M 425.891 638.725 L 424.558 639.495 L 420.685 635.931 L 420.685 635.931 Q 420.326 635.606 419.158 634.395 L 419.158 634.395 L 419.103 634.427 L 419.103 634.427 Q 419.517 635.767 419.685 636.527 L 419.685 636.527 L 420.79 641.672 L 419.491 642.422 L 413.185 636.177 L 414.362 635.497 L 414.362 635.497 Q 416.693 637.876 417.913 639.12 L 417.913 639.12 L 417.913 639.12 Q 419.133 640.365 419.48 640.841 L 419.48 640.841 L 419.534 640.809 L 419.534 640.809 Q 419.386 640.381 419.198 639.673 L 419.198 639.673 L 419.198 639.673 Q 419.01 638.965 418.924 638.536 L 418.924 638.536 L 417.826 633.495 L 419.043 632.792 L 422.827 636.281 L 422.827 636.281 Q 423.879 637.226 424.471 637.939 L 424.471 637.939 L 424.525 637.908 L 424.525 637.908 Q 424.412 637.648 424.237 637.073 L 424.237 637.073 L 424.237 637.073 Q 424.062 636.497 422.493 630.799 L 422.493 630.799 L 423.657 630.127 L 425.891 638.725 Z  M 415.106 644.956 L 413.773 645.726 L 409.9 642.162 L 409.9 642.162 Q 409.541 641.837 408.372 640.626 L 408.372 640.626 L 408.318 640.658 L 408.318 640.658 Q 408.732 641.998 408.9 642.758 L 408.9 642.758 L 410.005 647.903 L 408.706 648.653 L 402.4 642.408 L 403.577 641.728 L 403.577 641.728 Q 405.908 644.107 407.128 645.351 L 407.128 645.351 L 407.128 645.351 Q 408.347 646.596 408.695 647.072 L 408.695 647.072 L 408.749 647.04 L 408.749 647.04 Q 408.6 646.612 408.413 645.904 L 408.413 645.904 L 408.413 645.904 Q 408.225 645.196 408.139 644.767 L 408.139 644.767 L 407.041 639.727 L 408.258 639.023 L 412.042 642.512 L 412.042 642.512 Q 413.093 643.457 413.686 644.17 L 413.686 644.17 L 413.74 644.139 L 413.74 644.139 Q 413.626 643.88 413.452 643.304 L 413.452 643.304 L 413.452 643.304 Q 413.277 642.728 411.708 637.03 L 411.708 637.03 L 412.872 636.358 L 415.106 644.956 Z " fill-rule="evenodd" fill="rgb(254,254,254)"/></g></g></svg>