<?xml version="1.0" encoding="UTF-8" standalone="no"?><!-- Generator: Gravit.io --><svg xmlns="http://www.w3.org/2000/svg" xmlns:xlink="http://www.w3.org/1999/xlink" style="isolation:isolate" viewBox="0 0 626.4 720" width="626.4pt" height="720pt"><defs><clipPath id="_clipPath_kKrW12jdimweZNyg1dbnfz6yNMMe6TJS"><rect x="0" y="0" width="626.4" height="720"/></clipPath></defs><g clip-path="url(#_clipPath_kKrW12jdimweZNyg1dbnfz6yNMMe6TJS)"><clipPath id="_clipPath_q2hd5U27UEoP8eEbBhRM4mNf21ipJTdp"><path d=" M 0 0 L 626.4 0 L 626.4 720 L 0 720 L 0 0 Z " fill="rgb(255,255,255)"/></clipPath><g clip-path="url(#_clipPath_q2hd5U27UEoP8eEbBhRM4mNf21ipJTdp)"><g opacity="0.5"><path d=" M 601.872 525.81 L 308.1 695.419 L 14.328 525.81 L 14.328 186.592 L 308.1 16.983 L 601.872 186.592 L 601.872 525.81 Z " fill="rgb(43,142,79)"/></g><path d=" M 623.03 538.27 L 314.26 716.54 L 5.49 538.27 L 5.49 181.73 L 314.26 3.46 L 623.03 181.73 L 623.03 538.27 Z  M 593.03 520.95 L 314.26 681.9 L 35.49 520.95 L 35.49 199.05 L 314.26 38.1 L 593.03 199.05 L 593.03 520.95 Z " fill-rule="evenodd" fill="rgb(43,142,79)"/></g><g><path d=" M 351.468 318.49 C 277.595 316.986 210.935 353.925 156.277 385.756 L 66.197 245.82 C 154.925 191.766 187.235 179.47 241.183 213.84 L 351.468 318.49 Z " fill="rgb(155,199,137)"/><path d=" M 562.327 268.93 C 490.546 269.635 419.374 263.409 373.972 315.558 L 247.599 198.459 C 279.618 153.811 338.591 152.45 411.8 159.063 L 417.533 161.517 L 562.327 268.93 Z " fill="rgb(155,199,137)"/><clipPath id="_clipPath_ChzdilSZqyMtfC5UiPZOAGviyA6gB0NM"><path d=" M 61.034 245.423 L 151.115 385.36 C 205.772 353.528 272.433 316.591 346.306 318.095 L 346.306 318.095 L 236.02 213.443 C 215.751 200.53 198.543 194.204 180.243 194.206 L 180.243 194.206 C 149.836 194.209 116.425 211.679 61.034 245.423 Z " fill="rgb(255,255,255)"/></clipPath><g clip-path="url(#_clipPath_ChzdilSZqyMtfC5UiPZOAGviyA6gB0NM)"><path d=" M 227.404 281.449 C 227.404 285.773 223.902 289.275 219.578 289.275 C 215.257 289.275 211.753 285.773 211.753 281.449 C 211.753 277.127 215.257 273.625 219.578 273.625 C 223.902 273.625 227.404 277.127 227.404 281.449 Z " fill="rgb(169,171,174)"/><path d=" M 227.404 281.449 C 227.404 285.773 223.902 289.275 219.578 289.275 C 215.257 289.275 211.753 285.773 211.753 281.449 C 211.753 277.127 215.257 273.625 219.578 273.625 C 223.902 273.625 227.404 277.127 227.404 281.449 Z " fill="none" vector-effect="non-scaling-stroke" stroke-width="1" stroke="rgb(42,42,42)" stroke-linejoin="miter" stroke-linecap="square" stroke-miterlimit="3"/><path d=" M 200.451 294.31 C 200.451 298.63 196.945 302.133 192.626 302.133 C 188.306 302.133 184.8 298.63 184.8 294.31 C 184.8 289.987 188.306 286.484 192.626 286.484 C 196.945 286.484 200.451 289.987 200.451 294.31 Z " fill="rgb(169,171,174)"/><path d=" M 200.451 294.31 C 200.451 298.63 196.945 302.133 192.626 302.133 C 188.306 302.133 184.8 298.63 184.8 294.31 C 184.8 289.987 188.306 286.484 192.626 286.484 C 196.945 286.484 200.451 289.987 200.451 294.31 Z " fill="none" vector-effect="non-scaling-stroke" stroke-width="1" stroke="rgb(42,42,42)" stroke-linejoin="miter" stroke-linecap="square" stroke-miterlimit="3"/><path d=" M 226.325 307.358 C 226.325 311.677 222.553 315.183 217.901 315.183 C 213.248 315.183 209.48 311.677 209.48 307.358 C 209.48 303.037 213.248 299.535 217.901 299.535 C 222.553 299.535 226.325 303.037 226.325 307.358 Z " fill="rgb(244,137,57)"/><path d=" M 226.325 307.358 C 226.325 311.677 222.553 315.183 217.901 315.183 C 213.248 315.183 209.48 311.677 209.48 307.358 C 209.48 303.037 213.248 299.535 217.901 299.535 C 222.553 299.535 226.325 303.037 226.325 307.358 Z " fill="none" vector-effect="non-scaling-stroke" stroke-width="1" stroke="rgb(42,42,42)" stroke-linejoin="miter" stroke-linecap="square" stroke-miterlimit="3"/><path d=" M 205.699 283.092 C 205.699 287.416 202.197 290.918 197.873 290.918 C 193.552 290.918 190.052 287.416 190.052 283.092 C 190.052 278.77 193.552 275.27 197.873 275.27 C 202.197 275.27 205.699 278.77 205.699 283.092 Z " fill="rgb(244,137,57)"/><path d=" M 205.699 283.092 C 205.699 287.416 202.197 290.918 197.873 290.918 C 193.552 290.918 190.052 287.416 190.052 283.092 C 190.052 278.77 193.552 275.27 197.873 275.27 C 202.197 275.27 205.699 278.77 205.699 283.092 Z " fill="none" vector-effect="non-scaling-stroke" stroke-width="1" stroke="rgb(42,42,42)" stroke-linejoin="miter" stroke-linecap="square" stroke-miterlimit="3"/><path d=" M 221.206 286.521 C 221.206 290.84 217.704 294.342 213.383 294.342 C 209.059 294.342 205.558 290.84 205.558 286.521 C 205.558 282.198 209.059 278.694 213.383 278.694 C 217.704 278.694 221.206 282.198 221.206 286.521 Z " fill="rgb(244,137,57)"/><path d=" M 221.206 286.521 C 221.206 290.84 217.704 294.342 213.383 294.342 C 209.059 294.342 205.558 290.84 205.558 286.521 C 205.558 282.198 209.059 278.694 213.383 278.694 C 217.704 278.694 221.206 282.198 221.206 286.521 Z " fill="none" vector-effect="non-scaling-stroke" stroke-width="1" stroke="rgb(42,42,42)" stroke-linejoin="miter" stroke-linecap="square" stroke-miterlimit="3"/><path d=" M 232.878 290.959 C 232.878 295.281 229.378 298.783 225.055 298.783 C 220.735 298.783 217.232 295.281 217.232 290.959 C 217.232 286.641 220.735 283.134 225.055 283.134 C 229.378 283.134 232.878 286.641 232.878 290.959 Z " fill="rgb(169,171,174)"/><path d=" M 232.878 290.959 C 232.878 295.281 229.378 298.783 225.055 298.783 C 220.735 298.783 217.232 295.281 217.232 290.959 C 217.232 286.641 220.735 283.134 225.055 283.134 C 229.378 283.134 232.878 286.641 232.878 290.959 Z " fill="none" vector-effect="non-scaling-stroke" stroke-width="1" stroke="rgb(42,42,42)" stroke-linejoin="miter" stroke-linecap="square" stroke-miterlimit="3"/><path d=" M 204.245 304.725 C 204.245 309.047 200.74 312.551 196.418 312.551 C 192.096 312.551 188.594 309.047 188.594 304.725 C 188.594 300.405 192.096 296.903 196.418 296.903 C 200.74 296.903 204.245 300.405 204.245 304.725 Z " fill="rgb(244,137,57)"/><path d=" M 204.245 304.725 C 204.245 309.047 200.74 312.551 196.418 312.551 C 192.096 312.551 188.594 309.047 188.594 304.725 C 188.594 300.405 192.096 296.903 196.418 296.903 C 200.74 296.903 204.245 300.405 204.245 304.725 Z " fill="none" vector-effect="non-scaling-stroke" stroke-width="1" stroke="rgb(42,42,42)" stroke-linejoin="miter" stroke-linecap="square" stroke-miterlimit="3"/><path d=" M 215.935 277.945 C 215.935 282.264 212.431 285.767 208.108 285.767 C 203.789 285.767 200.287 282.264 200.287 277.945 C 200.287 273.623 203.789 270.121 208.108 270.121 C 212.431 270.121 215.935 273.623 215.935 277.945 Z " fill="rgb(169,171,174)"/><path d=" M 215.935 277.945 C 215.935 282.264 212.431 285.767 208.108 285.767 C 203.789 285.767 200.287 282.264 200.287 277.945 C 200.287 273.623 203.789 270.121 208.108 270.121 C 212.431 270.121 215.935 273.623 215.935 277.945 Z " fill="none" vector-effect="non-scaling-stroke" stroke-width="1" stroke="rgb(42,42,42)" stroke-linejoin="miter" stroke-linecap="square" stroke-miterlimit="3"/><path d=" M 231.585 300.795 C 231.585 305.115 228.079 308.619 223.758 308.619 C 219.438 308.619 215.934 305.115 215.934 300.795 C 215.934 296.474 219.438 292.973 223.758 292.973 C 228.079 292.973 231.585 296.474 231.585 300.795 Z " fill="rgb(244,137,57)"/><path d=" M 231.585 300.795 C 231.585 305.115 228.079 308.619 223.758 308.619 C 219.438 308.619 215.934 305.115 215.934 300.795 C 215.934 296.474 219.438 292.973 223.758 292.973 C 228.079 292.973 231.585 296.474 231.585 300.795 Z " fill="none" vector-effect="non-scaling-stroke" stroke-width="1" stroke="rgb(42,42,42)" stroke-linejoin="miter" stroke-linecap="square" stroke-miterlimit="3"/><path d=" M 215.935 310.504 C 215.935 314.828 212.431 318.33 208.108 318.33 C 203.789 318.33 200.287 314.828 200.287 310.504 C 200.287 306.183 203.789 302.678 208.108 302.678 C 212.431 302.678 215.935 306.183 215.935 310.504 Z " fill="rgb(169,171,174)"/><path d=" M 215.935 310.504 C 215.935 314.828 212.431 318.33 208.108 318.33 C 203.789 318.33 200.287 314.828 200.287 310.504 C 200.287 306.183 203.789 302.678 208.108 302.678 C 212.431 302.678 215.935 306.183 215.935 310.504 Z " fill="none" vector-effect="non-scaling-stroke" stroke-width="1" stroke="rgb(42,42,42)" stroke-linejoin="miter" stroke-linecap="square" stroke-miterlimit="3"/><path d=" M 211.871 302.68 C 211.871 307 208.371 310.504 204.048 310.504 C 199.727 310.504 196.222 307 196.222 302.68 C 196.222 298.355 199.727 294.854 204.048 294.854 C 208.371 294.854 211.871 298.355 211.871 302.68 Z " fill="rgb(169,171,174)"/><path d=" M 211.871 302.68 C 211.871 307 208.371 310.504 204.048 310.504 C 199.727 310.504 196.222 307 196.222 302.68 C 196.222 298.355 199.727 294.854 204.048 294.854 C 208.371 294.854 211.871 298.355 211.871 302.68 Z " fill="none" vector-effect="non-scaling-stroke" stroke-width="1" stroke="rgb(42,42,42)" stroke-linejoin="miter" stroke-linecap="square" stroke-miterlimit="3"/><path d=" M 223.048 298.313 C 223.048 302.633 219.546 306.138 215.226 306.138 C 210.902 306.138 207.399 302.633 207.399 298.313 C 207.399 293.991 210.902 290.491 215.226 290.491 C 219.546 290.491 223.048 293.991 223.048 298.313 Z " fill="rgb(169,171,174)"/><path d=" M 223.048 298.313 C 223.048 302.633 219.546 306.138 215.226 306.138 C 210.902 306.138 207.399 302.633 207.399 298.313 C 207.399 293.991 210.902 290.491 215.226 290.491 C 219.546 290.491 223.048 293.991 223.048 298.313 Z " fill="none" vector-effect="non-scaling-stroke" stroke-width="1" stroke="rgb(42,42,42)" stroke-linejoin="miter" stroke-linecap="square" stroke-miterlimit="3"/><path d=" M 212.068 291.119 C 212.068 295.439 208.563 298.943 204.245 298.943 C 199.925 298.943 196.418 295.439 196.418 291.119 C 196.418 286.799 199.925 283.295 204.245 283.295 C 208.563 283.295 212.068 286.799 212.068 291.119 Z " fill="rgb(244,137,57)"/><path d=" M 212.068 291.119 C 212.068 295.439 208.563 298.943 204.245 298.943 C 199.925 298.943 196.418 295.439 196.418 291.119 C 196.418 286.799 199.925 283.295 204.245 283.295 C 208.563 283.295 212.068 286.799 212.068 291.119 Z " fill="none" vector-effect="non-scaling-stroke" stroke-width="1" stroke="rgb(42,42,42)" stroke-linejoin="miter" stroke-linecap="square" stroke-miterlimit="3"/><path d=" M 90.474 293.246 C 90.18 300.787 94.719 306.67 100.219 311.24 C 106.279 315.746 114.761 319.783 125.249 323.079 C 146.221 329.674 175.044 333.684 206.745 333.684 L 208.835 333.684 L 208.835 332.695 C 145.139 332.695 98.362 314.475 98.362 293.246 L 90.475 293.246 L 90.474 293.246 Z " fill="rgb(43,142,79)"/><path d=" M 90.474 295.215 C 90.18 287.672 94.719 281.793 100.219 277.219 C 106.279 272.715 114.761 268.676 125.249 265.379 C 146.221 258.785 175.044 254.777 206.745 254.777 L 208.835 254.777 L 208.835 255.764 C 145.139 255.764 98.362 273.985 98.362 295.215 L 90.475 295.215 L 90.474 295.215 Z " fill="rgb(43,142,79)"/><path d=" M 327.19 293.246 C 327.481 300.787 322.943 306.67 317.443 311.24 C 311.382 315.746 302.903 319.783 292.414 323.079 C 271.44 329.674 242.618 333.684 210.918 333.684 L 208.826 333.684 L 208.826 332.695 C 272.523 332.695 319.299 314.475 319.299 293.246 L 327.186 293.246 L 327.19 293.246 Z " fill="rgb(43,142,79)"/><path d=" M 327.19 295.215 C 327.481 287.672 322.943 281.793 317.443 277.219 C 311.382 272.715 302.903 268.676 292.414 265.379 C 271.44 258.785 242.618 254.777 210.918 254.777 L 208.826 254.777 L 208.826 255.764 C 272.523 255.764 319.299 273.985 319.299 295.215 L 327.186 295.215 L 327.19 295.215 Z " fill="rgb(43,142,79)"/><path d=" M 124.442 377.223 C 129.572 382.763 136.936 383.712 144.061 383.057 C 151.529 381.959 160.38 378.815 170.131 373.731 C 189.624 363.562 212.838 346.018 235.254 323.602 L 236.733 322.121 L 236.037 321.423 C 190.993 366.467 145.035 386.657 130.024 371.645 L 124.442 377.223 Z " fill="rgb(43,142,79)"/><path d=" M 125.836 378.615 C 120.296 373.49 119.347 366.121 120.003 358.998 C 121.105 351.531 124.246 342.678 129.328 332.929 C 139.499 313.435 157.045 290.222 179.461 267.806 L 180.937 266.326 L 181.638 267.023 C 136.596 312.066 116.403 358.025 131.414 373.037 L 125.836 378.615 Z " fill="rgb(43,142,79)"/><path d=" M 291.828 209.84 C 297.368 214.965 298.316 222.334 297.66 229.459 C 296.561 236.924 293.418 245.778 288.334 255.526 C 278.165 275.02 260.62 298.233 238.205 320.651 L 236.724 322.129 L 236.026 321.434 C 281.068 276.389 301.262 230.432 286.248 215.42 L 291.828 209.84 Z " fill="rgb(43,142,79)"/><path d=" M 293.221 211.232 C 288.094 205.691 280.724 204.742 273.603 205.398 C 266.135 206.498 257.282 209.641 247.533 214.724 C 228.043 224.893 204.826 242.441 182.411 264.855 L 180.929 266.334 L 181.629 267.033 C 226.67 221.99 272.629 201.798 287.642 216.81 L 293.221 211.232 Z " fill="rgb(43,142,79)"/><path d=" M 125.836 209.844 C 120.296 214.969 119.347 222.336 120.003 229.461 C 121.105 236.93 124.246 245.782 129.328 255.529 C 139.499 275.022 157.045 298.236 179.461 320.653 L 180.937 322.131 L 181.638 321.435 C 136.596 276.395 116.403 230.434 131.414 215.422 L 125.836 209.844 Z " fill="rgb(43,142,79)"/><path d=" M 124.442 211.234 C 129.572 205.693 136.936 204.745 144.061 205.4 C 151.529 206.501 160.38 209.644 170.131 214.726 C 189.624 224.896 212.838 242.441 235.254 264.857 L 236.733 266.336 L 236.037 267.035 C 190.993 221.992 145.035 201.8 130.024 216.814 L 124.442 211.236 L 124.442 211.234 Z " fill="rgb(43,142,79)"/><path d=" M 293.221 377.225 C 288.094 382.766 280.724 383.715 273.603 383.059 C 266.135 381.959 257.282 378.817 247.533 373.733 C 228.043 363.565 204.826 346.02 182.411 323.602 L 180.929 322.123 L 181.629 321.426 C 226.67 366.469 272.629 386.659 287.642 371.647 L 293.221 377.223 L 293.221 377.225 Z " fill="rgb(43,142,79)"/><path d=" M 291.828 378.617 C 297.368 373.492 298.316 366.123 297.66 359 C 296.561 351.533 293.418 342.679 288.334 332.932 C 278.165 313.437 260.62 290.224 238.205 267.808 L 236.724 266.33 L 236.026 267.025 C 281.068 312.066 301.262 358.027 286.248 373.04 L 291.828 378.617 Z " fill="rgb(43,142,79)"/><path d=" M 209.817 175.873 C 202.274 175.58 196.393 180.117 191.818 185.619 C 187.317 191.678 183.281 200.158 179.981 210.646 C 173.385 231.621 169.377 260.441 169.377 292.143 L 169.377 294.238 L 170.363 294.238 C 170.363 230.537 188.586 183.762 209.817 183.762 L 209.817 175.873 Z " fill="rgb(43,142,79)"/><path d=" M 207.847 175.873 C 215.39 175.58 221.269 180.117 225.842 185.619 C 230.347 191.678 234.386 200.158 237.68 210.646 C 244.274 231.621 248.285 260.441 248.285 292.143 L 248.285 294.238 L 247.297 294.238 C 247.297 230.537 229.075 183.762 207.847 183.762 L 207.847 175.873 Z " fill="rgb(43,142,79)"/><path d=" M 209.817 412.588 C 202.274 412.879 196.393 408.34 191.818 402.84 C 187.317 396.781 183.281 388.301 179.981 377.813 C 173.385 356.84 169.377 328.016 169.377 296.317 L 169.377 294.224 L 170.363 294.224 C 170.363 357.922 188.586 404.697 209.817 404.697 L 209.817 412.588 Z " fill="rgb(43,142,79)"/><path d=" M 207.847 412.588 C 215.39 412.879 221.269 408.34 225.842 402.84 C 230.347 396.781 234.386 388.301 237.68 377.813 C 244.274 356.84 248.285 328.016 248.285 296.317 L 248.285 294.224 L 247.297 294.224 C 247.297 357.922 229.075 404.697 207.847 404.697 L 207.847 412.588 Z " fill="rgb(43,142,79)"/></g><clipPath id="_clipPath_muyrQTrAw0vo2BriQY9TvdqAEraE2AFb"><path d=" M 242.437 198.061 L 368.809 315.161 C 409.391 268.548 470.563 268.575 534.356 268.602 L 534.356 268.602 C 541.931 268.606 549.544 268.609 557.165 268.534 L 557.165 268.534 L 412.37 161.12 L 406.638 158.667 C 387.433 156.932 369.209 155.746 352.193 155.746 L 352.193 155.746 C 304.344 155.746 266.056 165.126 242.437 198.061 Z " fill="rgb(255,255,255)"/></clipPath><g clip-path="url(#_clipPath_muyrQTrAw0vo2BriQY9TvdqAEraE2AFb)"><path d=" M 384.116 233.039 C 384.116 237.342 380.625 240.828 376.324 240.828 C 372.023 240.828 368.531 237.342 368.531 233.039 C 368.531 228.734 372.023 225.246 376.324 225.246 C 380.625 225.246 384.116 228.734 384.116 233.039 Z " fill="rgb(169,171,174)"/><path d=" M 384.116 233.039 C 384.116 237.342 380.625 240.828 376.324 240.828 C 372.023 240.828 368.531 237.342 368.531 233.039 C 368.531 228.734 372.023 225.246 376.324 225.246 C 380.625 225.246 384.116 228.734 384.116 233.039 Z " fill="none" vector-effect="non-scaling-stroke" stroke-width="1" stroke="rgb(42,42,42)" stroke-linejoin="miter" stroke-linecap="square" stroke-miterlimit="3"/><path d=" M 408.701 247.213 C 408.701 251.514 404.945 255.004 400.312 255.004 C 395.679 255.004 391.928 251.514 391.928 247.213 C 391.928 242.91 395.679 239.423 400.312 239.423 C 404.945 239.423 408.701 242.91 408.701 247.213 Z " fill="rgb(244,137,57)"/><path d=" M 408.701 247.213 C 408.701 251.514 404.945 255.004 400.312 255.004 C 395.679 255.004 391.928 251.514 391.928 247.213 C 391.928 242.91 395.679 239.423 400.312 239.423 C 404.945 239.423 408.701 242.91 408.701 247.213 Z " fill="none" vector-effect="non-scaling-stroke" stroke-width="1" stroke="rgb(42,42,42)" stroke-linejoin="miter" stroke-linecap="square" stroke-miterlimit="3"/><path d=" M 389.342 221.869 C 389.342 226.174 385.855 229.661 381.55 229.661 C 377.246 229.661 373.76 226.174 373.76 221.869 C 373.76 217.565 377.246 214.078 381.55 214.078 C 385.855 214.078 389.342 217.565 389.342 221.869 Z " fill="rgb(244,137,57)"/><path d=" M 389.342 221.869 C 389.342 226.174 385.855 229.661 381.55 229.661 C 377.246 229.661 373.76 226.174 373.76 221.869 C 373.76 217.565 377.246 214.078 381.55 214.078 C 385.855 214.078 389.342 217.565 389.342 221.869 Z " fill="none" vector-effect="non-scaling-stroke" stroke-width="1" stroke="rgb(42,42,42)" stroke-linejoin="miter" stroke-linecap="square" stroke-miterlimit="3"/><path d=" M 410.465 219.964 C 410.465 224.266 406.978 227.753 402.675 227.753 C 398.369 227.753 394.884 224.266 394.884 219.964 C 394.884 215.659 398.369 212.17 402.675 212.17 C 406.978 212.17 410.465 215.659 410.465 219.964 Z " fill="rgb(244,137,57)"/><path d=" M 410.465 219.964 C 410.465 224.266 406.978 227.753 402.675 227.753 C 398.369 227.753 394.884 224.266 394.884 219.964 C 394.884 215.659 398.369 212.17 402.675 212.17 C 406.978 212.17 410.465 215.659 410.465 219.964 Z " fill="none" vector-effect="non-scaling-stroke" stroke-width="1" stroke="rgb(42,42,42)" stroke-linejoin="miter" stroke-linecap="square" stroke-miterlimit="3"/><path d=" M 416.407 229.703 C 416.407 234.007 412.922 237.493 408.616 237.493 C 404.315 237.493 400.826 234.007 400.826 229.703 C 400.826 225.401 404.315 221.91 408.616 221.91 C 412.922 221.91 416.407 225.401 416.407 229.703 Z " fill="rgb(169,171,174)"/><path d=" M 416.407 229.703 C 416.407 234.007 412.922 237.493 408.616 237.493 C 404.315 237.493 400.826 234.007 400.826 229.703 C 400.826 225.401 404.315 221.91 408.616 221.91 C 412.922 221.91 416.407 225.401 416.407 229.703 Z " fill="none" vector-effect="non-scaling-stroke" stroke-width="1" stroke="rgb(42,42,42)" stroke-linejoin="miter" stroke-linecap="square" stroke-miterlimit="3"/><path d=" M 387.895 243.41 C 387.895 247.714 384.405 251.203 380.1 251.203 C 375.797 251.203 372.31 247.714 372.31 243.41 C 372.31 239.107 375.797 235.62 380.1 235.62 C 384.405 235.62 387.895 239.107 387.895 243.41 Z " fill="rgb(244,137,57)"/><path d=" M 387.895 243.41 C 387.895 247.714 384.405 251.203 380.1 251.203 C 375.797 251.203 372.31 247.714 372.31 243.41 C 372.31 239.107 375.797 235.62 380.1 235.62 C 384.405 235.62 387.895 239.107 387.895 243.41 Z " fill="none" vector-effect="non-scaling-stroke" stroke-width="1" stroke="rgb(42,42,42)" stroke-linejoin="miter" stroke-linecap="square" stroke-miterlimit="3"/><path d=" M 399.534 216.743 C 399.534 221.045 396.045 224.532 391.74 224.532 C 387.439 224.532 383.952 221.045 383.952 216.743 C 383.952 212.439 387.439 208.952 391.74 208.952 C 396.045 208.952 399.534 212.439 399.534 216.743 Z " fill="rgb(169,171,174)"/><path d=" M 399.534 216.743 C 399.534 221.045 396.045 224.532 391.74 224.532 C 387.439 224.532 383.952 221.045 383.952 216.743 C 383.952 212.439 387.439 208.952 391.74 208.952 C 396.045 208.952 399.534 212.439 399.534 216.743 Z " fill="none" vector-effect="non-scaling-stroke" stroke-width="1" stroke="rgb(42,42,42)" stroke-linejoin="miter" stroke-linecap="square" stroke-miterlimit="3"/><path d=" M 415.118 239.498 C 415.118 243.799 411.627 247.287 407.324 247.287 C 403.022 247.287 399.534 243.799 399.534 239.498 C 399.534 235.193 403.022 231.707 407.324 231.707 C 411.627 231.707 415.118 235.193 415.118 239.498 Z " fill="rgb(244,137,57)"/><path d=" M 415.118 239.498 C 415.118 243.799 411.627 247.287 407.324 247.287 C 403.022 247.287 399.534 243.799 399.534 239.498 C 399.534 235.193 403.022 231.707 407.324 231.707 C 411.627 231.707 415.118 235.193 415.118 239.498 Z " fill="none" vector-effect="non-scaling-stroke" stroke-width="1" stroke="rgb(42,42,42)" stroke-linejoin="miter" stroke-linecap="square" stroke-miterlimit="3"/><path d=" M 397.174 249.165 C 397.174 253.471 393.685 256.958 389.38 256.958 C 385.079 256.958 381.592 253.471 381.592 249.165 C 381.592 244.861 385.079 241.371 389.38 241.371 C 393.685 241.371 397.174 244.861 397.174 249.165 Z " fill="rgb(169,171,174)"/><path d=" M 397.174 249.165 C 397.174 253.471 393.685 256.958 389.38 256.958 C 385.079 256.958 381.592 253.471 381.592 249.165 C 381.592 244.861 385.079 241.371 389.38 241.371 C 393.685 241.371 397.174 244.861 397.174 249.165 Z " fill="none" vector-effect="non-scaling-stroke" stroke-width="1" stroke="rgb(42,42,42)" stroke-linejoin="miter" stroke-linecap="square" stroke-miterlimit="3"/><path d=" M 402.569 240.193 C 402.569 244.495 399.084 247.984 394.779 247.984 C 390.476 247.984 386.986 244.495 386.986 240.193 C 386.986 235.886 390.476 232.4 394.779 232.4 C 399.084 232.4 402.569 235.886 402.569 240.193 Z " fill="rgb(169,171,174)"/><path d=" M 402.569 240.193 C 402.569 244.495 399.084 247.984 394.779 247.984 C 390.476 247.984 386.986 244.495 386.986 240.193 C 386.986 235.886 390.476 232.4 394.779 232.4 C 399.084 232.4 402.569 235.886 402.569 240.193 Z " fill="none" vector-effect="non-scaling-stroke" stroke-width="1" stroke="rgb(42,42,42)" stroke-linejoin="miter" stroke-linecap="square" stroke-miterlimit="3"/><path d=" M 404.257 228.763 C 404.257 233.065 400.769 236.557 396.468 236.557 C 392.163 236.557 388.674 233.065 388.674 228.763 C 388.674 224.46 392.163 220.974 396.468 220.974 C 400.769 220.974 404.257 224.46 404.257 228.763 Z " fill="rgb(169,171,174)"/><path d=" M 404.257 228.763 C 404.257 233.065 400.769 236.557 396.468 236.557 C 392.163 236.557 388.674 233.065 388.674 228.763 C 388.674 224.46 392.163 220.974 396.468 220.974 C 400.769 220.974 404.257 224.46 404.257 228.763 Z " fill="none" vector-effect="non-scaling-stroke" stroke-width="1" stroke="rgb(42,42,42)" stroke-linejoin="miter" stroke-linecap="square" stroke-miterlimit="3"/><path d=" M 394.106 231.042 C 394.106 235.345 390.616 238.832 386.316 238.832 C 382.015 238.832 378.523 235.345 378.523 231.042 C 378.523 226.74 382.015 223.251 386.316 223.251 C 390.616 223.251 394.106 226.74 394.106 231.042 Z " fill="rgb(244,137,57)"/><path d=" M 394.106 231.042 C 394.106 235.345 390.616 238.832 386.316 238.832 C 382.015 238.832 378.523 235.345 378.523 231.042 C 378.523 226.74 382.015 223.251 386.316 223.251 C 390.616 223.251 394.106 226.74 394.106 231.042 Z " fill="none" vector-effect="non-scaling-stroke" stroke-width="1" stroke="rgb(42,42,42)" stroke-linejoin="miter" stroke-linecap="square" stroke-miterlimit="3"/><path d=" M 274.604 231.98 C 274.313 239.49 278.832 245.346 284.309 249.898 C 290.342 254.383 298.789 258.405 309.233 261.686 C 330.116 268.254 358.818 272.246 390.384 272.246 L 392.466 272.246 L 392.466 271.263 C 329.039 271.263 282.46 253.12 282.46 231.98 L 274.605 231.98 L 274.604 231.98 Z " fill="rgb(43,142,79)"/><path d=" M 274.604 233.939 C 274.313 226.43 278.832 220.574 284.309 216.02 C 290.342 211.536 298.789 207.514 309.233 204.23 C 330.116 197.665 358.818 193.673 390.384 193.673 L 392.466 193.673 L 392.466 194.656 C 329.039 194.656 282.46 212.798 282.46 233.939 L 274.605 233.939 L 274.604 233.939 Z " fill="rgb(43,142,79)"/><path d=" M 510.319 231.98 C 510.61 239.49 506.09 245.346 500.613 249.898 C 494.579 254.383 486.134 258.405 475.69 261.686 C 454.805 268.254 426.105 272.246 394.539 272.246 L 392.456 272.246 L 392.456 271.263 C 455.883 271.263 502.462 253.12 502.462 231.98 L 510.315 231.98 L 510.319 231.98 Z " fill="rgb(43,142,79)"/><path d=" M 510.319 233.939 C 510.61 226.43 506.09 220.574 500.613 216.02 C 494.579 211.536 486.134 207.514 475.69 204.23 C 454.805 197.665 426.105 193.673 394.539 193.673 L 392.456 193.673 L 392.456 194.656 C 455.883 194.656 502.462 212.798 502.462 233.939 L 510.315 233.939 L 510.319 233.939 Z " fill="rgb(43,142,79)"/><path d=" M 308.429 315.601 C 313.537 321.119 320.87 322.063 327.965 321.411 C 335.401 320.317 344.215 317.187 353.925 312.123 C 373.335 301.998 396.451 284.528 418.771 262.207 L 420.244 260.733 L 419.552 260.038 C 374.699 304.891 328.934 324.996 313.987 310.047 L 308.429 315.601 Z " fill="rgb(43,142,79)"/><path d=" M 309.817 316.988 C 304.301 311.884 303.356 304.547 304.008 297.453 C 305.105 290.019 308.234 281.203 313.294 271.496 C 323.422 252.084 340.894 228.968 363.214 206.648 L 364.685 205.174 L 365.382 205.869 C 320.531 250.72 300.423 296.485 315.371 311.433 L 309.817 316.988 Z " fill="rgb(43,142,79)"/><path d=" M 475.107 148.926 C 480.623 154.03 481.567 161.368 480.914 168.462 C 479.819 175.897 476.691 184.711 471.628 194.418 C 461.502 213.831 444.03 236.946 421.711 259.269 L 420.237 260.74 L 419.541 260.048 C 464.393 215.195 484.501 169.431 469.551 154.483 L 475.107 148.926 Z " fill="rgb(43,142,79)"/><path d=" M 476.494 150.314 C 471.388 144.796 464.05 143.85 456.959 144.503 C 449.523 145.598 440.706 148.729 431 153.792 C 411.592 163.917 388.473 181.389 366.153 203.71 L 364.677 205.182 L 365.373 205.876 C 410.224 161.025 455.989 140.919 470.939 155.868 L 476.494 150.314 Z " fill="rgb(43,142,79)"/><path d=" M 309.817 148.93 C 304.301 154.034 303.356 161.369 304.008 168.465 C 305.105 175.901 308.234 184.716 313.294 194.422 C 323.422 213.832 340.894 236.949 363.214 259.27 L 364.685 260.743 L 365.382 260.049 C 320.531 215.201 300.423 169.434 315.371 154.485 L 309.817 148.93 Z " fill="rgb(43,142,79)"/><path d=" M 308.429 150.314 C 313.537 144.798 320.87 143.854 327.965 144.505 C 335.401 145.602 344.215 148.732 353.925 153.792 C 373.335 163.919 396.451 181.391 418.771 203.71 L 420.244 205.184 L 419.552 205.878 C 374.699 161.027 328.934 140.921 313.987 155.872 L 308.429 150.316 L 308.429 150.314 Z " fill="rgb(43,142,79)"/><path d=" M 476.494 315.603 C 471.388 321.121 464.05 322.066 456.959 321.414 C 449.523 320.319 440.706 317.188 431 312.125 C 411.592 302 388.473 284.53 366.153 262.207 L 364.677 260.734 L 365.373 260.04 C 410.224 304.893 455.989 324.999 470.939 310.048 L 476.494 315.6 L 476.494 315.603 Z " fill="rgb(43,142,79)"/><path d=" M 475.107 316.99 C 480.623 311.886 481.567 304.549 480.914 297.456 C 479.819 290.02 476.691 281.204 471.628 271.498 C 461.502 252.086 444.03 228.97 421.711 206.649 L 420.237 205.177 L 419.541 205.87 C 464.393 250.72 484.501 296.487 469.551 311.436 L 475.107 316.99 Z " fill="rgb(43,142,79)"/><path d=" M 393.443 115.104 C 385.932 114.812 380.075 119.329 375.521 124.809 C 371.038 130.842 367.019 139.286 363.733 149.73 C 357.166 170.615 353.174 199.314 353.174 230.88 L 353.174 232.967 L 354.156 232.967 C 354.156 169.536 372.301 122.959 393.443 122.959 L 393.443 115.104 Z " fill="rgb(43,142,79)"/><path d=" M 391.481 115.104 C 398.992 114.812 404.846 119.329 409.4 124.809 C 413.885 130.842 417.907 139.286 421.188 149.73 C 427.753 170.615 431.747 199.314 431.747 230.88 L 431.747 232.967 L 430.764 232.967 C 430.764 169.536 412.619 122.959 391.481 122.959 L 391.481 115.104 Z " fill="rgb(43,142,79)"/><path d=" M 393.443 350.816 C 385.932 351.106 380.075 346.587 375.521 341.11 C 371.038 335.078 367.019 326.631 363.733 316.188 C 357.166 295.303 353.174 266.602 353.174 235.037 L 353.174 232.953 L 354.156 232.953 C 354.156 296.382 372.301 342.959 393.443 342.959 L 393.443 350.816 Z " fill="rgb(43,142,79)"/><path d=" M 391.481 350.816 C 398.992 351.106 404.846 346.587 409.4 341.11 C 413.885 335.078 417.907 326.631 421.188 316.188 C 427.753 295.303 431.747 266.602 431.747 235.037 L 431.747 232.953 L 430.764 232.953 C 430.764 296.382 412.619 342.959 391.481 342.959 L 391.481 350.816 Z " fill="rgb(43,142,79)"/></g><clipPath id="_clipPath_ZflBizJDyF0cT6IVqDlZZSetlQgUsrK0"><path d=" M 0 0 L 626.4 0 L 626.4 720 L 0 720 L 0 0 Z " fill="rgb(255,255,255)"/></clipPath><g clip-path="url(#_clipPath_ZflBizJDyF0cT6IVqDlZZSetlQgUsrK0)"><path d=" M 147.186 408.725 L 140.352 466.352 L 162.342 456.694 L 209.755 430.683 L 321.046 383.262 L 376.836 382.362 L 414.652 365.361 L 465.651 341.95 L 555.445 334.737 L 612.484 330.082 L 598.005 284.444 L 598.666 273.156 L 565.17 276.698 L 493.868 280.51 L 460.908 284.927 L 429.352 294.446 L 406.326 307.604 L 385.918 327.825 L 380.697 333.577 L 366.221 329.971 L 344.081 328.893 L 317.01 331.53 L 282.215 340.778 L 250.99 353.745 L 224.327 367.27 L 188.745 386.928 L 147.186 408.725 Z " fill="rgb(224,225,226)"/><path d=" M 147.186 408.725 L 140.352 466.352 L 162.342 456.694 L 209.755 430.683 L 321.046 383.262 L 376.836 382.362 L 414.652 365.361 L 465.651 341.95 L 555.445 334.737 L 612.484 330.082 L 598.005 284.444 L 598.666 273.156 L 565.17 276.698 L 493.868 280.51 L 460.908 284.927 L 429.352 294.446 L 406.326 307.604 L 385.918 327.825 L 380.697 333.577 L 366.221 329.971 L 344.081 328.893 L 317.01 331.53 L 282.215 340.778 L 250.99 353.745 L 224.327 367.27 L 188.745 386.928 L 147.186 408.725 Z " fill="none" vector-effect="non-scaling-stroke" stroke-width="3" stroke="rgb(56,54,54)" stroke-linejoin="miter" stroke-linecap="square" stroke-miterlimit="3"/><path d=" M 594.753 268.763 C 600.178 267.354 598.235 273.561 603.659 272.159 C 606.623 275.897 599.286 280.819 602.173 289.876 L 598.917 289.045 L 596.898 291.734 C 592.933 291.032 596.039 283.022 594.925 279.375 L 595.634 274.543 L 591.271 272.357 L 591.242 270.588 L 593.914 271.428 L 594.753 268.763 Z " fill="rgb(42,42,42)"/><path d=" M 600.167 292.565 L 602.189 289.876 C 613.438 303.914 608.927 303.914 611.955 314.917 C 614.338 323.577 615.175 328.491 616.548 337.37 C 562.405 343.164 538.247 339.773 486.478 347.35 C 470.184 349.734 444.288 359.1 429.959 363.445 C 408.661 369.91 401.168 385.435 375.515 389.099 C 362.98 390.892 353.604 386.28 340.105 387.909 C 323.774 389.871 304.422 401.47 287.34 408.22 C 236.511 428.328 183.438 450.19 137.994 474.342 C 124.006 460.456 115.815 441.954 105.349 425.324 C 75.031 377.142 41.807 327.495 10.947 278.207 C 9.273 272.518 16.679 275.629 17.941 272.783 L 20.61 273.626 L 23.249 272.698 C 61.157 333.07 100.161 392.31 139.393 451.326 C 140.386 447.645 137.017 439.741 140.962 438.914 L 143.071 441.534 L 146.299 440.592 C 148.771 448.318 143.224 457.216 144.815 458.315 C 209.212 425.461 257.832 377.333 355.845 377.038 C 354.018 356.695 364.665 348.428 371.111 336.091 C 368.306 335.988 364.378 337.051 364.008 334.434 L 364.847 331.767 L 363.922 329.129 C 365.431 329.434 365.573 328.413 365.662 327.332 L 368.026 325.147 L 367.344 321.993 C 374.184 322.126 374.436 329.059 379.869 330.646 L 382.058 333.004 L 385.205 332.324 C 384.151 340.008 377.175 341.96 376.646 350.16 C 384.974 349.512 389.089 344.789 399.587 346.253 C 406.593 348.009 406.51 357.09 410.461 362 C 444.321 318.737 529.472 325.134 604.473 321.698 C 602.204 311.451 596.841 304.401 596.906 291.741 L 600.194 292.563 L 600.167 292.565 Z " fill="rgb(42,42,42)"/><path d=" M 21.137 270.078 L 17.906 271.015 C 18.008 268.213 16.945 264.279 19.56 263.91 L 21.668 266.53 L 24.896 265.59 C 24.795 268.395 25.857 272.324 23.242 272.697 L 21.137 270.078 Z " fill="rgb(42,42,42)"/><path d=" M 600.157 292.565 C 599.743 291.388 599.335 290.219 598.922 289.044" fill="none" vector-effect="non-scaling-stroke" stroke-width="3.159" stroke="rgb(42,42,42)" stroke-linejoin="miter" stroke-linecap="square" stroke-miterlimit="3"/><path d=" M 20.603 273.626 C 20.654 272.445 20.889 271.262 21.136 270.078" fill="none" vector-effect="non-scaling-stroke" stroke-width="3.079" stroke="rgb(42,42,42)" stroke-linejoin="miter" stroke-linecap="square" stroke-miterlimit="3"/><path d=" M 375.49 312.4 L 252.061 201.681 C 282.178 158.222 342.237 169.144 410.317 161.25 L 418.813 167.708 L 556.018 264.6 C 486.954 266.396 418.367 261.51 375.49 312.4 Z  M 157.253 383.549 L 66.478 247.421 C 152.841 192.875 184.407 180.273 237.988 213.2 L 348.061 314.32 C 275.419 314.017 210.477 351.388 157.253 383.549 Z  M 595.297 269.64 C 536.128 227.147 473.055 188.982 412.553 147.906 C 351.945 162.392 268.168 132.166 231.098 196.394 C 165.827 143.275 89.319 202.865 34.573 240.483 C 74.409 294.58 107.787 354.007 147.185 408.724 C 217.066 375.513 283.663 320.363 366.221 329.97 L 383.433 331.205 C 431.123 263.754 525.907 286.219 597.025 272.75 L 595.297 269.64 Z " fill="rgb(224,225,226)"/><path d=" M 375.49 312.4 L 252.061 201.681 C 282.178 158.222 342.237 169.144 410.317 161.25 L 418.813 167.708 L 556.018 264.6 C 486.954 266.396 418.367 261.51 375.49 312.4 Z  M 157.253 383.549 L 66.478 247.421 C 152.841 192.875 184.407 180.273 237.988 213.2 L 348.061 314.32 C 275.419 314.017 210.477 351.388 157.253 383.549 Z  M 595.297 269.64 C 536.128 227.147 473.055 188.982 412.553 147.906 C 351.945 162.392 268.168 132.166 231.098 196.394 C 165.827 143.275 89.319 202.865 34.573 240.483 C 74.409 294.58 107.787 354.007 147.185 408.724 C 217.066 375.513 283.663 320.363 366.221 329.97 L 383.433 331.205 C 431.123 263.754 525.907 286.219 597.025 272.75 L 595.297 269.64 Z " fill-rule="evenodd" fill="none" vector-effect="non-scaling-stroke" stroke-width="3" stroke="rgb(56,54,54)" stroke-linejoin="miter" stroke-linecap="square" stroke-miterlimit="3"/><path d=" M 20.991 279.456 C 21.243 258.488 24.15 246.545 33.192 242.273 L 145.808 410.516 C 144.988 420.855 142.012 451.771 140.579 462.069 L 20.991 279.456 Z " fill="rgb(224,225,226)"/><path d=" M 20.991 279.456 C 21.243 258.488 24.15 246.545 33.192 242.273 L 145.808 410.516 C 144.988 420.855 142.012 451.771 140.579 462.069 L 20.991 279.456 Z " fill="none" vector-effect="non-scaling-stroke" stroke-width="3" stroke="rgb(56,54,54)" stroke-linejoin="miter" stroke-linecap="square" stroke-miterlimit="3"/></g></g><g><path d=" M 552.34 449.137 L 551.64 463.633 L 551.64 463.633 Q 550.54 463.335 549.49 463.236 L 549.49 463.236 L 549.49 463.236 Q 548.44 463.137 547.44 463.137 L 547.44 463.137 L 547.44 463.137 Q 544.14 463.137 541.89 464.333 L 541.89 464.333 L 541.89 464.333 Q 539.64 465.53 538.29 467.225 L 538.29 467.225 L 538.29 467.225 Q 536.94 468.921 536.34 470.915 L 536.34 470.915 L 536.34 470.915 Q 535.74 472.91 535.74 474.406 L 535.74 474.406 L 535.74 499.936 L 519.34 499.936 L 519.34 450.189 L 535.14 450.189 L 535.14 457.397 L 535.34 457.397 L 535.34 457.397 Q 537.24 453.57 540.74 451.153 L 540.74 451.153 L 540.74 451.153 Q 544.24 448.737 548.84 448.737 L 548.84 448.737 L 548.84 448.737 Q 549.84 448.737 550.79 448.836 L 550.79 448.836 L 550.79 448.836 Q 551.74 448.936 552.34 449.137 L 552.34 449.137 Z  M 472.94 469.336 L 494.04 469.336 L 494.04 469.336 Q 494.04 465.436 491.59 462.637 L 491.59 462.637 L 491.59 462.637 Q 489.14 459.836 484.24 459.836 L 484.24 459.836 L 484.24 459.836 Q 481.84 459.836 479.84 460.586 L 479.84 460.586 L 479.84 460.586 Q 477.84 461.336 476.34 462.637 L 476.34 462.637 L 476.34 462.637 Q 474.84 463.936 473.94 465.686 L 473.94 465.686 L 473.94 465.686 Q 473.04 467.436 472.94 469.336 L 472.94 469.336 Z  M 509.14 475.637 L 509.14 475.637 L 509.14 475.637 Q 509.14 476.637 509.14 477.637 L 509.14 477.637 L 509.14 477.637 Q 509.14 478.637 509.04 479.536 L 509.04 479.536 L 472.94 479.536 L 472.94 479.536 Q 473.14 481.637 474.19 483.336 L 474.19 483.336 L 474.19 483.336 Q 475.24 485.036 476.89 486.286 L 476.89 486.286 L 476.89 486.286 Q 478.54 487.536 480.59 488.237 L 480.59 488.237 L 480.59 488.237 Q 482.64 488.936 484.84 488.936 L 484.84 488.936 L 484.84 488.936 Q 488.74 488.936 491.44 487.487 L 491.44 487.487 L 491.44 487.487 Q 494.14 486.036 495.84 483.737 L 495.84 483.737 L 507.24 490.936 L 507.24 490.936 Q 503.74 496.036 497.99 498.786 L 497.99 498.786 L 497.99 498.786 Q 492.24 501.536 484.64 501.536 L 484.64 501.536 L 484.64 501.536 Q 479.04 501.536 474.04 499.786 L 474.04 499.786 L 474.04 499.786 Q 469.04 498.036 465.29 494.686 L 465.29 494.686 L 465.29 494.686 Q 461.54 491.336 459.39 486.436 L 459.39 486.436 L 459.39 486.436 Q 457.24 481.536 457.24 475.237 L 457.24 475.237 L 457.24 475.237 Q 457.24 469.137 459.34 464.186 L 459.34 464.186 L 459.34 464.186 Q 461.44 459.237 465.04 455.786 L 465.04 455.786 L 465.04 455.786 Q 468.64 452.336 473.54 450.436 L 473.54 450.436 L 473.54 450.436 Q 478.44 448.536 484.14 448.536 L 484.14 448.536 L 484.14 448.536 Q 489.64 448.536 494.24 450.387 L 494.24 450.387 L 494.24 450.387 Q 498.84 452.237 502.14 455.737 L 502.14 455.737 L 502.14 455.737 Q 505.44 459.237 507.29 464.237 L 507.29 464.237 L 507.29 464.237 Q 509.14 469.237 509.14 475.637 Z  M 446.74 499.936 L 431.64 499.936 L 431.64 493.436 L 431.44 493.436 L 431.44 493.436 Q 429.04 497.237 424.59 499.286 L 424.59 499.286 L 424.59 499.286 Q 420.14 501.336 415.14 501.336 L 415.14 501.336 L 415.14 501.336 Q 409.54 501.336 405.14 499.137 L 405.14 499.137 L 405.14 499.137 Q 400.74 496.936 397.69 493.286 L 397.69 493.286 L 397.69 493.286 Q 394.64 489.637 393.04 484.836 L 393.04 484.836 L 393.04 484.836 Q 391.44 480.036 391.44 474.836 L 391.44 474.836 L 391.44 474.836 Q 391.44 469.637 393.09 464.887 L 393.09 464.887 L 393.09 464.887 Q 394.74 460.137 397.79 456.536 L 397.79 456.536 L 397.79 456.536 Q 400.84 452.936 405.19 450.836 L 405.19 450.836 L 405.19 450.836 Q 409.54 448.737 414.94 448.737 L 414.94 448.737 L 414.94 448.737 Q 420.44 448.737 424.24 450.836 L 424.24 450.836 L 424.24 450.836 Q 428.04 452.936 430.14 455.436 L 430.14 455.436 L 430.34 455.436 L 430.34 424.336 L 446.74 424.336 L 446.74 499.936 Z  M 431.04 474.936 L 431.04 474.936 L 431.04 474.936 Q 431.04 472.536 430.19 470.237 L 430.19 470.237 L 430.19 470.237 Q 429.34 467.936 427.79 466.137 L 427.79 466.137 L 427.79 466.137 Q 426.24 464.336 424.04 463.237 L 424.04 463.237 L 424.04 463.237 Q 421.84 462.137 419.04 462.137 L 419.04 462.137 L 419.04 462.137 Q 416.14 462.137 413.94 463.237 L 413.94 463.237 L 413.94 463.237 Q 411.74 464.336 410.24 466.086 L 410.24 466.086 L 410.24 466.086 Q 408.74 467.836 407.99 470.137 L 407.99 470.137 L 407.99 470.137 Q 407.24 472.436 407.24 474.836 L 407.24 474.836 L 407.24 474.836 Q 407.24 477.237 407.99 479.586 L 407.99 479.586 L 407.99 479.586 Q 408.74 481.936 410.24 483.737 L 410.24 483.737 L 410.24 483.737 Q 411.74 485.536 413.94 486.637 L 413.94 486.637 L 413.94 486.637 Q 416.14 487.737 419.04 487.737 L 419.04 487.737 L 419.04 487.737 Q 421.84 487.737 424.04 486.637 L 424.04 486.637 L 424.04 486.637 Q 426.24 485.536 427.79 483.737 L 427.79 483.737 L 427.79 483.737 Q 429.34 481.936 430.19 479.637 L 430.19 479.637 L 430.19 479.637 Q 431.04 477.336 431.04 474.936 Z  M 366.74 479.936 L 366.74 478.237 L 364.64 478.237 L 364.64 478.237 Q 361.94 478.237 359.19 478.487 L 359.19 478.487 L 359.19 478.487 Q 356.44 478.737 354.29 479.436 L 354.29 479.436 L 354.29 479.436 Q 352.14 480.137 350.74 481.487 L 350.74 481.487 L 350.74 481.487 Q 349.34 482.836 349.34 485.036 L 349.34 485.036 L 349.34 485.036 Q 349.34 486.436 349.99 487.436 L 349.99 487.436 L 349.99 487.436 Q 350.64 488.436 351.64 489.036 L 351.64 489.036 L 351.64 489.036 Q 352.64 489.637 353.94 489.887 L 353.94 489.887 L 353.94 489.887 Q 355.24 490.137 356.44 490.137 L 356.44 490.137 L 356.44 490.137 Q 361.44 490.137 364.09 487.387 L 364.09 487.387 L 364.09 487.387 Q 366.74 484.637 366.74 479.936 L 366.74 479.936 Z  M 344.94 465.836 L 336.64 456.936 L 336.64 456.936 Q 341.04 452.737 346.89 450.637 L 346.89 450.637 L 346.89 450.637 Q 352.74 448.536 358.84 448.536 L 358.84 448.536 L 358.84 448.536 Q 365.14 448.536 369.49 450.086 L 369.49 450.086 L 369.49 450.086 Q 373.84 451.637 376.54 454.887 L 376.54 454.887 L 376.54 454.887 Q 379.24 458.137 380.49 463.086 L 380.49 463.086 L 380.49 463.086 Q 381.74 468.036 381.74 474.836 L 381.74 474.836 L 381.74 499.936 L 366.74 499.936 L 366.74 494.637 L 366.44 494.637 L 366.44 494.637 Q 364.54 497.737 360.69 499.436 L 360.69 499.436 L 360.69 499.436 Q 356.84 501.137 352.34 501.137 L 352.34 501.137 L 352.34 501.137 Q 349.34 501.137 346.14 500.336 L 346.14 500.336 L 346.14 500.336 Q 342.94 499.536 340.29 497.737 L 340.29 497.737 L 340.29 497.737 Q 337.64 495.936 335.94 492.936 L 335.94 492.936 L 335.94 492.936 Q 334.24 489.936 334.24 485.536 L 334.24 485.536 L 334.24 485.536 Q 334.24 480.137 337.19 476.836 L 337.19 476.836 L 337.19 476.836 Q 340.14 473.536 344.79 471.737 L 344.79 471.737 L 344.79 471.737 Q 349.44 469.936 355.14 469.336 L 355.14 469.336 L 355.14 469.336 Q 360.84 468.737 366.24 468.737 L 366.24 468.737 L 366.24 467.936 L 366.24 467.936 Q 366.24 464.237 363.64 462.487 L 363.64 462.487 L 363.64 462.487 Q 361.04 460.737 357.24 460.737 L 357.24 460.737 L 357.24 460.737 Q 353.74 460.737 350.49 462.237 L 350.49 462.237 L 350.49 462.237 Q 347.24 463.737 344.94 465.836 L 344.94 465.836 Z  M 290.94 469.336 L 312.04 469.336 L 312.04 469.336 Q 312.04 465.436 309.59 462.637 L 309.59 462.637 L 309.59 462.637 Q 307.14 459.836 302.24 459.836 L 302.24 459.836 L 302.24 459.836 Q 299.84 459.836 297.84 460.586 L 297.84 460.586 L 297.84 460.586 Q 295.84 461.336 294.34 462.637 L 294.34 462.637 L 294.34 462.637 Q 292.84 463.936 291.94 465.686 L 291.94 465.686 L 291.94 465.686 Q 291.04 467.436 290.94 469.336 L 290.94 469.336 Z  M 327.14 475.637 L 327.14 475.637 L 327.14 475.637 Q 327.14 476.637 327.14 477.637 L 327.14 477.637 L 327.14 477.637 Q 327.14 478.637 327.04 479.536 L 327.04 479.536 L 290.94 479.536 L 290.94 479.536 Q 291.14 481.637 292.19 483.336 L 292.19 483.336 L 292.19 483.336 Q 293.24 485.036 294.89 486.286 L 294.89 486.286 L 294.89 486.286 Q 296.54 487.536 298.59 488.237 L 298.59 488.237 L 298.59 488.237 Q 300.64 488.936 302.84 488.936 L 302.84 488.936 L 302.84 488.936 Q 306.74 488.936 309.44 487.487 L 309.44 487.487 L 309.44 487.487 Q 312.14 486.036 313.84 483.737 L 313.84 483.737 L 325.24 490.936 L 325.24 490.936 Q 321.74 496.036 315.99 498.786 L 315.99 498.786 L 315.99 498.786 Q 310.24 501.536 302.64 501.536 L 302.64 501.536 L 302.64 501.536 Q 297.04 501.536 292.04 499.786 L 292.04 499.786 L 292.04 499.786 Q 287.04 498.036 283.29 494.686 L 283.29 494.686 L 283.29 494.686 Q 279.54 491.336 277.39 486.436 L 277.39 486.436 L 277.39 486.436 Q 275.24 481.536 275.24 475.237 L 275.24 475.237 L 275.24 475.237 Q 275.24 469.137 277.34 464.186 L 277.34 464.186 L 277.34 464.186 Q 279.44 459.237 283.04 455.786 L 283.04 455.786 L 283.04 455.786 Q 286.64 452.336 291.54 450.436 L 291.54 450.436 L 291.54 450.436 Q 296.44 448.536 302.14 448.536 L 302.14 448.536 L 302.14 448.536 Q 307.64 448.536 312.24 450.387 L 312.24 450.387 L 312.24 450.387 Q 316.84 452.237 320.14 455.737 L 320.14 455.737 L 320.14 455.737 Q 323.44 459.237 325.29 464.237 L 325.29 464.237 L 325.29 464.237 Q 327.14 469.237 327.14 475.637 Z  M 271.14 449.137 L 270.44 463.633 L 270.44 463.633 Q 269.34 463.335 268.29 463.236 L 268.29 463.236 L 268.29 463.236 Q 267.24 463.137 266.24 463.137 L 266.24 463.137 L 266.24 463.137 Q 262.94 463.137 260.69 464.333 L 260.69 464.333 L 260.69 464.333 Q 258.44 465.53 257.09 467.225 L 257.09 467.225 L 257.09 467.225 Q 255.74 468.921 255.14 470.915 L 255.14 470.915 L 255.14 470.915 Q 254.54 472.91 254.54 474.406 L 254.54 474.406 L 254.54 499.936 L 238.14 499.936 L 238.14 450.189 L 253.94 450.189 L 253.94 457.397 L 254.14 457.397 L 254.14 457.397 Q 256.04 453.57 259.54 451.153 L 259.54 451.153 L 259.54 451.153 Q 263.04 448.737 267.64 448.737 L 267.64 448.737 L 267.64 448.737 Q 268.64 448.737 269.59 448.836 L 269.59 448.836 L 269.59 448.836 Q 270.54 448.936 271.14 449.137 L 271.14 449.137 Z  M 227.74 474.836 L 227.74 474.836 L 227.74 474.836 Q 227.74 480.936 225.54 485.887 L 225.54 485.887 L 225.54 485.887 Q 223.34 490.836 219.54 494.286 L 219.54 494.286 L 219.54 494.286 Q 215.74 497.737 210.74 499.637 L 210.74 499.637 L 210.74 499.637 Q 205.74 501.536 200.04 501.536 L 200.04 501.536 L 200.04 501.536 Q 194.44 501.536 189.39 499.637 L 189.39 499.637 L 189.39 499.637 Q 184.34 497.737 180.59 494.286 L 180.59 494.286 L 180.59 494.286 Q 176.84 490.836 174.64 485.887 L 174.64 485.887 L 174.64 485.887 Q 172.44 480.936 172.44 474.836 L 172.44 474.836 L 172.44 474.836 Q 172.44 468.737 174.64 463.836 L 174.64 463.836 L 174.64 463.836 Q 176.84 458.936 180.59 455.536 L 180.59 455.536 L 180.59 455.536 Q 184.34 452.137 189.39 450.336 L 189.39 450.336 L 189.39 450.336 Q 194.44 448.536 200.04 448.536 L 200.04 448.536 L 200.04 448.536 Q 205.74 448.536 210.74 450.336 L 210.74 450.336 L 210.74 450.336 Q 215.74 452.137 219.54 455.536 L 219.54 455.536 L 219.54 455.536 Q 223.34 458.936 225.54 463.836 L 225.54 463.836 L 225.54 463.836 Q 227.74 468.737 227.74 474.836 Z  M 211.94 474.836 L 211.94 474.836 L 211.94 474.836 Q 211.94 472.436 211.14 470.137 L 211.14 470.137 L 211.14 470.137 Q 210.34 467.836 208.84 466.086 L 208.84 466.086 L 208.84 466.086 Q 207.34 464.336 205.14 463.237 L 205.14 463.237 L 205.14 463.237 Q 202.94 462.137 200.04 462.137 L 200.04 462.137 L 200.04 462.137 Q 197.14 462.137 194.94 463.237 L 194.94 463.237 L 194.94 463.237 Q 192.74 464.336 191.29 466.086 L 191.29 466.086 L 191.29 466.086 Q 189.84 467.836 189.09 470.137 L 189.09 470.137 L 189.09 470.137 Q 188.34 472.436 188.34 474.836 L 188.34 474.836 L 188.34 474.836 Q 188.34 477.237 189.09 479.536 L 189.09 479.536 L 189.09 479.536 Q 189.84 481.836 191.34 483.686 L 191.34 483.686 L 191.34 483.686 Q 192.84 485.536 195.04 486.637 L 195.04 486.637 L 195.04 486.637 Q 197.24 487.737 200.14 487.737 L 200.14 487.737 L 200.14 487.737 Q 203.04 487.737 205.24 486.637 L 205.24 486.637 L 205.24 486.637 Q 207.44 485.536 208.94 483.686 L 208.94 483.686 L 208.94 483.686 Q 210.44 481.836 211.19 479.536 L 211.19 479.536 L 211.19 479.536 Q 211.94 477.237 211.94 474.836 Z  M 166.04 455.536 L 157.04 464.836 L 157.04 464.836 Q 155.04 462.936 152.34 461.637 L 152.34 461.637 L 152.34 461.637 Q 149.64 460.336 146.64 460.336 L 146.64 460.336 L 146.64 460.336 Q 144.34 460.336 142.39 461.237 L 142.39 461.237 L 142.39 461.237 Q 140.44 462.137 140.44 464.336 L 140.44 464.336 L 140.44 464.336 Q 140.44 466.436 142.59 467.336 L 142.59 467.336 L 142.59 467.336 Q 144.74 468.237 149.54 469.336 L 149.54 469.336 L 149.54 469.336 Q 152.34 469.936 155.19 471.036 L 155.19 471.036 L 155.19 471.036 Q 158.04 472.137 160.34 473.936 L 160.34 473.936 L 160.34 473.936 Q 162.64 475.737 164.04 478.336 L 164.04 478.336 L 164.04 478.336 Q 165.44 480.936 165.44 484.536 L 165.44 484.536 L 165.44 484.536 Q 165.44 489.237 163.54 492.487 L 163.54 492.487 L 163.54 492.487 Q 161.64 495.737 158.59 497.737 L 158.59 497.737 L 158.59 497.737 Q 155.54 499.737 151.74 500.637 L 151.74 500.637 L 151.74 500.637 Q 147.94 501.536 144.14 501.536 L 144.14 501.536 L 144.14 501.536 Q 138.04 501.536 132.19 499.586 L 132.19 499.586 L 132.19 499.586 Q 126.34 497.637 122.44 493.836 L 122.44 493.836 L 131.64 484.137 L 131.64 484.137 Q 133.84 486.536 137.04 488.137 L 137.04 488.137 L 137.04 488.137 Q 140.24 489.737 143.84 489.737 L 143.84 489.737 L 143.84 489.737 Q 145.84 489.737 147.79 488.786 L 147.79 488.786 L 147.79 488.786 Q 149.74 487.836 149.74 485.436 L 149.74 485.436 L 149.74 485.436 Q 149.74 483.137 147.34 482.036 L 147.34 482.036 L 147.34 482.036 Q 144.94 480.936 139.84 479.737 L 139.84 479.737 L 139.84 479.737 Q 137.24 479.137 134.64 478.137 L 134.64 478.137 L 134.64 478.137 Q 132.04 477.137 129.99 475.436 L 129.99 475.436 L 129.99 475.436 Q 127.94 473.737 126.64 471.237 L 126.64 471.237 L 126.64 471.237 Q 125.34 468.737 125.34 465.237 L 125.34 465.237 L 125.34 465.237 Q 125.34 460.737 127.24 457.586 L 127.24 457.586 L 127.24 457.586 Q 129.14 454.436 132.14 452.436 L 132.14 452.436 L 132.14 452.436 Q 135.14 450.436 138.79 449.487 L 138.79 449.487 L 138.79 449.487 Q 142.44 448.536 146.04 448.536 L 146.04 448.536 L 146.04 448.536 Q 151.64 448.536 156.99 450.286 L 156.99 450.286 L 156.99 450.286 Q 162.34 452.036 166.04 455.536 L 166.04 455.536 Z  M 115.94 434.237 L 115.94 434.237 L 115.94 434.237 Q 115.94 436.137 115.19 437.786 L 115.19 437.786 L 115.19 437.786 Q 114.44 439.436 113.19 440.637 L 113.19 440.637 L 113.19 440.637 Q 111.94 441.836 110.19 442.536 L 110.19 442.536 L 110.19 442.536 Q 108.44 443.237 106.54 443.237 L 106.54 443.237 L 106.54 443.237 Q 102.54 443.237 99.84 440.586 L 99.84 440.586 L 99.84 440.586 Q 97.14 437.936 97.14 434.237 L 97.14 434.237 L 97.14 434.237 Q 97.14 432.436 97.84 430.786 L 97.84 430.786 L 97.84 430.786 Q 98.54 429.137 99.84 427.936 L 99.84 427.936 L 99.84 427.936 Q 101.14 426.737 102.84 425.987 L 102.84 425.987 L 102.84 425.987 Q 104.54 425.237 106.54 425.237 L 106.54 425.237 L 106.54 425.237 Q 108.44 425.237 110.19 425.936 L 110.19 425.936 L 110.19 425.936 Q 111.94 426.637 113.19 427.836 L 113.19 427.836 L 113.19 427.836 Q 114.44 429.036 115.19 430.686 L 115.19 430.686 L 115.19 430.686 Q 115.94 432.336 115.94 434.237 Z  M 114.74 499.936 L 98.34 499.936 L 98.34 450.137 L 114.74 450.137 L 114.74 499.936 Z " fill-rule="evenodd" fill="rgb(254,254,254)"/><path d=" M 510.923 586.111 L 510.923 586.111 L 510.923 586.111 Q 511.971 587.924 511.646 589.469 L 511.646 589.469 L 511.646 589.469 Q 511.321 591.015 509.711 591.945 L 509.711 591.945 L 509.711 591.945 Q 508.716 592.52 507.675 592.498 L 507.675 592.498 L 507.675 592.498 Q 506.635 592.477 505.711 591.847 L 505.711 591.847 L 505.711 591.847 Q 504.787 591.216 504.111 590.046 L 504.111 590.046 L 504.111 590.046 Q 503.064 588.233 503.386 586.698 L 503.386 586.698 L 503.386 586.698 Q 503.708 585.163 505.318 584.233 L 505.318 584.233 L 505.318 584.233 Q 506.874 583.334 508.389 583.84 L 508.389 583.84 L 508.389 583.84 Q 509.903 584.345 510.923 586.111 Z  M 505.275 589.374 L 505.275 589.374 L 505.275 589.374 Q 506.096 590.795 507.094 591.21 L 507.094 591.21 L 507.094 591.21 Q 508.092 591.626 509.194 590.989 L 509.194 590.989 L 509.194 590.989 Q 510.297 590.352 510.441 589.281 L 510.441 589.281 L 510.441 589.281 Q 510.584 588.21 509.76 586.783 L 509.76 586.783 L 509.76 586.783 Q 508.943 585.369 507.947 584.965 L 507.947 584.965 L 507.947 584.965 Q 506.952 584.562 505.835 585.206 L 505.835 585.206 L 505.835 585.206 Q 504.733 585.843 504.59 586.892 L 504.59 586.892 L 504.59 586.892 Q 504.446 587.94 505.275 589.374 Z  M 514.058 579.184 L 514.058 579.184 L 514.058 579.184 Q 514.552 578.898 514.991 578.753 L 514.991 578.753 L 515.438 579.884 L 515.438 579.884 Q 514.919 580.049 514.567 580.252 L 514.567 580.252 L 514.567 580.252 Q 513.667 580.772 513.45 581.872 L 513.45 581.872 L 513.45 581.872 Q 513.233 582.972 513.862 584.061 L 513.862 584.061 L 516.16 588.038 L 515.037 588.687 L 510.754 581.273 L 511.681 580.738 L 512.603 582.037 L 512.657 582.005 L 512.657 582.005 Q 512.651 581.043 513.006 580.315 L 513.006 580.315 L 513.006 580.315 Q 513.361 579.586 514.058 579.184 Z  M 519.913 575.981 L 522.477 574.5 L 522.888 575.21 L 521.608 576.166 L 521.608 576.166 Q 521.934 576.293 522.304 576.59 L 522.304 576.59 L 522.304 576.59 Q 522.674 576.886 522.951 577.366 L 522.951 577.366 L 522.951 577.366 Q 523.58 578.455 523.211 579.534 L 523.211 579.534 L 523.211 579.534 Q 522.843 580.614 521.544 581.364 L 521.544 581.364 L 521.544 581.364 Q 521.212 581.556 520.89 581.67 L 520.89 581.67 L 520.89 581.67 Q 520.392 582.463 520.724 583.038 L 520.724 583.038 L 520.724 583.038 Q 520.9 583.342 521.234 583.343 L 521.234 583.343 L 521.234 583.343 Q 521.569 583.344 522.177 582.992 L 522.177 582.992 L 523.49 582.234 L 523.49 582.234 Q 524.694 581.538 525.633 581.672 L 525.633 581.672 L 525.633 581.672 Q 526.572 581.806 527.131 582.774 L 527.131 582.774 L 527.131 582.774 Q 527.842 584.005 527.228 585.222 L 527.228 585.222 L 527.228 585.222 Q 526.614 586.438 524.719 587.533 L 524.719 587.533 L 524.719 587.533 Q 523.265 588.373 522.164 588.287 L 522.164 588.287 L 522.164 588.287 Q 521.064 588.201 520.493 587.213 L 520.493 587.213 L 520.493 587.213 Q 520.102 586.537 520.25 585.793 L 520.25 585.793 L 520.25 585.793 Q 520.397 585.049 521.08 584.42 L 521.08 584.42 L 521.08 584.42 Q 520.722 584.455 520.373 584.296 L 520.373 584.296 L 520.373 584.296 Q 520.024 584.137 519.817 583.779 L 519.817 583.779 L 519.817 583.779 Q 519.582 583.373 519.623 582.943 L 519.623 582.943 L 519.623 582.943 Q 519.663 582.514 519.966 581.96 L 519.966 581.96 L 519.966 581.96 Q 519.254 582.055 518.564 581.696 L 518.564 581.696 L 518.564 581.696 Q 517.874 581.337 517.452 580.607 L 517.452 580.607 L 517.452 580.607 Q 516.748 579.389 517.098 578.307 L 517.098 578.307 L 517.098 578.307 Q 517.447 577.226 518.787 576.452 L 518.787 576.452 L 518.787 576.452 Q 519.369 576.116 519.913 575.981 L 519.913 575.981 Z  M 521.567 586.575 L 521.567 586.575 L 521.567 586.575 Q 521.915 587.177 522.602 587.195 L 522.602 587.195 L 522.602 587.195 Q 523.29 587.213 524.237 586.666 L 524.237 586.666 L 524.237 586.666 Q 525.65 585.849 526.086 585.033 L 526.086 585.033 L 526.086 585.033 Q 526.522 584.218 526.103 583.494 L 526.103 583.494 L 526.103 583.494 Q 525.756 582.892 525.249 582.873 L 525.249 582.873 L 525.249 582.873 Q 524.742 582.855 523.714 583.449 L 523.714 583.449 L 522.367 584.227 L 522.367 584.227 Q 521.603 584.668 521.388 585.28 L 521.388 585.28 L 521.388 585.28 Q 521.173 585.891 521.567 586.575 Z  M 518.546 579.938 L 518.546 579.938 L 518.546 579.938 Q 518.995 580.716 519.665 580.862 L 519.665 580.862 L 519.665 580.862 Q 520.336 581.007 521.12 580.553 L 521.12 580.553 L 521.12 580.553 Q 522.764 579.604 521.842 578.007 L 521.842 578.007 L 521.842 578.007 Q 520.876 576.336 519.212 577.298 L 519.212 577.298 L 519.212 577.298 Q 518.421 577.755 518.241 578.427 L 518.241 578.427 L 518.241 578.427 Q 518.061 579.1 518.546 579.938 Z  M 446.591 618.343 L 450.875 625.757 L 449.752 626.406 L 445.468 618.992 L 446.591 618.343 Z  M 444.213 617.037 L 444.213 617.037 L 444.213 617.037 Q 443.99 616.652 444.076 616.363 L 444.076 616.363 L 444.076 616.363 Q 444.162 616.074 444.446 615.91 L 444.446 615.91 L 444.446 615.91 Q 444.716 615.754 445.018 615.823 L 445.018 615.823 L 445.018 615.823 Q 445.32 615.892 445.539 616.271 L 445.539 616.271 L 445.539 616.271 Q 445.757 616.65 445.669 616.949 L 445.669 616.949 L 445.669 616.949 Q 445.58 617.249 445.309 617.405 L 445.309 617.405 L 445.309 617.405 Q 445.025 617.569 444.728 617.493 L 444.728 617.493 L 444.728 617.493 Q 444.432 617.416 444.213 617.037 Z  M 456.87 619.595 L 456.87 619.595 L 456.87 619.595 Q 457.468 620.63 457.021 621.638 L 457.021 621.638 L 457.021 621.638 Q 456.574 622.645 455.181 623.45 L 455.181 623.45 L 455.181 623.45 Q 453.706 624.302 452.611 624.312 L 452.611 624.312 L 452.009 623.27 L 452.009 623.27 Q 452.7 623.232 453.402 623.034 L 453.402 623.034 L 453.402 623.034 Q 454.104 622.836 454.672 622.507 L 454.672 622.507 L 454.672 622.507 Q 455.552 621.999 455.863 621.445 L 455.863 621.445 L 455.863 621.445 Q 456.174 620.891 455.842 620.315 L 455.842 620.315 L 455.842 620.315 Q 455.592 619.883 455.039 619.792 L 455.039 619.792 L 455.039 619.792 Q 454.485 619.701 453.154 619.911 L 453.154 619.911 L 453.154 619.911 Q 451.896 620.123 451.294 620.088 L 451.294 620.088 L 451.294 620.088 Q 450.691 620.052 450.267 619.81 L 450.267 619.81 L 450.267 619.81 Q 449.843 619.568 449.55 619.06 L 449.55 619.06 L 449.55 619.06 Q 449.026 618.154 449.461 617.204 L 449.461 617.204 L 449.461 617.204 Q 449.895 616.253 451.181 615.511 L 451.181 615.511 L 451.181 615.511 Q 452.378 614.819 453.802 614.646 L 453.802 614.646 L 453.931 615.789 L 453.931 615.789 Q 452.549 615.974 451.643 616.498 L 451.643 616.498 L 451.643 616.498 Q 450.844 616.959 450.583 617.444 L 450.583 617.444 L 450.583 617.444 Q 450.322 617.929 450.576 618.369 L 450.576 618.369 L 450.576 618.369 Q 450.748 618.666 451.021 618.788 L 451.021 618.788 L 451.021 618.788 Q 451.295 618.91 451.742 618.904 L 451.742 618.904 L 451.742 618.904 Q 452.19 618.898 453.358 618.701 L 453.358 618.701 L 453.358 618.701 Q 454.954 618.419 455.699 618.639 L 455.699 618.639 L 455.699 618.639 Q 456.444 618.858 456.87 619.595 Z  M 464.119 613.152 L 464.119 613.152 L 464.119 613.152 Q 465.166 614.965 464.841 616.51 L 464.841 616.51 L 464.841 616.51 Q 464.516 618.056 462.906 618.986 L 462.906 618.986 L 462.906 618.986 Q 461.911 619.561 460.871 619.54 L 460.871 619.54 L 460.871 619.54 Q 459.83 619.518 458.906 618.888 L 458.906 618.888 L 458.906 618.888 Q 457.983 618.258 457.306 617.087 L 457.306 617.087 L 457.306 617.087 Q 456.259 615.275 456.581 613.74 L 456.581 613.74 L 456.581 613.74 Q 456.903 612.205 458.513 611.274 L 458.513 611.274 L 458.513 611.274 Q 460.069 610.375 461.584 610.881 L 461.584 610.881 L 461.584 610.881 Q 463.098 611.386 464.119 613.152 Z  M 458.47 616.415 L 458.47 616.415 L 458.47 616.415 Q 459.291 617.836 460.289 618.252 L 460.289 618.252 L 460.289 618.252 Q 461.287 618.667 462.39 618.03 L 462.39 618.03 L 462.39 618.03 Q 463.492 617.393 463.636 616.322 L 463.636 616.322 L 463.636 616.322 Q 463.78 615.251 462.955 613.824 L 462.955 613.824 L 462.955 613.824 Q 462.138 612.41 461.143 612.007 L 461.143 612.007 L 461.143 612.007 Q 460.147 611.603 459.031 612.248 L 459.031 612.248 L 459.031 612.248 Q 457.928 612.885 457.785 613.933 L 457.785 613.933 L 457.785 613.933 Q 457.641 614.981 458.47 616.415 Z  M 471.169 614.032 L 469.856 614.79 L 462.759 609.002 L 463.963 608.306 L 468.1 611.781 L 468.1 611.781 Q 469.532 613.011 469.892 613.416 L 469.892 613.416 L 469.946 613.385 L 469.946 613.385 Q 469.814 612.983 469.559 611.628 L 469.559 611.628 L 469.559 611.628 Q 469.304 610.273 468.495 605.688 L 468.495 605.688 L 469.699 604.992 L 471.169 614.032 Z  M 478.383 610.044 L 478.383 610.044 L 478.383 610.044 Q 476.74 610.994 475.211 610.542 L 475.211 610.542 L 475.211 610.542 Q 473.682 610.09 472.654 608.311 L 472.654 608.311 L 472.654 608.311 Q 471.618 606.518 471.891 604.953 L 471.891 604.953 L 471.891 604.953 Q 472.165 603.387 473.653 602.528 L 473.653 602.528 L 473.653 602.528 Q 475.046 601.723 476.388 602.17 L 476.388 602.17 L 476.388 602.17 Q 477.729 602.618 478.597 604.12 L 478.597 604.12 L 479.007 604.83 L 473.9 607.781 L 473.9 607.781 Q 474.688 609.067 475.704 609.382 L 475.704 609.382 L 475.704 609.382 Q 476.721 609.697 477.857 609.04 L 477.857 609.04 L 477.857 609.04 Q 479.055 608.348 479.936 607.171 L 479.936 607.171 L 480.514 608.173 L 480.514 608.173 Q 480.067 608.774 479.601 609.192 L 479.601 609.192 L 479.601 609.192 Q 479.134 609.61 478.383 610.044 Z  M 474.183 603.476 L 474.183 603.476 L 474.183 603.476 Q 473.29 603.992 473.095 604.88 L 473.095 604.88 L 473.095 604.88 Q 472.9 605.769 473.399 606.852 L 473.399 606.852 L 477.275 604.612 L 477.275 604.612 Q 476.662 603.55 475.862 603.259 L 475.862 603.259 L 475.862 603.259 Q 475.062 602.968 474.183 603.476 Z  M 481.967 597.724 L 481.967 597.724 L 481.967 597.724 Q 482.46 597.439 482.9 597.294 L 482.9 597.294 L 483.346 598.425 L 483.346 598.425 Q 482.827 598.59 482.476 598.793 L 482.476 598.793 L 482.476 598.793 Q 481.576 599.313 481.359 600.412 L 481.359 600.412 L 481.359 600.412 Q 481.142 601.512 481.771 602.602 L 481.771 602.602 L 484.069 606.579 L 482.946 607.228 L 478.662 599.814 L 479.589 599.278 L 480.511 600.577 L 480.565 600.546 L 480.565 600.546 Q 480.56 599.584 480.915 598.855 L 480.915 598.855 L 480.915 598.855 Q 481.27 598.127 481.967 597.724 Z  M 492.215 599.175 L 492.215 599.175 L 492.215 599.175 Q 492.813 600.21 492.366 601.217 L 492.366 601.217 L 492.366 601.217 Q 491.92 602.224 490.526 603.029 L 490.526 603.029 L 490.526 603.029 Q 489.051 603.881 487.956 603.891 L 487.956 603.891 L 487.355 602.849 L 487.355 602.849 Q 488.045 602.811 488.747 602.613 L 488.747 602.613 L 488.747 602.613 Q 489.449 602.415 490.018 602.087 L 490.018 602.087 L 490.018 602.087 Q 490.897 601.578 491.208 601.024 L 491.208 601.024 L 491.208 601.024 Q 491.52 600.47 491.188 599.895 L 491.188 599.895 L 491.188 599.895 Q 490.937 599.462 490.384 599.371 L 490.384 599.371 L 490.384 599.371 Q 489.831 599.28 488.499 599.49 L 488.499 599.49 L 488.499 599.49 Q 487.242 599.702 486.639 599.667 L 486.639 599.667 L 486.639 599.667 Q 486.037 599.631 485.613 599.389 L 485.613 599.389 L 485.613 599.389 Q 485.189 599.147 484.895 598.64 L 484.895 598.64 L 484.895 598.64 Q 484.372 597.733 484.806 596.783 L 484.806 596.783 L 484.806 596.783 Q 485.241 595.833 486.526 595.09 L 486.526 595.09 L 486.526 595.09 Q 487.723 594.398 489.148 594.225 L 489.148 594.225 L 489.276 595.369 L 489.276 595.369 Q 487.895 595.554 486.988 596.077 L 486.988 596.077 L 486.988 596.077 Q 486.19 596.539 485.929 597.023 L 485.929 597.023 L 485.929 597.023 Q 485.667 597.508 485.921 597.948 L 485.921 597.948 L 485.921 597.948 Q 486.093 598.245 486.367 598.367 L 486.367 598.367 L 486.367 598.367 Q 486.64 598.489 487.088 598.483 L 487.088 598.483 L 487.088 598.483 Q 487.535 598.477 488.703 598.281 L 488.703 598.281 L 488.703 598.281 Q 490.3 597.999 491.044 598.218 L 491.044 598.218 L 491.044 598.218 Q 491.789 598.437 492.215 599.175 Z  M 498.42 598.468 L 498.42 598.468 L 498.42 598.468 Q 496.777 599.418 495.248 598.966 L 495.248 598.966 L 495.248 598.966 Q 493.719 598.514 492.691 596.734 L 492.691 596.734 L 492.691 596.734 Q 491.655 594.942 491.928 593.377 L 491.928 593.377 L 491.928 593.377 Q 492.202 591.811 493.69 590.951 L 493.69 590.951 L 493.69 590.951 Q 495.083 590.146 496.425 590.594 L 496.425 590.594 L 496.425 590.594 Q 497.766 591.042 498.634 592.543 L 498.634 592.543 L 499.044 593.254 L 493.937 596.204 L 493.937 596.204 Q 494.725 597.49 495.741 597.805 L 495.741 597.805 L 495.741 597.805 Q 496.758 598.12 497.894 597.464 L 497.894 597.464 L 497.894 597.464 Q 499.092 596.772 499.973 595.595 L 499.973 595.595 L 500.551 596.596 L 500.551 596.596 Q 500.104 597.197 499.638 597.616 L 499.638 597.616 L 499.638 597.616 Q 499.171 598.034 498.42 598.468 Z  M 494.219 591.899 L 494.219 591.899 L 494.219 591.899 Q 493.327 592.415 493.132 593.304 L 493.132 593.304 L 493.132 593.304 Q 492.937 594.193 493.436 595.275 L 493.436 595.275 L 497.312 593.036 L 497.312 593.036 Q 496.699 591.974 495.899 591.683 L 495.899 591.683 L 495.899 591.683 Q 495.099 591.391 494.219 591.899 Z  M 502.406 595.028 L 502.406 595.028 L 502.406 595.028 Q 502.144 594.575 502.216 594.223 L 502.216 594.223 L 502.216 594.223 Q 502.287 593.87 502.673 593.647 L 502.673 593.647 L 502.673 593.647 Q 503.065 593.421 503.42 593.527 L 503.42 593.527 L 503.42 593.527 Q 503.775 593.633 504.037 594.086 L 504.037 594.086 L 504.037 594.086 Q 504.291 594.526 504.204 594.892 L 504.204 594.892 L 504.204 594.892 Q 504.118 595.258 503.732 595.48 L 503.732 595.48 L 503.732 595.48 Q 503.387 595.68 503.037 595.598 L 503.037 595.598 L 503.037 595.598 Q 502.688 595.515 502.406 595.028 Z  M 442.676 630.494 L 441.343 631.264 L 437.47 627.7 L 437.47 627.7 Q 437.111 627.375 435.943 626.164 L 435.943 626.164 L 435.889 626.195 L 435.889 626.195 Q 436.302 627.536 436.47 628.295 L 436.47 628.295 L 437.575 633.441 L 436.276 634.191 L 429.97 627.945 L 431.147 627.265 L 431.147 627.265 Q 433.478 629.645 434.698 630.889 L 434.698 630.889 L 434.698 630.889 Q 435.918 632.134 436.265 632.61 L 436.265 632.61 L 436.319 632.578 L 436.319 632.578 Q 436.171 632.15 435.983 631.442 L 435.983 631.442 L 435.983 631.442 Q 435.795 630.734 435.709 630.305 L 435.709 630.305 L 434.611 625.264 L 435.828 624.561 L 439.613 628.05 L 439.613 628.05 Q 440.664 628.995 441.256 629.708 L 441.256 629.708 L 441.31 629.677 L 441.31 629.677 Q 441.197 629.417 441.022 628.842 L 441.022 628.842 L 441.022 628.842 Q 440.847 628.266 439.278 622.568 L 439.278 622.568 L 440.442 621.896 L 442.676 630.494 Z  M 445.488 627.912 L 445.488 627.912 L 445.488 627.912 Q 445.226 627.459 445.298 627.107 L 445.298 627.107 L 445.298 627.107 Q 445.369 626.754 445.755 626.531 L 445.755 626.531 L 445.755 626.531 Q 446.147 626.305 446.502 626.411 L 446.502 626.411 L 446.502 626.411 Q 446.857 626.517 447.119 626.971 L 447.119 626.971 L 447.119 626.971 Q 447.373 627.41 447.286 627.776 L 447.286 627.776 L 447.286 627.776 Q 447.2 628.142 446.814 628.365 L 446.814 628.365 L 446.814 628.365 Q 446.469 628.564 446.119 628.482 L 446.119 628.482 L 446.119 628.482 Q 445.77 628.4 445.488 627.912 Z  M 431.891 636.725 L 430.558 637.495 L 426.685 633.931 L 426.685 633.931 Q 426.326 633.606 425.158 632.395 L 425.158 632.395 L 425.103 632.427 L 425.103 632.427 Q 425.517 633.767 425.685 634.527 L 425.685 634.527 L 426.79 639.672 L 425.491 640.422 L 419.185 634.177 L 420.362 633.497 L 420.362 633.497 Q 422.693 635.876 423.913 637.12 L 423.913 637.12 L 423.913 637.12 Q 425.133 638.365 425.48 638.841 L 425.48 638.841 L 425.534 638.809 L 425.534 638.809 Q 425.386 638.381 425.198 637.673 L 425.198 637.673 L 425.198 637.673 Q 425.01 636.965 424.924 636.536 L 424.924 636.536 L 423.826 631.495 L 425.043 630.792 L 428.827 634.281 L 428.827 634.281 Q 429.879 635.226 430.471 635.939 L 430.471 635.939 L 430.525 635.908 L 430.525 635.908 Q 430.412 635.648 430.237 635.073 L 430.237 635.073 L 430.237 635.073 Q 430.062 634.497 428.493 628.799 L 428.493 628.799 L 429.657 628.127 L 431.891 636.725 Z  M 421.106 642.956 L 419.773 643.726 L 415.9 640.162 L 415.9 640.162 Q 415.541 639.837 414.372 638.626 L 414.372 638.626 L 414.318 638.658 L 414.318 638.658 Q 414.732 639.998 414.9 640.758 L 414.9 640.758 L 416.005 645.903 L 414.706 646.653 L 408.4 640.408 L 409.577 639.728 L 409.577 639.728 Q 411.908 642.107 413.128 643.351 L 413.128 643.351 L 413.128 643.351 Q 414.347 644.596 414.695 645.072 L 414.695 645.072 L 414.749 645.04 L 414.749 645.04 Q 414.6 644.612 414.413 643.904 L 414.413 643.904 L 414.413 643.904 Q 414.225 643.196 414.139 642.767 L 414.139 642.767 L 413.041 637.727 L 414.258 637.023 L 418.042 640.512 L 418.042 640.512 Q 419.093 641.457 419.686 642.17 L 419.686 642.17 L 419.74 642.139 L 419.74 642.139 Q 419.626 641.88 419.452 641.304 L 419.452 641.304 L 419.452 641.304 Q 419.277 640.728 417.708 635.03 L 417.708 635.03 L 418.872 634.358 L 421.106 642.956 Z " fill-rule="evenodd" fill="rgb(254,254,254)"/></g></g></svg>