<?xml version="1.0" encoding="UTF-8" standalone="no"?><!-- Generator: Gravit.io --><svg xmlns="http://www.w3.org/2000/svg" xmlns:xlink="http://www.w3.org/1999/xlink" style="isolation:isolate" viewBox="0 0 626.4 720" width="626.4pt" height="720pt"><defs><clipPath id="_clipPath_I0HXg1jeTXUIxsmxgw0Yis8L7TRWhTyT"><rect x="0" y="0" width="626.4" height="720"/></clipPath></defs><g clip-path="url(#_clipPath_I0HXg1jeTXUIxsmxgw0Yis8L7TRWhTyT)"><clipPath id="_clipPath_DO0Wg2w38z9XyLEZBs8EnHveKzFZEabw"><path d=" M 0 0 L 626.4 0 L 626.4 720 L 0 720 L 0 0 Z " fill="rgb(255,255,255)"/></clipPath><g clip-path="url(#_clipPath_DO0Wg2w38z9XyLEZBs8EnHveKzFZEabw)"><path d=" M 624.281 538.991 L 314.262 717.982 L 4.243 538.991 L 4.243 181.008 L 314.262 2.017 L 624.281 181.008 L 624.281 538.991 Z  M 594.16 521.601 L 314.262 683.202 L 34.364 521.601 L 34.364 198.398 L 314.262 36.797 L 594.16 198.398 L 594.16 521.601 Z " fill-rule="evenodd" fill="rgb(0,0,0)"/><g opacity="0.5"><path d=" M 601.872 525.81 L 308.1 695.419 L 14.328 525.81 L 14.328 186.592 L 308.1 16.983 L 601.872 186.592 L 601.872 525.81 Z " fill="rgb(43,142,79)"/></g><path d=" M 608.034 529.608 L 314.262 699.217 L 20.49 529.608 L 20.49 190.39 L 314.262 20.781 L 608.034 190.39 L 608.034 529.608 Z " fill="none" vector-effect="non-scaling-stroke" stroke-width="30" stroke="rgb(43,142,79)" stroke-linejoin="miter" stroke-linecap="square" stroke-miterlimit="3"/></g><g><path d=" M 351.468 318.49 C 277.595 316.986 210.935 353.925 156.277 385.756 L 66.197 245.82 C 154.925 191.766 187.235 179.47 241.183 213.84 L 351.468 318.49 Z " fill="rgb(155,199,137)"/><path d=" M 562.327 268.93 C 490.546 269.635 419.374 263.409 373.972 315.558 L 247.599 198.459 C 279.618 153.811 338.591 152.45 411.8 159.063 L 417.533 161.517 L 562.327 268.93 Z " fill="rgb(155,199,137)"/><clipPath id="_clipPath_EA0vLCFSNl67INp2MQdgrjfB1b07DD68"><path d=" M 61.034 245.423 L 151.115 385.36 C 205.772 353.528 272.433 316.591 346.306 318.095 L 346.306 318.095 L 236.02 213.443 C 215.751 200.53 198.543 194.204 180.243 194.206 L 180.243 194.206 C 149.836 194.209 116.425 211.679 61.034 245.423 Z " fill="rgb(255,255,255)"/></clipPath><g clip-path="url(#_clipPath_EA0vLCFSNl67INp2MQdgrjfB1b07DD68)"><path d=" M 227.404 281.449 C 227.404 285.773 223.902 289.275 219.578 289.275 C 215.257 289.275 211.753 285.773 211.753 281.449 C 211.753 277.127 215.257 273.625 219.578 273.625 C 223.902 273.625 227.404 277.127 227.404 281.449 Z " fill="rgb(169,171,174)"/><path d=" M 227.404 281.449 C 227.404 285.773 223.902 289.275 219.578 289.275 C 215.257 289.275 211.753 285.773 211.753 281.449 C 211.753 277.127 215.257 273.625 219.578 273.625 C 223.902 273.625 227.404 277.127 227.404 281.449 Z " fill="none" vector-effect="non-scaling-stroke" stroke-width="1" stroke="rgb(42,42,42)" stroke-linejoin="miter" stroke-linecap="square" stroke-miterlimit="3"/><path d=" M 200.451 294.311 C 200.451 298.631 196.945 302.133 192.626 302.133 C 188.306 302.133 184.8 298.631 184.8 294.311 C 184.8 289.988 188.306 286.484 192.626 286.484 C 196.945 286.484 200.451 289.988 200.451 294.311 Z " fill="rgb(169,171,174)"/><path d=" M 200.451 294.311 C 200.451 298.631 196.945 302.133 192.626 302.133 C 188.306 302.133 184.8 298.631 184.8 294.311 C 184.8 289.988 188.306 286.484 192.626 286.484 C 196.945 286.484 200.451 289.988 200.451 294.311 Z " fill="none" vector-effect="non-scaling-stroke" stroke-width="1" stroke="rgb(42,42,42)" stroke-linejoin="miter" stroke-linecap="square" stroke-miterlimit="3"/><path d=" M 226.325 307.358 C 226.325 311.677 222.553 315.183 217.901 315.183 C 213.248 315.183 209.48 311.677 209.48 307.358 C 209.48 303.037 213.248 299.535 217.901 299.535 C 222.553 299.535 226.325 303.037 226.325 307.358 Z " fill="rgb(244,137,57)"/><path d=" M 226.325 307.358 C 226.325 311.677 222.553 315.183 217.901 315.183 C 213.248 315.183 209.48 311.677 209.48 307.358 C 209.48 303.037 213.248 299.535 217.901 299.535 C 222.553 299.535 226.325 303.037 226.325 307.358 Z " fill="none" vector-effect="non-scaling-stroke" stroke-width="1" stroke="rgb(42,42,42)" stroke-linejoin="miter" stroke-linecap="square" stroke-miterlimit="3"/><path d=" M 205.699 283.092 C 205.699 287.416 202.197 290.918 197.873 290.918 C 193.552 290.918 190.052 287.416 190.052 283.092 C 190.052 278.77 193.552 275.27 197.873 275.27 C 202.197 275.27 205.699 278.77 205.699 283.092 Z " fill="rgb(244,137,57)"/><path d=" M 205.699 283.092 C 205.699 287.416 202.197 290.918 197.873 290.918 C 193.552 290.918 190.052 287.416 190.052 283.092 C 190.052 278.77 193.552 275.27 197.873 275.27 C 202.197 275.27 205.699 278.77 205.699 283.092 Z " fill="none" vector-effect="non-scaling-stroke" stroke-width="1" stroke="rgb(42,42,42)" stroke-linejoin="miter" stroke-linecap="square" stroke-miterlimit="3"/><path d=" M 221.206 286.521 C 221.206 290.84 217.704 294.343 213.383 294.343 C 209.059 294.343 205.558 290.84 205.558 286.521 C 205.558 282.198 209.059 278.694 213.383 278.694 C 217.704 278.694 221.206 282.198 221.206 286.521 Z " fill="rgb(244,137,57)"/><path d=" M 221.206 286.521 C 221.206 290.84 217.704 294.343 213.383 294.343 C 209.059 294.343 205.558 290.84 205.558 286.521 C 205.558 282.198 209.059 278.694 213.383 278.694 C 217.704 278.694 221.206 282.198 221.206 286.521 Z " fill="none" vector-effect="non-scaling-stroke" stroke-width="1" stroke="rgb(42,42,42)" stroke-linejoin="miter" stroke-linecap="square" stroke-miterlimit="3"/><path d=" M 232.878 290.959 C 232.878 295.281 229.378 298.783 225.055 298.783 C 220.735 298.783 217.232 295.281 217.232 290.959 C 217.232 286.641 220.735 283.134 225.055 283.134 C 229.378 283.134 232.878 286.641 232.878 290.959 Z " fill="rgb(169,171,174)"/><path d=" M 232.878 290.959 C 232.878 295.281 229.378 298.783 225.055 298.783 C 220.735 298.783 217.232 295.281 217.232 290.959 C 217.232 286.641 220.735 283.134 225.055 283.134 C 229.378 283.134 232.878 286.641 232.878 290.959 Z " fill="none" vector-effect="non-scaling-stroke" stroke-width="1" stroke="rgb(42,42,42)" stroke-linejoin="miter" stroke-linecap="square" stroke-miterlimit="3"/><path d=" M 204.245 304.725 C 204.245 309.047 200.74 312.551 196.418 312.551 C 192.096 312.551 188.594 309.047 188.594 304.725 C 188.594 300.405 192.096 296.903 196.418 296.903 C 200.74 296.903 204.245 300.405 204.245 304.725 Z " fill="rgb(244,137,57)"/><path d=" M 204.245 304.725 C 204.245 309.047 200.74 312.551 196.418 312.551 C 192.096 312.551 188.594 309.047 188.594 304.725 C 188.594 300.405 192.096 296.903 196.418 296.903 C 200.74 296.903 204.245 300.405 204.245 304.725 Z " fill="none" vector-effect="non-scaling-stroke" stroke-width="1" stroke="rgb(42,42,42)" stroke-linejoin="miter" stroke-linecap="square" stroke-miterlimit="3"/><path d=" M 215.935 277.945 C 215.935 282.264 212.431 285.767 208.108 285.767 C 203.789 285.767 200.287 282.264 200.287 277.945 C 200.287 273.623 203.789 270.121 208.108 270.121 C 212.431 270.121 215.935 273.623 215.935 277.945 Z " fill="rgb(169,171,174)"/><path d=" M 215.935 277.945 C 215.935 282.264 212.431 285.767 208.108 285.767 C 203.789 285.767 200.287 282.264 200.287 277.945 C 200.287 273.623 203.789 270.121 208.108 270.121 C 212.431 270.121 215.935 273.623 215.935 277.945 Z " fill="none" vector-effect="non-scaling-stroke" stroke-width="1" stroke="rgb(42,42,42)" stroke-linejoin="miter" stroke-linecap="square" stroke-miterlimit="3"/><path d=" M 231.585 300.795 C 231.585 305.115 228.079 308.619 223.758 308.619 C 219.438 308.619 215.935 305.115 215.935 300.795 C 215.935 296.474 219.438 292.973 223.758 292.973 C 228.079 292.973 231.585 296.474 231.585 300.795 Z " fill="rgb(244,137,57)"/><path d=" M 231.585 300.795 C 231.585 305.115 228.079 308.619 223.758 308.619 C 219.438 308.619 215.935 305.115 215.935 300.795 C 215.935 296.474 219.438 292.973 223.758 292.973 C 228.079 292.973 231.585 296.474 231.585 300.795 Z " fill="none" vector-effect="non-scaling-stroke" stroke-width="1" stroke="rgb(42,42,42)" stroke-linejoin="miter" stroke-linecap="square" stroke-miterlimit="3"/><path d=" M 215.935 310.504 C 215.935 314.828 212.431 318.33 208.108 318.33 C 203.789 318.33 200.287 314.828 200.287 310.504 C 200.287 306.183 203.789 302.678 208.108 302.678 C 212.431 302.678 215.935 306.183 215.935 310.504 Z " fill="rgb(169,171,174)"/><path d=" M 215.935 310.504 C 215.935 314.828 212.431 318.33 208.108 318.33 C 203.789 318.33 200.287 314.828 200.287 310.504 C 200.287 306.183 203.789 302.678 208.108 302.678 C 212.431 302.678 215.935 306.183 215.935 310.504 Z " fill="none" vector-effect="non-scaling-stroke" stroke-width="1" stroke="rgb(42,42,42)" stroke-linejoin="miter" stroke-linecap="square" stroke-miterlimit="3"/><path d=" M 211.871 302.68 C 211.871 307 208.371 310.504 204.048 310.504 C 199.727 310.504 196.222 307 196.222 302.68 C 196.222 298.355 199.727 294.854 204.048 294.854 C 208.371 294.854 211.871 298.355 211.871 302.68 Z " fill="rgb(169,171,174)"/><path d=" M 211.871 302.68 C 211.871 307 208.371 310.504 204.048 310.504 C 199.727 310.504 196.222 307 196.222 302.68 C 196.222 298.355 199.727 294.854 204.048 294.854 C 208.371 294.854 211.871 298.355 211.871 302.68 Z " fill="none" vector-effect="non-scaling-stroke" stroke-width="1" stroke="rgb(42,42,42)" stroke-linejoin="miter" stroke-linecap="square" stroke-miterlimit="3"/><path d=" M 223.048 298.313 C 223.048 302.633 219.546 306.139 215.226 306.139 C 210.902 306.139 207.399 302.633 207.399 298.313 C 207.399 293.991 210.902 290.491 215.226 290.491 C 219.546 290.491 223.048 293.991 223.048 298.313 Z " fill="rgb(169,171,174)"/><path d=" M 223.048 298.313 C 223.048 302.633 219.546 306.139 215.226 306.139 C 210.902 306.139 207.399 302.633 207.399 298.313 C 207.399 293.991 210.902 290.491 215.226 290.491 C 219.546 290.491 223.048 293.991 223.048 298.313 Z " fill="none" vector-effect="non-scaling-stroke" stroke-width="1" stroke="rgb(42,42,42)" stroke-linejoin="miter" stroke-linecap="square" stroke-miterlimit="3"/><path d=" M 212.068 291.119 C 212.068 295.439 208.563 298.943 204.245 298.943 C 199.925 298.943 196.418 295.439 196.418 291.119 C 196.418 286.799 199.925 283.295 204.245 283.295 C 208.563 283.295 212.068 286.799 212.068 291.119 Z " fill="rgb(244,137,57)"/><path d=" M 212.068 291.119 C 212.068 295.439 208.563 298.943 204.245 298.943 C 199.925 298.943 196.418 295.439 196.418 291.119 C 196.418 286.799 199.925 283.295 204.245 283.295 C 208.563 283.295 212.068 286.799 212.068 291.119 Z " fill="none" vector-effect="non-scaling-stroke" stroke-width="1" stroke="rgb(42,42,42)" stroke-linejoin="miter" stroke-linecap="square" stroke-miterlimit="3"/><path d=" M 90.474 293.246 C 90.18 300.787 94.719 306.67 100.219 311.24 C 106.279 315.746 114.761 319.783 125.249 323.079 C 146.221 329.674 175.044 333.684 206.745 333.684 L 208.835 333.684 L 208.835 332.695 C 145.139 332.695 98.362 314.475 98.362 293.246 L 90.475 293.246 L 90.474 293.246 Z " fill="rgb(43,142,79)"/><path d=" M 90.474 295.215 C 90.18 287.672 94.719 281.793 100.219 277.219 C 106.279 272.715 114.761 268.676 125.249 265.379 C 146.221 258.785 175.044 254.777 206.745 254.777 L 208.835 254.777 L 208.835 255.764 C 145.139 255.764 98.362 273.985 98.362 295.215 L 90.475 295.215 L 90.474 295.215 Z " fill="rgb(43,142,79)"/><path d=" M 327.19 293.246 C 327.481 300.787 322.943 306.67 317.443 311.24 C 311.382 315.746 302.903 319.783 292.414 323.079 C 271.44 329.674 242.618 333.684 210.918 333.684 L 208.826 333.684 L 208.826 332.695 C 272.523 332.695 319.299 314.475 319.299 293.246 L 327.186 293.246 L 327.19 293.246 Z " fill="rgb(43,142,79)"/><path d=" M 327.19 295.215 C 327.481 287.672 322.943 281.793 317.443 277.219 C 311.382 272.715 302.903 268.676 292.414 265.379 C 271.44 258.785 242.618 254.777 210.918 254.777 L 208.826 254.777 L 208.826 255.764 C 272.523 255.764 319.299 273.985 319.299 295.215 L 327.186 295.215 L 327.19 295.215 Z " fill="rgb(43,142,79)"/><path d=" M 124.442 377.223 C 129.572 382.763 136.936 383.712 144.061 383.057 C 151.529 381.959 160.38 378.815 170.131 373.731 C 189.624 363.562 212.838 346.018 235.254 323.602 L 236.733 322.121 L 236.037 321.423 C 190.993 366.467 145.035 386.657 130.024 371.645 L 124.442 377.223 Z " fill="rgb(43,142,79)"/><path d=" M 125.836 378.615 C 120.296 373.49 119.347 366.121 120.003 358.998 C 121.105 351.531 124.246 342.678 129.328 332.929 C 139.499 313.435 157.045 290.222 179.461 267.806 L 180.937 266.326 L 181.638 267.023 C 136.596 312.066 116.403 358.025 131.414 373.037 L 125.836 378.615 Z " fill="rgb(43,142,79)"/><path d=" M 291.828 209.84 C 297.368 214.965 298.316 222.334 297.66 229.459 C 296.561 236.924 293.418 245.778 288.334 255.526 C 278.165 275.02 260.62 298.233 238.205 320.651 L 236.724 322.129 L 236.026 321.434 C 281.068 276.389 301.262 230.432 286.248 215.42 L 291.828 209.84 Z " fill="rgb(43,142,79)"/><path d=" M 293.221 211.232 C 288.094 205.691 280.724 204.742 273.603 205.398 C 266.135 206.498 257.282 209.641 247.533 214.724 C 228.043 224.893 204.826 242.441 182.411 264.855 L 180.929 266.334 L 181.629 267.033 C 226.67 221.99 272.629 201.798 287.642 216.81 L 293.221 211.232 Z " fill="rgb(43,142,79)"/><path d=" M 125.836 209.844 C 120.296 214.969 119.347 222.336 120.003 229.461 C 121.105 236.93 124.246 245.782 129.328 255.529 C 139.499 275.022 157.045 298.236 179.461 320.653 L 180.937 322.131 L 181.638 321.435 C 136.596 276.395 116.403 230.434 131.414 215.422 L 125.836 209.844 Z " fill="rgb(43,142,79)"/><path d=" M 124.442 211.234 C 129.572 205.693 136.936 204.745 144.061 205.4 C 151.529 206.501 160.38 209.644 170.131 214.726 C 189.624 224.896 212.838 242.441 235.254 264.857 L 236.733 266.336 L 236.037 267.035 C 190.993 221.992 145.035 201.8 130.024 216.814 L 124.442 211.236 L 124.442 211.234 Z " fill="rgb(43,142,79)"/><path d=" M 293.221 377.225 C 288.094 382.766 280.724 383.715 273.603 383.059 C 266.135 381.959 257.282 378.817 247.533 373.733 C 228.043 363.565 204.826 346.02 182.411 323.602 L 180.929 322.123 L 181.629 321.426 C 226.67 366.469 272.629 386.659 287.642 371.647 L 293.221 377.223 L 293.221 377.225 Z " fill="rgb(43,142,79)"/><path d=" M 291.828 378.617 C 297.368 373.492 298.316 366.123 297.66 359 C 296.561 351.533 293.418 342.679 288.334 332.932 C 278.165 313.437 260.62 290.224 238.205 267.808 L 236.724 266.33 L 236.026 267.025 C 281.068 312.066 301.262 358.027 286.248 373.04 L 291.828 378.617 Z " fill="rgb(43,142,79)"/><path d=" M 209.817 175.873 C 202.274 175.58 196.393 180.117 191.818 185.619 C 187.317 191.678 183.281 200.158 179.981 210.646 C 173.385 231.621 169.377 260.441 169.377 292.143 L 169.377 294.238 L 170.363 294.238 C 170.363 230.537 188.586 183.762 209.817 183.762 L 209.817 175.873 Z " fill="rgb(43,142,79)"/><path d=" M 207.847 175.873 C 215.39 175.58 221.269 180.117 225.842 185.619 C 230.347 191.678 234.386 200.158 237.68 210.646 C 244.274 231.621 248.285 260.441 248.285 292.143 L 248.285 294.238 L 247.297 294.238 C 247.297 230.537 229.075 183.762 207.847 183.762 L 207.847 175.873 Z " fill="rgb(43,142,79)"/><path d=" M 209.817 412.588 C 202.274 412.879 196.393 408.34 191.818 402.84 C 187.317 396.781 183.281 388.301 179.981 377.813 C 173.385 356.84 169.377 328.016 169.377 296.317 L 169.377 294.224 L 170.363 294.224 C 170.363 357.922 188.586 404.697 209.817 404.697 L 209.817 412.588 Z " fill="rgb(43,142,79)"/><path d=" M 207.847 412.588 C 215.39 412.879 221.269 408.34 225.842 402.84 C 230.347 396.781 234.386 388.301 237.68 377.813 C 244.274 356.84 248.285 328.016 248.285 296.317 L 248.285 294.224 L 247.297 294.224 C 247.297 357.922 229.075 404.697 207.847 404.697 L 207.847 412.588 Z " fill="rgb(43,142,79)"/></g><clipPath id="_clipPath_XIC9PvhubXX17e1JdVDQHRlq7ggyYgj0"><path d=" M 242.437 198.061 L 368.809 315.161 C 409.391 268.548 470.563 268.575 534.356 268.602 L 534.356 268.602 C 541.931 268.606 549.544 268.609 557.165 268.534 L 557.165 268.534 L 412.37 161.12 L 406.638 158.667 C 387.433 156.932 369.209 155.746 352.193 155.746 L 352.193 155.746 C 304.344 155.746 266.056 165.126 242.437 198.061 Z " fill="rgb(255,255,255)"/></clipPath><g clip-path="url(#_clipPath_XIC9PvhubXX17e1JdVDQHRlq7ggyYgj0)"><path d=" M 384.116 233.039 C 384.116 237.342 380.625 240.828 376.324 240.828 C 372.023 240.828 368.531 237.342 368.531 233.039 C 368.531 228.734 372.023 225.246 376.324 225.246 C 380.625 225.246 384.116 228.734 384.116 233.039 Z " fill="rgb(169,171,174)"/><path d=" M 384.116 233.039 C 384.116 237.342 380.625 240.828 376.324 240.828 C 372.023 240.828 368.531 237.342 368.531 233.039 C 368.531 228.734 372.023 225.246 376.324 225.246 C 380.625 225.246 384.116 228.734 384.116 233.039 Z " fill="none" vector-effect="non-scaling-stroke" stroke-width="1" stroke="rgb(42,42,42)" stroke-linejoin="miter" stroke-linecap="square" stroke-miterlimit="3"/><path d=" M 408.701 247.213 C 408.701 251.514 404.945 255.004 400.312 255.004 C 395.679 255.004 391.928 251.514 391.928 247.213 C 391.928 242.91 395.679 239.423 400.312 239.423 C 404.945 239.423 408.701 242.91 408.701 247.213 Z " fill="rgb(244,137,57)"/><path d=" M 408.701 247.213 C 408.701 251.514 404.945 255.004 400.312 255.004 C 395.679 255.004 391.928 251.514 391.928 247.213 C 391.928 242.91 395.679 239.423 400.312 239.423 C 404.945 239.423 408.701 242.91 408.701 247.213 Z " fill="none" vector-effect="non-scaling-stroke" stroke-width="1" stroke="rgb(42,42,42)" stroke-linejoin="miter" stroke-linecap="square" stroke-miterlimit="3"/><path d=" M 389.342 221.869 C 389.342 226.174 385.855 229.661 381.55 229.661 C 377.246 229.661 373.76 226.174 373.76 221.869 C 373.76 217.565 377.246 214.078 381.55 214.078 C 385.855 214.078 389.342 217.565 389.342 221.869 Z " fill="rgb(244,137,57)"/><path d=" M 389.342 221.869 C 389.342 226.174 385.855 229.661 381.55 229.661 C 377.246 229.661 373.76 226.174 373.76 221.869 C 373.76 217.565 377.246 214.078 381.55 214.078 C 385.855 214.078 389.342 217.565 389.342 221.869 Z " fill="none" vector-effect="non-scaling-stroke" stroke-width="1" stroke="rgb(42,42,42)" stroke-linejoin="miter" stroke-linecap="square" stroke-miterlimit="3"/><path d=" M 410.465 219.964 C 410.465 224.266 406.978 227.753 402.675 227.753 C 398.369 227.753 394.884 224.266 394.884 219.964 C 394.884 215.659 398.369 212.17 402.675 212.17 C 406.978 212.17 410.465 215.659 410.465 219.964 Z " fill="rgb(244,137,57)"/><path d=" M 410.465 219.964 C 410.465 224.266 406.978 227.753 402.675 227.753 C 398.369 227.753 394.884 224.266 394.884 219.964 C 394.884 215.659 398.369 212.17 402.675 212.17 C 406.978 212.17 410.465 215.659 410.465 219.964 Z " fill="none" vector-effect="non-scaling-stroke" stroke-width="1" stroke="rgb(42,42,42)" stroke-linejoin="miter" stroke-linecap="square" stroke-miterlimit="3"/><path d=" M 416.407 229.703 C 416.407 234.007 412.922 237.493 408.616 237.493 C 404.315 237.493 400.826 234.007 400.826 229.703 C 400.826 225.401 404.315 221.91 408.616 221.91 C 412.922 221.91 416.407 225.401 416.407 229.703 Z " fill="rgb(169,171,174)"/><path d=" M 416.407 229.703 C 416.407 234.007 412.922 237.493 408.616 237.493 C 404.315 237.493 400.826 234.007 400.826 229.703 C 400.826 225.401 404.315 221.91 408.616 221.91 C 412.922 221.91 416.407 225.401 416.407 229.703 Z " fill="none" vector-effect="non-scaling-stroke" stroke-width="1" stroke="rgb(42,42,42)" stroke-linejoin="miter" stroke-linecap="square" stroke-miterlimit="3"/><path d=" M 387.895 243.41 C 387.895 247.714 384.405 251.203 380.101 251.203 C 375.797 251.203 372.31 247.714 372.31 243.41 C 372.31 239.107 375.797 235.62 380.101 235.62 C 384.405 235.62 387.895 239.107 387.895 243.41 Z " fill="rgb(244,137,57)"/><path d=" M 387.895 243.41 C 387.895 247.714 384.405 251.203 380.101 251.203 C 375.797 251.203 372.31 247.714 372.31 243.41 C 372.31 239.107 375.797 235.62 380.101 235.62 C 384.405 235.62 387.895 239.107 387.895 243.41 Z " fill="none" vector-effect="non-scaling-stroke" stroke-width="1" stroke="rgb(42,42,42)" stroke-linejoin="miter" stroke-linecap="square" stroke-miterlimit="3"/><path d=" M 399.534 216.743 C 399.534 221.045 396.045 224.532 391.74 224.532 C 387.439 224.532 383.952 221.045 383.952 216.743 C 383.952 212.439 387.439 208.952 391.74 208.952 C 396.045 208.952 399.534 212.439 399.534 216.743 Z " fill="rgb(169,171,174)"/><path d=" M 399.534 216.743 C 399.534 221.045 396.045 224.532 391.74 224.532 C 387.439 224.532 383.952 221.045 383.952 216.743 C 383.952 212.439 387.439 208.952 391.74 208.952 C 396.045 208.952 399.534 212.439 399.534 216.743 Z " fill="none" vector-effect="non-scaling-stroke" stroke-width="1" stroke="rgb(42,42,42)" stroke-linejoin="miter" stroke-linecap="square" stroke-miterlimit="3"/><path d=" M 415.118 239.498 C 415.118 243.799 411.627 247.287 407.324 247.287 C 403.022 247.287 399.534 243.799 399.534 239.498 C 399.534 235.193 403.022 231.707 407.324 231.707 C 411.627 231.707 415.118 235.193 415.118 239.498 Z " fill="rgb(244,137,57)"/><path d=" M 415.118 239.498 C 415.118 243.799 411.627 247.287 407.324 247.287 C 403.022 247.287 399.534 243.799 399.534 239.498 C 399.534 235.193 403.022 231.707 407.324 231.707 C 411.627 231.707 415.118 235.193 415.118 239.498 Z " fill="none" vector-effect="non-scaling-stroke" stroke-width="1" stroke="rgb(42,42,42)" stroke-linejoin="miter" stroke-linecap="square" stroke-miterlimit="3"/><path d=" M 397.174 249.165 C 397.174 253.471 393.685 256.958 389.38 256.958 C 385.079 256.958 381.592 253.471 381.592 249.165 C 381.592 244.861 385.079 241.371 389.38 241.371 C 393.685 241.371 397.174 244.861 397.174 249.165 Z " fill="rgb(169,171,174)"/><path d=" M 397.174 249.165 C 397.174 253.471 393.685 256.958 389.38 256.958 C 385.079 256.958 381.592 253.471 381.592 249.165 C 381.592 244.861 385.079 241.371 389.38 241.371 C 393.685 241.371 397.174 244.861 397.174 249.165 Z " fill="none" vector-effect="non-scaling-stroke" stroke-width="1" stroke="rgb(42,42,42)" stroke-linejoin="miter" stroke-linecap="square" stroke-miterlimit="3"/><path d=" M 402.569 240.193 C 402.569 244.495 399.084 247.984 394.779 247.984 C 390.476 247.984 386.986 244.495 386.986 240.193 C 386.986 235.886 390.476 232.4 394.779 232.4 C 399.084 232.4 402.569 235.886 402.569 240.193 Z " fill="rgb(169,171,174)"/><path d=" M 402.569 240.193 C 402.569 244.495 399.084 247.984 394.779 247.984 C 390.476 247.984 386.986 244.495 386.986 240.193 C 386.986 235.886 390.476 232.4 394.779 232.4 C 399.084 232.4 402.569 235.886 402.569 240.193 Z " fill="none" vector-effect="non-scaling-stroke" stroke-width="1" stroke="rgb(42,42,42)" stroke-linejoin="miter" stroke-linecap="square" stroke-miterlimit="3"/><path d=" M 404.257 228.763 C 404.257 233.065 400.769 236.557 396.468 236.557 C 392.163 236.557 388.674 233.065 388.674 228.763 C 388.674 224.46 392.163 220.974 396.468 220.974 C 400.769 220.974 404.257 224.46 404.257 228.763 Z " fill="rgb(169,171,174)"/><path d=" M 404.257 228.763 C 404.257 233.065 400.769 236.557 396.468 236.557 C 392.163 236.557 388.674 233.065 388.674 228.763 C 388.674 224.46 392.163 220.974 396.468 220.974 C 400.769 220.974 404.257 224.46 404.257 228.763 Z " fill="none" vector-effect="non-scaling-stroke" stroke-width="1" stroke="rgb(42,42,42)" stroke-linejoin="miter" stroke-linecap="square" stroke-miterlimit="3"/><path d=" M 394.106 231.042 C 394.106 235.345 390.616 238.832 386.316 238.832 C 382.015 238.832 378.523 235.345 378.523 231.042 C 378.523 226.74 382.015 223.251 386.316 223.251 C 390.616 223.251 394.106 226.74 394.106 231.042 Z " fill="rgb(244,137,57)"/><path d=" M 394.106 231.042 C 394.106 235.345 390.616 238.832 386.316 238.832 C 382.015 238.832 378.523 235.345 378.523 231.042 C 378.523 226.74 382.015 223.251 386.316 223.251 C 390.616 223.251 394.106 226.74 394.106 231.042 Z " fill="none" vector-effect="non-scaling-stroke" stroke-width="1" stroke="rgb(42,42,42)" stroke-linejoin="miter" stroke-linecap="square" stroke-miterlimit="3"/><path d=" M 274.605 231.979 C 274.313 239.489 278.831 245.346 284.309 249.898 C 290.343 254.383 298.79 258.405 309.232 261.686 C 330.117 268.254 358.818 272.246 390.383 272.246 L 392.465 272.246 L 392.465 271.263 C 329.039 271.263 282.46 253.119 282.46 231.979 L 274.605 231.979 L 274.605 231.979 Z " fill="rgb(43,142,79)"/><path d=" M 274.605 233.94 C 274.313 226.43 278.831 220.575 284.309 216.02 C 290.343 211.536 298.79 207.514 309.232 204.231 C 330.117 197.666 358.818 193.674 390.383 193.674 L 392.465 193.674 L 392.465 194.656 C 329.039 194.656 282.46 212.799 282.46 233.94 L 274.605 233.94 L 274.605 233.94 Z " fill="rgb(43,142,79)"/><path d=" M 510.319 231.979 C 510.61 239.489 506.09 245.346 500.613 249.898 C 494.579 254.383 486.134 258.405 475.69 261.686 C 454.805 268.254 426.105 272.246 394.539 272.246 L 392.456 272.246 L 392.456 271.263 C 455.883 271.263 502.462 253.119 502.462 231.979 L 510.315 231.979 L 510.319 231.979 Z " fill="rgb(43,142,79)"/><path d=" M 510.319 233.94 C 510.61 226.43 506.09 220.575 500.613 216.02 C 494.579 211.536 486.134 207.514 475.69 204.231 C 454.805 197.666 426.105 193.674 394.539 193.674 L 392.456 193.674 L 392.456 194.656 C 455.883 194.656 502.462 212.799 502.462 233.94 L 510.315 233.94 L 510.319 233.94 Z " fill="rgb(43,142,79)"/><path d=" M 308.429 315.601 C 313.537 321.119 320.87 322.063 327.965 321.411 C 335.401 320.317 344.215 317.187 353.925 312.123 C 373.335 301.998 396.451 284.528 418.771 262.207 L 420.244 260.733 L 419.552 260.038 C 374.699 304.891 328.934 324.996 313.987 310.047 L 308.429 315.601 Z " fill="rgb(43,142,79)"/><path d=" M 309.817 316.988 C 304.301 311.884 303.356 304.547 304.008 297.453 C 305.105 290.019 308.234 281.203 313.294 271.496 C 323.422 252.084 340.894 228.968 363.214 206.648 L 364.685 205.174 L 365.382 205.869 C 320.531 250.72 300.423 296.485 315.371 311.433 L 309.817 316.988 Z " fill="rgb(43,142,79)"/><path d=" M 475.107 148.926 C 480.623 154.03 481.567 161.368 480.914 168.462 C 479.819 175.897 476.691 184.711 471.628 194.418 C 461.502 213.831 444.03 236.946 421.711 259.269 L 420.237 260.74 L 419.541 260.048 C 464.393 215.195 484.501 169.431 469.551 154.483 L 475.107 148.926 Z " fill="rgb(43,142,79)"/><path d=" M 476.494 150.313 C 471.388 144.795 464.05 143.849 456.959 144.503 C 449.523 145.597 440.706 148.728 431 153.791 C 411.592 163.916 388.473 181.389 366.153 203.71 L 364.677 205.181 L 365.373 205.876 C 410.224 161.025 455.989 140.918 470.939 155.868 L 476.494 150.313 Z " fill="rgb(43,142,79)"/><path d=" M 309.817 148.93 C 304.301 154.034 303.356 161.369 304.008 168.465 C 305.105 175.901 308.234 184.716 313.294 194.422 C 323.422 213.832 340.894 236.949 363.214 259.27 L 364.685 260.743 L 365.382 260.049 C 320.531 215.201 300.423 169.434 315.371 154.485 L 309.817 148.93 Z " fill="rgb(43,142,79)"/><path d=" M 308.429 150.314 C 313.537 144.797 320.87 143.853 327.965 144.504 C 335.401 145.601 344.215 148.731 353.925 153.792 C 373.335 163.919 396.451 181.39 418.771 203.71 L 420.244 205.184 L 419.552 205.878 C 374.699 161.027 328.934 140.921 313.987 155.871 L 308.429 150.316 L 308.429 150.314 Z " fill="rgb(43,142,79)"/><path d=" M 476.494 315.604 C 471.388 321.121 464.05 322.067 456.959 321.414 C 449.523 320.319 440.706 317.188 431 312.126 C 411.592 302 388.473 284.53 366.153 262.208 L 364.677 260.735 L 365.373 260.041 C 410.224 304.894 455.989 324.999 470.939 310.049 L 476.494 315.601 L 476.494 315.604 Z " fill="rgb(43,142,79)"/><path d=" M 475.107 316.99 C 480.623 311.886 481.567 304.549 480.914 297.456 C 479.819 290.02 476.691 281.204 471.628 271.498 C 461.502 252.086 444.03 228.97 421.711 206.649 L 420.237 205.177 L 419.541 205.87 C 464.393 250.72 484.501 296.487 469.551 311.436 L 475.107 316.99 Z " fill="rgb(43,142,79)"/><path d=" M 393.443 115.104 C 385.932 114.812 380.075 119.33 375.521 124.809 C 371.038 130.842 367.019 139.287 363.733 149.73 C 357.166 170.616 353.174 199.315 353.174 230.881 L 353.174 232.967 L 354.156 232.967 C 354.156 169.537 372.301 122.959 393.443 122.959 L 393.443 115.104 Z " fill="rgb(43,142,79)"/><path d=" M 391.481 115.104 C 398.992 114.812 404.846 119.33 409.4 124.809 C 413.885 130.842 417.907 139.287 421.188 149.73 C 427.753 170.616 431.747 199.315 431.747 230.881 L 431.747 232.967 L 430.764 232.967 C 430.764 169.537 412.619 122.959 391.481 122.959 L 391.481 115.104 Z " fill="rgb(43,142,79)"/><path d=" M 393.443 350.816 C 385.932 351.106 380.075 346.587 375.521 341.11 C 371.038 335.078 367.019 326.631 363.733 316.188 C 357.166 295.303 353.174 266.602 353.174 235.037 L 353.174 232.953 L 354.156 232.953 C 354.156 296.382 372.301 342.959 393.443 342.959 L 393.443 350.816 Z " fill="rgb(43,142,79)"/><path d=" M 391.481 350.816 C 398.992 351.106 404.846 346.587 409.4 341.11 C 413.885 335.078 417.907 326.631 421.188 316.188 C 427.753 295.303 431.747 266.602 431.747 235.037 L 431.747 232.953 L 430.764 232.953 C 430.764 296.382 412.619 342.959 391.481 342.959 L 391.481 350.816 Z " fill="rgb(43,142,79)"/></g><clipPath id="_clipPath_Hq9xV61xEgWq2Y2B5GbLlTEPb0qJaJyH"><path d=" M 0 0 L 626.4 0 L 626.4 720 L 0 720 L 0 0 Z " fill="rgb(255,255,255)"/></clipPath><g clip-path="url(#_clipPath_Hq9xV61xEgWq2Y2B5GbLlTEPb0qJaJyH)"><path d=" M 147.186 408.725 L 140.352 466.352 L 162.342 456.694 L 209.755 430.683 L 321.046 383.262 L 376.836 382.362 L 414.653 365.361 L 465.652 341.95 L 555.445 334.737 L 612.484 330.082 L 598.005 284.444 L 598.666 273.156 L 565.171 276.698 L 493.869 280.51 L 460.907 284.927 L 429.352 294.446 L 406.326 307.604 L 385.919 327.825 L 380.697 333.577 L 366.222 329.971 L 344.081 328.893 L 317.011 331.53 L 282.215 340.778 L 250.991 353.745 L 224.328 367.27 L 188.746 386.928 L 147.186 408.725 Z " fill="rgb(224,225,226)"/><path d=" M 147.186 408.725 L 140.352 466.352 L 162.342 456.694 L 209.755 430.683 L 321.046 383.262 L 376.836 382.362 L 414.653 365.361 L 465.652 341.95 L 555.445 334.737 L 612.484 330.082 L 598.005 284.444 L 598.666 273.156 L 565.171 276.698 L 493.869 280.51 L 460.907 284.927 L 429.352 294.446 L 406.326 307.604 L 385.919 327.825 L 380.697 333.577 L 366.222 329.971 L 344.081 328.893 L 317.011 331.53 L 282.215 340.778 L 250.991 353.745 L 224.328 367.27 L 188.746 386.928 L 147.186 408.725 Z " fill="none" vector-effect="non-scaling-stroke" stroke-width="3" stroke="rgb(56,54,54)" stroke-linejoin="miter" stroke-linecap="square" stroke-miterlimit="3"/><path d=" M 594.753 268.763 C 600.178 267.354 598.235 273.561 603.659 272.159 C 606.623 275.897 599.286 280.819 602.173 289.876 L 598.917 289.045 L 596.898 291.734 C 592.933 291.032 596.039 283.022 594.925 279.375 L 595.634 274.543 L 591.271 272.357 L 591.242 270.588 L 593.914 271.428 L 594.753 268.763 Z " fill="rgb(42,42,42)"/><path d=" M 600.167 292.565 L 602.189 289.877 C 613.438 303.915 608.927 303.915 611.955 314.917 C 614.338 323.577 615.175 328.492 616.548 337.37 C 562.405 343.165 538.247 339.774 486.478 347.351 C 470.184 349.735 444.288 359.101 429.959 363.446 C 408.661 369.911 401.168 385.436 375.515 389.1 C 362.98 390.893 353.604 386.28 340.105 387.909 C 323.774 389.872 304.422 401.471 287.34 408.221 C 236.511 428.328 183.438 450.19 137.994 474.343 C 124.006 460.456 115.815 441.955 105.349 425.325 C 75.031 377.143 41.807 327.495 10.947 278.208 C 9.273 272.519 16.679 275.629 17.941 272.783 L 20.61 273.627 L 23.249 272.698 C 61.157 333.071 100.161 392.311 139.393 451.326 C 140.386 447.645 137.017 439.742 140.962 438.915 L 143.071 441.534 L 146.299 440.593 C 148.771 448.318 143.224 457.216 144.815 458.316 C 209.212 425.461 257.832 377.334 355.845 377.038 C 354.018 356.696 364.665 348.429 371.111 336.092 C 368.306 335.989 364.378 337.051 364.008 334.434 L 364.847 331.768 L 363.922 329.129 C 365.431 329.434 365.573 328.413 365.662 327.333 L 368.026 325.148 L 367.344 321.994 C 374.184 322.127 374.436 329.059 379.869 330.646 L 382.058 333.005 L 385.205 332.325 C 384.151 340.008 377.175 341.96 376.646 350.161 C 384.974 349.512 389.089 344.79 399.587 346.253 C 406.593 348.009 406.51 357.09 410.461 362.001 C 444.321 318.737 529.472 325.135 604.473 321.698 C 602.204 311.451 596.841 304.401 596.906 291.742 L 600.194 292.563 L 600.167 292.565 Z " fill="rgb(42,42,42)"/><path d=" M 21.137 270.078 L 17.906 271.015 C 18.008 268.213 16.945 264.279 19.56 263.91 L 21.668 266.53 L 24.896 265.59 C 24.795 268.395 25.857 272.324 23.242 272.697 L 21.137 270.078 Z " fill="rgb(42,42,42)"/><path d=" M 600.157 292.565 C 599.743 291.389 599.335 290.219 598.922 289.045" fill="none" vector-effect="non-scaling-stroke" stroke-width="3.159" stroke="rgb(42,42,42)" stroke-linejoin="miter" stroke-linecap="square" stroke-miterlimit="3"/><path d=" M 20.603 273.626 C 20.655 272.445 20.89 271.262 21.136 270.078" fill="none" vector-effect="non-scaling-stroke" stroke-width="3.079" stroke="rgb(42,42,42)" stroke-linejoin="miter" stroke-linecap="square" stroke-miterlimit="3"/><path d=" M 375.49 312.4 L 252.061 201.681 C 282.178 158.222 342.237 169.144 410.317 161.25 L 418.813 167.708 L 556.018 264.6 C 486.954 266.396 418.367 261.51 375.49 312.4 Z  M 157.253 383.549 L 66.478 247.421 C 152.841 192.875 184.407 180.273 237.988 213.2 L 348.061 314.32 C 275.419 314.017 210.477 351.388 157.253 383.549 Z  M 595.297 269.64 C 536.128 227.147 473.055 188.982 412.553 147.906 C 351.945 162.392 268.168 132.166 231.098 196.394 C 165.827 143.275 89.319 202.865 34.573 240.483 C 74.409 294.58 107.787 354.007 147.185 408.724 C 217.066 375.513 283.663 320.363 366.221 329.97 L 383.433 331.205 C 431.123 263.754 525.907 286.219 597.025 272.75 L 595.297 269.64 Z " fill="rgb(224,225,226)"/><path d=" M 375.49 312.4 L 252.061 201.681 C 282.178 158.222 342.237 169.144 410.317 161.25 L 418.813 167.708 L 556.018 264.6 C 486.954 266.396 418.367 261.51 375.49 312.4 Z  M 157.253 383.549 L 66.478 247.421 C 152.841 192.875 184.407 180.273 237.988 213.2 L 348.061 314.32 C 275.419 314.017 210.477 351.388 157.253 383.549 Z  M 595.297 269.64 C 536.128 227.147 473.055 188.982 412.553 147.906 C 351.945 162.392 268.168 132.166 231.098 196.394 C 165.827 143.275 89.319 202.865 34.573 240.483 C 74.409 294.58 107.787 354.007 147.185 408.724 C 217.066 375.513 283.663 320.363 366.221 329.97 L 383.433 331.205 C 431.123 263.754 525.907 286.219 597.025 272.75 L 595.297 269.64 Z " fill-rule="evenodd" fill="none" vector-effect="non-scaling-stroke" stroke-width="3" stroke="rgb(56,54,54)" stroke-linejoin="miter" stroke-linecap="square" stroke-miterlimit="3"/><path d=" M 20.991 279.456 C 21.243 258.488 24.15 246.545 33.192 242.273 L 145.808 410.516 C 144.988 420.855 142.012 451.771 140.579 462.069 L 20.991 279.456 Z " fill="rgb(224,225,226)"/><path d=" M 20.991 279.456 C 21.243 258.488 24.15 246.545 33.192 242.273 L 145.808 410.516 C 144.988 420.855 142.012 451.771 140.579 462.069 L 20.991 279.456 Z " fill="none" vector-effect="non-scaling-stroke" stroke-width="3" stroke="rgb(56,54,54)" stroke-linejoin="miter" stroke-linecap="square" stroke-miterlimit="3"/></g></g><g><path d=" M 552.34 449.137 L 551.64 463.633 L 551.64 463.633 Q 550.54 463.335 549.49 463.236 L 549.49 463.236 L 549.49 463.236 Q 548.44 463.137 547.44 463.137 L 547.44 463.137 L 547.44 463.137 Q 544.14 463.137 541.89 464.333 L 541.89 464.333 L 541.89 464.333 Q 539.64 465.53 538.29 467.225 L 538.29 467.225 L 538.29 467.225 Q 536.94 468.921 536.34 470.915 L 536.34 470.915 L 536.34 470.915 Q 535.74 472.91 535.74 474.406 L 535.74 474.406 L 535.74 499.936 L 519.34 499.936 L 519.34 450.189 L 535.14 450.189 L 535.14 457.397 L 535.34 457.397 L 535.34 457.397 Q 537.24 453.57 540.74 451.153 L 540.74 451.153 L 540.74 451.153 Q 544.24 448.737 548.84 448.737 L 548.84 448.737 L 548.84 448.737 Q 549.84 448.737 550.79 448.836 L 550.79 448.836 L 550.79 448.836 Q 551.74 448.936 552.34 449.137 L 552.34 449.137 Z  M 472.94 469.336 L 494.04 469.336 L 494.04 469.336 Q 494.04 465.436 491.59 462.637 L 491.59 462.637 L 491.59 462.637 Q 489.14 459.836 484.24 459.836 L 484.24 459.836 L 484.24 459.836 Q 481.84 459.836 479.84 460.586 L 479.84 460.586 L 479.84 460.586 Q 477.84 461.336 476.34 462.637 L 476.34 462.637 L 476.34 462.637 Q 474.84 463.936 473.94 465.686 L 473.94 465.686 L 473.94 465.686 Q 473.04 467.436 472.94 469.336 L 472.94 469.336 Z  M 509.14 475.637 L 509.14 475.637 L 509.14 475.637 Q 509.14 476.637 509.14 477.637 L 509.14 477.637 L 509.14 477.637 Q 509.14 478.637 509.04 479.536 L 509.04 479.536 L 472.94 479.536 L 472.94 479.536 Q 473.14 481.637 474.19 483.336 L 474.19 483.336 L 474.19 483.336 Q 475.24 485.036 476.89 486.286 L 476.89 486.286 L 476.89 486.286 Q 478.54 487.536 480.59 488.237 L 480.59 488.237 L 480.59 488.237 Q 482.64 488.936 484.84 488.936 L 484.84 488.936 L 484.84 488.936 Q 488.74 488.936 491.44 487.487 L 491.44 487.487 L 491.44 487.487 Q 494.14 486.036 495.84 483.737 L 495.84 483.737 L 507.24 490.936 L 507.24 490.936 Q 503.74 496.036 497.99 498.786 L 497.99 498.786 L 497.99 498.786 Q 492.24 501.536 484.64 501.536 L 484.64 501.536 L 484.64 501.536 Q 479.04 501.536 474.04 499.786 L 474.04 499.786 L 474.04 499.786 Q 469.04 498.036 465.29 494.686 L 465.29 494.686 L 465.29 494.686 Q 461.54 491.336 459.39 486.436 L 459.39 486.436 L 459.39 486.436 Q 457.24 481.536 457.24 475.237 L 457.24 475.237 L 457.24 475.237 Q 457.24 469.137 459.34 464.186 L 459.34 464.186 L 459.34 464.186 Q 461.44 459.237 465.04 455.786 L 465.04 455.786 L 465.04 455.786 Q 468.64 452.336 473.54 450.436 L 473.54 450.436 L 473.54 450.436 Q 478.44 448.536 484.14 448.536 L 484.14 448.536 L 484.14 448.536 Q 489.64 448.536 494.24 450.387 L 494.24 450.387 L 494.24 450.387 Q 498.84 452.237 502.14 455.737 L 502.14 455.737 L 502.14 455.737 Q 505.44 459.237 507.29 464.237 L 507.29 464.237 L 507.29 464.237 Q 509.14 469.237 509.14 475.637 Z  M 446.74 499.936 L 431.64 499.936 L 431.64 493.436 L 431.44 493.436 L 431.44 493.436 Q 429.04 497.237 424.59 499.286 L 424.59 499.286 L 424.59 499.286 Q 420.14 501.336 415.14 501.336 L 415.14 501.336 L 415.14 501.336 Q 409.54 501.336 405.14 499.137 L 405.14 499.137 L 405.14 499.137 Q 400.74 496.936 397.69 493.286 L 397.69 493.286 L 397.69 493.286 Q 394.64 489.637 393.04 484.836 L 393.04 484.836 L 393.04 484.836 Q 391.44 480.036 391.44 474.836 L 391.44 474.836 L 391.44 474.836 Q 391.44 469.637 393.09 464.887 L 393.09 464.887 L 393.09 464.887 Q 394.74 460.137 397.79 456.536 L 397.79 456.536 L 397.79 456.536 Q 400.84 452.936 405.19 450.836 L 405.19 450.836 L 405.19 450.836 Q 409.54 448.737 414.94 448.737 L 414.94 448.737 L 414.94 448.737 Q 420.44 448.737 424.24 450.836 L 424.24 450.836 L 424.24 450.836 Q 428.04 452.936 430.14 455.436 L 430.14 455.436 L 430.34 455.436 L 430.34 424.336 L 446.74 424.336 L 446.74 499.936 Z  M 431.04 474.936 L 431.04 474.936 L 431.04 474.936 Q 431.04 472.536 430.19 470.237 L 430.19 470.237 L 430.19 470.237 Q 429.34 467.936 427.79 466.137 L 427.79 466.137 L 427.79 466.137 Q 426.24 464.336 424.04 463.237 L 424.04 463.237 L 424.04 463.237 Q 421.84 462.137 419.04 462.137 L 419.04 462.137 L 419.04 462.137 Q 416.14 462.137 413.94 463.237 L 413.94 463.237 L 413.94 463.237 Q 411.74 464.336 410.24 466.086 L 410.24 466.086 L 410.24 466.086 Q 408.74 467.836 407.99 470.137 L 407.99 470.137 L 407.99 470.137 Q 407.24 472.436 407.24 474.836 L 407.24 474.836 L 407.24 474.836 Q 407.24 477.237 407.99 479.586 L 407.99 479.586 L 407.99 479.586 Q 408.74 481.936 410.24 483.737 L 410.24 483.737 L 410.24 483.737 Q 411.74 485.536 413.94 486.637 L 413.94 486.637 L 413.94 486.637 Q 416.14 487.737 419.04 487.737 L 419.04 487.737 L 419.04 487.737 Q 421.84 487.737 424.04 486.637 L 424.04 486.637 L 424.04 486.637 Q 426.24 485.536 427.79 483.737 L 427.79 483.737 L 427.79 483.737 Q 429.34 481.936 430.19 479.637 L 430.19 479.637 L 430.19 479.637 Q 431.04 477.336 431.04 474.936 Z  M 366.74 479.936 L 366.74 478.237 L 364.64 478.237 L 364.64 478.237 Q 361.94 478.237 359.19 478.487 L 359.19 478.487 L 359.19 478.487 Q 356.44 478.737 354.29 479.436 L 354.29 479.436 L 354.29 479.436 Q 352.14 480.137 350.74 481.487 L 350.74 481.487 L 350.74 481.487 Q 349.34 482.836 349.34 485.036 L 349.34 485.036 L 349.34 485.036 Q 349.34 486.436 349.99 487.436 L 349.99 487.436 L 349.99 487.436 Q 350.64 488.436 351.64 489.036 L 351.64 489.036 L 351.64 489.036 Q 352.64 489.637 353.94 489.887 L 353.94 489.887 L 353.94 489.887 Q 355.24 490.137 356.44 490.137 L 356.44 490.137 L 356.44 490.137 Q 361.44 490.137 364.09 487.387 L 364.09 487.387 L 364.09 487.387 Q 366.74 484.637 366.74 479.936 L 366.74 479.936 Z  M 344.94 465.836 L 336.64 456.936 L 336.64 456.936 Q 341.04 452.737 346.89 450.637 L 346.89 450.637 L 346.89 450.637 Q 352.74 448.536 358.84 448.536 L 358.84 448.536 L 358.84 448.536 Q 365.14 448.536 369.49 450.086 L 369.49 450.086 L 369.49 450.086 Q 373.84 451.637 376.54 454.887 L 376.54 454.887 L 376.54 454.887 Q 379.24 458.137 380.49 463.086 L 380.49 463.086 L 380.49 463.086 Q 381.74 468.036 381.74 474.836 L 381.74 474.836 L 381.74 499.936 L 366.74 499.936 L 366.74 494.637 L 366.44 494.637 L 366.44 494.637 Q 364.54 497.737 360.69 499.436 L 360.69 499.436 L 360.69 499.436 Q 356.84 501.137 352.34 501.137 L 352.34 501.137 L 352.34 501.137 Q 349.34 501.137 346.14 500.336 L 346.14 500.336 L 346.14 500.336 Q 342.94 499.536 340.29 497.737 L 340.29 497.737 L 340.29 497.737 Q 337.64 495.936 335.94 492.936 L 335.94 492.936 L 335.94 492.936 Q 334.24 489.936 334.24 485.536 L 334.24 485.536 L 334.24 485.536 Q 334.24 480.137 337.19 476.836 L 337.19 476.836 L 337.19 476.836 Q 340.14 473.536 344.79 471.737 L 344.79 471.737 L 344.79 471.737 Q 349.44 469.936 355.14 469.336 L 355.14 469.336 L 355.14 469.336 Q 360.84 468.737 366.24 468.737 L 366.24 468.737 L 366.24 467.936 L 366.24 467.936 Q 366.24 464.237 363.64 462.487 L 363.64 462.487 L 363.64 462.487 Q 361.04 460.737 357.24 460.737 L 357.24 460.737 L 357.24 460.737 Q 353.74 460.737 350.49 462.237 L 350.49 462.237 L 350.49 462.237 Q 347.24 463.737 344.94 465.836 L 344.94 465.836 Z  M 290.94 469.336 L 312.04 469.336 L 312.04 469.336 Q 312.04 465.436 309.59 462.637 L 309.59 462.637 L 309.59 462.637 Q 307.14 459.836 302.24 459.836 L 302.24 459.836 L 302.24 459.836 Q 299.84 459.836 297.84 460.586 L 297.84 460.586 L 297.84 460.586 Q 295.84 461.336 294.34 462.637 L 294.34 462.637 L 294.34 462.637 Q 292.84 463.936 291.94 465.686 L 291.94 465.686 L 291.94 465.686 Q 291.04 467.436 290.94 469.336 L 290.94 469.336 Z  M 327.14 475.637 L 327.14 475.637 L 327.14 475.637 Q 327.14 476.637 327.14 477.637 L 327.14 477.637 L 327.14 477.637 Q 327.14 478.637 327.04 479.536 L 327.04 479.536 L 290.94 479.536 L 290.94 479.536 Q 291.14 481.637 292.19 483.336 L 292.19 483.336 L 292.19 483.336 Q 293.24 485.036 294.89 486.286 L 294.89 486.286 L 294.89 486.286 Q 296.54 487.536 298.59 488.237 L 298.59 488.237 L 298.59 488.237 Q 300.64 488.936 302.84 488.936 L 302.84 488.936 L 302.84 488.936 Q 306.74 488.936 309.44 487.487 L 309.44 487.487 L 309.44 487.487 Q 312.14 486.036 313.84 483.737 L 313.84 483.737 L 325.24 490.936 L 325.24 490.936 Q 321.74 496.036 315.99 498.786 L 315.99 498.786 L 315.99 498.786 Q 310.24 501.536 302.64 501.536 L 302.64 501.536 L 302.64 501.536 Q 297.04 501.536 292.04 499.786 L 292.04 499.786 L 292.04 499.786 Q 287.04 498.036 283.29 494.686 L 283.29 494.686 L 283.29 494.686 Q 279.54 491.336 277.39 486.436 L 277.39 486.436 L 277.39 486.436 Q 275.24 481.536 275.24 475.237 L 275.24 475.237 L 275.24 475.237 Q 275.24 469.137 277.34 464.186 L 277.34 464.186 L 277.34 464.186 Q 279.44 459.237 283.04 455.786 L 283.04 455.786 L 283.04 455.786 Q 286.64 452.336 291.54 450.436 L 291.54 450.436 L 291.54 450.436 Q 296.44 448.536 302.14 448.536 L 302.14 448.536 L 302.14 448.536 Q 307.64 448.536 312.24 450.387 L 312.24 450.387 L 312.24 450.387 Q 316.84 452.237 320.14 455.737 L 320.14 455.737 L 320.14 455.737 Q 323.44 459.237 325.29 464.237 L 325.29 464.237 L 325.29 464.237 Q 327.14 469.237 327.14 475.637 Z  M 271.14 449.137 L 270.44 463.633 L 270.44 463.633 Q 269.34 463.335 268.29 463.236 L 268.29 463.236 L 268.29 463.236 Q 267.24 463.137 266.24 463.137 L 266.24 463.137 L 266.24 463.137 Q 262.94 463.137 260.69 464.333 L 260.69 464.333 L 260.69 464.333 Q 258.44 465.53 257.09 467.225 L 257.09 467.225 L 257.09 467.225 Q 255.74 468.921 255.14 470.915 L 255.14 470.915 L 255.14 470.915 Q 254.54 472.91 254.54 474.406 L 254.54 474.406 L 254.54 499.936 L 238.14 499.936 L 238.14 450.189 L 253.94 450.189 L 253.94 457.397 L 254.14 457.397 L 254.14 457.397 Q 256.04 453.57 259.54 451.153 L 259.54 451.153 L 259.54 451.153 Q 263.04 448.737 267.64 448.737 L 267.64 448.737 L 267.64 448.737 Q 268.64 448.737 269.59 448.836 L 269.59 448.836 L 269.59 448.836 Q 270.54 448.936 271.14 449.137 L 271.14 449.137 Z  M 227.74 474.836 L 227.74 474.836 L 227.74 474.836 Q 227.74 480.936 225.54 485.887 L 225.54 485.887 L 225.54 485.887 Q 223.34 490.836 219.54 494.286 L 219.54 494.286 L 219.54 494.286 Q 215.74 497.737 210.74 499.637 L 210.74 499.637 L 210.74 499.637 Q 205.74 501.536 200.04 501.536 L 200.04 501.536 L 200.04 501.536 Q 194.44 501.536 189.39 499.637 L 189.39 499.637 L 189.39 499.637 Q 184.34 497.737 180.59 494.286 L 180.59 494.286 L 180.59 494.286 Q 176.84 490.836 174.64 485.887 L 174.64 485.887 L 174.64 485.887 Q 172.44 480.936 172.44 474.836 L 172.44 474.836 L 172.44 474.836 Q 172.44 468.737 174.64 463.836 L 174.64 463.836 L 174.64 463.836 Q 176.84 458.936 180.59 455.536 L 180.59 455.536 L 180.59 455.536 Q 184.34 452.137 189.39 450.336 L 189.39 450.336 L 189.39 450.336 Q 194.44 448.536 200.04 448.536 L 200.04 448.536 L 200.04 448.536 Q 205.74 448.536 210.74 450.336 L 210.74 450.336 L 210.74 450.336 Q 215.74 452.137 219.54 455.536 L 219.54 455.536 L 219.54 455.536 Q 223.34 458.936 225.54 463.836 L 225.54 463.836 L 225.54 463.836 Q 227.74 468.737 227.74 474.836 Z  M 211.94 474.836 L 211.94 474.836 L 211.94 474.836 Q 211.94 472.436 211.14 470.137 L 211.14 470.137 L 211.14 470.137 Q 210.34 467.836 208.84 466.086 L 208.84 466.086 L 208.84 466.086 Q 207.34 464.336 205.14 463.237 L 205.14 463.237 L 205.14 463.237 Q 202.94 462.137 200.04 462.137 L 200.04 462.137 L 200.04 462.137 Q 197.14 462.137 194.94 463.237 L 194.94 463.237 L 194.94 463.237 Q 192.74 464.336 191.29 466.086 L 191.29 466.086 L 191.29 466.086 Q 189.84 467.836 189.09 470.137 L 189.09 470.137 L 189.09 470.137 Q 188.34 472.436 188.34 474.836 L 188.34 474.836 L 188.34 474.836 Q 188.34 477.237 189.09 479.536 L 189.09 479.536 L 189.09 479.536 Q 189.84 481.836 191.34 483.686 L 191.34 483.686 L 191.34 483.686 Q 192.84 485.536 195.04 486.637 L 195.04 486.637 L 195.04 486.637 Q 197.24 487.737 200.14 487.737 L 200.14 487.737 L 200.14 487.737 Q 203.04 487.737 205.24 486.637 L 205.24 486.637 L 205.24 486.637 Q 207.44 485.536 208.94 483.686 L 208.94 483.686 L 208.94 483.686 Q 210.44 481.836 211.19 479.536 L 211.19 479.536 L 211.19 479.536 Q 211.94 477.237 211.94 474.836 Z  M 166.04 455.536 L 157.04 464.836 L 157.04 464.836 Q 155.04 462.936 152.34 461.637 L 152.34 461.637 L 152.34 461.637 Q 149.64 460.336 146.64 460.336 L 146.64 460.336 L 146.64 460.336 Q 144.34 460.336 142.39 461.237 L 142.39 461.237 L 142.39 461.237 Q 140.44 462.137 140.44 464.336 L 140.44 464.336 L 140.44 464.336 Q 140.44 466.436 142.59 467.336 L 142.59 467.336 L 142.59 467.336 Q 144.74 468.237 149.54 469.336 L 149.54 469.336 L 149.54 469.336 Q 152.34 469.936 155.19 471.036 L 155.19 471.036 L 155.19 471.036 Q 158.04 472.137 160.34 473.936 L 160.34 473.936 L 160.34 473.936 Q 162.64 475.737 164.04 478.336 L 164.04 478.336 L 164.04 478.336 Q 165.44 480.936 165.44 484.536 L 165.44 484.536 L 165.44 484.536 Q 165.44 489.237 163.54 492.487 L 163.54 492.487 L 163.54 492.487 Q 161.64 495.737 158.59 497.737 L 158.59 497.737 L 158.59 497.737 Q 155.54 499.737 151.74 500.637 L 151.74 500.637 L 151.74 500.637 Q 147.94 501.536 144.14 501.536 L 144.14 501.536 L 144.14 501.536 Q 138.04 501.536 132.19 499.586 L 132.19 499.586 L 132.19 499.586 Q 126.34 497.637 122.44 493.836 L 122.44 493.836 L 131.64 484.137 L 131.64 484.137 Q 133.84 486.536 137.04 488.137 L 137.04 488.137 L 137.04 488.137 Q 140.24 489.737 143.84 489.737 L 143.84 489.737 L 143.84 489.737 Q 145.84 489.737 147.79 488.786 L 147.79 488.786 L 147.79 488.786 Q 149.74 487.836 149.74 485.436 L 149.74 485.436 L 149.74 485.436 Q 149.74 483.137 147.34 482.036 L 147.34 482.036 L 147.34 482.036 Q 144.94 480.936 139.84 479.737 L 139.84 479.737 L 139.84 479.737 Q 137.24 479.137 134.64 478.137 L 134.64 478.137 L 134.64 478.137 Q 132.04 477.137 129.99 475.436 L 129.99 475.436 L 129.99 475.436 Q 127.94 473.737 126.64 471.237 L 126.64 471.237 L 126.64 471.237 Q 125.34 468.737 125.34 465.237 L 125.34 465.237 L 125.34 465.237 Q 125.34 460.737 127.24 457.586 L 127.24 457.586 L 127.24 457.586 Q 129.14 454.436 132.14 452.436 L 132.14 452.436 L 132.14 452.436 Q 135.14 450.436 138.79 449.487 L 138.79 449.487 L 138.79 449.487 Q 142.44 448.536 146.04 448.536 L 146.04 448.536 L 146.04 448.536 Q 151.64 448.536 156.99 450.286 L 156.99 450.286 L 156.99 450.286 Q 162.34 452.036 166.04 455.536 L 166.04 455.536 Z  M 115.94 434.237 L 115.94 434.237 L 115.94 434.237 Q 115.94 436.137 115.19 437.786 L 115.19 437.786 L 115.19 437.786 Q 114.44 439.436 113.19 440.637 L 113.19 440.637 L 113.19 440.637 Q 111.94 441.836 110.19 442.536 L 110.19 442.536 L 110.19 442.536 Q 108.44 443.237 106.54 443.237 L 106.54 443.237 L 106.54 443.237 Q 102.54 443.237 99.84 440.586 L 99.84 440.586 L 99.84 440.586 Q 97.14 437.936 97.14 434.237 L 97.14 434.237 L 97.14 434.237 Q 97.14 432.436 97.84 430.786 L 97.84 430.786 L 97.84 430.786 Q 98.54 429.137 99.84 427.936 L 99.84 427.936 L 99.84 427.936 Q 101.14 426.737 102.84 425.987 L 102.84 425.987 L 102.84 425.987 Q 104.54 425.237 106.54 425.237 L 106.54 425.237 L 106.54 425.237 Q 108.44 425.237 110.19 425.936 L 110.19 425.936 L 110.19 425.936 Q 111.94 426.637 113.19 427.836 L 113.19 427.836 L 113.19 427.836 Q 114.44 429.036 115.19 430.686 L 115.19 430.686 L 115.19 430.686 Q 115.94 432.336 115.94 434.237 Z  M 114.74 499.936 L 98.34 499.936 L 98.34 450.137 L 114.74 450.137 L 114.74 499.936 Z " fill-rule="evenodd" fill="rgb(254,254,254)"/><path d=" M 511.923 587.111 L 511.923 587.111 L 511.923 587.111 Q 512.971 588.924 512.646 590.469 L 512.646 590.469 L 512.646 590.469 Q 512.321 592.015 510.711 592.945 L 510.711 592.945 L 510.711 592.945 Q 509.716 593.52 508.675 593.498 L 508.675 593.498 L 508.675 593.498 Q 507.635 593.477 506.711 592.847 L 506.711 592.847 L 506.711 592.847 Q 505.787 592.216 505.111 591.046 L 505.111 591.046 L 505.111 591.046 Q 504.064 589.233 504.386 587.698 L 504.386 587.698 L 504.386 587.698 Q 504.708 586.163 506.318 585.233 L 506.318 585.233 L 506.318 585.233 Q 507.874 584.334 509.389 584.84 L 509.389 584.84 L 509.389 584.84 Q 510.903 585.345 511.923 587.111 Z  M 506.275 590.374 L 506.275 590.374 L 506.275 590.374 Q 507.096 591.795 508.094 592.21 L 508.094 592.21 L 508.094 592.21 Q 509.092 592.626 510.194 591.989 L 510.194 591.989 L 510.194 591.989 Q 511.297 591.352 511.441 590.281 L 511.441 590.281 L 511.441 590.281 Q 511.584 589.21 510.76 587.783 L 510.76 587.783 L 510.76 587.783 Q 509.943 586.369 508.947 585.965 L 508.947 585.965 L 508.947 585.965 Q 507.952 585.562 506.835 586.206 L 506.835 586.206 L 506.835 586.206 Q 505.733 586.843 505.59 587.892 L 505.59 587.892 L 505.59 587.892 Q 505.446 588.94 506.275 590.374 Z  M 515.058 580.184 L 515.058 580.184 L 515.058 580.184 Q 515.552 579.898 515.991 579.753 L 515.991 579.753 L 516.438 580.884 L 516.438 580.884 Q 515.919 581.049 515.567 581.252 L 515.567 581.252 L 515.567 581.252 Q 514.667 581.772 514.45 582.872 L 514.45 582.872 L 514.45 582.872 Q 514.233 583.972 514.862 585.061 L 514.862 585.061 L 517.16 589.038 L 516.037 589.687 L 511.754 582.273 L 512.681 581.738 L 513.603 583.037 L 513.657 583.005 L 513.657 583.005 Q 513.651 582.043 514.006 581.315 L 514.006 581.315 L 514.006 581.315 Q 514.361 580.586 515.058 580.184 Z  M 520.913 576.981 L 523.477 575.5 L 523.888 576.21 L 522.608 577.166 L 522.608 577.166 Q 522.934 577.293 523.304 577.59 L 523.304 577.59 L 523.304 577.59 Q 523.674 577.886 523.951 578.366 L 523.951 578.366 L 523.951 578.366 Q 524.58 579.455 524.211 580.534 L 524.211 580.534 L 524.211 580.534 Q 523.843 581.614 522.544 582.364 L 522.544 582.364 L 522.544 582.364 Q 522.212 582.556 521.89 582.67 L 521.89 582.67 L 521.89 582.67 Q 521.392 583.463 521.724 584.038 L 521.724 584.038 L 521.724 584.038 Q 521.9 584.342 522.234 584.343 L 522.234 584.343 L 522.234 584.343 Q 522.569 584.344 523.177 583.992 L 523.177 583.992 L 524.49 583.234 L 524.49 583.234 Q 525.694 582.538 526.633 582.672 L 526.633 582.672 L 526.633 582.672 Q 527.572 582.806 528.131 583.774 L 528.131 583.774 L 528.131 583.774 Q 528.842 585.005 528.228 586.222 L 528.228 586.222 L 528.228 586.222 Q 527.614 587.438 525.719 588.533 L 525.719 588.533 L 525.719 588.533 Q 524.265 589.373 523.164 589.287 L 523.164 589.287 L 523.164 589.287 Q 522.064 589.201 521.493 588.213 L 521.493 588.213 L 521.493 588.213 Q 521.102 587.537 521.25 586.793 L 521.25 586.793 L 521.25 586.793 Q 521.397 586.049 522.08 585.42 L 522.08 585.42 L 522.08 585.42 Q 521.722 585.455 521.373 585.296 L 521.373 585.296 L 521.373 585.296 Q 521.024 585.137 520.817 584.779 L 520.817 584.779 L 520.817 584.779 Q 520.582 584.373 520.623 583.943 L 520.623 583.943 L 520.623 583.943 Q 520.663 583.514 520.966 582.96 L 520.966 582.96 L 520.966 582.96 Q 520.254 583.055 519.564 582.696 L 519.564 582.696 L 519.564 582.696 Q 518.874 582.337 518.452 581.607 L 518.452 581.607 L 518.452 581.607 Q 517.748 580.389 518.098 579.307 L 518.098 579.307 L 518.098 579.307 Q 518.447 578.226 519.787 577.452 L 519.787 577.452 L 519.787 577.452 Q 520.369 577.116 520.913 576.981 L 520.913 576.981 Z  M 522.567 587.575 L 522.567 587.575 L 522.567 587.575 Q 522.915 588.177 523.602 588.195 L 523.602 588.195 L 523.602 588.195 Q 524.29 588.213 525.237 587.666 L 525.237 587.666 L 525.237 587.666 Q 526.65 586.849 527.086 586.033 L 527.086 586.033 L 527.086 586.033 Q 527.522 585.218 527.103 584.494 L 527.103 584.494 L 527.103 584.494 Q 526.756 583.892 526.249 583.873 L 526.249 583.873 L 526.249 583.873 Q 525.742 583.855 524.714 584.449 L 524.714 584.449 L 523.367 585.227 L 523.367 585.227 Q 522.603 585.668 522.388 586.28 L 522.388 586.28 L 522.388 586.28 Q 522.173 586.891 522.567 587.575 Z  M 519.546 580.938 L 519.546 580.938 L 519.546 580.938 Q 519.995 581.716 520.665 581.862 L 520.665 581.862 L 520.665 581.862 Q 521.336 582.007 522.12 581.553 L 522.12 581.553 L 522.12 581.553 Q 523.764 580.604 522.842 579.007 L 522.842 579.007 L 522.842 579.007 Q 521.876 577.336 520.212 578.298 L 520.212 578.298 L 520.212 578.298 Q 519.421 578.755 519.241 579.427 L 519.241 579.427 L 519.241 579.427 Q 519.061 580.1 519.546 580.938 Z  M 447.591 619.343 L 451.875 626.757 L 450.752 627.406 L 446.468 619.992 L 447.591 619.343 Z  M 445.213 618.037 L 445.213 618.037 L 445.213 618.037 Q 444.99 617.652 445.076 617.363 L 445.076 617.363 L 445.076 617.363 Q 445.162 617.074 445.446 616.91 L 445.446 616.91 L 445.446 616.91 Q 445.716 616.754 446.018 616.823 L 446.018 616.823 L 446.018 616.823 Q 446.32 616.892 446.539 617.271 L 446.539 617.271 L 446.539 617.271 Q 446.757 617.65 446.669 617.949 L 446.669 617.949 L 446.669 617.949 Q 446.58 618.249 446.309 618.405 L 446.309 618.405 L 446.309 618.405 Q 446.025 618.569 445.728 618.493 L 445.728 618.493 L 445.728 618.493 Q 445.432 618.416 445.213 618.037 Z  M 457.87 620.595 L 457.87 620.595 L 457.87 620.595 Q 458.468 621.63 458.021 622.638 L 458.021 622.638 L 458.021 622.638 Q 457.574 623.645 456.181 624.45 L 456.181 624.45 L 456.181 624.45 Q 454.706 625.302 453.611 625.312 L 453.611 625.312 L 453.009 624.27 L 453.009 624.27 Q 453.7 624.232 454.402 624.034 L 454.402 624.034 L 454.402 624.034 Q 455.104 623.836 455.672 623.507 L 455.672 623.507 L 455.672 623.507 Q 456.552 622.999 456.863 622.445 L 456.863 622.445 L 456.863 622.445 Q 457.174 621.891 456.842 621.315 L 456.842 621.315 L 456.842 621.315 Q 456.592 620.883 456.039 620.792 L 456.039 620.792 L 456.039 620.792 Q 455.485 620.701 454.154 620.911 L 454.154 620.911 L 454.154 620.911 Q 452.896 621.123 452.294 621.088 L 452.294 621.088 L 452.294 621.088 Q 451.691 621.052 451.267 620.81 L 451.267 620.81 L 451.267 620.81 Q 450.843 620.568 450.55 620.06 L 450.55 620.06 L 450.55 620.06 Q 450.026 619.154 450.461 618.204 L 450.461 618.204 L 450.461 618.204 Q 450.895 617.253 452.181 616.511 L 452.181 616.511 L 452.181 616.511 Q 453.378 615.819 454.802 615.646 L 454.802 615.646 L 454.931 616.789 L 454.931 616.789 Q 453.549 616.974 452.643 617.498 L 452.643 617.498 L 452.643 617.498 Q 451.844 617.959 451.583 618.444 L 451.583 618.444 L 451.583 618.444 Q 451.322 618.929 451.576 619.369 L 451.576 619.369 L 451.576 619.369 Q 451.748 619.666 452.021 619.788 L 452.021 619.788 L 452.021 619.788 Q 452.295 619.91 452.742 619.904 L 452.742 619.904 L 452.742 619.904 Q 453.19 619.898 454.358 619.701 L 454.358 619.701 L 454.358 619.701 Q 455.954 619.419 456.699 619.639 L 456.699 619.639 L 456.699 619.639 Q 457.444 619.858 457.87 620.595 Z  M 465.119 614.152 L 465.119 614.152 L 465.119 614.152 Q 466.166 615.965 465.841 617.51 L 465.841 617.51 L 465.841 617.51 Q 465.516 619.056 463.906 619.986 L 463.906 619.986 L 463.906 619.986 Q 462.911 620.561 461.871 620.54 L 461.871 620.54 L 461.871 620.54 Q 460.83 620.518 459.906 619.888 L 459.906 619.888 L 459.906 619.888 Q 458.983 619.258 458.306 618.087 L 458.306 618.087 L 458.306 618.087 Q 457.259 616.275 457.581 614.74 L 457.581 614.74 L 457.581 614.74 Q 457.903 613.205 459.513 612.274 L 459.513 612.274 L 459.513 612.274 Q 461.069 611.375 462.584 611.881 L 462.584 611.881 L 462.584 611.881 Q 464.098 612.386 465.119 614.152 Z  M 459.47 617.415 L 459.47 617.415 L 459.47 617.415 Q 460.291 618.836 461.289 619.252 L 461.289 619.252 L 461.289 619.252 Q 462.287 619.667 463.39 619.03 L 463.39 619.03 L 463.39 619.03 Q 464.492 618.393 464.636 617.322 L 464.636 617.322 L 464.636 617.322 Q 464.78 616.251 463.955 614.824 L 463.955 614.824 L 463.955 614.824 Q 463.138 613.41 462.143 613.007 L 462.143 613.007 L 462.143 613.007 Q 461.147 612.603 460.031 613.248 L 460.031 613.248 L 460.031 613.248 Q 458.928 613.885 458.785 614.933 L 458.785 614.933 L 458.785 614.933 Q 458.641 615.981 459.47 617.415 Z  M 472.169 615.032 L 470.856 615.79 L 463.759 610.002 L 464.963 609.306 L 469.1 612.781 L 469.1 612.781 Q 470.532 614.011 470.892 614.416 L 470.892 614.416 L 470.946 614.385 L 470.946 614.385 Q 470.814 613.983 470.559 612.628 L 470.559 612.628 L 470.559 612.628 Q 470.304 611.273 469.495 606.688 L 469.495 606.688 L 470.699 605.992 L 472.169 615.032 Z  M 479.383 611.044 L 479.383 611.044 L 479.383 611.044 Q 477.74 611.994 476.211 611.542 L 476.211 611.542 L 476.211 611.542 Q 474.682 611.09 473.654 609.311 L 473.654 609.311 L 473.654 609.311 Q 472.618 607.518 472.891 605.953 L 472.891 605.953 L 472.891 605.953 Q 473.165 604.387 474.653 603.528 L 474.653 603.528 L 474.653 603.528 Q 476.046 602.723 477.388 603.17 L 477.388 603.17 L 477.388 603.17 Q 478.729 603.618 479.597 605.12 L 479.597 605.12 L 480.007 605.83 L 474.9 608.781 L 474.9 608.781 Q 475.688 610.067 476.704 610.382 L 476.704 610.382 L 476.704 610.382 Q 477.721 610.697 478.857 610.04 L 478.857 610.04 L 478.857 610.04 Q 480.055 609.348 480.936 608.171 L 480.936 608.171 L 481.514 609.173 L 481.514 609.173 Q 481.067 609.774 480.601 610.192 L 480.601 610.192 L 480.601 610.192 Q 480.134 610.61 479.383 611.044 Z  M 475.183 604.476 L 475.183 604.476 L 475.183 604.476 Q 474.29 604.992 474.095 605.88 L 474.095 605.88 L 474.095 605.88 Q 473.9 606.769 474.399 607.852 L 474.399 607.852 L 478.275 605.612 L 478.275 605.612 Q 477.662 604.55 476.862 604.259 L 476.862 604.259 L 476.862 604.259 Q 476.062 603.968 475.183 604.476 Z  M 482.967 598.724 L 482.967 598.724 L 482.967 598.724 Q 483.46 598.439 483.9 598.294 L 483.9 598.294 L 484.346 599.425 L 484.346 599.425 Q 483.827 599.59 483.476 599.793 L 483.476 599.793 L 483.476 599.793 Q 482.576 600.313 482.359 601.412 L 482.359 601.412 L 482.359 601.412 Q 482.142 602.512 482.771 603.602 L 482.771 603.602 L 485.069 607.579 L 483.946 608.228 L 479.662 600.814 L 480.589 600.278 L 481.511 601.577 L 481.565 601.546 L 481.565 601.546 Q 481.56 600.584 481.915 599.855 L 481.915 599.855 L 481.915 599.855 Q 482.27 599.127 482.967 598.724 Z  M 493.215 600.175 L 493.215 600.175 L 493.215 600.175 Q 493.813 601.21 493.366 602.217 L 493.366 602.217 L 493.366 602.217 Q 492.92 603.224 491.526 604.029 L 491.526 604.029 L 491.526 604.029 Q 490.051 604.881 488.956 604.891 L 488.956 604.891 L 488.355 603.849 L 488.355 603.849 Q 489.045 603.811 489.747 603.613 L 489.747 603.613 L 489.747 603.613 Q 490.449 603.415 491.018 603.087 L 491.018 603.087 L 491.018 603.087 Q 491.897 602.578 492.208 602.024 L 492.208 602.024 L 492.208 602.024 Q 492.52 601.47 492.188 600.895 L 492.188 600.895 L 492.188 600.895 Q 491.937 600.462 491.384 600.371 L 491.384 600.371 L 491.384 600.371 Q 490.831 600.28 489.499 600.49 L 489.499 600.49 L 489.499 600.49 Q 488.242 600.702 487.639 600.667 L 487.639 600.667 L 487.639 600.667 Q 487.037 600.631 486.613 600.389 L 486.613 600.389 L 486.613 600.389 Q 486.189 600.147 485.895 599.64 L 485.895 599.64 L 485.895 599.64 Q 485.372 598.733 485.806 597.783 L 485.806 597.783 L 485.806 597.783 Q 486.241 596.833 487.526 596.09 L 487.526 596.09 L 487.526 596.09 Q 488.723 595.398 490.148 595.225 L 490.148 595.225 L 490.276 596.369 L 490.276 596.369 Q 488.895 596.554 487.988 597.077 L 487.988 597.077 L 487.988 597.077 Q 487.19 597.539 486.929 598.023 L 486.929 598.023 L 486.929 598.023 Q 486.667 598.508 486.921 598.948 L 486.921 598.948 L 486.921 598.948 Q 487.093 599.245 487.367 599.367 L 487.367 599.367 L 487.367 599.367 Q 487.64 599.489 488.088 599.483 L 488.088 599.483 L 488.088 599.483 Q 488.535 599.477 489.703 599.281 L 489.703 599.281 L 489.703 599.281 Q 491.3 598.999 492.044 599.218 L 492.044 599.218 L 492.044 599.218 Q 492.789 599.437 493.215 600.175 Z  M 499.42 599.468 L 499.42 599.468 L 499.42 599.468 Q 497.777 600.418 496.248 599.966 L 496.248 599.966 L 496.248 599.966 Q 494.719 599.514 493.691 597.734 L 493.691 597.734 L 493.691 597.734 Q 492.655 595.942 492.928 594.377 L 492.928 594.377 L 492.928 594.377 Q 493.202 592.811 494.69 591.951 L 494.69 591.951 L 494.69 591.951 Q 496.083 591.146 497.425 591.594 L 497.425 591.594 L 497.425 591.594 Q 498.766 592.042 499.634 593.543 L 499.634 593.543 L 500.044 594.254 L 494.937 597.204 L 494.937 597.204 Q 495.725 598.49 496.741 598.805 L 496.741 598.805 L 496.741 598.805 Q 497.758 599.12 498.894 598.464 L 498.894 598.464 L 498.894 598.464 Q 500.092 597.772 500.973 596.595 L 500.973 596.595 L 501.551 597.596 L 501.551 597.596 Q 501.104 598.197 500.638 598.616 L 500.638 598.616 L 500.638 598.616 Q 500.171 599.034 499.42 599.468 Z  M 495.219 592.899 L 495.219 592.899 L 495.219 592.899 Q 494.327 593.415 494.132 594.304 L 494.132 594.304 L 494.132 594.304 Q 493.937 595.193 494.436 596.275 L 494.436 596.275 L 498.312 594.036 L 498.312 594.036 Q 497.699 592.974 496.899 592.683 L 496.899 592.683 L 496.899 592.683 Q 496.099 592.391 495.219 592.899 Z  M 503.406 596.028 L 503.406 596.028 L 503.406 596.028 Q 503.144 595.575 503.216 595.223 L 503.216 595.223 L 503.216 595.223 Q 503.287 594.87 503.673 594.647 L 503.673 594.647 L 503.673 594.647 Q 504.065 594.421 504.42 594.527 L 504.42 594.527 L 504.42 594.527 Q 504.775 594.633 505.037 595.086 L 505.037 595.086 L 505.037 595.086 Q 505.291 595.526 505.204 595.892 L 505.204 595.892 L 505.204 595.892 Q 505.118 596.258 504.732 596.48 L 504.732 596.48 L 504.732 596.48 Q 504.387 596.68 504.037 596.598 L 504.037 596.598 L 504.037 596.598 Q 503.688 596.515 503.406 596.028 Z  M 443.676 631.494 L 442.343 632.264 L 438.47 628.7 L 438.47 628.7 Q 438.111 628.375 436.943 627.164 L 436.943 627.164 L 436.889 627.195 L 436.889 627.195 Q 437.302 628.536 437.47 629.295 L 437.47 629.295 L 438.575 634.441 L 437.276 635.191 L 430.97 628.945 L 432.147 628.265 L 432.147 628.265 Q 434.478 630.645 435.698 631.889 L 435.698 631.889 L 435.698 631.889 Q 436.918 633.134 437.265 633.61 L 437.265 633.61 L 437.319 633.578 L 437.319 633.578 Q 437.171 633.15 436.983 632.442 L 436.983 632.442 L 436.983 632.442 Q 436.795 631.734 436.709 631.305 L 436.709 631.305 L 435.611 626.264 L 436.828 625.561 L 440.613 629.05 L 440.613 629.05 Q 441.664 629.995 442.256 630.708 L 442.256 630.708 L 442.31 630.677 L 442.31 630.677 Q 442.197 630.417 442.022 629.842 L 442.022 629.842 L 442.022 629.842 Q 441.847 629.266 440.278 623.568 L 440.278 623.568 L 441.442 622.896 L 443.676 631.494 Z  M 446.488 628.912 L 446.488 628.912 L 446.488 628.912 Q 446.226 628.459 446.298 628.107 L 446.298 628.107 L 446.298 628.107 Q 446.369 627.754 446.755 627.531 L 446.755 627.531 L 446.755 627.531 Q 447.147 627.305 447.502 627.411 L 447.502 627.411 L 447.502 627.411 Q 447.857 627.517 448.119 627.971 L 448.119 627.971 L 448.119 627.971 Q 448.373 628.41 448.286 628.776 L 448.286 628.776 L 448.286 628.776 Q 448.2 629.142 447.814 629.365 L 447.814 629.365 L 447.814 629.365 Q 447.469 629.564 447.119 629.482 L 447.119 629.482 L 447.119 629.482 Q 446.77 629.4 446.488 628.912 Z  M 432.891 637.725 L 431.558 638.495 L 427.685 634.931 L 427.685 634.931 Q 427.326 634.606 426.158 633.395 L 426.158 633.395 L 426.103 633.427 L 426.103 633.427 Q 426.517 634.767 426.685 635.527 L 426.685 635.527 L 427.79 640.672 L 426.491 641.422 L 420.185 635.177 L 421.362 634.497 L 421.362 634.497 Q 423.693 636.876 424.913 638.12 L 424.913 638.12 L 424.913 638.12 Q 426.133 639.365 426.48 639.841 L 426.48 639.841 L 426.534 639.809 L 426.534 639.809 Q 426.386 639.381 426.198 638.673 L 426.198 638.673 L 426.198 638.673 Q 426.01 637.965 425.924 637.536 L 425.924 637.536 L 424.826 632.495 L 426.043 631.792 L 429.827 635.281 L 429.827 635.281 Q 430.879 636.226 431.471 636.939 L 431.471 636.939 L 431.525 636.908 L 431.525 636.908 Q 431.412 636.648 431.237 636.073 L 431.237 636.073 L 431.237 636.073 Q 431.062 635.497 429.493 629.799 L 429.493 629.799 L 430.657 629.127 L 432.891 637.725 Z  M 422.106 643.956 L 420.773 644.726 L 416.9 641.162 L 416.9 641.162 Q 416.541 640.837 415.372 639.626 L 415.372 639.626 L 415.318 639.658 L 415.318 639.658 Q 415.732 640.998 415.9 641.758 L 415.9 641.758 L 417.005 646.903 L 415.706 647.653 L 409.4 641.408 L 410.577 640.728 L 410.577 640.728 Q 412.908 643.107 414.128 644.351 L 414.128 644.351 L 414.128 644.351 Q 415.347 645.596 415.695 646.072 L 415.695 646.072 L 415.749 646.04 L 415.749 646.04 Q 415.6 645.612 415.413 644.904 L 415.413 644.904 L 415.413 644.904 Q 415.225 644.196 415.139 643.767 L 415.139 643.767 L 414.041 638.727 L 415.258 638.023 L 419.042 641.512 L 419.042 641.512 Q 420.093 642.457 420.686 643.17 L 420.686 643.17 L 420.74 643.139 L 420.74 643.139 Q 420.626 642.88 420.452 642.304 L 420.452 642.304 L 420.452 642.304 Q 420.277 641.728 418.708 636.03 L 418.708 636.03 L 419.872 635.358 L 422.106 643.956 Z " fill-rule="evenodd" fill="rgb(254,254,254)"/></g></g></svg>