<?xml version="1.0" encoding="UTF-8" standalone="no"?><!-- Generator: Gravit.io --><svg xmlns="http://www.w3.org/2000/svg" xmlns:xlink="http://www.w3.org/1999/xlink" style="isolation:isolate" viewBox="0 0 626.4 720" width="626.4pt" height="720pt"><defs><clipPath id="_clipPath_KwcjtAPlN1xNJ3XO5nDs18JpB6byJtCm"><rect x="0" y="0" width="626.4" height="720"/></clipPath></defs><g clip-path="url(#_clipPath_KwcjtAPlN1xNJ3XO5nDs18JpB6byJtCm)"><clipPath id="_clipPath_DxDOboJbiqZXmMWLtTcNZkGKJV7YjCGx"><path d=" M 0 0 L 626.4 0 L 626.4 720 L 0 720 L 0 0 Z " fill="rgb(255,255,255)"/></clipPath><g clip-path="url(#_clipPath_DxDOboJbiqZXmMWLtTcNZkGKJV7YjCGx)"><g opacity="0.5"><path d=" M 601.544 524.188 L 307.773 693.797 L 14 524.188 L 14 184.969 L 307.773 15.36 L 601.544 184.969 L 601.544 524.188 Z " fill="rgb(230,141,56)"/></g><path d=" M 622.71 536.65 L 313.94 714.92 L 5.16 536.65 L 5.16 180.11 L 313.94 1.84 L 622.71 180.11 L 622.71 536.65 Z  M 592.71 519.33 L 313.94 680.27 L 35.16 519.33 L 35.16 197.43 L 313.94 36.48 L 592.71 197.43 L 592.71 519.33 Z " fill-rule="evenodd" fill="rgb(230,141,56)"/></g><g><clipPath id="_clipPath_hlZTttJrL6QQQMPFGR4xy2kbj1YBp19O"><path d=" M 0 0 L 626.4 0 L 626.4 720 L 0 720 L 0 0 Z " fill="rgb(255,255,255)"/></clipPath><g clip-path="url(#_clipPath_hlZTttJrL6QQQMPFGR4xy2kbj1YBp19O)"><path d=" M 158.98 189.021 C 178.449 155.41 207.774 125.154 287.117 138.011 C 294.253 122.773 312.736 111.689 337.809 111.689 C 369.763 111.689 390.003 134.988 399.501 155.888 C 443.213 160.273 457.316 180.238 457.316 208.875 C 501.523 220.855 532.902 251.109 532.902 286.535 C 532.902 332.463 480.164 369.695 415.109 369.695 C 392.536 369.695 371.446 365.213 353.527 357.439 C 341.209 373.944 300.003 394.908 258.628 394.908 C 203.617 394.908 157.529 365.74 145.456 326.556 C 96.441 326.556 76.377 297.101 76.377 258.648 C 76.377 222.185 112.105 192.269 157.594 189.269 L 158.98 189.021 Z " fill="rgb(251,188,108)"/></g><clipPath id="_clipPath_MnNmxxrgcKEB7rEUyC7Xlk2ySLFUHtGt"><path d=" M 286.6 138.011 C 207.257 125.154 177.931 155.41 158.463 189.022 L 158.463 189.022 L 157.077 189.269 C 111.588 192.27 75.86 222.186 75.86 258.648 L 75.86 258.648 C 75.86 297.102 95.924 326.557 144.939 326.557 L 144.939 326.557 C 157.011 365.74 203.099 394.908 258.112 394.908 L 258.112 394.908 C 299.488 394.908 340.69 373.944 353.01 357.44 L 353.01 357.44 C 370.929 365.213 392.018 369.696 414.592 369.696 L 414.592 369.696 C 479.648 369.696 532.386 332.463 532.386 286.535 L 532.386 286.535 C 532.386 251.109 501.007 220.855 456.799 208.875 L 456.799 208.875 C 456.799 180.239 442.698 160.274 398.985 155.889 L 398.985 155.889 C 389.488 134.988 369.246 111.689 337.292 111.689 L 337.292 111.689 C 312.218 111.689 293.737 122.773 286.6 138.011 Z " fill="rgb(255,255,255)"/></clipPath><g clip-path="url(#_clipPath_MnNmxxrgcKEB7rEUyC7Xlk2ySLFUHtGt)"><path d=" M 360.432 215.861 C 360.432 220.164 356.94 223.65 352.64 223.65 C 348.338 223.65 344.846 220.164 344.846 215.861 C 344.846 211.556 348.338 208.068 352.64 208.068 C 356.94 208.068 360.432 211.556 360.432 215.861 Z " fill="rgb(170,172,175)"/><path d=" M 360.432 215.861 C 360.432 220.164 356.94 223.65 352.64 223.65 C 348.338 223.65 344.846 220.164 344.846 215.861 C 344.846 211.556 348.338 208.068 352.64 208.068 C 356.94 208.068 360.432 211.556 360.432 215.861 Z " fill="none" vector-effect="non-scaling-stroke" stroke-width="1" stroke="rgb(42,42,42)" stroke-linejoin="miter" stroke-linecap="square" stroke-miterlimit="3"/><path d=" M 385.016 230.035 C 385.016 234.336 381.26 237.826 376.627 237.826 C 371.995 237.826 368.243 234.336 368.243 230.035 C 368.243 225.732 371.995 222.244 376.627 222.244 C 381.26 222.244 385.016 225.732 385.016 230.035 Z " fill="rgb(244,137,57)"/><path d=" M 385.016 230.035 C 385.016 234.336 381.26 237.826 376.627 237.826 C 371.995 237.826 368.243 234.336 368.243 230.035 C 368.243 225.732 371.995 222.244 376.627 222.244 C 381.26 222.244 385.016 225.732 385.016 230.035 Z " fill="none" vector-effect="non-scaling-stroke" stroke-width="1" stroke="rgb(42,42,42)" stroke-linejoin="miter" stroke-linecap="square" stroke-miterlimit="3"/><path d=" M 365.656 204.691 C 365.656 208.996 362.17 212.482 357.864 212.482 C 353.56 212.482 350.075 208.996 350.075 204.691 C 350.075 200.386 353.56 196.9 357.864 196.9 C 362.17 196.9 365.656 200.386 365.656 204.691 Z " fill="rgb(244,137,57)"/><path d=" M 365.656 204.691 C 365.656 208.996 362.17 212.482 357.864 212.482 C 353.56 212.482 350.075 208.996 350.075 204.691 C 350.075 200.386 353.56 196.9 357.864 196.9 C 362.17 196.9 365.656 200.386 365.656 204.691 Z " fill="none" vector-effect="non-scaling-stroke" stroke-width="1" stroke="rgb(42,42,42)" stroke-linejoin="miter" stroke-linecap="square" stroke-miterlimit="3"/><path d=" M 386.779 202.785 C 386.779 207.088 383.293 210.574 378.99 210.574 C 374.683 210.574 371.199 207.088 371.199 202.785 C 371.199 198.48 374.683 194.992 378.99 194.992 C 383.293 194.992 386.779 198.48 386.779 202.785 Z " fill="rgb(244,137,57)"/><path d=" M 386.779 202.785 C 386.779 207.088 383.293 210.574 378.99 210.574 C 374.683 210.574 371.199 207.088 371.199 202.785 C 371.199 198.48 374.683 194.992 378.99 194.992 C 383.293 194.992 386.779 198.48 386.779 202.785 Z " fill="none" vector-effect="non-scaling-stroke" stroke-width="1" stroke="rgb(42,42,42)" stroke-linejoin="miter" stroke-linecap="square" stroke-miterlimit="3"/><path d=" M 392.722 212.525 C 392.722 216.828 389.237 220.314 384.932 220.314 C 380.63 220.314 377.141 216.828 377.141 212.525 C 377.141 208.222 380.63 204.732 384.932 204.732 C 389.237 204.732 392.722 208.222 392.722 212.525 Z " fill="rgb(170,172,175)"/><path d=" M 392.722 212.525 C 392.722 216.828 389.237 220.314 384.932 220.314 C 380.63 220.314 377.141 216.828 377.141 212.525 C 377.141 208.222 380.63 204.732 384.932 204.732 C 389.237 204.732 392.722 208.222 392.722 212.525 Z " fill="none" vector-effect="non-scaling-stroke" stroke-width="1" stroke="rgb(42,42,42)" stroke-linejoin="miter" stroke-linecap="square" stroke-miterlimit="3"/><path d=" M 364.209 226.232 C 364.209 230.535 360.719 234.025 356.416 234.025 C 352.111 234.025 348.625 230.535 348.625 226.232 C 348.625 221.929 352.111 218.441 356.416 218.441 C 360.719 218.441 364.209 221.929 364.209 226.232 Z " fill="rgb(244,137,57)"/><path d=" M 364.209 226.232 C 364.209 230.535 360.719 234.025 356.416 234.025 C 352.111 234.025 348.625 230.535 348.625 226.232 C 348.625 221.929 352.111 218.441 356.416 218.441 C 360.719 218.441 364.209 221.929 364.209 226.232 Z " fill="none" vector-effect="non-scaling-stroke" stroke-width="1" stroke="rgb(42,42,42)" stroke-linejoin="miter" stroke-linecap="square" stroke-miterlimit="3"/><path d=" M 375.85 199.564 C 375.85 203.867 372.361 207.353 368.055 207.353 C 363.754 207.353 360.268 203.867 360.268 199.564 C 360.268 195.261 363.754 191.773 368.055 191.773 C 372.361 191.773 375.85 195.261 375.85 199.564 Z " fill="rgb(170,172,175)"/><path d=" M 375.85 199.564 C 375.85 203.867 372.361 207.353 368.055 207.353 C 363.754 207.353 360.268 203.867 360.268 199.564 C 360.268 195.261 363.754 191.773 368.055 191.773 C 372.361 191.773 375.85 195.261 375.85 199.564 Z " fill="none" vector-effect="non-scaling-stroke" stroke-width="1" stroke="rgb(42,42,42)" stroke-linejoin="miter" stroke-linecap="square" stroke-miterlimit="3"/><path d=" M 391.434 222.32 C 391.434 226.621 387.942 230.109 383.639 230.109 C 379.337 230.109 375.85 226.621 375.85 222.32 C 375.85 218.015 379.337 214.529 383.639 214.529 C 387.942 214.529 391.434 218.015 391.434 222.32 Z " fill="rgb(244,137,57)"/><path d=" M 391.434 222.32 C 391.434 226.621 387.942 230.109 383.639 230.109 C 379.337 230.109 375.85 226.621 375.85 222.32 C 375.85 218.015 379.337 214.529 383.639 214.529 C 387.942 214.529 391.434 218.015 391.434 222.32 Z " fill="none" vector-effect="non-scaling-stroke" stroke-width="1" stroke="rgb(42,42,42)" stroke-linejoin="miter" stroke-linecap="square" stroke-miterlimit="3"/><path d=" M 373.488 231.986 C 373.488 236.293 370 239.779 365.695 239.779 C 361.393 239.779 357.906 236.293 357.906 231.986 C 357.906 227.683 361.393 224.193 365.695 224.193 C 370 224.193 373.488 227.683 373.488 231.986 Z " fill="rgb(170,172,175)"/><path d=" M 373.488 231.986 C 373.488 236.293 370 239.779 365.695 239.779 C 361.393 239.779 357.906 236.293 357.906 231.986 C 357.906 227.683 361.393 224.193 365.695 224.193 C 370 224.193 373.488 227.683 373.488 231.986 Z " fill="none" vector-effect="non-scaling-stroke" stroke-width="1" stroke="rgb(42,42,42)" stroke-linejoin="miter" stroke-linecap="square" stroke-miterlimit="3"/><path d=" M 378.884 223.016 C 378.884 227.317 375.399 230.807 371.094 230.807 C 366.791 230.807 363.301 227.317 363.301 223.016 C 363.301 218.709 366.791 215.223 371.094 215.223 C 375.399 215.223 378.884 218.709 378.884 223.016 Z " fill="rgb(170,172,175)"/><path d=" M 378.884 223.016 C 378.884 227.317 375.399 230.807 371.094 230.807 C 366.791 230.807 363.301 227.317 363.301 223.016 C 363.301 218.709 366.791 215.223 371.094 215.223 C 375.399 215.223 378.884 218.709 378.884 223.016 Z " fill="none" vector-effect="non-scaling-stroke" stroke-width="1" stroke="rgb(42,42,42)" stroke-linejoin="miter" stroke-linecap="square" stroke-miterlimit="3"/><path d=" M 380.572 211.584 C 380.572 215.887 377.084 219.379 372.783 219.379 C 368.478 219.379 364.99 215.887 364.99 211.584 C 364.99 207.281 368.478 203.795 372.783 203.795 C 377.084 203.795 380.572 207.281 380.572 211.584 Z " fill="rgb(170,172,175)"/><path d=" M 380.572 211.584 C 380.572 215.887 377.084 219.379 372.783 219.379 C 368.478 219.379 364.99 215.887 364.99 211.584 C 364.99 207.281 368.478 203.795 372.783 203.795 C 377.084 203.795 380.572 207.281 380.572 211.584 Z " fill="none" vector-effect="non-scaling-stroke" stroke-width="1" stroke="rgb(42,42,42)" stroke-linejoin="miter" stroke-linecap="square" stroke-miterlimit="3"/><path d=" M 370.422 213.863 C 370.422 218.166 366.932 221.654 362.631 221.654 C 358.33 221.654 354.838 218.166 354.838 213.863 C 354.838 209.562 358.33 206.072 362.631 206.072 C 366.932 206.072 370.422 209.562 370.422 213.863 Z " fill="rgb(244,137,57)"/><path d=" M 370.422 213.863 C 370.422 218.166 366.932 221.654 362.631 221.654 C 358.33 221.654 354.838 218.166 354.838 213.863 C 354.838 209.562 358.33 206.072 362.631 206.072 C 366.932 206.072 370.422 209.562 370.422 213.863 Z " fill="none" vector-effect="non-scaling-stroke" stroke-width="1" stroke="rgb(42,42,42)" stroke-linejoin="miter" stroke-linecap="square" stroke-miterlimit="3"/><path d=" M 250.92 214.801 C 250.627 222.311 255.147 228.168 260.623 232.721 C 266.658 237.205 275.104 241.227 285.547 244.508 C 306.432 251.076 335.133 255.069 366.699 255.069 L 368.78 255.069 L 368.78 254.084 C 305.354 254.084 258.774 235.942 258.774 214.801 L 250.921 214.801 L 250.92 214.801 Z " fill="rgb(230,141,56)"/><path d=" M 250.92 216.762 C 250.627 209.252 255.147 203.397 260.623 198.842 C 266.658 194.358 275.104 190.336 285.547 187.053 C 306.432 180.487 335.133 176.496 366.699 176.496 L 368.78 176.496 L 368.78 177.477 C 305.354 177.477 258.774 195.621 258.774 216.762 L 250.921 216.762 L 250.92 216.762 Z " fill="rgb(230,141,56)"/><path d=" M 486.636 214.801 C 486.927 222.311 482.407 228.168 476.929 232.721 C 470.896 237.205 462.45 241.227 452.007 244.508 C 431.121 251.076 402.42 255.069 370.854 255.069 L 368.772 255.069 L 368.772 254.084 C 432.198 254.084 478.779 235.942 478.779 214.801 L 486.632 214.801 L 486.636 214.801 Z " fill="rgb(230,141,56)"/><path d=" M 486.636 216.762 C 486.927 209.252 482.407 203.397 476.929 198.842 C 470.896 194.358 462.45 190.336 452.007 187.053 C 431.121 180.487 402.42 176.496 370.854 176.496 L 368.772 176.496 L 368.772 177.477 C 432.198 177.477 478.779 195.621 478.779 216.762 L 486.632 216.762 L 486.636 216.762 Z " fill="rgb(230,141,56)"/><path d=" M 284.744 298.422 C 289.851 303.94 297.185 304.885 304.28 304.233 C 311.717 303.139 320.53 300.008 330.24 294.945 C 349.65 284.82 372.765 267.35 395.086 245.029 L 396.559 243.555 L 395.867 242.859 C 351.014 287.713 305.25 307.817 290.302 292.869 L 284.744 298.422 Z " fill="rgb(230,141,56)"/><path d=" M 286.132 299.811 C 280.615 294.707 279.67 287.37 280.322 280.275 C 281.42 272.842 284.549 264.025 289.61 254.319 C 299.736 234.907 317.209 211.791 339.529 189.471 L 341 187.997 L 341.697 188.692 C 296.846 233.543 276.738 279.307 291.686 294.256 L 286.132 299.811 Z " fill="rgb(230,141,56)"/><path d=" M 451.423 131.748 C 456.939 136.852 457.884 144.189 457.23 151.283 C 456.136 158.719 453.007 167.533 447.943 177.24 C 437.818 196.652 420.346 219.768 398.026 242.09 L 396.552 243.562 L 395.856 242.869 C 440.708 198.016 460.818 152.252 445.866 137.305 L 451.423 131.748 Z " fill="rgb(230,141,56)"/><path d=" M 452.81 133.135 C 447.705 127.617 440.365 126.672 433.275 127.326 C 425.838 128.42 417.022 131.551 407.315 136.614 C 387.907 146.739 364.788 164.211 342.467 186.531 L 340.993 188.004 L 341.688 188.699 C 386.539 143.846 432.303 123.74 447.255 138.69 L 452.81 133.135 Z " fill="rgb(230,141,56)"/><path d=" M 286.132 131.752 C 280.615 136.856 279.67 144.191 280.322 151.287 C 281.42 158.723 284.549 167.537 289.61 177.244 C 299.736 196.654 317.209 219.77 339.529 242.092 L 341 243.565 L 341.697 242.871 C 296.846 198.022 276.738 152.256 291.686 137.307 L 286.132 131.752 Z " fill="rgb(230,141,56)"/><path d=" M 284.744 133.137 C 289.851 127.619 297.185 126.676 304.28 127.326 C 311.717 128.424 320.53 131.553 330.24 136.614 C 349.65 146.742 372.765 164.213 395.086 186.533 L 396.559 188.006 L 395.867 188.701 C 351.014 143.85 305.25 123.744 290.302 138.694 L 284.744 133.139 L 284.744 133.137 Z " fill="rgb(230,141,56)"/><path d=" M 452.81 298.426 C 447.705 303.944 440.365 304.889 433.275 304.235 C 425.838 303.141 417.022 300.01 407.315 294.947 C 387.907 284.822 364.788 267.352 342.467 245.03 L 340.993 243.557 L 341.688 242.862 C 386.539 287.715 432.303 307.821 447.255 292.871 L 452.81 298.422 L 452.81 298.426 Z " fill="rgb(230,141,56)"/><path d=" M 451.423 299.813 C 456.939 294.708 457.884 287.372 457.23 280.278 C 456.136 272.842 453.007 264.026 447.943 254.321 C 437.818 234.909 420.346 211.793 398.026 189.471 L 396.552 188 L 395.856 188.692 C 440.708 233.543 460.818 279.309 445.866 294.258 L 451.423 299.813 Z " fill="rgb(230,141,56)"/><path d=" M 369.758 97.926 C 362.246 97.633 356.391 102.151 351.836 107.631 C 347.354 113.664 343.334 122.108 340.048 132.551 C 333.481 153.438 329.489 182.137 329.489 213.703 L 329.489 215.789 L 330.471 215.789 C 330.471 152.358 348.616 105.781 369.758 105.781 L 369.758 97.926 Z " fill="rgb(230,141,56)"/><path d=" M 367.797 97.926 C 375.307 97.633 381.161 102.151 385.715 107.631 C 390.201 113.664 394.223 122.108 397.504 132.551 C 404.068 153.438 408.063 182.137 408.063 213.703 L 408.063 215.789 L 407.079 215.789 C 407.079 152.358 388.934 105.781 367.797 105.781 L 367.797 97.926 Z " fill="rgb(230,141,56)"/><path d=" M 369.758 333.639 C 362.246 333.928 356.391 329.41 351.836 323.932 C 347.354 317.901 343.334 309.453 340.048 299.01 C 333.481 278.125 329.489 249.424 329.489 217.86 L 329.489 215.776 L 330.471 215.776 C 330.471 279.205 348.616 325.782 369.758 325.782 L 369.758 333.639 Z " fill="rgb(230,141,56)"/><path d=" M 367.797 333.639 C 375.307 333.928 381.161 329.41 385.715 323.932 C 390.201 317.901 394.223 309.453 397.504 299.01 C 404.068 278.125 408.063 249.424 408.063 217.86 L 408.063 215.776 L 407.079 215.776 C 407.079 279.205 388.934 325.782 367.797 325.782 L 367.797 333.639 Z " fill="rgb(230,141,56)"/><path d=" M 218.638 254.764 C 218.638 259.088 215.135 262.59 210.813 262.59 C 206.491 262.59 202.987 259.088 202.987 254.764 C 202.987 250.442 206.491 246.94 210.813 246.94 C 215.135 246.94 218.638 250.442 218.638 254.764 Z " fill="rgb(170,172,175)"/><path d=" M 218.638 254.764 C 218.638 259.088 215.135 262.59 210.813 262.59 C 206.491 262.59 202.987 259.088 202.987 254.764 C 202.987 250.442 206.491 246.94 210.813 246.94 C 215.135 246.94 218.638 250.442 218.638 254.764 Z " fill="none" vector-effect="non-scaling-stroke" stroke-width="1" stroke="rgb(42,42,42)" stroke-linejoin="miter" stroke-linecap="square" stroke-miterlimit="3"/><path d=" M 191.686 267.625 C 191.686 271.945 188.179 275.447 183.861 275.447 C 179.54 275.447 176.034 271.945 176.034 267.625 C 176.034 263.303 179.54 259.799 183.861 259.799 C 188.179 259.799 191.686 263.303 191.686 267.625 Z " fill="rgb(170,172,175)"/><path d=" M 191.686 267.625 C 191.686 271.945 188.179 275.447 183.861 275.447 C 179.54 275.447 176.034 271.945 176.034 267.625 C 176.034 263.303 179.54 259.799 183.861 259.799 C 188.179 259.799 191.686 263.303 191.686 267.625 Z " fill="none" vector-effect="non-scaling-stroke" stroke-width="1" stroke="rgb(42,42,42)" stroke-linejoin="miter" stroke-linecap="square" stroke-miterlimit="3"/><path d=" M 217.559 280.674 C 217.559 284.992 213.788 288.498 209.135 288.498 C 204.483 288.498 200.715 284.992 200.715 280.674 C 200.715 276.352 204.483 272.85 209.135 272.85 C 213.788 272.85 217.559 276.352 217.559 280.674 Z " fill="rgb(244,137,57)"/><path d=" M 217.559 280.674 C 217.559 284.992 213.788 288.498 209.135 288.498 C 204.483 288.498 200.715 284.992 200.715 280.674 C 200.715 276.352 204.483 272.85 209.135 272.85 C 213.788 272.85 217.559 276.352 217.559 280.674 Z " fill="none" vector-effect="non-scaling-stroke" stroke-width="1" stroke="rgb(42,42,42)" stroke-linejoin="miter" stroke-linecap="square" stroke-miterlimit="3"/><path d=" M 196.933 256.406 C 196.933 260.73 193.43 264.232 189.108 264.232 C 184.786 264.232 181.286 260.73 181.286 256.406 C 181.286 252.084 184.786 248.584 189.108 248.584 C 193.43 248.584 196.933 252.084 196.933 256.406 Z " fill="rgb(244,137,57)"/><path d=" M 196.933 256.406 C 196.933 260.73 193.43 264.232 189.108 264.232 C 184.786 264.232 181.286 260.73 181.286 256.406 C 181.286 252.084 184.786 248.584 189.108 248.584 C 193.43 248.584 196.933 252.084 196.933 256.406 Z " fill="none" vector-effect="non-scaling-stroke" stroke-width="1" stroke="rgb(42,42,42)" stroke-linejoin="miter" stroke-linecap="square" stroke-miterlimit="3"/><path d=" M 212.44 259.836 C 212.44 264.154 208.938 267.658 204.617 267.658 C 200.293 267.658 196.792 264.154 196.792 259.836 C 196.792 255.512 200.293 252.008 204.617 252.008 C 208.938 252.008 212.44 255.512 212.44 259.836 Z " fill="rgb(244,137,57)"/><path d=" M 212.44 259.836 C 212.44 264.154 208.938 267.658 204.617 267.658 C 200.293 267.658 196.792 264.154 196.792 259.836 C 196.792 255.512 200.293 252.008 204.617 252.008 C 208.938 252.008 212.44 255.512 212.44 259.836 Z " fill="none" vector-effect="non-scaling-stroke" stroke-width="1" stroke="rgb(42,42,42)" stroke-linejoin="miter" stroke-linecap="square" stroke-miterlimit="3"/><path d=" M 224.112 264.273 C 224.112 268.595 220.612 272.097 216.289 272.097 C 211.968 272.097 208.466 268.595 208.466 264.273 C 208.466 259.955 211.968 256.449 216.289 256.449 C 220.612 256.449 224.112 259.955 224.112 264.273 Z " fill="rgb(170,172,175)"/><path d=" M 224.112 264.273 C 224.112 268.595 220.612 272.097 216.289 272.097 C 211.968 272.097 208.466 268.595 208.466 264.273 C 208.466 259.955 211.968 256.449 216.289 256.449 C 220.612 256.449 224.112 259.955 224.112 264.273 Z " fill="none" vector-effect="non-scaling-stroke" stroke-width="1" stroke="rgb(42,42,42)" stroke-linejoin="miter" stroke-linecap="square" stroke-miterlimit="3"/><path d=" M 195.479 278.039 C 195.479 282.361 191.975 285.865 187.653 285.865 C 183.331 285.865 179.829 282.361 179.829 278.039 C 179.829 273.719 183.331 270.217 187.653 270.217 C 191.975 270.217 195.479 273.719 195.479 278.039 Z " fill="rgb(244,137,57)"/><path d=" M 195.479 278.039 C 195.479 282.361 191.975 285.865 187.653 285.865 C 183.331 285.865 179.829 282.361 179.829 278.039 C 179.829 273.719 183.331 270.217 187.653 270.217 C 191.975 270.217 195.479 273.719 195.479 278.039 Z " fill="none" vector-effect="non-scaling-stroke" stroke-width="1" stroke="rgb(42,42,42)" stroke-linejoin="miter" stroke-linecap="square" stroke-miterlimit="3"/><path d=" M 207.168 251.26 C 207.168 255.58 203.664 259.082 199.342 259.082 C 195.022 259.082 191.521 255.58 191.521 251.26 C 191.521 246.938 195.022 243.436 199.342 243.436 C 203.664 243.436 207.168 246.938 207.168 251.26 Z " fill="rgb(170,172,175)"/><path d=" M 207.168 251.26 C 207.168 255.58 203.664 259.082 199.342 259.082 C 195.022 259.082 191.521 255.58 191.521 251.26 C 191.521 246.938 195.022 243.436 199.342 243.436 C 203.664 243.436 207.168 246.938 207.168 251.26 Z " fill="none" vector-effect="non-scaling-stroke" stroke-width="1" stroke="rgb(42,42,42)" stroke-linejoin="miter" stroke-linecap="square" stroke-miterlimit="3"/><path d=" M 222.818 274.109 C 222.818 278.429 219.312 281.933 214.992 281.933 C 210.671 281.933 207.168 278.429 207.168 274.109 C 207.168 269.789 210.671 266.287 214.992 266.287 C 219.312 266.287 222.818 269.789 222.818 274.109 Z " fill="rgb(244,137,57)"/><path d=" M 222.818 274.109 C 222.818 278.429 219.312 281.933 214.992 281.933 C 210.671 281.933 207.168 278.429 207.168 274.109 C 207.168 269.789 210.671 266.287 214.992 266.287 C 219.312 266.287 222.818 269.789 222.818 274.109 Z " fill="none" vector-effect="non-scaling-stroke" stroke-width="1" stroke="rgb(42,42,42)" stroke-linejoin="miter" stroke-linecap="square" stroke-miterlimit="3"/><path d=" M 207.168 283.818 C 207.168 288.142 203.664 291.644 199.342 291.644 C 195.022 291.644 191.521 288.142 191.521 283.818 C 191.521 279.498 195.022 275.992 199.342 275.992 C 203.664 275.992 207.168 279.498 207.168 283.818 Z " fill="rgb(170,172,175)"/><path d=" M 207.168 283.818 C 207.168 288.142 203.664 291.644 199.342 291.644 C 195.022 291.644 191.521 288.142 191.521 283.818 C 191.521 279.498 195.022 275.992 199.342 275.992 C 203.664 275.992 207.168 279.498 207.168 283.818 Z " fill="none" vector-effect="non-scaling-stroke" stroke-width="1" stroke="rgb(42,42,42)" stroke-linejoin="miter" stroke-linecap="square" stroke-miterlimit="3"/><path d=" M 203.105 275.994 C 203.105 280.314 199.604 283.818 195.282 283.818 C 190.961 283.818 187.456 280.314 187.456 275.994 C 187.456 271.67 190.961 268.168 195.282 268.168 C 199.604 268.168 203.105 271.67 203.105 275.994 Z " fill="rgb(170,172,175)"/><path d=" M 203.105 275.994 C 203.105 280.314 199.604 283.818 195.282 283.818 C 190.961 283.818 187.456 280.314 187.456 275.994 C 187.456 271.67 190.961 268.168 195.282 268.168 C 199.604 268.168 203.105 271.67 203.105 275.994 Z " fill="none" vector-effect="non-scaling-stroke" stroke-width="1" stroke="rgb(42,42,42)" stroke-linejoin="miter" stroke-linecap="square" stroke-miterlimit="3"/><path d=" M 214.282 271.627 C 214.282 275.947 210.779 279.453 206.46 279.453 C 202.136 279.453 198.633 275.947 198.633 271.627 C 198.633 267.305 202.136 263.805 206.46 263.805 C 210.779 263.805 214.282 267.305 214.282 271.627 Z " fill="rgb(170,172,175)"/><path d=" M 214.282 271.627 C 214.282 275.947 210.779 279.453 206.46 279.453 C 202.136 279.453 198.633 275.947 198.633 271.627 C 198.633 267.305 202.136 263.805 206.46 263.805 C 210.779 263.805 214.282 267.305 214.282 271.627 Z " fill="none" vector-effect="non-scaling-stroke" stroke-width="1" stroke="rgb(42,42,42)" stroke-linejoin="miter" stroke-linecap="square" stroke-miterlimit="3"/><path d=" M 203.303 264.434 C 203.303 268.754 199.797 272.258 195.479 272.258 C 191.159 272.258 187.653 268.754 187.653 264.434 C 187.653 260.114 191.159 256.61 195.479 256.61 C 199.797 256.61 203.303 260.114 203.303 264.434 Z " fill="rgb(244,137,57)"/><path d=" M 203.303 264.434 C 203.303 268.754 199.797 272.258 195.479 272.258 C 191.159 272.258 187.653 268.754 187.653 264.434 C 187.653 260.114 191.159 256.61 195.479 256.61 C 199.797 256.61 203.303 260.114 203.303 264.434 Z " fill="none" vector-effect="non-scaling-stroke" stroke-width="1" stroke="rgb(42,42,42)" stroke-linejoin="miter" stroke-linecap="square" stroke-miterlimit="3"/><path d=" M 81.708 266.561 C 81.414 274.102 85.952 279.984 91.452 284.554 C 97.513 289.061 105.995 293.097 116.483 296.395 C 137.455 302.989 166.278 306.999 197.979 306.999 L 200.069 306.999 L 200.069 306.01 C 136.373 306.01 89.597 287.79 89.597 266.561 L 81.71 266.561 L 81.708 266.561 Z " fill="rgb(230,141,56)"/><path d=" M 81.708 268.529 C 81.414 260.986 85.952 255.107 91.452 250.533 C 97.513 246.029 105.995 241.99 116.483 238.693 C 137.455 232.099 166.278 228.091 197.979 228.091 L 200.069 228.091 L 200.069 229.078 C 136.373 229.078 89.597 247.299 89.597 268.529 L 81.71 268.529 L 81.708 268.529 Z " fill="rgb(230,141,56)"/><path d=" M 318.424 266.561 C 318.715 274.102 314.178 279.984 308.678 284.554 C 302.617 289.061 294.137 293.097 283.649 296.395 C 262.675 302.989 233.853 306.999 202.153 306.999 L 200.061 306.999 L 200.061 306.01 C 263.757 306.01 310.533 287.79 310.533 266.561 L 318.42 266.561 L 318.424 266.561 Z " fill="rgb(230,141,56)"/><path d=" M 318.424 268.529 C 318.715 260.986 314.178 255.107 308.678 250.533 C 302.617 246.029 294.137 241.99 283.649 238.693 C 262.675 232.099 233.853 228.091 202.153 228.091 L 200.061 228.091 L 200.061 229.078 C 263.757 229.078 310.533 247.299 310.533 268.529 L 318.42 268.529 L 318.424 268.529 Z " fill="rgb(230,141,56)"/><path d=" M 115.677 350.537 C 120.806 356.078 128.17 357.027 135.296 356.371 C 142.763 355.273 151.615 352.129 161.365 347.045 C 180.858 336.877 204.073 319.332 226.489 296.916 L 227.967 295.435 L 227.272 294.738 C 182.227 339.781 136.269 359.971 121.258 344.959 L 115.677 350.537 Z " fill="rgb(230,141,56)"/><path d=" M 117.069 351.93 C 111.53 346.805 110.581 339.436 111.236 332.313 C 112.339 324.846 115.479 315.994 120.561 306.244 C 130.733 286.75 148.278 263.537 170.694 241.121 L 172.171 239.641 L 172.872 240.338 C 127.829 285.381 107.636 331.34 122.647 346.352 L 117.069 351.93 Z " fill="rgb(230,141,56)"/><path d=" M 283.063 183.154 C 288.602 188.279 289.55 195.648 288.894 202.773 C 287.795 210.238 284.653 219.092 279.569 228.84 C 269.4 248.334 251.854 271.547 229.44 293.965 L 227.959 295.443 L 227.26 294.748 C 272.303 249.703 292.497 203.746 277.483 188.734 L 283.063 183.154 Z " fill="rgb(230,141,56)"/><path d=" M 284.455 184.547 C 279.327 179.006 271.957 178.057 264.837 178.713 C 257.369 179.813 248.516 182.957 238.767 188.039 C 219.276 198.209 196.06 215.756 173.644 238.17 L 172.163 239.649 L 172.862 240.348 C 217.904 195.305 263.862 175.113 278.875 190.125 L 284.455 184.547 Z " fill="rgb(230,141,56)"/><path d=" M 117.069 183.158 C 111.53 188.283 110.581 195.65 111.236 202.775 C 112.339 210.244 115.479 219.096 120.561 228.844 C 130.733 248.336 148.278 271.551 170.694 293.967 L 172.171 295.445 L 172.872 294.75 C 127.829 249.709 107.636 203.748 122.647 188.736 L 117.069 183.158 Z " fill="rgb(230,141,56)"/><path d=" M 115.677 184.549 C 120.806 179.008 128.17 178.061 135.296 178.715 C 142.763 179.817 151.615 182.959 161.365 188.041 C 180.858 198.211 204.073 215.756 226.489 238.172 L 227.967 239.651 L 227.272 240.35 C 182.227 195.307 136.269 175.115 121.258 190.129 L 115.677 184.551 L 115.677 184.549 Z " fill="rgb(230,141,56)"/><path d=" M 284.455 350.539 C 279.327 356.08 271.957 357.029 264.837 356.373 C 257.369 355.273 248.516 352.131 238.767 347.047 C 219.276 336.879 196.06 319.334 173.644 296.916 L 172.163 295.437 L 172.862 294.74 C 217.904 339.783 263.862 359.973 278.875 344.961 L 284.455 350.537 L 284.455 350.539 Z " fill="rgb(230,141,56)"/><path d=" M 283.063 351.932 C 288.602 346.807 289.55 339.438 288.894 332.315 C 287.795 324.848 284.653 315.994 279.569 306.248 C 269.4 286.752 251.854 263.539 229.44 241.123 L 227.959 239.645 L 227.26 240.34 C 272.303 285.381 292.497 331.342 277.483 346.356 L 283.063 351.932 Z " fill="rgb(230,141,56)"/><path d=" M 201.051 149.188 C 193.508 148.895 187.627 153.432 183.053 158.934 C 178.552 164.993 174.515 173.473 171.215 183.961 C 164.62 204.936 160.612 233.755 160.612 265.458 L 160.612 267.553 L 161.598 267.553 C 161.598 203.852 179.821 157.077 201.051 157.077 L 201.051 149.188 Z " fill="rgb(230,141,56)"/><path d=" M 199.081 149.188 C 206.625 148.895 212.503 153.432 217.076 158.934 C 221.581 164.993 225.619 173.473 228.914 183.961 C 235.508 204.936 239.519 233.755 239.519 265.458 L 239.519 267.553 L 238.531 267.553 C 238.531 203.852 220.309 157.077 199.081 157.077 L 199.081 149.188 Z " fill="rgb(230,141,56)"/><path d=" M 201.051 385.902 C 193.508 386.193 187.627 381.654 183.053 376.154 C 178.552 370.095 174.515 361.615 171.215 351.127 C 164.62 330.154 160.612 301.33 160.612 269.631 L 160.612 267.539 L 161.598 267.539 C 161.598 331.236 179.821 378.011 201.051 378.011 L 201.051 385.902 Z " fill="rgb(230,141,56)"/><path d=" M 199.081 385.902 C 206.625 386.193 212.503 381.654 217.076 376.154 C 221.581 370.095 225.619 361.615 228.914 351.127 C 235.508 330.154 239.519 301.33 239.519 269.631 L 239.519 267.539 L 238.531 267.539 C 238.531 331.236 220.309 378.011 199.081 378.011 L 199.081 385.902 Z " fill="rgb(230,141,56)"/></g><clipPath id="_clipPath_aMqVezCKWkotlnJdX2NKihQNfJ6Hkczb"><path d=" M 0 0 L 626.4 0 L 626.4 720 L 0 720 L 0 0 Z " fill="rgb(255,255,255)"/></clipPath><g clip-path="url(#_clipPath_aMqVezCKWkotlnJdX2NKihQNfJ6Hkczb)"><path d=" M 157.315 189.021 C 176.784 155.41 206.11 125.154 285.453 138.011 C 292.589 122.773 311.071 111.689 336.145 111.689 C 368.097 111.689 388.339 134.988 397.837 155.888 C 441.55 160.273 455.652 180.238 455.652 208.875 C 499.859 220.855 531.238 251.109 531.238 286.535 C 531.238 332.463 478.5 369.695 413.444 369.695 C 390.871 369.695 369.782 365.213 351.862 357.439 C 339.544 373.944 298.339 394.908 256.964 394.908 C 201.952 394.908 155.864 365.74 143.792 326.556 C 94.776 326.556 74.712 297.101 74.712 258.648 C 74.712 222.185 110.44 192.269 155.93 189.269 L 157.315 189.021 Z " fill="none" vector-effect="non-scaling-stroke" stroke-width="7" stroke="rgb(230,141,56)" stroke-linejoin="miter" stroke-linecap="square" stroke-miterlimit="3"/><path d=" M 532.901 352.037 L 532.901 377.234 C 532.876 383.576 526.924 389.91 515.036 394.75 C 491.108 404.492 452.178 404.492 428.092 394.75 C 415.971 389.85 409.919 383.412 409.944 376.988 L 409.944 351.791 C 409.919 358.217 415.971 364.65 428.092 369.555 C 452.178 379.295 491.108 379.295 515.036 369.553 C 526.924 364.713 532.876 358.379 532.901 352.037 Z " fill="rgb(230,141,56)"/><path d=" M 532.901 352.037 L 532.901 377.234 C 532.876 383.576 526.924 389.91 515.036 394.75 C 491.108 404.492 452.178 404.492 428.092 394.75 C 415.971 389.85 409.919 383.412 409.944 376.988 L 409.944 351.791 C 409.919 358.217 415.971 364.65 428.092 369.555 C 452.178 379.295 491.108 379.295 515.036 369.553 C 526.924 364.713 532.876 358.379 532.901 352.037 Z " fill="none" vector-effect="non-scaling-stroke" stroke-width="1" stroke="rgb(126,127,127)" stroke-linejoin="miter" stroke-linecap="square" stroke-miterlimit="3"/><path d=" M 409.944 351.816 C 409.965 338.039 437.508 326.914 471.462 326.966 C 505.415 327.019 532.923 338.232 532.901 352.009 C 532.88 365.789 505.337 376.914 471.383 376.859 C 437.428 376.806 409.923 365.593 409.944 351.816 Z " fill="rgb(251,188,108)"/><path d=" M 409.944 351.816 C 409.965 338.039 437.508 326.914 471.462 326.966 C 505.415 327.019 532.923 338.232 532.901 352.009 C 532.88 365.789 505.337 376.914 471.383 376.859 C 437.428 376.806 409.923 365.593 409.944 351.816 Z " fill="none" vector-effect="non-scaling-stroke" stroke-width="2" stroke="rgb(126,127,127)" stroke-linejoin="miter" stroke-linecap="square" stroke-miterlimit="3"/><path d=" M 531.372 346.549 C 532.851 353.465 527.132 360.578 514.134 365.867 C 490.7 375.408 452.577 375.41 428.989 365.867 C 415.839 360.549 410.003 353.389 411.452 346.442 C 407.067 354.5 412.581 363.281 428.093 369.555 C 452.179 379.297 491.108 379.295 515.036 369.555 C 530.378 363.309 535.776 354.58 531.372 346.549 Z " fill="rgb(126,127,127)"/><path d=" M 531.372 346.549 C 532.851 353.465 527.132 360.578 514.134 365.867 C 490.7 375.408 452.577 375.41 428.989 365.867 C 415.839 360.549 410.003 353.389 411.452 346.442 C 407.067 354.5 412.581 363.281 428.093 369.555 C 452.179 379.297 491.108 379.295 515.036 369.555 C 530.378 363.309 535.776 354.58 531.372 346.549 Z " fill="none" vector-effect="non-scaling-stroke" stroke-width="1" stroke="rgb(126,127,127)" stroke-linejoin="miter" stroke-linecap="square" stroke-miterlimit="3"/><path d=" M 528.089 318.512 L 528.089 341.737 C 528.068 347.582 522.581 353.42 511.622 357.883 C 489.568 366.862 453.685 366.862 431.485 357.883 C 420.312 353.364 414.732 347.432 414.757 341.51 L 414.757 318.285 C 414.732 324.207 420.312 330.137 431.485 334.657 C 453.685 343.637 489.568 343.635 511.622 334.657 C 522.581 330.196 528.066 324.358 528.089 318.512 Z " fill="rgb(234,155,55)"/><path d=" M 528.089 318.512 L 528.089 341.737 C 528.068 347.582 522.581 353.42 511.622 357.883 C 489.568 366.862 453.685 366.862 431.485 357.883 C 420.312 353.364 414.732 347.432 414.757 341.51 L 414.757 318.285 C 414.732 324.207 420.312 330.137 431.485 334.657 C 453.685 343.637 489.568 343.635 511.622 334.657 C 522.581 330.196 528.066 324.358 528.089 318.512 Z " fill="none" vector-effect="non-scaling-stroke" stroke-width="1" stroke="rgb(126,127,127)" stroke-linejoin="miter" stroke-linecap="square" stroke-miterlimit="3"/><path d=" M 532.901 303.029 L 532.901 328.226 C 532.876 334.57 526.924 340.902 515.036 345.744 C 491.108 355.484 452.178 355.484 428.092 345.744 C 415.971 340.842 409.919 334.406 409.944 327.98 L 409.944 302.783 C 409.919 309.209 415.971 315.642 428.092 320.547 C 452.178 330.289 491.108 330.287 515.036 320.547 C 526.924 315.705 532.876 309.373 532.901 303.029 Z " fill="rgb(230,141,56)"/><path d=" M 532.901 303.029 L 532.901 328.226 C 532.876 334.57 526.924 340.902 515.036 345.744 C 491.108 355.484 452.178 355.484 428.092 345.744 C 415.971 340.842 409.919 334.406 409.944 327.98 L 409.944 302.783 C 409.919 309.209 415.971 315.642 428.092 320.547 C 452.178 330.289 491.108 330.287 515.036 320.547 C 526.924 315.705 532.876 309.373 532.901 303.029 Z " fill="none" vector-effect="non-scaling-stroke" stroke-width="1" stroke="rgb(126,127,127)" stroke-linejoin="miter" stroke-linecap="square" stroke-miterlimit="3"/><path d=" M 409.944 302.809 C 409.965 289.032 437.508 277.907 471.462 277.959 C 505.415 278.014 532.923 289.225 532.901 303.004 C 532.88 316.782 505.337 327.907 471.383 327.852 C 437.428 327.799 409.923 316.586 409.944 302.809 Z " fill="rgb(251,188,108)"/><path d=" M 409.944 302.809 C 409.965 289.032 437.508 277.907 471.462 277.959 C 505.415 278.014 532.923 289.225 532.901 303.004 C 532.88 316.782 505.337 327.907 471.383 327.852 C 437.428 327.799 409.923 316.586 409.944 302.809 Z " fill="none" vector-effect="non-scaling-stroke" stroke-width="2" stroke="rgb(126,127,127)" stroke-linejoin="miter" stroke-linecap="square" stroke-miterlimit="3"/><path d=" M 531.372 297.541 C 532.851 304.457 527.132 311.57 514.134 316.859 C 490.7 326.4 452.577 326.402 428.989 316.859 C 415.839 311.541 410.003 304.383 411.452 297.434 C 407.067 305.494 412.581 314.273 428.093 320.547 C 452.179 330.289 491.108 330.287 515.036 320.547 C 530.378 314.301 535.776 305.572 531.372 297.541 Z " fill="rgb(126,127,127)"/><path d=" M 531.372 297.541 C 532.851 304.457 527.132 311.57 514.134 316.859 C 490.7 326.4 452.577 326.402 428.989 316.859 C 415.839 311.541 410.003 304.383 411.452 297.434 C 407.067 305.494 412.581 314.273 428.093 320.547 C 452.179 330.289 491.108 330.287 515.036 320.547 C 530.378 314.301 535.776 305.572 531.372 297.541 Z " fill="none" vector-effect="non-scaling-stroke" stroke-width="1" stroke="rgb(126,127,127)" stroke-linejoin="miter" stroke-linecap="square" stroke-miterlimit="3"/><path d=" M 528.089 269.504 L 528.089 292.729 C 528.068 298.574 522.581 304.412 511.622 308.875 C 489.568 317.854 453.685 317.854 431.485 308.875 C 420.312 304.356 414.732 298.424 414.757 292.502 L 414.757 269.277 C 414.732 275.199 420.312 281.131 431.485 285.65 C 453.685 294.629 489.568 294.629 511.622 285.65 C 522.581 281.188 528.066 275.35 528.089 269.504 Z " fill="rgb(234,155,55)"/><path d=" M 528.089 269.504 L 528.089 292.729 C 528.068 298.574 522.581 304.412 511.622 308.875 C 489.568 317.854 453.685 317.854 431.485 308.875 C 420.312 304.356 414.732 298.424 414.757 292.502 L 414.757 269.277 C 414.732 275.199 420.312 281.131 431.485 285.65 C 453.685 294.629 489.568 294.629 511.622 285.65 C 522.581 281.188 528.066 275.35 528.089 269.504 Z " fill="none" vector-effect="non-scaling-stroke" stroke-width="1" stroke="rgb(126,127,127)" stroke-linejoin="miter" stroke-linecap="square" stroke-miterlimit="3"/><path d=" M 532.901 254.022 L 532.901 279.219 C 532.876 285.563 526.924 291.895 515.036 296.737 C 491.108 306.479 452.178 306.479 428.092 296.737 C 415.971 291.835 409.919 285.399 409.944 278.973 L 409.944 253.776 C 409.919 260.202 415.971 266.637 428.092 271.54 C 452.178 281.282 491.108 281.28 515.036 271.54 C 526.924 266.7 532.876 260.366 532.901 254.022 Z " fill="rgb(230,141,56)"/><path d=" M 532.901 254.022 L 532.901 279.219 C 532.876 285.563 526.924 291.895 515.036 296.737 C 491.108 306.479 452.178 306.479 428.092 296.737 C 415.971 291.835 409.919 285.399 409.944 278.973 L 409.944 253.776 C 409.919 260.202 415.971 266.637 428.092 271.54 C 452.178 281.282 491.108 281.28 515.036 271.54 C 526.924 266.7 532.876 260.366 532.901 254.022 Z " fill="none" vector-effect="non-scaling-stroke" stroke-width="1" stroke="rgb(126,127,127)" stroke-linejoin="miter" stroke-linecap="square" stroke-miterlimit="3"/><path d=" M 409.944 253.801 C 409.965 240.024 437.508 228.899 471.462 228.951 C 505.415 229.006 532.923 240.219 532.901 253.996 C 532.88 267.774 505.337 278.899 471.383 278.846 C 437.428 278.791 409.923 267.58 409.944 253.801 Z " fill="rgb(251,188,108)"/><path d=" M 409.944 253.801 C 409.965 240.024 437.508 228.899 471.462 228.951 C 505.415 229.006 532.923 240.219 532.901 253.996 C 532.88 267.774 505.337 278.899 471.383 278.846 C 437.428 278.791 409.923 267.58 409.944 253.801 Z " fill="none" vector-effect="non-scaling-stroke" stroke-width="2" stroke="rgb(126,127,127)" stroke-linejoin="miter" stroke-linecap="square" stroke-miterlimit="3"/><path d=" M 531.372 248.535 C 532.851 255.449 527.132 262.562 514.134 267.851 C 490.7 277.392 452.577 277.394 428.989 267.851 C 415.839 262.533 410.003 255.375 411.452 248.426 C 407.067 256.486 412.581 265.265 428.093 271.539 C 452.179 281.281 491.108 281.279 515.036 271.539 C 530.378 265.293 535.776 256.564 531.372 248.535 Z " fill="rgb(126,127,127)"/><path d=" M 531.372 248.535 C 532.851 255.449 527.132 262.562 514.134 267.851 C 490.7 277.392 452.577 277.394 428.989 267.851 C 415.839 262.533 410.003 255.375 411.452 248.426 C 407.067 256.486 412.581 265.265 428.093 271.539 C 452.179 281.281 491.108 281.279 515.036 271.539 C 530.378 265.293 535.776 256.564 531.372 248.535 Z " fill="none" vector-effect="non-scaling-stroke" stroke-width="1" stroke="rgb(126,127,127)" stroke-linejoin="miter" stroke-linecap="square" stroke-miterlimit="3"/><path d=" M 359.747 204.602 C 359.562 204.416 359.377 204.231 359.192 204.045 L 348.078 215.159 C 348.264 215.344 348.448 215.53 348.634 215.713 C 372.342 239.422 372.342 277.995 348.634 301.704 L 359.747 312.817 C 389.615 282.903 389.615 234.469 359.747 204.602 Z " fill="rgb(42,42,42)"/><path d=" M 337.567 226.781 C 337.381 226.595 337.196 226.41 337.011 226.224 L 325.897 237.338 L 326.454 237.894 C 337.937 249.379 337.937 268.039 326.454 279.476 L 337.567 290.59 C 355.163 272.994 355.163 244.377 337.567 226.781 Z " fill="rgb(42,42,42)"/><path d=" M 262.69 215.668 C 262.876 215.482 263.061 215.297 263.246 215.111 L 252.132 203.998 C 251.948 204.184 251.762 204.369 251.577 204.555 C 221.711 234.422 221.711 282.857 251.577 312.725 L 262.69 301.611 C 238.982 277.949 238.982 239.375 262.69 215.668 Z " fill="rgb(42,42,42)"/><path d=" M 273.758 226.781 C 256.161 244.377 256.161 272.994 273.758 290.543 L 284.871 279.429 C 273.388 267.947 273.388 249.285 284.871 237.847 C 285.057 237.662 285.242 237.476 285.427 237.293 L 274.314 226.177 C 274.128 226.41 273.943 226.595 273.758 226.781 Z " fill="rgb(42,42,42)"/><path d=" M 295.939 248.961 C 290.566 254.332 290.566 263.039 295.939 268.363 C 301.309 273.69 310.016 273.734 315.34 268.363 C 320.712 262.992 320.712 254.287 315.34 248.961 C 310.016 243.59 301.309 243.59 295.939 248.961 Z " fill="rgb(42,42,42)"/><path d=" M 294.086 276.328 L 242.548 430.664 L 257.319 435.572 L 310.479 276.328 L 294.086 276.328 Z " fill="rgb(42,42,42)"/><path d=" M 317.238 276.328 L 300.846 276.328 L 354.006 435.572 L 368.777 430.664 L 317.238 276.328 Z " fill="rgb(42,42,42)"/><path d=" M 326.731 337.266 L 321.406 333.006 L 253.105 414.366 L 261.81 421.358 L 326.731 337.266 Z " fill="rgb(42,42,42)"/><path d=" M 285.381 337.266 L 290.706 333.006 L 359.007 414.366 L 350.301 421.358 L 285.381 337.266 Z " fill="rgb(42,42,42)"/><path d=" M 330.054 629.137 C 338.872 619.991 346.277 606.108 351.613 589.012 C 361.576 592.006 371.048 595.981 380.087 600.772 C 366.584 614.492 349.327 624.51 330.054 629.137 Z  M 231.513 600.772 C 240.442 595.981 249.913 592.061 259.714 589.067 C 264.995 606.053 272.398 619.881 281.164 629.028 C 261.999 624.401 244.906 614.438 231.513 600.772 Z  M 281.164 426.612 C 272.398 435.701 264.995 449.584 259.768 466.518 C 249.913 463.522 240.496 459.602 231.567 454.813 C 244.906 441.201 261.999 431.239 281.164 426.612 Z  M 380.033 454.813 C 370.993 459.602 361.522 463.576 351.558 466.573 C 346.277 449.53 338.818 435.647 330.054 426.502 C 349.327 431.129 366.531 441.147 380.033 454.813 Z  M 360.16 523.301 C 359.832 506.041 357.657 489.764 354.009 475.336 C 365.333 471.907 376.113 467.334 386.239 461.78 C 400.121 478.658 408.831 499.998 409.812 523.356 L 360.16 523.356 L 360.16 523.301 Z  M 360.16 532.338 L 409.812 532.338 C 408.831 555.639 400.121 576.926 386.239 593.858 C 376.056 588.25 365.277 583.676 353.954 580.246 C 357.657 565.821 359.832 549.596 360.16 532.338 Z  M 310.29 573.225 L 310.29 532.338 L 351.068 532.338 C 350.741 549.16 348.618 564.567 345.243 577.907 C 333.974 575.184 322.323 573.551 310.29 573.225 Z  M 310.29 631.26 L 310.29 582.262 C 321.452 582.588 332.285 584.059 342.792 586.563 C 334.898 611.608 322.54 627.885 310.29 631.26 Z  M 301.253 582.317 L 301.253 631.422 C 288.95 628.211 276.483 611.879 268.534 586.725 C 279.041 584.114 289.984 582.643 301.253 582.317 Z  M 260.203 532.338 L 301.253 532.338 L 301.253 573.225 C 289.167 573.551 277.353 575.184 266.029 577.961 C 262.654 564.621 260.531 549.215 260.203 532.338 Z  M 251.058 532.338 C 251.384 549.596 253.562 565.93 257.264 580.356 C 246.048 583.785 235.378 588.305 225.251 593.858 C 211.368 576.981 202.712 555.639 201.679 532.338 L 251.058 532.338 Z  M 251.058 523.301 L 201.734 523.301 C 202.712 499.998 211.423 478.658 225.306 461.78 C 235.378 467.334 246.103 471.907 257.319 475.282 C 253.616 489.709 251.439 505.987 251.058 523.301 Z  M 301.253 482.36 L 301.253 523.301 L 260.203 523.301 C 260.531 506.424 262.654 491.016 266.029 477.678 C 277.353 480.401 289.167 482.033 301.253 482.36 Z  M 301.253 424.27 L 301.253 473.323 C 289.984 472.996 279.041 471.526 268.534 468.967 C 276.483 443.815 288.95 427.426 301.253 424.27 Z  M 310.29 473.268 L 310.29 424.379 C 322.486 427.754 334.898 444.032 342.738 469.022 C 332.285 471.526 321.452 472.942 310.29 473.268 Z  M 310.29 482.36 C 322.323 482.033 333.974 480.453 345.243 477.733 C 348.618 491.071 350.741 506.477 351.068 523.356 L 310.29 523.356 L 310.29 482.36 Z  M 305.773 414.578 L 305.663 414.578 L 305.609 414.578 L 305.5 414.578 C 243.054 414.742 192.533 465.373 192.533 527.819 C 192.533 590.264 243.054 640.897 305.5 641.059 L 305.609 641.059 L 305.663 641.059 L 305.773 641.059 C 368.326 641.059 419.013 590.373 419.013 527.819 C 419.013 465.264 368.326 414.578 305.773 414.578 Z " fill="rgb(42,42,42)"/></g></g><g><path d=" M 524.977 474.969 L 546.077 474.969 L 546.077 474.969 Q 546.077 471.069 543.627 468.269 L 543.627 468.269 L 543.627 468.269 Q 541.177 465.469 536.277 465.469 L 536.277 465.469 L 536.277 465.469 Q 533.877 465.469 531.877 466.219 L 531.877 466.219 L 531.877 466.219 Q 529.877 466.969 528.377 468.269 L 528.377 468.269 L 528.377 468.269 Q 526.877 469.569 525.977 471.319 L 525.977 471.319 L 525.977 471.319 Q 525.077 473.069 524.977 474.969 L 524.977 474.969 Z  M 561.177 481.269 L 561.177 481.269 L 561.177 481.269 Q 561.177 482.269 561.177 483.269 L 561.177 483.269 L 561.177 483.269 Q 561.177 484.269 561.077 485.169 L 561.077 485.169 L 524.977 485.169 L 524.977 485.169 Q 525.177 487.269 526.227 488.969 L 526.227 488.969 L 526.227 488.969 Q 527.277 490.669 528.927 491.919 L 528.927 491.919 L 528.927 491.919 Q 530.577 493.169 532.627 493.869 L 532.627 493.869 L 532.627 493.869 Q 534.677 494.569 536.877 494.569 L 536.877 494.569 L 536.877 494.569 Q 540.777 494.569 543.477 493.119 L 543.477 493.119 L 543.477 493.119 Q 546.177 491.669 547.877 489.369 L 547.877 489.369 L 559.277 496.569 L 559.277 496.569 Q 555.777 501.669 550.027 504.419 L 550.027 504.419 L 550.027 504.419 Q 544.277 507.169 536.677 507.169 L 536.677 507.169 L 536.677 507.169 Q 531.077 507.169 526.077 505.419 L 526.077 505.419 L 526.077 505.419 Q 521.077 503.669 517.327 500.319 L 517.327 500.319 L 517.327 500.319 Q 513.577 496.969 511.427 492.069 L 511.427 492.069 L 511.427 492.069 Q 509.277 487.169 509.277 480.869 L 509.277 480.869 L 509.277 480.869 Q 509.277 474.769 511.377 469.819 L 511.377 469.819 L 511.377 469.819 Q 513.477 464.869 517.077 461.419 L 517.077 461.419 L 517.077 461.419 Q 520.677 457.969 525.577 456.069 L 525.577 456.069 L 525.577 456.069 Q 530.477 454.169 536.177 454.169 L 536.177 454.169 L 536.177 454.169 Q 541.677 454.169 546.277 456.019 L 546.277 456.019 L 546.277 456.019 Q 550.877 457.869 554.177 461.369 L 554.177 461.369 L 554.177 461.369 Q 557.477 464.869 559.327 469.869 L 559.327 469.869 L 559.327 469.869 Q 561.177 474.869 561.177 481.269 Z  M 504.077 467.969 L 492.377 467.969 L 492.377 487.042 L 492.377 487.042 Q 492.377 490.556 493.727 492.313 L 493.727 492.313 L 493.727 492.313 Q 495.077 494.069 498.577 494.069 L 498.577 494.069 L 498.577 494.069 Q 499.777 494.069 501.127 493.869 L 501.127 493.869 L 501.127 493.869 Q 502.477 493.669 503.377 493.269 L 503.377 493.269 L 503.577 505.269 L 503.577 505.269 Q 501.877 505.869 499.277 506.319 L 499.277 506.319 L 499.277 506.319 Q 496.677 506.769 494.077 506.769 L 494.077 506.769 L 494.077 506.769 Q 489.077 506.769 485.677 505.516 L 485.677 505.516 L 485.677 505.516 Q 482.277 504.263 480.227 501.907 L 480.227 501.907 L 480.227 501.907 Q 478.177 499.551 477.277 496.292 L 477.277 496.292 L 477.277 496.292 Q 476.377 493.034 476.377 489.024 L 476.377 489.024 L 476.377 467.969 L 468.377 467.969 L 468.377 455.769 L 476.277 455.769 L 476.277 442.669 L 492.377 442.669 L 492.377 455.769 L 504.077 455.769 L 504.077 467.969 Z  M 464.177 480.469 L 464.177 480.469 L 464.177 480.469 Q 464.177 486.569 461.977 491.519 L 461.977 491.519 L 461.977 491.519 Q 459.777 496.469 455.977 499.919 L 455.977 499.919 L 455.977 499.919 Q 452.177 503.369 447.177 505.269 L 447.177 505.269 L 447.177 505.269 Q 442.177 507.169 436.477 507.169 L 436.477 507.169 L 436.477 507.169 Q 430.877 507.169 425.827 505.269 L 425.827 505.269 L 425.827 505.269 Q 420.777 503.369 417.027 499.919 L 417.027 499.919 L 417.027 499.919 Q 413.277 496.469 411.077 491.519 L 411.077 491.519 L 411.077 491.519 Q 408.877 486.569 408.877 480.469 L 408.877 480.469 L 408.877 480.469 Q 408.877 474.369 411.077 469.469 L 411.077 469.469 L 411.077 469.469 Q 413.277 464.569 417.027 461.169 L 417.027 461.169 L 417.027 461.169 Q 420.777 457.769 425.827 455.969 L 425.827 455.969 L 425.827 455.969 Q 430.877 454.169 436.477 454.169 L 436.477 454.169 L 436.477 454.169 Q 442.177 454.169 447.177 455.969 L 447.177 455.969 L 447.177 455.969 Q 452.177 457.769 455.977 461.169 L 455.977 461.169 L 455.977 461.169 Q 459.777 464.569 461.977 469.469 L 461.977 469.469 L 461.977 469.469 Q 464.177 474.369 464.177 480.469 Z  M 448.377 480.469 L 448.377 480.469 L 448.377 480.469 Q 448.377 478.069 447.577 475.769 L 447.577 475.769 L 447.577 475.769 Q 446.777 473.469 445.277 471.719 L 445.277 471.719 L 445.277 471.719 Q 443.777 469.969 441.577 468.869 L 441.577 468.869 L 441.577 468.869 Q 439.377 467.769 436.477 467.769 L 436.477 467.769 L 436.477 467.769 Q 433.577 467.769 431.377 468.869 L 431.377 468.869 L 431.377 468.869 Q 429.177 469.969 427.727 471.719 L 427.727 471.719 L 427.727 471.719 Q 426.277 473.469 425.527 475.769 L 425.527 475.769 L 425.527 475.769 Q 424.777 478.069 424.777 480.469 L 424.777 480.469 L 424.777 480.469 Q 424.777 482.869 425.527 485.169 L 425.527 485.169 L 425.527 485.169 Q 426.277 487.469 427.777 489.319 L 427.777 489.319 L 427.777 489.319 Q 429.277 491.169 431.477 492.269 L 431.477 492.269 L 431.477 492.269 Q 433.677 493.369 436.577 493.369 L 436.577 493.369 L 436.577 493.369 Q 439.477 493.369 441.677 492.269 L 441.677 492.269 L 441.677 492.269 Q 443.877 491.169 445.377 489.319 L 445.377 489.319 L 445.377 489.319 Q 446.877 487.469 447.627 485.169 L 447.627 485.169 L 447.627 485.169 Q 448.377 482.869 448.377 480.469 Z  M 398.977 505.569 L 382.577 505.569 L 382.577 478.369 L 382.577 478.369 Q 382.577 476.269 382.277 474.319 L 382.277 474.319 L 382.277 474.319 Q 381.977 472.369 381.177 470.969 L 381.177 470.969 L 381.177 470.969 Q 380.377 469.569 379.027 468.719 L 379.027 468.719 L 379.027 468.719 Q 377.677 467.869 375.477 467.869 L 375.477 467.869 L 375.477 467.869 Q 373.377 467.869 371.827 468.769 L 371.827 468.769 L 371.827 468.769 Q 370.277 469.669 369.227 471.169 L 369.227 471.169 L 369.227 471.169 Q 368.177 472.669 367.677 474.619 L 367.677 474.619 L 367.677 474.619 Q 367.177 476.569 367.177 478.669 L 367.177 478.669 L 367.177 505.569 L 350.777 505.569 L 350.777 477.169 L 350.777 477.169 Q 350.777 472.869 349.077 470.369 L 349.077 470.369 L 349.077 470.369 Q 347.377 467.869 343.677 467.869 L 343.677 467.869 L 343.677 467.869 Q 339.777 467.869 337.627 470.969 L 337.627 470.969 L 337.627 470.969 Q 335.477 474.069 335.477 478.569 L 335.477 478.569 L 335.477 505.569 L 318.977 505.569 L 318.977 455.769 L 334.877 455.769 L 334.877 462.669 L 335.077 462.669 L 335.077 462.669 Q 335.977 461.069 337.327 459.569 L 337.327 459.569 L 337.327 459.569 Q 338.677 458.069 340.577 456.919 L 340.577 456.919 L 340.577 456.919 Q 342.477 455.769 344.827 455.069 L 344.827 455.069 L 344.827 455.069 Q 347.177 454.369 349.977 454.369 L 349.977 454.369 L 349.977 454.369 Q 355.377 454.369 359.127 456.569 L 359.127 456.569 L 359.127 456.569 Q 362.877 458.769 364.977 462.869 L 364.977 462.869 L 364.977 462.869 Q 367.477 458.969 371.377 456.669 L 371.377 456.669 L 371.377 456.669 Q 375.277 454.369 380.877 454.369 L 380.877 454.369 L 380.877 454.369 Q 385.977 454.369 389.427 456.219 L 389.427 456.219 L 389.427 456.219 Q 392.877 458.069 394.977 461.019 L 394.977 461.019 L 394.977 461.019 Q 397.077 463.969 398.027 467.619 L 398.027 467.619 L 398.027 467.619 Q 398.977 471.269 398.977 474.769 L 398.977 474.769 L 398.977 505.569 Z  M 272.577 474.969 L 293.677 474.969 L 293.677 474.969 Q 293.677 471.069 291.227 468.269 L 291.227 468.269 L 291.227 468.269 Q 288.777 465.469 283.877 465.469 L 283.877 465.469 L 283.877 465.469 Q 281.477 465.469 279.477 466.219 L 279.477 466.219 L 279.477 466.219 Q 277.477 466.969 275.977 468.269 L 275.977 468.269 L 275.977 468.269 Q 274.477 469.569 273.577 471.319 L 273.577 471.319 L 273.577 471.319 Q 272.677 473.069 272.577 474.969 L 272.577 474.969 Z  M 308.777 481.269 L 308.777 481.269 L 308.777 481.269 Q 308.777 482.269 308.777 483.269 L 308.777 483.269 L 308.777 483.269 Q 308.777 484.269 308.677 485.169 L 308.677 485.169 L 272.577 485.169 L 272.577 485.169 Q 272.777 487.269 273.827 488.969 L 273.827 488.969 L 273.827 488.969 Q 274.877 490.669 276.527 491.919 L 276.527 491.919 L 276.527 491.919 Q 278.177 493.169 280.227 493.869 L 280.227 493.869 L 280.227 493.869 Q 282.277 494.569 284.477 494.569 L 284.477 494.569 L 284.477 494.569 Q 288.377 494.569 291.077 493.119 L 291.077 493.119 L 291.077 493.119 Q 293.777 491.669 295.477 489.369 L 295.477 489.369 L 306.877 496.569 L 306.877 496.569 Q 303.377 501.669 297.627 504.419 L 297.627 504.419 L 297.627 504.419 Q 291.877 507.169 284.277 507.169 L 284.277 507.169 L 284.277 507.169 Q 278.677 507.169 273.677 505.419 L 273.677 505.419 L 273.677 505.419 Q 268.677 503.669 264.927 500.319 L 264.927 500.319 L 264.927 500.319 Q 261.177 496.969 259.027 492.069 L 259.027 492.069 L 259.027 492.069 Q 256.877 487.169 256.877 480.869 L 256.877 480.869 L 256.877 480.869 Q 256.877 474.769 258.977 469.819 L 258.977 469.819 L 258.977 469.819 Q 261.077 464.869 264.677 461.419 L 264.677 461.419 L 264.677 461.419 Q 268.277 457.969 273.177 456.069 L 273.177 456.069 L 273.177 456.069 Q 278.077 454.169 283.777 454.169 L 283.777 454.169 L 283.777 454.169 Q 289.277 454.169 293.877 456.019 L 293.877 456.019 L 293.877 456.019 Q 298.477 457.869 301.777 461.369 L 301.777 461.369 L 301.777 461.369 Q 305.077 464.869 306.927 469.869 L 306.927 469.869 L 306.927 469.869 Q 308.777 474.869 308.777 481.269 Z  M 252.777 454.769 L 252.077 469.266 L 252.077 469.266 Q 250.977 468.968 249.927 468.869 L 249.927 468.869 L 249.927 468.869 Q 248.877 468.769 247.877 468.769 L 247.877 468.769 L 247.877 468.769 Q 244.577 468.769 242.327 469.966 L 242.327 469.966 L 242.327 469.966 Q 240.077 471.163 238.727 472.858 L 238.727 472.858 L 238.727 472.858 Q 237.377 474.554 236.777 476.548 L 236.777 476.548 L 236.777 476.548 Q 236.177 478.543 236.177 480.039 L 236.177 480.039 L 236.177 505.569 L 219.777 505.569 L 219.777 455.822 L 235.577 455.822 L 235.577 463.029 L 235.777 463.029 L 235.777 463.029 Q 237.677 459.203 241.177 456.786 L 241.177 456.786 L 241.177 456.786 Q 244.677 454.369 249.277 454.369 L 249.277 454.369 L 249.277 454.369 Q 250.277 454.369 251.227 454.469 L 251.227 454.469 L 251.227 454.469 Q 252.177 454.569 252.777 454.769 L 252.777 454.769 Z  M 209.377 480.469 L 209.377 480.469 L 209.377 480.469 Q 209.377 486.569 207.177 491.519 L 207.177 491.519 L 207.177 491.519 Q 204.977 496.469 201.177 499.919 L 201.177 499.919 L 201.177 499.919 Q 197.377 503.369 192.377 505.269 L 192.377 505.269 L 192.377 505.269 Q 187.377 507.169 181.677 507.169 L 181.677 507.169 L 181.677 507.169 Q 176.077 507.169 171.027 505.269 L 171.027 505.269 L 171.027 505.269 Q 165.977 503.369 162.227 499.919 L 162.227 499.919 L 162.227 499.919 Q 158.477 496.469 156.277 491.519 L 156.277 491.519 L 156.277 491.519 Q 154.077 486.569 154.077 480.469 L 154.077 480.469 L 154.077 480.469 Q 154.077 474.369 156.277 469.469 L 156.277 469.469 L 156.277 469.469 Q 158.477 464.569 162.227 461.169 L 162.227 461.169 L 162.227 461.169 Q 165.977 457.769 171.027 455.969 L 171.027 455.969 L 171.027 455.969 Q 176.077 454.169 181.677 454.169 L 181.677 454.169 L 181.677 454.169 Q 187.377 454.169 192.377 455.969 L 192.377 455.969 L 192.377 455.969 Q 197.377 457.769 201.177 461.169 L 201.177 461.169 L 201.177 461.169 Q 204.977 464.569 207.177 469.469 L 207.177 469.469 L 207.177 469.469 Q 209.377 474.369 209.377 480.469 Z  M 193.577 480.469 L 193.577 480.469 L 193.577 480.469 Q 193.577 478.069 192.777 475.769 L 192.777 475.769 L 192.777 475.769 Q 191.977 473.469 190.477 471.719 L 190.477 471.719 L 190.477 471.719 Q 188.977 469.969 186.777 468.869 L 186.777 468.869 L 186.777 468.869 Q 184.577 467.769 181.677 467.769 L 181.677 467.769 L 181.677 467.769 Q 178.777 467.769 176.577 468.869 L 176.577 468.869 L 176.577 468.869 Q 174.377 469.969 172.927 471.719 L 172.927 471.719 L 172.927 471.719 Q 171.477 473.469 170.727 475.769 L 170.727 475.769 L 170.727 475.769 Q 169.977 478.069 169.977 480.469 L 169.977 480.469 L 169.977 480.469 Q 169.977 482.869 170.727 485.169 L 170.727 485.169 L 170.727 485.169 Q 171.477 487.469 172.977 489.319 L 172.977 489.319 L 172.977 489.319 Q 174.477 491.169 176.677 492.269 L 176.677 492.269 L 176.677 492.269 Q 178.877 493.369 181.777 493.369 L 181.777 493.369 L 181.777 493.369 Q 184.677 493.369 186.877 492.269 L 186.877 492.269 L 186.877 492.269 Q 189.077 491.169 190.577 489.319 L 190.577 489.319 L 190.577 489.319 Q 192.077 487.469 192.827 485.169 L 192.827 485.169 L 192.827 485.169 Q 193.577 482.869 193.577 480.469 Z  M 147.677 461.169 L 138.677 470.469 L 138.677 470.469 Q 136.677 468.569 133.977 467.269 L 133.977 467.269 L 133.977 467.269 Q 131.277 465.969 128.277 465.969 L 128.277 465.969 L 128.277 465.969 Q 125.977 465.969 124.027 466.869 L 124.027 466.869 L 124.027 466.869 Q 122.077 467.769 122.077 469.969 L 122.077 469.969 L 122.077 469.969 Q 122.077 472.069 124.227 472.969 L 124.227 472.969 L 124.227 472.969 Q 126.377 473.869 131.177 474.969 L 131.177 474.969 L 131.177 474.969 Q 133.977 475.569 136.827 476.669 L 136.827 476.669 L 136.827 476.669 Q 139.677 477.769 141.977 479.569 L 141.977 479.569 L 141.977 479.569 Q 144.277 481.369 145.677 483.969 L 145.677 483.969 L 145.677 483.969 Q 147.077 486.569 147.077 490.169 L 147.077 490.169 L 147.077 490.169 Q 147.077 494.869 145.177 498.119 L 145.177 498.119 L 145.177 498.119 Q 143.277 501.369 140.227 503.369 L 140.227 503.369 L 140.227 503.369 Q 137.177 505.369 133.377 506.269 L 133.377 506.269 L 133.377 506.269 Q 129.577 507.169 125.777 507.169 L 125.777 507.169 L 125.777 507.169 Q 119.677 507.169 113.827 505.219 L 113.827 505.219 L 113.827 505.219 Q 107.977 503.269 104.077 499.469 L 104.077 499.469 L 113.277 489.769 L 113.277 489.769 Q 115.477 492.169 118.677 493.769 L 118.677 493.769 L 118.677 493.769 Q 121.877 495.369 125.477 495.369 L 125.477 495.369 L 125.477 495.369 Q 127.477 495.369 129.427 494.419 L 129.427 494.419 L 129.427 494.419 Q 131.377 493.469 131.377 491.069 L 131.377 491.069 L 131.377 491.069 Q 131.377 488.769 128.977 487.669 L 128.977 487.669 L 128.977 487.669 Q 126.577 486.569 121.477 485.369 L 121.477 485.369 L 121.477 485.369 Q 118.877 484.769 116.277 483.769 L 116.277 483.769 L 116.277 483.769 Q 113.677 482.769 111.627 481.069 L 111.627 481.069 L 111.627 481.069 Q 109.577 479.369 108.277 476.869 L 108.277 476.869 L 108.277 476.869 Q 106.977 474.369 106.977 470.869 L 106.977 470.869 L 106.977 470.869 Q 106.977 466.369 108.877 463.219 L 108.877 463.219 L 108.877 463.219 Q 110.777 460.069 113.777 458.069 L 113.777 458.069 L 113.777 458.069 Q 116.777 456.069 120.427 455.119 L 120.427 455.119 L 120.427 455.119 Q 124.077 454.169 127.677 454.169 L 127.677 454.169 L 127.677 454.169 Q 133.277 454.169 138.627 455.919 L 138.627 455.919 L 138.627 455.919 Q 143.977 457.669 147.677 461.169 L 147.677 461.169 Z  M 97.577 439.869 L 97.577 439.869 L 97.577 439.869 Q 97.577 441.769 96.827 443.419 L 96.827 443.419 L 96.827 443.419 Q 96.077 445.069 94.827 446.269 L 94.827 446.269 L 94.827 446.269 Q 93.577 447.469 91.827 448.169 L 91.827 448.169 L 91.827 448.169 Q 90.077 448.869 88.177 448.869 L 88.177 448.869 L 88.177 448.869 Q 84.177 448.869 81.477 446.219 L 81.477 446.219 L 81.477 446.219 Q 78.777 443.569 78.777 439.869 L 78.777 439.869 L 78.777 439.869 Q 78.777 438.069 79.477 436.419 L 79.477 436.419 L 79.477 436.419 Q 80.177 434.769 81.477 433.569 L 81.477 433.569 L 81.477 433.569 Q 82.777 432.369 84.477 431.619 L 84.477 431.619 L 84.477 431.619 Q 86.177 430.869 88.177 430.869 L 88.177 430.869 L 88.177 430.869 Q 90.077 430.869 91.827 431.569 L 91.827 431.569 L 91.827 431.569 Q 93.577 432.269 94.827 433.469 L 94.827 433.469 L 94.827 433.469 Q 96.077 434.669 96.827 436.319 L 96.827 436.319 L 96.827 436.319 Q 97.577 437.969 97.577 439.869 Z  M 96.377 505.569 L 79.977 505.569 L 79.977 455.769 L 96.377 455.769 L 96.377 505.569 Z " fill-rule="evenodd" fill="rgb(254,254,254)"/><path d=" M 515.797 582.758 L 515.797 582.758 L 515.797 582.758 Q 516.844 584.571 516.519 586.116 L 516.519 586.116 L 516.519 586.116 Q 516.194 587.662 514.584 588.592 L 514.584 588.592 L 514.584 588.592 Q 513.59 589.167 512.549 589.145 L 512.549 589.145 L 512.549 589.145 Q 511.508 589.124 510.584 588.494 L 510.584 588.494 L 510.584 588.494 Q 509.661 587.864 508.985 586.693 L 508.985 586.693 L 508.985 586.693 Q 507.937 584.88 508.259 583.345 L 508.259 583.345 L 508.259 583.345 Q 508.582 581.81 510.192 580.88 L 510.192 580.88 L 510.192 580.88 Q 511.747 579.981 513.262 580.487 L 513.262 580.487 L 513.262 580.487 Q 514.777 580.992 515.797 582.758 Z  M 510.148 586.021 L 510.148 586.021 L 510.148 586.021 Q 510.969 587.442 511.967 587.857 L 511.967 587.857 L 511.967 587.857 Q 512.965 588.273 514.068 587.636 L 514.068 587.636 L 514.068 587.636 Q 515.17 586.999 515.314 585.928 L 515.314 585.928 L 515.314 585.928 Q 515.458 584.857 514.633 583.43 L 514.633 583.43 L 514.633 583.43 Q 513.816 582.016 512.821 581.612 L 512.821 581.612 L 512.821 581.612 Q 511.825 581.209 510.709 581.853 L 510.709 581.853 L 510.709 581.853 Q 509.606 582.491 509.463 583.539 L 509.463 583.539 L 509.463 583.539 Q 509.32 584.587 510.148 586.021 Z  M 518.931 575.831 L 518.931 575.831 L 518.931 575.831 Q 519.425 575.545 519.865 575.4 L 519.865 575.4 L 520.311 576.531 L 520.311 576.531 Q 519.792 576.696 519.44 576.899 L 519.44 576.899 L 519.44 576.899 Q 518.541 577.419 518.324 578.519 L 518.324 578.519 L 518.324 578.519 Q 518.106 579.619 518.736 580.708 L 518.736 580.708 L 521.034 584.685 L 519.911 585.334 L 515.627 577.92 L 516.554 577.385 L 517.476 578.684 L 517.53 578.652 L 517.53 578.652 Q 517.525 577.69 517.88 576.962 L 517.88 576.962 L 517.88 576.962 Q 518.235 576.233 518.931 575.831 Z  M 524.787 572.628 L 527.35 571.147 L 527.761 571.857 L 526.481 572.813 L 526.481 572.813 Q 526.808 572.94 527.177 573.237 L 527.177 573.237 L 527.177 573.237 Q 527.547 573.533 527.824 574.013 L 527.824 574.013 L 527.824 574.013 Q 528.454 575.102 528.085 576.182 L 528.085 576.182 L 528.085 576.182 Q 527.716 577.261 526.417 578.011 L 526.417 578.011 L 526.417 578.011 Q 526.086 578.203 525.763 578.317 L 525.763 578.317 L 525.763 578.317 Q 525.265 579.11 525.597 579.685 L 525.597 579.685 L 525.597 579.685 Q 525.773 579.989 526.108 579.99 L 526.108 579.99 L 526.108 579.99 Q 526.442 579.991 527.051 579.639 L 527.051 579.639 L 528.363 578.881 L 528.363 578.881 Q 529.567 578.185 530.506 578.319 L 530.506 578.319 L 530.506 578.319 Q 531.445 578.454 532.004 579.421 L 532.004 579.421 L 532.004 579.421 Q 532.716 580.652 532.101 581.869 L 532.101 581.869 L 532.101 581.869 Q 531.487 583.085 529.593 584.18 L 529.593 584.18 L 529.593 584.18 Q 528.138 585.02 527.038 584.934 L 527.038 584.934 L 527.038 584.934 Q 525.937 584.848 525.366 583.86 L 525.366 583.86 L 525.366 583.86 Q 524.975 583.184 525.123 582.44 L 525.123 582.44 L 525.123 582.44 Q 525.271 581.696 525.954 581.067 L 525.954 581.067 L 525.954 581.067 Q 525.595 581.103 525.246 580.943 L 525.246 580.943 L 525.246 580.943 Q 524.897 580.784 524.69 580.426 L 524.69 580.426 L 524.69 580.426 Q 524.455 580.02 524.496 579.59 L 524.496 579.59 L 524.496 579.59 Q 524.537 579.161 524.839 578.607 L 524.839 578.607 L 524.839 578.607 Q 524.128 578.702 523.437 578.343 L 523.437 578.343 L 523.437 578.343 Q 522.747 577.984 522.325 577.254 L 522.325 577.254 L 522.325 577.254 Q 521.622 576.036 521.971 574.954 L 521.971 574.954 L 521.971 574.954 Q 522.321 573.873 523.66 573.099 L 523.66 573.099 L 523.66 573.099 Q 524.242 572.763 524.787 572.628 L 524.787 572.628 Z  M 526.441 583.222 L 526.441 583.222 L 526.441 583.222 Q 526.789 583.824 527.476 583.842 L 527.476 583.842 L 527.476 583.842 Q 528.163 583.86 529.11 583.313 L 529.11 583.313 L 529.11 583.313 Q 530.524 582.496 530.959 581.68 L 530.959 581.68 L 530.959 581.68 Q 531.395 580.865 530.977 580.141 L 530.977 580.141 L 530.977 580.141 Q 530.629 579.539 530.122 579.52 L 530.122 579.52 L 530.122 579.52 Q 529.615 579.502 528.587 580.096 L 528.587 580.096 L 527.241 580.874 L 527.241 580.874 Q 526.476 581.315 526.261 581.927 L 526.261 581.927 L 526.261 581.927 Q 526.046 582.538 526.441 583.222 Z  M 523.419 576.586 L 523.419 576.586 L 523.419 576.586 Q 523.868 577.363 524.539 577.509 L 524.539 577.509 L 524.539 577.509 Q 525.209 577.654 525.994 577.2 L 525.994 577.2 L 525.994 577.2 Q 527.637 576.251 526.715 574.654 L 526.715 574.654 L 526.715 574.654 Q 525.75 572.983 524.086 573.945 L 524.086 573.945 L 524.086 573.945 Q 523.294 574.402 523.114 575.074 L 523.114 575.074 L 523.114 575.074 Q 522.934 575.747 523.419 576.586 Z  M 451.464 614.99 L 455.748 622.404 L 454.625 623.053 L 450.341 615.639 L 451.464 614.99 Z  M 449.086 613.684 L 449.086 613.684 L 449.086 613.684 Q 448.863 613.299 448.949 613.01 L 448.949 613.01 L 448.949 613.01 Q 449.035 612.721 449.319 612.557 L 449.319 612.557 L 449.319 612.557 Q 449.59 612.401 449.891 612.47 L 449.891 612.47 L 449.891 612.47 Q 450.193 612.54 450.412 612.918 L 450.412 612.918 L 450.412 612.918 Q 450.631 613.297 450.542 613.597 L 450.542 613.597 L 450.542 613.597 Q 450.453 613.896 450.183 614.052 L 450.183 614.052 L 450.183 614.052 Q 449.899 614.216 449.602 614.14 L 449.602 614.14 L 449.602 614.14 Q 449.305 614.063 449.086 613.684 Z  M 461.743 616.243 L 461.743 616.243 L 461.743 616.243 Q 462.341 617.278 461.894 618.285 L 461.894 618.285 L 461.894 618.285 Q 461.447 619.292 460.054 620.097 L 460.054 620.097 L 460.054 620.097 Q 458.579 620.949 457.484 620.959 L 457.484 620.959 L 456.882 619.917 L 456.882 619.917 Q 457.573 619.879 458.275 619.681 L 458.275 619.681 L 458.275 619.681 Q 458.977 619.483 459.546 619.154 L 459.546 619.154 L 459.546 619.154 Q 460.425 618.646 460.736 618.092 L 460.736 618.092 L 460.736 618.092 Q 461.048 617.538 460.715 616.963 L 460.715 616.963 L 460.715 616.963 Q 460.465 616.53 459.912 616.439 L 459.912 616.439 L 459.912 616.439 Q 459.359 616.348 458.027 616.558 L 458.027 616.558 L 458.027 616.558 Q 456.77 616.77 456.167 616.735 L 456.167 616.735 L 456.167 616.735 Q 455.565 616.699 455.141 616.457 L 455.141 616.457 L 455.141 616.457 Q 454.716 616.215 454.423 615.708 L 454.423 615.708 L 454.423 615.708 Q 453.9 614.801 454.334 613.851 L 454.334 613.851 L 454.334 613.851 Q 454.769 612.901 456.054 612.158 L 456.054 612.158 L 456.054 612.158 Q 457.251 611.466 458.676 611.293 L 458.676 611.293 L 458.804 612.437 L 458.804 612.437 Q 457.422 612.621 456.516 613.145 L 456.516 613.145 L 456.516 613.145 Q 455.718 613.606 455.456 614.091 L 455.456 614.091 L 455.456 614.091 Q 455.195 614.576 455.449 615.016 L 455.449 615.016 L 455.449 615.016 Q 455.621 615.313 455.894 615.435 L 455.894 615.435 L 455.894 615.435 Q 456.168 615.557 456.616 615.551 L 456.616 615.551 L 456.616 615.551 Q 457.063 615.545 458.231 615.348 L 458.231 615.348 L 458.231 615.348 Q 459.827 615.066 460.572 615.286 L 460.572 615.286 L 460.572 615.286 Q 461.317 615.505 461.743 616.243 Z  M 468.992 609.799 L 468.992 609.799 L 468.992 609.799 Q 470.039 611.612 469.714 613.158 L 469.714 613.158 L 469.714 613.158 Q 469.389 614.703 467.779 615.633 L 467.779 615.633 L 467.779 615.633 Q 466.785 616.208 465.744 616.187 L 465.744 616.187 L 465.744 616.187 Q 464.703 616.165 463.779 615.535 L 463.779 615.535 L 463.779 615.535 Q 462.856 614.905 462.18 613.735 L 462.18 613.735 L 462.18 613.735 Q 461.132 611.922 461.455 610.387 L 461.455 610.387 L 461.455 610.387 Q 461.777 608.852 463.387 607.921 L 463.387 607.921 L 463.387 607.921 Q 464.943 607.022 466.457 607.528 L 466.457 607.528 L 466.457 607.528 Q 467.972 608.033 468.992 609.799 Z  M 463.343 613.062 L 463.343 613.062 L 463.343 613.062 Q 464.164 614.483 465.162 614.899 L 465.162 614.899 L 465.162 614.899 Q 466.16 615.315 467.263 614.678 L 467.263 614.678 L 467.263 614.678 Q 468.366 614.04 468.509 612.97 L 468.509 612.97 L 468.509 612.97 Q 468.653 611.899 467.828 610.471 L 467.828 610.471 L 467.828 610.471 Q 467.011 609.057 466.016 608.654 L 466.016 608.654 L 466.016 608.654 Q 465.02 608.25 463.904 608.895 L 463.904 608.895 L 463.904 608.895 Q 462.801 609.532 462.658 610.58 L 462.658 610.58 L 462.658 610.58 Q 462.515 611.628 463.343 613.062 Z  M 476.042 610.679 L 474.729 611.437 L 467.632 605.649 L 468.836 604.954 L 472.973 608.428 L 472.973 608.428 Q 474.405 609.658 474.766 610.063 L 474.766 610.063 L 474.82 610.032 L 474.82 610.032 Q 474.687 609.63 474.432 608.275 L 474.432 608.275 L 474.432 608.275 Q 474.177 606.92 473.368 602.335 L 473.368 602.335 L 474.572 601.639 L 476.042 610.679 Z  M 483.257 606.691 L 483.257 606.691 L 483.257 606.691 Q 481.613 607.641 480.084 607.189 L 480.084 607.189 L 480.084 607.189 Q 478.555 606.737 477.527 604.958 L 477.527 604.958 L 477.527 604.958 Q 476.492 603.165 476.765 601.6 L 476.765 601.6 L 476.765 601.6 Q 477.038 600.035 478.526 599.175 L 478.526 599.175 L 478.526 599.175 Q 479.92 598.37 481.261 598.817 L 481.261 598.817 L 481.261 598.817 Q 482.602 599.265 483.47 600.767 L 483.47 600.767 L 483.88 601.477 L 478.773 604.428 L 478.773 604.428 Q 479.561 605.714 480.578 606.029 L 480.578 606.029 L 480.578 606.029 Q 481.594 606.344 482.731 605.687 L 482.731 605.687 L 482.731 605.687 Q 483.928 604.995 484.809 603.819 L 484.809 603.819 L 485.387 604.82 L 485.387 604.82 Q 484.941 605.421 484.474 605.839 L 484.474 605.839 L 484.474 605.839 Q 484.008 606.258 483.257 606.691 Z  M 479.056 600.123 L 479.056 600.123 L 479.056 600.123 Q 478.163 600.639 477.968 601.527 L 477.968 601.527 L 477.968 601.527 Q 477.773 602.416 478.272 603.499 L 478.272 603.499 L 482.149 601.259 L 482.149 601.259 Q 481.535 600.197 480.735 599.906 L 480.735 599.906 L 480.735 599.906 Q 479.935 599.615 479.056 600.123 Z  M 486.84 594.371 L 486.84 594.371 L 486.84 594.371 Q 487.334 594.086 487.773 593.941 L 487.773 593.941 L 488.219 595.072 L 488.219 595.072 Q 487.701 595.237 487.349 595.44 L 487.349 595.44 L 487.349 595.44 Q 486.449 595.96 486.232 597.06 L 486.232 597.06 L 486.232 597.06 Q 486.015 598.159 486.644 599.249 L 486.644 599.249 L 488.942 603.226 L 487.819 603.875 L 483.536 596.461 L 484.462 595.925 L 485.384 597.224 L 485.438 597.193 L 485.438 597.193 Q 485.433 596.231 485.788 595.502 L 485.788 595.502 L 485.788 595.502 Q 486.143 594.774 486.84 594.371 Z  M 497.088 595.822 L 497.088 595.822 L 497.088 595.822 Q 497.686 596.857 497.24 597.864 L 497.24 597.864 L 497.24 597.864 Q 496.793 598.871 495.399 599.676 L 495.399 599.676 L 495.399 599.676 Q 493.925 600.528 492.83 600.538 L 492.83 600.538 L 492.228 599.496 L 492.228 599.496 Q 492.919 599.458 493.621 599.26 L 493.621 599.26 L 493.621 599.26 Q 494.323 599.062 494.891 598.734 L 494.891 598.734 L 494.891 598.734 Q 495.77 598.225 496.082 597.671 L 496.082 597.671 L 496.082 597.671 Q 496.393 597.117 496.061 596.542 L 496.061 596.542 L 496.061 596.542 Q 495.811 596.109 495.257 596.018 L 495.257 596.018 L 495.257 596.018 Q 494.704 595.927 493.373 596.137 L 493.373 596.137 L 493.373 596.137 Q 492.115 596.349 491.513 596.314 L 491.513 596.314 L 491.513 596.314 Q 490.91 596.279 490.486 596.036 L 490.486 596.036 L 490.486 596.036 Q 490.062 595.794 489.769 595.287 L 489.769 595.287 L 489.769 595.287 Q 489.245 594.38 489.68 593.43 L 489.68 593.43 L 489.68 593.43 Q 490.114 592.48 491.399 591.737 L 491.399 591.737 L 491.399 591.737 Q 492.597 591.045 494.021 590.872 L 494.021 590.872 L 494.15 592.016 L 494.15 592.016 Q 492.768 592.201 491.861 592.724 L 491.861 592.724 L 491.861 592.724 Q 491.063 593.186 490.802 593.67 L 490.802 593.67 L 490.802 593.67 Q 490.541 594.155 490.795 594.595 L 490.795 594.595 L 490.795 594.595 Q 490.967 594.893 491.24 595.014 L 491.24 595.014 L 491.24 595.014 Q 491.513 595.136 491.961 595.13 L 491.961 595.13 L 491.961 595.13 Q 492.409 595.124 493.576 594.928 L 493.576 594.928 L 493.576 594.928 Q 495.173 594.646 495.918 594.865 L 495.918 594.865 L 495.918 594.865 Q 496.662 595.084 497.088 595.822 Z  M 503.294 595.115 L 503.294 595.115 L 503.294 595.115 Q 501.65 596.065 500.121 595.613 L 500.121 595.613 L 500.121 595.613 Q 498.592 595.161 497.564 593.381 L 497.564 593.381 L 497.564 593.381 Q 496.529 591.589 496.802 590.024 L 496.802 590.024 L 496.802 590.024 Q 497.075 588.458 498.563 587.598 L 498.563 587.598 L 498.563 587.598 Q 499.957 586.793 501.298 587.241 L 501.298 587.241 L 501.298 587.241 Q 502.639 587.689 503.507 589.19 L 503.507 589.19 L 503.917 589.901 L 498.81 592.851 L 498.81 592.851 Q 499.598 594.137 500.615 594.452 L 500.615 594.452 L 500.615 594.452 Q 501.631 594.767 502.768 594.111 L 502.768 594.111 L 502.768 594.111 Q 503.965 593.419 504.846 592.242 L 504.846 592.242 L 505.424 593.243 L 505.424 593.243 Q 504.978 593.844 504.511 594.263 L 504.511 594.263 L 504.511 594.263 Q 504.045 594.681 503.294 595.115 Z  M 499.093 588.547 L 499.093 588.547 L 499.093 588.547 Q 498.2 589.062 498.005 589.951 L 498.005 589.951 L 498.005 589.951 Q 497.81 590.84 498.309 591.923 L 498.309 591.923 L 502.186 589.683 L 502.186 589.683 Q 501.572 588.621 500.772 588.33 L 500.772 588.33 L 500.772 588.33 Q 499.972 588.038 499.093 588.547 Z  M 507.28 591.675 L 507.28 591.675 L 507.28 591.675 Q 507.018 591.222 507.089 590.87 L 507.089 590.87 L 507.089 590.87 Q 507.161 590.517 507.546 590.294 L 507.546 590.294 L 507.546 590.294 Q 507.939 590.068 508.293 590.174 L 508.293 590.174 L 508.293 590.174 Q 508.648 590.28 508.91 590.734 L 508.91 590.734 L 508.91 590.734 Q 509.164 591.173 509.077 591.539 L 509.077 591.539 L 509.077 591.539 Q 508.991 591.905 508.605 592.127 L 508.605 592.127 L 508.605 592.127 Q 508.26 592.327 507.911 592.245 L 507.911 592.245 L 507.911 592.245 Q 507.561 592.162 507.28 591.675 Z  M 447.549 627.141 L 446.216 627.911 L 442.344 624.347 L 442.344 624.347 Q 441.985 624.022 440.816 622.811 L 440.816 622.811 L 440.762 622.842 L 440.762 622.842 Q 441.175 624.183 441.344 624.943 L 441.344 624.943 L 442.448 630.088 L 441.15 630.838 L 434.844 624.593 L 436.021 623.912 L 436.021 623.912 Q 438.352 626.292 439.571 627.536 L 439.571 627.536 L 439.571 627.536 Q 440.791 628.781 441.138 629.257 L 441.138 629.257 L 441.192 629.225 L 441.192 629.225 Q 441.044 628.797 440.856 628.089 L 440.856 628.089 L 440.856 628.089 Q 440.668 627.381 440.583 626.952 L 440.583 626.952 L 439.484 621.911 L 440.702 621.208 L 444.486 624.697 L 444.486 624.697 Q 445.537 625.642 446.13 626.355 L 446.13 626.355 L 446.184 626.324 L 446.184 626.324 Q 446.07 626.064 445.895 625.489 L 445.895 625.489 L 445.895 625.489 Q 445.721 624.913 444.152 619.215 L 444.152 619.215 L 445.315 618.543 L 447.549 627.141 Z  M 450.362 624.56 L 450.362 624.56 L 450.362 624.56 Q 450.1 624.106 450.171 623.754 L 450.171 623.754 L 450.171 623.754 Q 450.243 623.401 450.628 623.178 L 450.628 623.178 L 450.628 623.178 Q 451.021 622.952 451.375 623.058 L 451.375 623.058 L 451.375 623.058 Q 451.73 623.164 451.992 623.618 L 451.992 623.618 L 451.992 623.618 Q 452.246 624.057 452.159 624.423 L 452.159 624.423 L 452.159 624.423 Q 452.073 624.789 451.687 625.012 L 451.687 625.012 L 451.687 625.012 Q 451.342 625.211 450.993 625.129 L 450.993 625.129 L 450.993 625.129 Q 450.643 625.047 450.362 624.56 Z  M 436.764 633.372 L 435.431 634.142 L 431.559 630.578 L 431.559 630.578 Q 431.199 630.253 430.031 629.042 L 430.031 629.042 L 429.977 629.074 L 429.977 629.074 Q 430.39 630.414 430.558 631.174 L 430.558 631.174 L 431.663 636.319 L 430.364 637.069 L 424.058 630.824 L 425.235 630.144 L 425.235 630.144 Q 427.567 632.523 428.786 633.767 L 428.786 633.767 L 428.786 633.767 Q 430.006 635.012 430.353 635.488 L 430.353 635.488 L 430.407 635.456 L 430.407 635.456 Q 430.259 635.028 430.071 634.32 L 430.071 634.32 L 430.071 634.32 Q 429.883 633.612 429.798 633.183 L 429.798 633.183 L 428.699 628.143 L 429.917 627.439 L 433.701 630.928 L 433.701 630.928 Q 434.752 631.873 435.344 632.586 L 435.344 632.586 L 435.398 632.555 L 435.398 632.555 Q 435.285 632.296 435.11 631.72 L 435.11 631.72 L 435.11 631.72 Q 434.935 631.144 433.367 625.446 L 433.367 625.446 L 434.53 624.774 L 436.764 633.372 Z  M 425.979 639.603 L 424.646 640.373 L 420.773 636.809 L 420.773 636.809 Q 420.414 636.484 419.246 635.273 L 419.246 635.273 L 419.192 635.305 L 419.192 635.305 Q 419.605 636.645 419.773 637.405 L 419.773 637.405 L 420.878 642.55 L 419.579 643.3 L 413.273 637.055 L 414.45 636.375 L 414.45 636.375 Q 416.782 638.754 418.001 639.998 L 418.001 639.998 L 418.001 639.998 Q 419.221 641.243 419.568 641.719 L 419.568 641.719 L 419.622 641.688 L 419.622 641.688 Q 419.474 641.259 419.286 640.551 L 419.286 640.551 L 419.286 640.551 Q 419.098 639.843 419.012 639.414 L 419.012 639.414 L 417.914 634.374 L 419.131 633.67 L 422.916 637.159 L 422.916 637.159 Q 423.967 638.104 424.559 638.817 L 424.559 638.817 L 424.613 638.786 L 424.613 638.786 Q 424.5 638.527 424.325 637.951 L 424.325 637.951 L 424.325 637.951 Q 424.15 637.375 422.581 631.677 L 422.581 631.677 L 423.745 631.005 L 425.979 639.603 Z " fill-rule="evenodd" fill="rgb(254,254,254)"/></g></g></svg>