<?xml version="1.0" encoding="UTF-8" standalone="no"?><!-- Generator: Gravit.io --><svg xmlns="http://www.w3.org/2000/svg" xmlns:xlink="http://www.w3.org/1999/xlink" style="isolation:isolate" viewBox="0 0 626.4 720" width="626.4pt" height="720pt"><defs><clipPath id="_clipPath_2cnkWtM5i1YcaGtDnnVHbTdKcBFSXsto"><rect x="0" y="0" width="626.4" height="720"/></clipPath></defs><g clip-path="url(#_clipPath_2cnkWtM5i1YcaGtDnnVHbTdKcBFSXsto)"><clipPath id="_clipPath_IB3vrznJjTTHF9hmDHfEB5Bn2HIalztO"><path d=" M 0 0 L 626.4 0 L 626.4 720 L 0 720 L 0 0 Z " fill="rgb(255,255,255)"/></clipPath><g clip-path="url(#_clipPath_IB3vrznJjTTHF9hmDHfEB5Bn2HIalztO)"><path d=" M 623.525 537.75 L 313.505 717 L 3.486 537.75 L 3.486 179.25 L 313.505 0 L 623.525 179.25 L 623.525 537.75 Z  M 593.403 520.335 L 313.505 682.17 L 33.607 520.335 L 33.607 196.665 L 313.505 34.83 L 593.403 196.665 L 593.403 520.335 Z " fill-rule="evenodd" fill="rgb(0,0,0)"/><g opacity="0.5"><path d=" M 607.277 528.456 L 313.504 698.065 L 19.733 528.456 L 19.733 189.238 L 313.504 19.628 L 607.277 189.238 L 607.277 528.456 Z " fill="rgb(204,60,77)"/></g><path d=" M 607.277 528.456 L 313.504 698.065 L 19.733 528.456 L 19.733 189.238 L 313.504 19.628 L 607.277 189.238 L 607.277 528.456 Z " fill="none" vector-effect="non-scaling-stroke" stroke-width="30" stroke="rgb(204,60,77)" stroke-linejoin="miter" stroke-linecap="square" stroke-miterlimit="3"/></g><g><path d=" M 440.291 338.772 C 443.051 338.755 445.137 338.846 446.34 338.864 C 457.477 339.032 469.248 338.75 480.873 338.772 C 500.248 338.804 519.137 339.589 533.557 344.169 C 569.842 355.695 575.559 378.362 573.951 400.576 C 571.418 435.639 566.383 460.936 542.584 488.812 C 507.863 529.489 419.322 508.901 396.822 489.93 C 364.535 462.703 349.367 414.539 359.592 376.654 C 368.977 341.876 420.982 338.87 440.291 338.772 Z " fill="rgb(239,95,120)"/><clipPath id="_clipPath_n4bwYQPVpAI53q9NfjnzfqE3mXUVuBhS"><path d=" M 440.291 342.055 C 420.982 342.152 368.977 345.159 359.591 379.938 L 359.591 379.938 C 349.367 417.821 364.535 465.986 396.823 493.213 L 396.823 493.213 C 419.323 512.183 507.864 532.771 542.584 492.095 L 542.584 492.095 C 566.383 464.218 571.418 438.922 573.952 403.859 L 573.952 403.859 C 575.559 381.646 569.842 358.978 533.557 347.452 L 533.557 347.452 C 519.137 342.872 500.248 342.086 480.873 342.055 L 480.873 342.055 C 476.181 342.046 471.466 342.087 466.778 342.128 L 466.778 342.128 C 459.85 342.187 452.982 342.247 446.34 342.147 L 446.34 342.147 C 445.239 342.13 443.4 342.053 440.982 342.053 L 440.982 342.053 C 440.757 342.053 440.526 342.053 440.291 342.055 Z " fill="rgb(255,255,255)"/></clipPath><g clip-path="url(#_clipPath_n4bwYQPVpAI53q9NfjnzfqE3mXUVuBhS)"><path d=" M 457.16 423.455 C 457.16 427.515 453.865 430.805 449.808 430.805 C 445.75 430.805 442.455 427.515 442.455 423.455 C 442.455 419.394 445.75 416.101 449.808 416.101 C 453.865 416.101 457.16 419.394 457.16 423.455 Z " fill="rgb(169,171,174)"/><path d=" M 457.16 423.455 C 457.16 427.515 453.865 430.805 449.808 430.805 C 445.75 430.805 442.455 427.515 442.455 423.455 C 442.455 419.394 445.75 416.101 449.808 416.101 C 453.865 416.101 457.16 419.394 457.16 423.455 Z " fill="none" vector-effect="non-scaling-stroke" stroke-width="1" stroke="rgb(42,42,42)" stroke-linejoin="miter" stroke-linecap="square" stroke-miterlimit="3"/><path d=" M 480.356 436.827 C 480.356 440.886 476.813 444.179 472.442 444.179 C 468.071 444.179 464.53 440.886 464.53 436.827 C 464.53 432.768 468.071 429.476 472.442 429.476 C 476.813 429.476 480.356 432.768 480.356 436.827 Z " fill="rgb(244,137,57)"/><path d=" M 480.356 436.827 C 480.356 440.886 476.813 444.179 472.442 444.179 C 468.071 444.179 464.53 440.886 464.53 436.827 C 464.53 432.768 468.071 429.476 472.442 429.476 C 476.813 429.476 480.356 432.768 480.356 436.827 Z " fill="none" vector-effect="non-scaling-stroke" stroke-width="1" stroke="rgb(42,42,42)" stroke-linejoin="miter" stroke-linecap="square" stroke-miterlimit="3"/><path d=" M 462.092 412.915 C 462.092 416.977 458.799 420.268 454.738 420.268 C 450.678 420.268 447.389 416.977 447.389 412.915 C 447.389 408.855 450.678 405.565 454.738 405.565 C 458.799 405.565 462.092 408.855 462.092 412.915 Z " fill="rgb(244,137,57)"/><path d=" M 462.092 412.915 C 462.092 416.977 458.799 420.268 454.738 420.268 C 450.678 420.268 447.389 416.977 447.389 412.915 C 447.389 408.855 450.678 405.565 454.738 405.565 C 458.799 405.565 462.092 408.855 462.092 412.915 Z " fill="none" vector-effect="non-scaling-stroke" stroke-width="1" stroke="rgb(42,42,42)" stroke-linejoin="miter" stroke-linecap="square" stroke-miterlimit="3"/><path d=" M 482.02 411.118 C 482.02 415.176 478.731 418.467 474.67 418.467 C 470.608 418.467 467.319 415.176 467.319 411.118 C 467.319 407.056 470.608 403.764 474.67 403.764 C 478.731 403.764 482.02 407.056 482.02 411.118 Z " fill="rgb(244,137,57)"/><path d=" M 482.02 411.118 C 482.02 415.176 478.731 418.467 474.67 418.467 C 470.608 418.467 467.319 415.176 467.319 411.118 C 467.319 407.056 470.608 403.764 474.67 403.764 C 478.731 403.764 482.02 407.056 482.02 411.118 Z " fill="none" vector-effect="non-scaling-stroke" stroke-width="1" stroke="rgb(42,42,42)" stroke-linejoin="miter" stroke-linecap="square" stroke-miterlimit="3"/><path d=" M 487.627 420.307 C 487.627 424.368 484.338 427.657 480.277 427.657 C 476.217 427.657 472.926 424.368 472.926 420.307 C 472.926 416.249 476.217 412.955 480.277 412.955 C 484.338 412.955 487.627 416.249 487.627 420.307 Z " fill="rgb(169,171,174)"/><path d=" M 487.627 420.307 C 487.627 424.368 484.338 427.657 480.277 427.657 C 476.217 427.657 472.926 424.368 472.926 420.307 C 472.926 416.249 476.217 412.955 480.277 412.955 C 484.338 412.955 487.627 416.249 487.627 420.307 Z " fill="none" vector-effect="non-scaling-stroke" stroke-width="1" stroke="rgb(42,42,42)" stroke-linejoin="miter" stroke-linecap="square" stroke-miterlimit="3"/><path d=" M 460.725 433.24 C 460.725 437.3 457.432 440.593 453.371 440.593 C 449.311 440.593 446.02 437.3 446.02 433.24 C 446.02 429.18 449.311 425.89 453.371 425.89 C 457.432 425.89 460.725 429.18 460.725 433.24 Z " fill="rgb(244,137,57)"/><path d=" M 460.725 433.24 C 460.725 437.3 457.432 440.593 453.371 440.593 C 449.311 440.593 446.02 437.3 446.02 433.24 C 446.02 429.18 449.311 425.89 453.371 425.89 C 457.432 425.89 460.725 429.18 460.725 433.24 Z " fill="none" vector-effect="non-scaling-stroke" stroke-width="1" stroke="rgb(42,42,42)" stroke-linejoin="miter" stroke-linecap="square" stroke-miterlimit="3"/><path d=" M 471.707 408.08 C 471.707 412.139 468.416 415.428 464.353 415.428 C 460.295 415.428 457.006 412.139 457.006 408.08 C 457.006 404.019 460.295 400.728 464.353 400.728 C 468.416 400.728 471.707 404.019 471.707 408.08 Z " fill="rgb(169,171,174)"/><path d=" M 471.707 408.08 C 471.707 412.139 468.416 415.428 464.353 415.428 C 460.295 415.428 457.006 412.139 457.006 408.08 C 457.006 404.019 460.295 400.728 464.353 400.728 C 468.416 400.728 471.707 404.019 471.707 408.08 Z " fill="none" vector-effect="non-scaling-stroke" stroke-width="1" stroke="rgb(42,42,42)" stroke-linejoin="miter" stroke-linecap="square" stroke-miterlimit="3"/><path d=" M 486.41 429.547 C 486.41 433.607 483.117 436.898 479.056 436.898 C 474.998 436.898 471.707 433.607 471.707 429.547 C 471.707 425.488 474.998 422.198 479.056 422.198 C 483.117 422.198 486.41 425.488 486.41 429.547 Z " fill="rgb(244,137,57)"/><path d=" M 486.41 429.547 C 486.41 433.607 483.117 436.898 479.056 436.898 C 474.998 436.898 471.707 433.607 471.707 429.547 C 471.707 425.488 474.998 422.198 479.056 422.198 C 483.117 422.198 486.41 425.488 486.41 429.547 Z " fill="none" vector-effect="non-scaling-stroke" stroke-width="1" stroke="rgb(42,42,42)" stroke-linejoin="miter" stroke-linecap="square" stroke-miterlimit="3"/><path d=" M 469.481 438.67 C 469.481 442.732 466.188 446.022 462.127 446.022 C 458.069 446.022 454.78 442.732 454.78 438.67 C 454.78 434.608 458.069 431.316 462.127 431.316 C 466.188 431.316 469.481 434.608 469.481 438.67 Z " fill="rgb(169,171,174)"/><path d=" M 469.481 438.67 C 469.481 442.732 466.188 446.022 462.127 446.022 C 458.069 446.022 454.78 442.732 454.78 438.67 C 454.78 434.608 458.069 431.316 462.127 431.316 C 466.188 431.316 469.481 434.608 469.481 438.67 Z " fill="none" vector-effect="non-scaling-stroke" stroke-width="1" stroke="rgb(42,42,42)" stroke-linejoin="miter" stroke-linecap="square" stroke-miterlimit="3"/><path d=" M 474.57 430.204 C 474.57 434.263 471.281 437.555 467.218 437.555 C 463.16 437.555 459.867 434.263 459.867 430.204 C 459.867 426.141 463.16 422.851 467.218 422.851 C 471.281 422.851 474.57 426.141 474.57 430.204 Z " fill="rgb(169,171,174)"/><path d=" M 474.57 430.204 C 474.57 434.263 471.281 437.555 467.218 437.555 C 463.16 437.555 459.867 434.263 459.867 430.204 C 459.867 426.141 463.16 422.851 467.218 422.851 C 471.281 422.851 474.57 426.141 474.57 430.204 Z " fill="none" vector-effect="non-scaling-stroke" stroke-width="1" stroke="rgb(42,42,42)" stroke-linejoin="miter" stroke-linecap="square" stroke-miterlimit="3"/><path d=" M 476.164 419.42 C 476.164 423.48 472.873 426.773 468.814 426.773 C 464.752 426.773 461.461 423.48 461.461 419.42 C 461.461 415.36 464.752 412.07 468.814 412.07 C 472.873 412.07 476.164 415.36 476.164 419.42 Z " fill="rgb(169,171,174)"/><path d=" M 476.164 419.42 C 476.164 423.48 472.873 426.773 468.814 426.773 C 464.752 426.773 461.461 423.48 461.461 419.42 C 461.461 415.36 464.752 412.07 468.814 412.07 C 472.873 412.07 476.164 415.36 476.164 419.42 Z " fill="none" vector-effect="non-scaling-stroke" stroke-width="1" stroke="rgb(42,42,42)" stroke-linejoin="miter" stroke-linecap="square" stroke-miterlimit="3"/><path d=" M 466.586 421.57 C 466.586 425.631 463.293 428.922 459.236 428.922 C 455.178 428.922 451.883 425.631 451.883 421.57 C 451.883 417.511 455.178 414.219 459.236 414.219 C 463.293 414.219 466.586 417.511 466.586 421.57 Z " fill="rgb(244,137,57)"/><path d=" M 466.586 421.57 C 466.586 425.631 463.293 428.922 459.236 428.922 C 455.178 428.922 451.883 425.631 451.883 421.57 C 451.883 417.511 455.178 414.219 459.236 414.219 C 463.293 414.219 466.586 417.511 466.586 421.57 Z " fill="none" vector-effect="non-scaling-stroke" stroke-width="1" stroke="rgb(42,42,42)" stroke-linejoin="miter" stroke-linecap="square" stroke-miterlimit="3"/><path d=" M 353.836 422.455 C 353.559 429.541 357.822 435.066 362.99 439.362 C 368.684 443.595 376.652 447.388 386.508 450.484 C 406.211 456.681 433.291 460.446 463.072 460.446 L 465.037 460.446 L 465.037 459.518 C 405.193 459.518 361.246 442.4 361.246 422.455 L 353.836 422.455 Z " fill="rgb(204,60,77)"/><path d=" M 353.836 424.305 C 353.559 417.219 357.822 411.696 362.99 407.397 C 368.684 403.165 376.652 399.371 386.508 396.273 C 406.211 390.079 433.291 386.314 463.072 386.314 L 465.037 386.314 L 465.037 387.24 C 405.193 387.24 361.246 404.36 361.246 424.305 L 353.836 424.305 Z " fill="rgb(204,60,77)"/><path d=" M 576.234 422.455 C 576.507 429.541 572.242 435.066 567.074 439.362 C 561.38 443.595 553.414 447.388 543.56 450.484 C 523.855 456.681 496.777 460.446 466.994 460.446 L 465.029 460.446 L 465.029 459.518 C 524.873 459.518 568.82 442.4 568.82 422.455 L 576.23 422.455 L 576.234 422.455 Z " fill="rgb(204,60,77)"/><path d=" M 576.234 424.305 C 576.507 417.219 572.242 411.696 567.074 407.397 C 561.38 403.165 553.414 399.371 543.56 396.273 C 523.855 390.079 496.777 386.314 466.994 386.314 L 465.029 386.314 L 465.029 387.24 C 524.873 387.24 568.82 404.36 568.82 424.305 L 576.23 424.305 L 576.234 424.305 Z " fill="rgb(204,60,77)"/><path d=" M 385.748 501.351 C 390.568 506.558 397.488 507.451 404.182 506.834 C 411.197 505.802 419.514 502.849 428.674 498.072 C 446.988 488.519 468.799 472.035 489.857 450.974 L 491.248 449.583 L 490.594 448.928 C 448.273 491.248 405.096 510.216 390.992 496.111 L 385.748 501.351 Z " fill="rgb(204,60,77)"/><path d=" M 387.059 502.661 C 381.854 497.847 380.961 490.922 381.579 484.229 C 382.612 477.215 385.565 468.898 390.34 459.739 C 399.895 441.423 416.379 419.615 437.44 398.555 L 438.827 397.164 L 439.485 397.819 C 397.168 440.138 378.196 483.316 392.299 497.421 L 387.059 502.661 Z " fill="rgb(204,60,77)"/><path d=" M 543.01 344.094 C 548.217 348.909 549.106 355.833 548.489 362.526 C 547.457 369.541 544.504 377.857 539.729 387.016 C 530.174 405.332 513.69 427.141 492.631 448.202 L 491.24 449.591 L 490.582 448.938 C 532.903 406.619 551.873 363.44 537.77 349.336 L 543.01 344.094 Z " fill="rgb(204,60,77)"/><path d=" M 544.318 345.404 C 539.502 340.198 532.576 339.304 525.886 339.92 C 518.871 340.954 510.552 343.908 501.394 348.684 C 483.082 358.237 461.271 374.723 440.211 395.781 L 438.818 397.171 L 439.474 397.827 C 481.793 355.509 524.97 336.539 539.076 350.643 L 544.318 345.404 Z " fill="rgb(204,60,77)"/><path d=" M 387.059 344.097 C 381.854 348.912 380.961 355.833 381.579 362.529 C 382.612 369.545 385.565 377.861 390.34 387.018 C 399.895 405.332 416.379 427.142 437.44 448.203 L 438.827 449.592 L 439.485 448.938 C 397.168 406.623 378.196 363.442 392.299 349.339 L 387.059 344.097 Z " fill="rgb(204,60,77)"/><path d=" M 385.748 345.404 C 390.568 340.199 397.488 339.307 404.182 339.923 C 411.197 340.957 419.514 343.909 428.674 348.685 C 446.988 358.24 468.799 374.725 489.857 395.783 L 491.248 397.174 L 490.594 397.829 C 448.273 355.511 405.096 336.541 390.992 350.647 L 385.748 345.405 L 385.748 345.404 Z " fill="rgb(204,60,77)"/><path d=" M 544.318 501.354 C 539.502 506.562 532.576 507.454 525.886 506.837 C 518.871 505.804 510.552 502.849 501.394 498.075 C 483.082 488.52 461.271 472.037 440.211 450.974 L 438.818 449.586 L 439.474 448.931 C 481.793 491.25 524.97 510.218 539.076 496.115 L 544.318 501.351 L 544.318 501.354 Z " fill="rgb(204,60,77)"/><path d=" M 543.01 502.663 C 548.217 497.848 549.106 490.925 548.489 484.232 C 547.457 477.218 544.504 468.898 539.729 459.741 C 530.174 441.425 513.69 419.616 492.631 398.556 L 491.24 397.166 L 490.582 397.82 C 532.903 440.138 551.873 483.318 537.77 497.424 L 543.01 502.663 Z " fill="rgb(204,60,77)"/><path d=" M 465.961 312.182 C 458.873 311.905 453.348 316.168 449.049 321.338 C 444.82 327.031 441.027 334.998 437.928 344.852 C 431.732 364.557 427.965 391.636 427.965 421.418 L 427.965 423.387 L 428.893 423.387 C 428.893 363.539 446.012 319.594 465.961 319.594 L 465.961 312.182 Z " fill="rgb(204,60,77)"/><path d=" M 464.109 312.182 C 471.195 311.905 476.718 316.168 481.015 321.338 C 485.248 327.031 489.043 334.998 492.136 344.852 C 498.332 364.557 502.099 391.636 502.099 421.418 L 502.099 423.387 L 501.172 423.387 C 501.172 363.539 484.052 319.594 464.109 319.594 L 464.109 312.182 Z " fill="rgb(204,60,77)"/><path d=" M 465.961 534.578 C 458.873 534.852 453.348 530.588 449.049 525.421 C 444.82 519.728 441.027 511.761 437.928 501.907 C 431.732 482.202 427.965 455.122 427.965 425.34 L 427.965 423.374 L 428.893 423.374 C 428.893 483.22 446.012 527.165 465.961 527.165 L 465.961 534.578 Z " fill="rgb(204,60,77)"/><path d=" M 464.109 534.578 C 471.195 534.852 476.718 530.588 481.015 525.421 C 485.248 519.728 489.043 511.761 492.136 501.907 C 498.332 482.202 502.099 455.122 502.099 425.34 L 502.099 423.374 L 501.172 423.374 C 501.172 483.22 484.052 527.165 464.109 527.165 L 464.109 534.578 Z " fill="rgb(204,60,77)"/></g><clipPath id="_clipPath_DfI2RFNHqC4ZBayA7HkZNtEL2qjyc793"><path d=" M 0 0 L 626.4 0 L 626.4 720 L 0 720 L 0 0 Z " fill="rgb(255,255,255)"/></clipPath><g clip-path="url(#_clipPath_DfI2RFNHqC4ZBayA7HkZNtEL2qjyc793)"><path d=" M 148.196 342.168 C 159.673 342.147 171.294 342.426 182.286 342.259 C 191.797 342.117 257.333 340.329 267.923 379.564 C 278.014 416.961 263.044 464.509 231.167 491.387 C 208.96 510.114 121.552 530.439 87.276 490.283 C 63.784 462.765 58.815 437.793 56.312 403.179 C 54.727 381.25 60.367 358.874 96.188 347.496 C 110.424 342.975 129.07 342.199 148.196 342.168 Z " fill="rgb(239,95,120)"/></g><clipPath id="_clipPath_YZUYpxss7FkYYefdPz3EOsf2OpCjojFC"><path d=" M 148.977 343.167 C 129.851 343.199 111.205 343.975 96.97 348.495 L 96.97 348.495 C 61.149 359.873 55.508 382.25 57.093 404.177 L 57.093 404.177 C 59.596 438.792 64.565 463.765 88.058 491.282 L 88.058 491.282 C 122.334 531.437 209.74 511.115 231.948 492.386 L 231.948 492.386 C 263.825 465.509 278.796 417.961 268.704 380.564 L 268.704 380.564 C 258.114 341.329 192.578 343.117 183.067 343.259 L 183.067 343.259 C 176.509 343.358 169.727 343.299 162.885 343.239 L 162.885 343.239 C 158.669 343.202 154.432 343.166 150.21 343.166 L 150.21 343.166 C 149.799 343.166 149.388 343.167 148.977 343.167 Z " fill="rgb(255,255,255)"/></clipPath><g clip-path="url(#_clipPath_YZUYpxss7FkYYefdPz3EOsf2OpCjojFC)"><path d=" M 177.099 409.379 C 177.099 413.439 173.808 416.73 169.748 416.73 C 165.69 416.73 162.399 413.439 162.399 409.379 C 162.399 405.32 165.69 402.029 169.748 402.029 C 173.808 402.029 177.099 405.32 177.099 409.379 Z " fill="rgb(169,171,174)"/><path d=" M 177.099 409.379 C 177.099 413.439 173.808 416.73 169.748 416.73 C 165.69 416.73 162.399 413.439 162.399 409.379 C 162.399 405.32 165.69 402.029 169.748 402.029 C 173.808 402.029 177.099 405.32 177.099 409.379 Z " fill="none" vector-effect="non-scaling-stroke" stroke-width="1" stroke="rgb(42,42,42)" stroke-linejoin="miter" stroke-linecap="square" stroke-miterlimit="3"/><path d=" M 151.782 421.456 C 151.782 425.516 148.491 428.805 144.433 428.805 C 140.374 428.805 137.083 425.516 137.083 421.456 C 137.083 417.397 140.374 414.106 144.433 414.106 C 148.491 414.106 151.782 417.397 151.782 421.456 Z " fill="rgb(169,171,174)"/><path d=" M 151.782 421.456 C 151.782 425.516 148.491 428.805 144.433 428.805 C 140.374 428.805 137.083 425.516 137.083 421.456 C 137.083 417.397 140.374 414.106 144.433 414.106 C 148.491 414.106 151.782 417.397 151.782 421.456 Z " fill="none" vector-effect="non-scaling-stroke" stroke-width="1" stroke="rgb(42,42,42)" stroke-linejoin="miter" stroke-linecap="square" stroke-miterlimit="3"/><path d=" M 176.086 433.714 C 176.086 437.773 172.543 441.064 168.172 441.064 C 163.804 441.064 160.262 437.773 160.262 433.714 C 160.262 429.656 163.804 426.365 168.172 426.365 C 172.543 426.365 176.086 429.656 176.086 433.714 Z " fill="rgb(244,137,57)"/><path d=" M 176.086 433.714 C 176.086 437.773 172.543 441.064 168.172 441.064 C 163.804 441.064 160.262 437.773 160.262 433.714 C 160.262 429.656 163.804 426.365 168.172 426.365 C 172.543 426.365 176.086 429.656 176.086 433.714 Z " fill="none" vector-effect="non-scaling-stroke" stroke-width="1" stroke="rgb(42,42,42)" stroke-linejoin="miter" stroke-linecap="square" stroke-miterlimit="3"/><path d=" M 156.711 410.921 C 156.711 414.981 153.421 418.27 149.361 418.27 C 145.303 418.27 142.014 414.981 142.014 410.921 C 142.014 406.861 145.303 403.572 149.361 403.572 C 153.421 403.572 156.711 406.861 156.711 410.921 Z " fill="rgb(244,137,57)"/><path d=" M 156.711 410.921 C 156.711 414.981 153.421 418.27 149.361 418.27 C 145.303 418.27 142.014 414.981 142.014 410.921 C 142.014 406.861 145.303 403.572 149.361 403.572 C 153.421 403.572 156.711 406.861 156.711 410.921 Z " fill="none" vector-effect="non-scaling-stroke" stroke-width="1" stroke="rgb(42,42,42)" stroke-linejoin="miter" stroke-linecap="square" stroke-miterlimit="3"/><path d=" M 171.278 414.139 C 171.278 418.198 167.987 421.489 163.928 421.489 C 159.868 421.489 156.579 418.198 156.579 414.139 C 156.579 410.08 159.868 406.789 163.928 406.789 C 167.987 406.789 171.278 410.08 171.278 414.139 Z " fill="rgb(244,137,57)"/><path d=" M 171.278 414.139 C 171.278 418.198 167.987 421.489 163.928 421.489 C 159.868 421.489 156.579 418.198 156.579 414.139 C 156.579 410.08 159.868 406.789 163.928 406.789 C 167.987 406.789 171.278 410.08 171.278 414.139 Z " fill="none" vector-effect="non-scaling-stroke" stroke-width="1" stroke="rgb(42,42,42)" stroke-linejoin="miter" stroke-linecap="square" stroke-miterlimit="3"/><path d=" M 182.243 418.31 C 182.243 422.37 178.952 425.661 174.893 425.661 C 170.835 425.661 167.544 422.37 167.544 418.31 C 167.544 414.252 170.835 410.961 174.893 410.961 C 178.952 410.961 182.243 414.252 182.243 418.31 Z " fill="rgb(169,171,174)"/><path d=" M 182.243 418.31 C 182.243 422.37 178.952 425.661 174.893 425.661 C 170.835 425.661 167.544 422.37 167.544 418.31 C 167.544 414.252 170.835 410.961 174.893 410.961 C 178.952 410.961 182.243 414.252 182.243 418.31 Z " fill="none" vector-effect="non-scaling-stroke" stroke-width="1" stroke="rgb(42,42,42)" stroke-linejoin="miter" stroke-linecap="square" stroke-miterlimit="3"/><path d=" M 155.346 431.24 C 155.346 435.3 152.055 438.591 147.994 438.591 C 143.936 438.591 140.646 435.3 140.646 431.24 C 140.646 427.18 143.936 423.89 147.994 423.89 C 152.055 423.89 155.346 427.18 155.346 431.24 Z " fill="rgb(244,137,57)"/><path d=" M 155.346 431.24 C 155.346 435.3 152.055 438.591 147.994 438.591 C 143.936 438.591 140.646 435.3 140.646 431.24 C 140.646 427.18 143.936 423.89 147.994 423.89 C 152.055 423.89 155.346 427.18 155.346 431.24 Z " fill="none" vector-effect="non-scaling-stroke" stroke-width="1" stroke="rgb(42,42,42)" stroke-linejoin="miter" stroke-linecap="square" stroke-miterlimit="3"/><path d=" M 166.325 406.086 C 166.325 410.145 163.034 413.436 158.975 413.436 C 154.917 413.436 151.628 410.145 151.628 406.086 C 151.628 402.026 154.917 398.736 158.975 398.736 C 163.034 398.736 166.325 402.026 166.325 406.086 Z " fill="rgb(169,171,174)"/><path d=" M 166.325 406.086 C 166.325 410.145 163.034 413.436 158.975 413.436 C 154.917 413.436 151.628 410.145 151.628 406.086 C 151.628 402.026 154.917 398.736 158.975 398.736 C 163.034 398.736 166.325 402.026 166.325 406.086 Z " fill="none" vector-effect="non-scaling-stroke" stroke-width="1" stroke="rgb(42,42,42)" stroke-linejoin="miter" stroke-linecap="square" stroke-miterlimit="3"/><path d=" M 181.024 427.549 C 181.024 431.608 177.734 434.898 173.675 434.898 C 169.616 434.898 166.325 431.608 166.325 427.549 C 166.325 423.49 169.616 420.198 173.675 420.198 C 177.734 420.198 181.024 423.49 181.024 427.549 Z " fill="rgb(244,137,57)"/><path d=" M 181.024 427.549 C 181.024 431.608 177.734 434.898 173.675 434.898 C 169.616 434.898 166.325 431.608 166.325 427.549 C 166.325 423.49 169.616 420.198 173.675 420.198 C 177.734 420.198 181.024 423.49 181.024 427.549 Z " fill="none" vector-effect="non-scaling-stroke" stroke-width="1" stroke="rgb(42,42,42)" stroke-linejoin="miter" stroke-linecap="square" stroke-miterlimit="3"/><path d=" M 166.325 436.668 C 166.325 440.728 163.034 444.018 158.975 444.018 C 154.917 444.018 151.628 440.728 151.628 436.668 C 151.628 432.609 154.917 429.317 158.975 429.317 C 163.034 429.317 166.325 432.609 166.325 436.668 Z " fill="rgb(169,171,174)"/><path d=" M 166.325 436.668 C 166.325 440.728 163.034 444.018 158.975 444.018 C 154.917 444.018 151.628 440.728 151.628 436.668 C 151.628 432.609 154.917 429.317 158.975 429.317 C 163.034 429.317 166.325 432.609 166.325 436.668 Z " fill="none" vector-effect="non-scaling-stroke" stroke-width="1" stroke="rgb(42,42,42)" stroke-linejoin="miter" stroke-linecap="square" stroke-miterlimit="3"/><path d=" M 162.509 429.318 C 162.509 433.378 159.219 436.668 155.16 436.668 C 151.101 436.668 147.811 433.378 147.811 429.318 C 147.811 425.257 151.101 421.968 155.16 421.968 C 159.219 421.968 162.509 425.257 162.509 429.318 Z " fill="rgb(169,171,174)"/><path d=" M 162.509 429.318 C 162.509 433.378 159.219 436.668 155.16 436.668 C 151.101 436.668 147.811 433.378 147.811 429.318 C 147.811 425.257 151.101 421.968 155.16 421.968 C 159.219 421.968 162.509 425.257 162.509 429.318 Z " fill="none" vector-effect="non-scaling-stroke" stroke-width="1" stroke="rgb(42,42,42)" stroke-linejoin="miter" stroke-linecap="square" stroke-miterlimit="3"/><path d=" M 173.01 425.216 C 173.01 429.276 169.719 432.568 165.659 432.568 C 161.6 432.568 158.309 429.276 158.309 425.216 C 158.309 421.157 161.6 417.867 165.659 417.867 C 169.719 417.867 173.01 421.157 173.01 425.216 Z " fill="rgb(169,171,174)"/><path d=" M 173.01 425.216 C 173.01 429.276 169.719 432.568 165.659 432.568 C 161.6 432.568 158.309 429.276 158.309 425.216 C 158.309 421.157 161.6 417.867 165.659 417.867 C 169.719 417.867 173.01 421.157 173.01 425.216 Z " fill="none" vector-effect="non-scaling-stroke" stroke-width="1" stroke="rgb(42,42,42)" stroke-linejoin="miter" stroke-linecap="square" stroke-miterlimit="3"/><path d=" M 162.695 418.461 C 162.695 422.52 159.404 425.81 155.346 425.81 C 151.287 425.81 147.995 422.52 147.995 418.461 C 147.995 414.401 151.287 411.11 155.346 411.11 C 159.404 411.11 162.695 414.401 162.695 418.461 Z " fill="rgb(244,137,57)"/><path d=" M 162.695 418.461 C 162.695 422.52 159.404 425.81 155.346 425.81 C 151.287 425.81 147.995 422.52 147.995 418.461 C 147.995 414.401 151.287 411.11 155.346 411.11 C 159.404 411.11 162.695 414.401 162.695 418.461 Z " fill="none" vector-effect="non-scaling-stroke" stroke-width="1" stroke="rgb(42,42,42)" stroke-linejoin="miter" stroke-linecap="square" stroke-miterlimit="3"/><path d=" M 48.483 420.457 C 48.208 427.541 52.471 433.065 57.637 437.361 C 63.329 441.591 71.295 445.383 81.147 448.48 C 100.845 454.675 127.919 458.439 157.694 458.439 L 159.66 458.439 L 159.66 457.513 C 99.829 457.513 55.893 440.399 55.893 420.457 L 48.483 420.457 Z " fill="rgb(204,60,77)"/><path d=" M 48.483 422.309 C 48.208 415.222 52.471 409.7 57.637 405.404 C 63.329 401.174 71.295 397.38 81.147 394.284 C 100.845 388.09 127.919 384.326 157.694 384.326 L 159.66 384.326 L 159.66 385.251 C 99.829 385.251 55.893 402.366 55.893 422.309 L 48.483 422.309 Z " fill="rgb(204,60,77)"/><path d=" M 270.825 420.457 C 271.1 427.541 266.837 433.065 261.671 437.361 C 255.979 441.591 248.014 445.383 238.163 448.48 C 218.462 454.675 191.389 458.439 161.615 458.439 L 159.648 458.439 L 159.648 457.513 C 219.479 457.513 263.415 440.399 263.415 420.457 L 270.825 420.457 Z " fill="rgb(204,60,77)"/><path d=" M 270.825 422.309 C 271.1 415.222 266.837 409.7 261.671 405.404 C 255.979 401.174 248.014 397.38 238.163 394.284 C 218.462 388.09 191.389 384.326 161.615 384.326 L 159.648 384.326 L 159.648 385.251 C 219.479 385.251 263.415 402.366 263.415 422.309 L 270.825 422.309 Z " fill="rgb(204,60,77)"/><path d=" M 80.39 499.337 C 85.205 504.542 92.125 505.433 98.817 504.817 C 105.831 503.782 114.145 500.831 123.301 496.056 C 141.612 486.503 163.417 470.025 184.47 448.971 L 185.862 447.581 L 185.207 446.925 C 142.899 489.232 99.732 508.198 85.63 494.097 L 80.39 499.337 Z " fill="rgb(204,60,77)"/><path d=" M 81.698 500.645 C 76.494 495.83 75.602 488.912 76.219 482.218 C 77.253 475.203 80.204 466.888 84.979 457.732 C 94.53 439.422 111.011 417.617 132.065 396.564 L 133.456 395.172 L 134.11 395.828 C 91.803 438.136 72.837 481.304 86.938 495.405 L 81.698 500.645 Z " fill="rgb(204,60,77)"/><path d=" M 237.61 342.116 C 242.815 346.93 243.706 353.851 243.09 360.543 C 242.057 367.556 239.106 375.873 234.33 385.027 C 224.779 403.338 208.298 425.143 187.245 446.198 L 185.854 447.587 L 185.199 446.933 C 227.506 404.625 246.472 361.457 232.371 347.356 L 237.61 342.116 Z " fill="rgb(204,60,77)"/><path d=" M 238.919 343.424 C 234.104 338.219 227.183 337.329 220.493 337.944 C 213.478 338.978 205.163 341.929 196.008 346.705 C 177.698 356.256 155.894 372.737 134.837 393.791 L 133.445 395.18 L 134.104 395.836 C 176.409 353.528 219.577 334.563 233.679 348.664 L 238.919 343.424 Z " fill="rgb(204,60,77)"/><path d=" M 81.698 342.118 C 76.494 346.933 75.602 353.854 76.219 360.545 C 77.253 367.559 80.204 375.874 84.979 385.031 C 94.53 403.339 111.011 425.145 132.065 446.2 L 133.456 447.589 L 134.11 446.934 C 91.803 404.629 72.837 361.46 86.938 347.358 L 81.698 342.118 Z " fill="rgb(204,60,77)"/><path d=" M 80.39 343.426 C 85.205 338.222 92.125 337.331 98.817 337.947 C 105.831 338.98 114.145 341.933 123.301 346.707 C 141.612 356.259 163.417 372.738 184.47 393.793 L 185.862 395.185 L 185.207 395.838 C 142.899 353.531 99.732 334.566 85.63 348.667 L 80.39 343.427 L 80.39 343.426 Z " fill="rgb(204,60,77)"/><path d=" M 238.919 499.339 C 234.104 504.544 227.183 505.435 220.493 504.819 C 213.478 503.786 205.163 500.833 196.008 496.06 C 177.698 486.507 155.894 470.027 134.837 448.972 L 133.445 447.583 L 134.104 446.927 C 176.409 489.234 219.577 508.2 233.679 494.099 L 238.919 499.337 L 238.919 499.339 Z " fill="rgb(204,60,77)"/><path d=" M 237.61 500.648 C 242.815 495.832 243.706 488.914 243.09 482.221 C 242.057 475.207 239.106 466.89 234.33 457.736 C 224.779 439.426 208.298 417.62 187.245 396.566 L 185.854 395.175 L 185.199 395.831 C 227.506 438.136 246.472 481.306 232.371 495.408 L 237.61 500.648 Z " fill="rgb(204,60,77)"/><path d=" M 160.58 310.211 C 153.495 309.936 147.971 314.198 143.675 319.366 C 139.445 325.056 135.654 333.023 132.558 342.873 C 126.362 362.574 122.597 389.647 122.597 419.422 L 122.597 421.389 L 123.524 421.389 C 123.524 361.558 140.637 317.622 160.58 317.622 L 160.58 310.211 Z " fill="rgb(204,60,77)"/><path d=" M 158.729 310.211 C 165.813 309.936 171.336 314.198 175.633 319.366 C 179.863 325.056 183.655 333.023 186.752 342.873 C 192.946 362.574 196.711 389.647 196.711 419.422 L 196.711 421.389 L 195.785 421.389 C 195.785 361.558 178.67 317.622 158.729 317.622 L 158.729 310.211 Z " fill="rgb(204,60,77)"/><path d=" M 160.58 532.554 C 153.495 532.829 147.971 528.568 143.675 523.4 C 139.445 517.708 135.654 509.742 132.558 499.89 C 126.362 480.189 122.597 453.117 122.597 423.342 L 122.597 421.376 L 123.524 421.376 C 123.524 481.208 140.637 525.144 160.58 525.144 L 160.58 532.552 L 160.58 532.554 Z " fill="rgb(204,60,77)"/><path d=" M 158.729 532.554 C 165.813 532.829 171.336 528.568 175.633 523.4 C 179.863 517.708 183.655 509.742 186.752 499.89 C 192.946 480.189 196.711 453.117 196.711 423.342 L 196.711 421.376 L 195.785 421.376 C 195.785 481.208 178.67 525.144 158.729 525.144 L 158.729 532.552 L 158.729 532.554 Z " fill="rgb(204,60,77)"/></g><clipPath id="_clipPath_3odJStbOQb9VUcRM5amHF0QGgNhU3pH4"><path d=" M 0 0 L 626.4 0 L 626.4 720 L 0 720 L 0 0 Z " fill="rgb(255,255,255)"/></clipPath><g clip-path="url(#_clipPath_3odJStbOQb9VUcRM5amHF0QGgNhU3pH4)"><path d=" M 295.169 356.298 C 285.913 355.893 276.213 353.763 266.242 348.237 C 242.356 335.004 182.121 327.644 164.148 327.64 C 113.516 327.627 63.668 329.326 17.81 336.328 L 19.332 370.626 C 32.44 375.416 36.435 384.365 38.229 395.164 C 46.503 444.948 58.102 487.286 79.694 504.694 C 95.028 517.058 114.298 527.829 150.355 526.725 C 188.763 525.549 229.567 514.995 249.582 491.887 C 267.159 471.599 285.487 440.388 292.124 406.272 C 294.625 393.416 303.722 387.733 314.065 387.733 C 324.409 387.733 333.504 393.416 336.006 406.272 C 342.643 440.388 360.972 471.599 378.547 491.887 C 398.563 514.995 439.368 525.549 477.775 526.725 C 513.831 527.829 533.102 517.058 548.436 504.694 C 570.027 487.286 581.626 444.948 589.901 395.164 C 591.696 384.365 595.69 375.416 608.796 370.626 L 610.319 336.328 C 564.46 329.326 514.616 327.627 463.985 327.64 C 446.01 327.644 385.775 335.004 361.889 348.237 C 351.917 353.763 342.219 355.893 332.961 356.298 C 320.376 356.849 307.754 356.849 295.169 356.298 Z  M 147.758 344.925 C 158.944 344.904 170.271 345.175 180.983 345.014 C 190.255 344.875 254.13 343.132 264.452 381.374 C 274.288 417.824 259.695 464.167 228.628 490.364 C 206.981 508.617 121.79 528.427 88.381 489.288 C 65.482 462.467 60.64 438.128 58.201 404.391 C 56.654 383.018 62.153 361.208 97.066 350.118 C 110.941 345.711 129.116 344.955 147.758 344.925 Z  M 441.327 344.925 C 443.981 344.909 445.989 344.996 447.147 345.014 C 457.862 345.175 469.188 344.904 480.371 344.925 C 499.014 344.955 517.189 345.711 531.063 350.118 C 565.977 361.208 571.475 383.018 569.93 404.391 C 567.491 438.128 562.647 462.467 539.749 489.288 C 506.34 528.427 421.15 508.617 399.501 490.364 C 368.436 464.167 353.842 417.825 363.679 381.374 C 372.71 347.911 422.746 345.02 441.327 344.925 Z  M 32.767 352.984 L 58.828 352.984 L 58.828 359.163 L 32.767 359.163 L 32.767 352.984 Z  M 569.303 352.984 L 595.363 352.984 L 595.363 359.163 L 569.303 359.163 L 569.303 352.984 Z " fill="rgb(42,42,42)"/></g></g><g><path d=" M 549.491 233.481 L 548.791 247.978 L 548.791 247.978 Q 547.691 247.68 546.641 247.581 L 546.641 247.581 L 546.641 247.581 Q 545.591 247.481 544.591 247.481 L 544.591 247.481 L 544.591 247.481 Q 541.291 247.481 539.041 248.678 L 539.041 248.678 L 539.041 248.678 Q 536.791 249.875 535.441 251.57 L 535.441 251.57 L 535.441 251.57 Q 534.091 253.266 533.491 255.26 L 533.491 255.26 L 533.491 255.26 Q 532.891 257.255 532.891 258.751 L 532.891 258.751 L 532.891 284.281 L 516.491 284.281 L 516.491 234.534 L 532.291 234.534 L 532.291 241.741 L 532.491 241.741 L 532.491 241.741 Q 534.391 237.915 537.891 235.498 L 537.891 235.498 L 537.891 235.498 Q 541.391 233.081 545.991 233.081 L 545.991 233.081 L 545.991 233.081 Q 546.991 233.081 547.941 233.181 L 547.941 233.181 L 547.941 233.181 Q 548.891 233.281 549.491 233.481 L 549.491 233.481 Z  M 470.091 253.681 L 491.191 253.681 L 491.191 253.681 Q 491.191 249.781 488.741 246.981 L 488.741 246.981 L 488.741 246.981 Q 486.291 244.181 481.391 244.181 L 481.391 244.181 L 481.391 244.181 Q 478.991 244.181 476.991 244.931 L 476.991 244.931 L 476.991 244.931 Q 474.991 245.681 473.491 246.981 L 473.491 246.981 L 473.491 246.981 Q 471.991 248.281 471.091 250.031 L 471.091 250.031 L 471.091 250.031 Q 470.191 251.781 470.091 253.681 L 470.091 253.681 Z  M 506.291 259.981 L 506.291 259.981 L 506.291 259.981 Q 506.291 260.981 506.291 261.981 L 506.291 261.981 L 506.291 261.981 Q 506.291 262.981 506.191 263.881 L 506.191 263.881 L 470.091 263.881 L 470.091 263.881 Q 470.291 265.981 471.341 267.681 L 471.341 267.681 L 471.341 267.681 Q 472.391 269.381 474.041 270.631 L 474.041 270.631 L 474.041 270.631 Q 475.691 271.881 477.741 272.581 L 477.741 272.581 L 477.741 272.581 Q 479.791 273.281 481.991 273.281 L 481.991 273.281 L 481.991 273.281 Q 485.891 273.281 488.591 271.831 L 488.591 271.831 L 488.591 271.831 Q 491.291 270.381 492.991 268.081 L 492.991 268.081 L 504.391 275.281 L 504.391 275.281 Q 500.891 280.381 495.141 283.131 L 495.141 283.131 L 495.141 283.131 Q 489.391 285.881 481.791 285.881 L 481.791 285.881 L 481.791 285.881 Q 476.191 285.881 471.191 284.131 L 471.191 284.131 L 471.191 284.131 Q 466.191 282.381 462.441 279.031 L 462.441 279.031 L 462.441 279.031 Q 458.691 275.681 456.541 270.781 L 456.541 270.781 L 456.541 270.781 Q 454.391 265.881 454.391 259.581 L 454.391 259.581 L 454.391 259.581 Q 454.391 253.481 456.491 248.531 L 456.491 248.531 L 456.491 248.531 Q 458.591 243.581 462.191 240.131 L 462.191 240.131 L 462.191 240.131 Q 465.791 236.681 470.691 234.781 L 470.691 234.781 L 470.691 234.781 Q 475.591 232.881 481.291 232.881 L 481.291 232.881 L 481.291 232.881 Q 486.791 232.881 491.391 234.731 L 491.391 234.731 L 491.391 234.731 Q 495.991 236.581 499.291 240.081 L 499.291 240.081 L 499.291 240.081 Q 502.591 243.581 504.441 248.581 L 504.441 248.581 L 504.441 248.581 Q 506.291 253.581 506.291 259.981 Z  M 450.491 234.481 L 433.191 284.281 L 416.691 284.281 L 406.891 253.281 L 406.691 253.281 L 397.091 284.281 L 380.591 284.281 L 363.391 234.481 L 381.091 234.481 L 389.691 265.981 L 389.991 265.981 L 398.891 234.481 L 415.391 234.481 L 424.591 265.981 L 424.791 265.981 L 433.491 234.481 L 450.491 234.481 Z  M 323.391 253.681 L 344.491 253.681 L 344.491 253.681 Q 344.491 249.781 342.041 246.981 L 342.041 246.981 L 342.041 246.981 Q 339.591 244.181 334.691 244.181 L 334.691 244.181 L 334.691 244.181 Q 332.291 244.181 330.291 244.931 L 330.291 244.931 L 330.291 244.931 Q 328.291 245.681 326.791 246.981 L 326.791 246.981 L 326.791 246.981 Q 325.291 248.281 324.391 250.031 L 324.391 250.031 L 324.391 250.031 Q 323.491 251.781 323.391 253.681 L 323.391 253.681 Z  M 359.591 259.981 L 359.591 259.981 L 359.591 259.981 Q 359.591 260.981 359.591 261.981 L 359.591 261.981 L 359.591 261.981 Q 359.591 262.981 359.491 263.881 L 359.491 263.881 L 323.391 263.881 L 323.391 263.881 Q 323.591 265.981 324.641 267.681 L 324.641 267.681 L 324.641 267.681 Q 325.691 269.381 327.341 270.631 L 327.341 270.631 L 327.341 270.631 Q 328.991 271.881 331.041 272.581 L 331.041 272.581 L 331.041 272.581 Q 333.091 273.281 335.291 273.281 L 335.291 273.281 L 335.291 273.281 Q 339.191 273.281 341.891 271.831 L 341.891 271.831 L 341.891 271.831 Q 344.591 270.381 346.291 268.081 L 346.291 268.081 L 357.691 275.281 L 357.691 275.281 Q 354.191 280.381 348.441 283.131 L 348.441 283.131 L 348.441 283.131 Q 342.691 285.881 335.091 285.881 L 335.091 285.881 L 335.091 285.881 Q 329.491 285.881 324.491 284.131 L 324.491 284.131 L 324.491 284.131 Q 319.491 282.381 315.741 279.031 L 315.741 279.031 L 315.741 279.031 Q 311.991 275.681 309.841 270.781 L 309.841 270.781 L 309.841 270.781 Q 307.691 265.881 307.691 259.581 L 307.691 259.581 L 307.691 259.581 Q 307.691 253.481 309.791 248.531 L 309.791 248.531 L 309.791 248.531 Q 311.891 243.581 315.491 240.131 L 315.491 240.131 L 315.491 240.131 Q 319.091 236.681 323.991 234.781 L 323.991 234.781 L 323.991 234.781 Q 328.891 232.881 334.591 232.881 L 334.591 232.881 L 334.591 232.881 Q 340.091 232.881 344.691 234.731 L 344.691 234.731 L 344.691 234.731 Q 349.291 236.581 352.591 240.081 L 352.591 240.081 L 352.591 240.081 Q 355.891 243.581 357.741 248.581 L 357.741 248.581 L 357.741 248.581 Q 359.591 253.581 359.591 259.981 Z  M 298.391 218.581 L 298.391 218.581 L 298.391 218.581 Q 298.391 220.481 297.641 222.131 L 297.641 222.131 L 297.641 222.131 Q 296.891 223.781 295.641 224.981 L 295.641 224.981 L 295.641 224.981 Q 294.391 226.181 292.641 226.881 L 292.641 226.881 L 292.641 226.881 Q 290.891 227.581 288.991 227.581 L 288.991 227.581 L 288.991 227.581 Q 284.991 227.581 282.291 224.931 L 282.291 224.931 L 282.291 224.931 Q 279.591 222.281 279.591 218.581 L 279.591 218.581 L 279.591 218.581 Q 279.591 216.781 280.291 215.131 L 280.291 215.131 L 280.291 215.131 Q 280.991 213.481 282.291 212.281 L 282.291 212.281 L 282.291 212.281 Q 283.591 211.081 285.291 210.331 L 285.291 210.331 L 285.291 210.331 Q 286.991 209.581 288.991 209.581 L 288.991 209.581 L 288.991 209.581 Q 290.891 209.581 292.641 210.281 L 292.641 210.281 L 292.641 210.281 Q 294.391 210.981 295.641 212.181 L 295.641 212.181 L 295.641 212.181 Q 296.891 213.381 297.641 215.031 L 297.641 215.031 L 297.641 215.031 Q 298.391 216.681 298.391 218.581 Z  M 297.191 284.281 L 280.791 284.281 L 280.791 234.481 L 297.191 234.481 L 297.191 284.281 Z  M 274.291 234.481 L 254.691 284.281 L 236.991 284.281 L 217.391 234.481 L 235.491 234.481 L 245.991 266.781 L 246.291 266.781 L 256.791 234.481 L 274.291 234.481 Z  M 213.491 259.181 L 213.491 259.181 L 213.491 259.181 Q 213.491 265.281 211.291 270.231 L 211.291 270.231 L 211.291 270.231 Q 209.091 275.181 205.291 278.631 L 205.291 278.631 L 205.291 278.631 Q 201.491 282.081 196.491 283.981 L 196.491 283.981 L 196.491 283.981 Q 191.491 285.881 185.791 285.881 L 185.791 285.881 L 185.791 285.881 Q 180.191 285.881 175.141 283.981 L 175.141 283.981 L 175.141 283.981 Q 170.091 282.081 166.341 278.631 L 166.341 278.631 L 166.341 278.631 Q 162.591 275.181 160.391 270.231 L 160.391 270.231 L 160.391 270.231 Q 158.191 265.281 158.191 259.181 L 158.191 259.181 L 158.191 259.181 Q 158.191 253.081 160.391 248.181 L 160.391 248.181 L 160.391 248.181 Q 162.591 243.281 166.341 239.881 L 166.341 239.881 L 166.341 239.881 Q 170.091 236.481 175.141 234.681 L 175.141 234.681 L 175.141 234.681 Q 180.191 232.881 185.791 232.881 L 185.791 232.881 L 185.791 232.881 Q 191.491 232.881 196.491 234.681 L 196.491 234.681 L 196.491 234.681 Q 201.491 236.481 205.291 239.881 L 205.291 239.881 L 205.291 239.881 Q 209.091 243.281 211.291 248.181 L 211.291 248.181 L 211.291 248.181 Q 213.491 253.081 213.491 259.181 Z  M 197.691 259.181 L 197.691 259.181 L 197.691 259.181 Q 197.691 256.781 196.891 254.481 L 196.891 254.481 L 196.891 254.481 Q 196.091 252.181 194.591 250.431 L 194.591 250.431 L 194.591 250.431 Q 193.091 248.681 190.891 247.581 L 190.891 247.581 L 190.891 247.581 Q 188.691 246.481 185.791 246.481 L 185.791 246.481 L 185.791 246.481 Q 182.891 246.481 180.691 247.581 L 180.691 247.581 L 180.691 247.581 Q 178.491 248.681 177.041 250.431 L 177.041 250.431 L 177.041 250.431 Q 175.591 252.181 174.841 254.481 L 174.841 254.481 L 174.841 254.481 Q 174.091 256.781 174.091 259.181 L 174.091 259.181 L 174.091 259.181 Q 174.091 261.581 174.841 263.881 L 174.841 263.881 L 174.841 263.881 Q 175.591 266.181 177.091 268.031 L 177.091 268.031 L 177.091 268.031 Q 178.591 269.881 180.791 270.981 L 180.791 270.981 L 180.791 270.981 Q 182.991 272.081 185.891 272.081 L 185.891 272.081 L 185.891 272.081 Q 188.791 272.081 190.991 270.981 L 190.991 270.981 L 190.991 270.981 Q 193.191 269.881 194.691 268.031 L 194.691 268.031 L 194.691 268.031 Q 196.191 266.181 196.941 263.881 L 196.941 263.881 L 196.941 263.881 Q 197.691 261.581 197.691 259.181 Z  M 151.791 239.881 L 142.791 249.181 L 142.791 249.181 Q 140.791 247.281 138.091 245.981 L 138.091 245.981 L 138.091 245.981 Q 135.391 244.681 132.391 244.681 L 132.391 244.681 L 132.391 244.681 Q 130.091 244.681 128.141 245.581 L 128.141 245.581 L 128.141 245.581 Q 126.191 246.481 126.191 248.681 L 126.191 248.681 L 126.191 248.681 Q 126.191 250.781 128.341 251.681 L 128.341 251.681 L 128.341 251.681 Q 130.491 252.581 135.291 253.681 L 135.291 253.681 L 135.291 253.681 Q 138.091 254.281 140.941 255.381 L 140.941 255.381 L 140.941 255.381 Q 143.791 256.481 146.091 258.281 L 146.091 258.281 L 146.091 258.281 Q 148.391 260.081 149.791 262.681 L 149.791 262.681 L 149.791 262.681 Q 151.191 265.281 151.191 268.881 L 151.191 268.881 L 151.191 268.881 Q 151.191 273.581 149.291 276.831 L 149.291 276.831 L 149.291 276.831 Q 147.391 280.081 144.341 282.081 L 144.341 282.081 L 144.341 282.081 Q 141.291 284.081 137.491 284.981 L 137.491 284.981 L 137.491 284.981 Q 133.691 285.881 129.891 285.881 L 129.891 285.881 L 129.891 285.881 Q 123.791 285.881 117.941 283.931 L 117.941 283.931 L 117.941 283.931 Q 112.091 281.981 108.191 278.181 L 108.191 278.181 L 117.391 268.481 L 117.391 268.481 Q 119.591 270.881 122.791 272.481 L 122.791 272.481 L 122.791 272.481 Q 125.991 274.081 129.591 274.081 L 129.591 274.081 L 129.591 274.081 Q 131.591 274.081 133.541 273.131 L 133.541 273.131 L 133.541 273.131 Q 135.491 272.181 135.491 269.781 L 135.491 269.781 L 135.491 269.781 Q 135.491 267.481 133.091 266.381 L 133.091 266.381 L 133.091 266.381 Q 130.691 265.281 125.591 264.081 L 125.591 264.081 L 125.591 264.081 Q 122.991 263.481 120.391 262.481 L 120.391 262.481 L 120.391 262.481 Q 117.791 261.481 115.741 259.781 L 115.741 259.781 L 115.741 259.781 Q 113.691 258.081 112.391 255.581 L 112.391 255.581 L 112.391 255.581 Q 111.091 253.081 111.091 249.581 L 111.091 249.581 L 111.091 249.581 Q 111.091 245.081 112.991 241.931 L 112.991 241.931 L 112.991 241.931 Q 114.891 238.781 117.891 236.781 L 117.891 236.781 L 117.891 236.781 Q 120.891 234.781 124.541 233.831 L 124.541 233.831 L 124.541 233.831 Q 128.191 232.881 131.791 232.881 L 131.791 232.881 L 131.791 232.881 Q 137.391 232.881 142.741 234.631 L 142.741 234.631 L 142.741 234.631 Q 148.091 236.381 151.791 239.881 L 151.791 239.881 Z  M 101.691 218.581 L 101.691 218.581 L 101.691 218.581 Q 101.691 220.481 100.941 222.131 L 100.941 222.131 L 100.941 222.131 Q 100.191 223.781 98.941 224.981 L 98.941 224.981 L 98.941 224.981 Q 97.691 226.181 95.941 226.881 L 95.941 226.881 L 95.941 226.881 Q 94.191 227.581 92.291 227.581 L 92.291 227.581 L 92.291 227.581 Q 88.291 227.581 85.591 224.931 L 85.591 224.931 L 85.591 224.931 Q 82.891 222.281 82.891 218.581 L 82.891 218.581 L 82.891 218.581 Q 82.891 216.781 83.591 215.131 L 83.591 215.131 L 83.591 215.131 Q 84.291 213.481 85.591 212.281 L 85.591 212.281 L 85.591 212.281 Q 86.891 211.081 88.591 210.331 L 88.591 210.331 L 88.591 210.331 Q 90.291 209.581 92.291 209.581 L 92.291 209.581 L 92.291 209.581 Q 94.191 209.581 95.941 210.281 L 95.941 210.281 L 95.941 210.281 Q 97.691 210.981 98.941 212.181 L 98.941 212.181 L 98.941 212.181 Q 100.191 213.381 100.941 215.031 L 100.941 215.031 L 100.941 215.031 Q 101.691 216.681 101.691 218.581 Z  M 100.491 284.281 L 84.091 284.281 L 84.091 234.481 L 100.491 234.481 L 100.491 284.281 Z " fill-rule="evenodd" fill="rgb(254,254,254)"/><path d=" M 505.923 587.111 L 505.923 587.111 L 505.923 587.111 Q 506.971 588.924 506.646 590.469 L 506.646 590.469 L 506.646 590.469 Q 506.321 592.015 504.711 592.945 L 504.711 592.945 L 504.711 592.945 Q 503.716 593.52 502.675 593.498 L 502.675 593.498 L 502.675 593.498 Q 501.635 593.477 500.711 592.847 L 500.711 592.847 L 500.711 592.847 Q 499.787 592.216 499.111 591.046 L 499.111 591.046 L 499.111 591.046 Q 498.064 589.233 498.386 587.698 L 498.386 587.698 L 498.386 587.698 Q 498.708 586.163 500.318 585.233 L 500.318 585.233 L 500.318 585.233 Q 501.874 584.334 503.389 584.84 L 503.389 584.84 L 503.389 584.84 Q 504.903 585.345 505.923 587.111 Z  M 500.275 590.374 L 500.275 590.374 L 500.275 590.374 Q 501.096 591.795 502.094 592.21 L 502.094 592.21 L 502.094 592.21 Q 503.092 592.626 504.194 591.989 L 504.194 591.989 L 504.194 591.989 Q 505.297 591.352 505.441 590.281 L 505.441 590.281 L 505.441 590.281 Q 505.584 589.21 504.76 587.783 L 504.76 587.783 L 504.76 587.783 Q 503.943 586.369 502.947 585.965 L 502.947 585.965 L 502.947 585.965 Q 501.952 585.562 500.835 586.206 L 500.835 586.206 L 500.835 586.206 Q 499.733 586.843 499.59 587.892 L 499.59 587.892 L 499.59 587.892 Q 499.446 588.94 500.275 590.374 Z  M 509.058 580.184 L 509.058 580.184 L 509.058 580.184 Q 509.552 579.898 509.991 579.753 L 509.991 579.753 L 510.438 580.884 L 510.438 580.884 Q 509.919 581.049 509.567 581.252 L 509.567 581.252 L 509.567 581.252 Q 508.667 581.772 508.45 582.872 L 508.45 582.872 L 508.45 582.872 Q 508.233 583.972 508.862 585.061 L 508.862 585.061 L 511.16 589.038 L 510.037 589.687 L 505.754 582.273 L 506.681 581.738 L 507.603 583.037 L 507.657 583.005 L 507.657 583.005 Q 507.651 582.043 508.006 581.315 L 508.006 581.315 L 508.006 581.315 Q 508.361 580.586 509.058 580.184 Z  M 514.913 576.981 L 517.477 575.5 L 517.888 576.21 L 516.608 577.166 L 516.608 577.166 Q 516.934 577.293 517.304 577.59 L 517.304 577.59 L 517.304 577.59 Q 517.674 577.886 517.951 578.366 L 517.951 578.366 L 517.951 578.366 Q 518.58 579.455 518.211 580.534 L 518.211 580.534 L 518.211 580.534 Q 517.843 581.614 516.544 582.364 L 516.544 582.364 L 516.544 582.364 Q 516.212 582.556 515.89 582.67 L 515.89 582.67 L 515.89 582.67 Q 515.392 583.463 515.724 584.038 L 515.724 584.038 L 515.724 584.038 Q 515.9 584.342 516.234 584.343 L 516.234 584.343 L 516.234 584.343 Q 516.569 584.344 517.177 583.992 L 517.177 583.992 L 518.49 583.234 L 518.49 583.234 Q 519.694 582.538 520.633 582.672 L 520.633 582.672 L 520.633 582.672 Q 521.572 582.806 522.131 583.774 L 522.131 583.774 L 522.131 583.774 Q 522.842 585.005 522.228 586.222 L 522.228 586.222 L 522.228 586.222 Q 521.614 587.438 519.719 588.533 L 519.719 588.533 L 519.719 588.533 Q 518.265 589.373 517.164 589.287 L 517.164 589.287 L 517.164 589.287 Q 516.064 589.201 515.493 588.213 L 515.493 588.213 L 515.493 588.213 Q 515.102 587.537 515.25 586.793 L 515.25 586.793 L 515.25 586.793 Q 515.397 586.049 516.08 585.42 L 516.08 585.42 L 516.08 585.42 Q 515.722 585.455 515.373 585.296 L 515.373 585.296 L 515.373 585.296 Q 515.024 585.137 514.817 584.779 L 514.817 584.779 L 514.817 584.779 Q 514.582 584.373 514.623 583.943 L 514.623 583.943 L 514.623 583.943 Q 514.663 583.514 514.966 582.96 L 514.966 582.96 L 514.966 582.96 Q 514.254 583.055 513.564 582.696 L 513.564 582.696 L 513.564 582.696 Q 512.874 582.337 512.452 581.607 L 512.452 581.607 L 512.452 581.607 Q 511.748 580.389 512.098 579.307 L 512.098 579.307 L 512.098 579.307 Q 512.447 578.226 513.787 577.452 L 513.787 577.452 L 513.787 577.452 Q 514.369 577.116 514.913 576.981 L 514.913 576.981 Z  M 516.567 587.575 L 516.567 587.575 L 516.567 587.575 Q 516.915 588.177 517.602 588.195 L 517.602 588.195 L 517.602 588.195 Q 518.29 588.213 519.237 587.666 L 519.237 587.666 L 519.237 587.666 Q 520.65 586.849 521.086 586.033 L 521.086 586.033 L 521.086 586.033 Q 521.522 585.218 521.103 584.494 L 521.103 584.494 L 521.103 584.494 Q 520.756 583.892 520.249 583.873 L 520.249 583.873 L 520.249 583.873 Q 519.742 583.855 518.714 584.449 L 518.714 584.449 L 517.367 585.227 L 517.367 585.227 Q 516.603 585.668 516.388 586.28 L 516.388 586.28 L 516.388 586.28 Q 516.173 586.891 516.567 587.575 Z  M 513.546 580.938 L 513.546 580.938 L 513.546 580.938 Q 513.995 581.716 514.665 581.862 L 514.665 581.862 L 514.665 581.862 Q 515.336 582.007 516.12 581.553 L 516.12 581.553 L 516.12 581.553 Q 517.764 580.604 516.842 579.007 L 516.842 579.007 L 516.842 579.007 Q 515.876 577.336 514.212 578.298 L 514.212 578.298 L 514.212 578.298 Q 513.421 578.755 513.241 579.427 L 513.241 579.427 L 513.241 579.427 Q 513.061 580.1 513.546 580.938 Z  M 441.591 619.343 L 445.875 626.757 L 444.752 627.406 L 440.468 619.992 L 441.591 619.343 Z  M 439.213 618.037 L 439.213 618.037 L 439.213 618.037 Q 438.99 617.652 439.076 617.363 L 439.076 617.363 L 439.076 617.363 Q 439.162 617.074 439.446 616.91 L 439.446 616.91 L 439.446 616.91 Q 439.716 616.754 440.018 616.823 L 440.018 616.823 L 440.018 616.823 Q 440.32 616.892 440.539 617.271 L 440.539 617.271 L 440.539 617.271 Q 440.757 617.65 440.669 617.949 L 440.669 617.949 L 440.669 617.949 Q 440.58 618.249 440.309 618.405 L 440.309 618.405 L 440.309 618.405 Q 440.025 618.569 439.728 618.493 L 439.728 618.493 L 439.728 618.493 Q 439.432 618.416 439.213 618.037 Z  M 451.87 620.595 L 451.87 620.595 L 451.87 620.595 Q 452.468 621.63 452.021 622.638 L 452.021 622.638 L 452.021 622.638 Q 451.574 623.645 450.181 624.45 L 450.181 624.45 L 450.181 624.45 Q 448.706 625.302 447.611 625.312 L 447.611 625.312 L 447.009 624.27 L 447.009 624.27 Q 447.7 624.232 448.402 624.034 L 448.402 624.034 L 448.402 624.034 Q 449.104 623.836 449.672 623.507 L 449.672 623.507 L 449.672 623.507 Q 450.552 622.999 450.863 622.445 L 450.863 622.445 L 450.863 622.445 Q 451.174 621.891 450.842 621.315 L 450.842 621.315 L 450.842 621.315 Q 450.592 620.883 450.039 620.792 L 450.039 620.792 L 450.039 620.792 Q 449.485 620.701 448.154 620.911 L 448.154 620.911 L 448.154 620.911 Q 446.896 621.123 446.294 621.088 L 446.294 621.088 L 446.294 621.088 Q 445.691 621.052 445.267 620.81 L 445.267 620.81 L 445.267 620.81 Q 444.843 620.568 444.55 620.06 L 444.55 620.06 L 444.55 620.06 Q 444.026 619.154 444.461 618.204 L 444.461 618.204 L 444.461 618.204 Q 444.895 617.253 446.181 616.511 L 446.181 616.511 L 446.181 616.511 Q 447.378 615.819 448.802 615.646 L 448.802 615.646 L 448.931 616.789 L 448.931 616.789 Q 447.549 616.974 446.643 617.498 L 446.643 617.498 L 446.643 617.498 Q 445.844 617.959 445.583 618.444 L 445.583 618.444 L 445.583 618.444 Q 445.322 618.929 445.576 619.369 L 445.576 619.369 L 445.576 619.369 Q 445.748 619.666 446.021 619.788 L 446.021 619.788 L 446.021 619.788 Q 446.295 619.91 446.742 619.904 L 446.742 619.904 L 446.742 619.904 Q 447.19 619.898 448.358 619.701 L 448.358 619.701 L 448.358 619.701 Q 449.954 619.419 450.699 619.639 L 450.699 619.639 L 450.699 619.639 Q 451.444 619.858 451.87 620.595 Z  M 459.119 614.152 L 459.119 614.152 L 459.119 614.152 Q 460.166 615.965 459.841 617.51 L 459.841 617.51 L 459.841 617.51 Q 459.516 619.056 457.906 619.986 L 457.906 619.986 L 457.906 619.986 Q 456.911 620.561 455.871 620.54 L 455.871 620.54 L 455.871 620.54 Q 454.83 620.518 453.906 619.888 L 453.906 619.888 L 453.906 619.888 Q 452.983 619.258 452.306 618.087 L 452.306 618.087 L 452.306 618.087 Q 451.259 616.275 451.581 614.74 L 451.581 614.74 L 451.581 614.74 Q 451.903 613.205 453.513 612.274 L 453.513 612.274 L 453.513 612.274 Q 455.069 611.375 456.584 611.881 L 456.584 611.881 L 456.584 611.881 Q 458.098 612.386 459.119 614.152 Z  M 453.47 617.415 L 453.47 617.415 L 453.47 617.415 Q 454.291 618.836 455.289 619.252 L 455.289 619.252 L 455.289 619.252 Q 456.287 619.667 457.39 619.03 L 457.39 619.03 L 457.39 619.03 Q 458.492 618.393 458.636 617.322 L 458.636 617.322 L 458.636 617.322 Q 458.78 616.251 457.955 614.824 L 457.955 614.824 L 457.955 614.824 Q 457.138 613.41 456.143 613.007 L 456.143 613.007 L 456.143 613.007 Q 455.147 612.603 454.031 613.248 L 454.031 613.248 L 454.031 613.248 Q 452.928 613.885 452.785 614.933 L 452.785 614.933 L 452.785 614.933 Q 452.641 615.981 453.47 617.415 Z  M 466.169 615.032 L 464.856 615.79 L 457.759 610.002 L 458.963 609.306 L 463.1 612.781 L 463.1 612.781 Q 464.532 614.011 464.892 614.416 L 464.892 614.416 L 464.946 614.385 L 464.946 614.385 Q 464.814 613.983 464.559 612.628 L 464.559 612.628 L 464.559 612.628 Q 464.304 611.273 463.495 606.688 L 463.495 606.688 L 464.699 605.992 L 466.169 615.032 Z  M 473.383 611.044 L 473.383 611.044 L 473.383 611.044 Q 471.74 611.994 470.211 611.542 L 470.211 611.542 L 470.211 611.542 Q 468.682 611.09 467.654 609.311 L 467.654 609.311 L 467.654 609.311 Q 466.618 607.518 466.891 605.953 L 466.891 605.953 L 466.891 605.953 Q 467.165 604.387 468.653 603.528 L 468.653 603.528 L 468.653 603.528 Q 470.046 602.723 471.388 603.17 L 471.388 603.17 L 471.388 603.17 Q 472.729 603.618 473.597 605.12 L 473.597 605.12 L 474.007 605.83 L 468.9 608.781 L 468.9 608.781 Q 469.688 610.067 470.704 610.382 L 470.704 610.382 L 470.704 610.382 Q 471.721 610.697 472.857 610.04 L 472.857 610.04 L 472.857 610.04 Q 474.055 609.348 474.936 608.171 L 474.936 608.171 L 475.514 609.173 L 475.514 609.173 Q 475.067 609.774 474.601 610.192 L 474.601 610.192 L 474.601 610.192 Q 474.134 610.61 473.383 611.044 Z  M 469.183 604.476 L 469.183 604.476 L 469.183 604.476 Q 468.29 604.992 468.095 605.88 L 468.095 605.88 L 468.095 605.88 Q 467.9 606.769 468.399 607.852 L 468.399 607.852 L 472.275 605.612 L 472.275 605.612 Q 471.662 604.55 470.862 604.259 L 470.862 604.259 L 470.862 604.259 Q 470.062 603.968 469.183 604.476 Z  M 476.967 598.724 L 476.967 598.724 L 476.967 598.724 Q 477.46 598.439 477.9 598.294 L 477.9 598.294 L 478.346 599.425 L 478.346 599.425 Q 477.827 599.59 477.476 599.793 L 477.476 599.793 L 477.476 599.793 Q 476.576 600.313 476.359 601.412 L 476.359 601.412 L 476.359 601.412 Q 476.142 602.512 476.771 603.602 L 476.771 603.602 L 479.069 607.579 L 477.946 608.228 L 473.662 600.814 L 474.589 600.278 L 475.511 601.577 L 475.565 601.546 L 475.565 601.546 Q 475.56 600.584 475.915 599.855 L 475.915 599.855 L 475.915 599.855 Q 476.27 599.127 476.967 598.724 Z  M 487.215 600.175 L 487.215 600.175 L 487.215 600.175 Q 487.813 601.21 487.366 602.217 L 487.366 602.217 L 487.366 602.217 Q 486.92 603.224 485.526 604.029 L 485.526 604.029 L 485.526 604.029 Q 484.051 604.881 482.956 604.891 L 482.956 604.891 L 482.355 603.849 L 482.355 603.849 Q 483.045 603.811 483.747 603.613 L 483.747 603.613 L 483.747 603.613 Q 484.449 603.415 485.018 603.087 L 485.018 603.087 L 485.018 603.087 Q 485.897 602.578 486.208 602.024 L 486.208 602.024 L 486.208 602.024 Q 486.52 601.47 486.188 600.895 L 486.188 600.895 L 486.188 600.895 Q 485.937 600.462 485.384 600.371 L 485.384 600.371 L 485.384 600.371 Q 484.831 600.28 483.499 600.49 L 483.499 600.49 L 483.499 600.49 Q 482.242 600.702 481.639 600.667 L 481.639 600.667 L 481.639 600.667 Q 481.037 600.631 480.613 600.389 L 480.613 600.389 L 480.613 600.389 Q 480.189 600.147 479.895 599.64 L 479.895 599.64 L 479.895 599.64 Q 479.372 598.733 479.806 597.783 L 479.806 597.783 L 479.806 597.783 Q 480.241 596.833 481.526 596.09 L 481.526 596.09 L 481.526 596.09 Q 482.723 595.398 484.148 595.225 L 484.148 595.225 L 484.276 596.369 L 484.276 596.369 Q 482.895 596.554 481.988 597.077 L 481.988 597.077 L 481.988 597.077 Q 481.19 597.539 480.929 598.023 L 480.929 598.023 L 480.929 598.023 Q 480.667 598.508 480.921 598.948 L 480.921 598.948 L 480.921 598.948 Q 481.093 599.245 481.367 599.367 L 481.367 599.367 L 481.367 599.367 Q 481.64 599.489 482.088 599.483 L 482.088 599.483 L 482.088 599.483 Q 482.535 599.477 483.703 599.281 L 483.703 599.281 L 483.703 599.281 Q 485.3 598.999 486.044 599.218 L 486.044 599.218 L 486.044 599.218 Q 486.789 599.437 487.215 600.175 Z  M 493.42 599.468 L 493.42 599.468 L 493.42 599.468 Q 491.777 600.418 490.248 599.966 L 490.248 599.966 L 490.248 599.966 Q 488.719 599.514 487.691 597.734 L 487.691 597.734 L 487.691 597.734 Q 486.655 595.942 486.928 594.377 L 486.928 594.377 L 486.928 594.377 Q 487.202 592.811 488.69 591.951 L 488.69 591.951 L 488.69 591.951 Q 490.083 591.146 491.425 591.594 L 491.425 591.594 L 491.425 591.594 Q 492.766 592.042 493.634 593.543 L 493.634 593.543 L 494.044 594.254 L 488.937 597.204 L 488.937 597.204 Q 489.725 598.49 490.741 598.805 L 490.741 598.805 L 490.741 598.805 Q 491.758 599.12 492.894 598.464 L 492.894 598.464 L 492.894 598.464 Q 494.092 597.772 494.973 596.595 L 494.973 596.595 L 495.551 597.596 L 495.551 597.596 Q 495.104 598.197 494.638 598.616 L 494.638 598.616 L 494.638 598.616 Q 494.171 599.034 493.42 599.468 Z  M 489.219 592.899 L 489.219 592.899 L 489.219 592.899 Q 488.327 593.415 488.132 594.304 L 488.132 594.304 L 488.132 594.304 Q 487.937 595.193 488.436 596.275 L 488.436 596.275 L 492.312 594.036 L 492.312 594.036 Q 491.699 592.974 490.899 592.683 L 490.899 592.683 L 490.899 592.683 Q 490.099 592.391 489.219 592.899 Z  M 497.406 596.028 L 497.406 596.028 L 497.406 596.028 Q 497.144 595.575 497.216 595.223 L 497.216 595.223 L 497.216 595.223 Q 497.287 594.87 497.673 594.647 L 497.673 594.647 L 497.673 594.647 Q 498.065 594.421 498.42 594.527 L 498.42 594.527 L 498.42 594.527 Q 498.775 594.633 499.037 595.086 L 499.037 595.086 L 499.037 595.086 Q 499.291 595.526 499.204 595.892 L 499.204 595.892 L 499.204 595.892 Q 499.118 596.258 498.732 596.48 L 498.732 596.48 L 498.732 596.48 Q 498.387 596.68 498.037 596.598 L 498.037 596.598 L 498.037 596.598 Q 497.688 596.515 497.406 596.028 Z  M 437.676 631.494 L 436.343 632.264 L 432.47 628.7 L 432.47 628.7 Q 432.111 628.375 430.943 627.164 L 430.943 627.164 L 430.889 627.195 L 430.889 627.195 Q 431.302 628.536 431.47 629.295 L 431.47 629.295 L 432.575 634.441 L 431.276 635.191 L 424.97 628.945 L 426.147 628.265 L 426.147 628.265 Q 428.478 630.645 429.698 631.889 L 429.698 631.889 L 429.698 631.889 Q 430.918 633.134 431.265 633.61 L 431.265 633.61 L 431.319 633.578 L 431.319 633.578 Q 431.171 633.15 430.983 632.442 L 430.983 632.442 L 430.983 632.442 Q 430.795 631.734 430.709 631.305 L 430.709 631.305 L 429.611 626.264 L 430.828 625.561 L 434.613 629.05 L 434.613 629.05 Q 435.664 629.995 436.256 630.708 L 436.256 630.708 L 436.31 630.677 L 436.31 630.677 Q 436.197 630.417 436.022 629.842 L 436.022 629.842 L 436.022 629.842 Q 435.847 629.266 434.278 623.568 L 434.278 623.568 L 435.442 622.896 L 437.676 631.494 Z  M 440.488 628.912 L 440.488 628.912 L 440.488 628.912 Q 440.226 628.459 440.298 628.107 L 440.298 628.107 L 440.298 628.107 Q 440.369 627.754 440.755 627.531 L 440.755 627.531 L 440.755 627.531 Q 441.147 627.305 441.502 627.411 L 441.502 627.411 L 441.502 627.411 Q 441.857 627.517 442.119 627.971 L 442.119 627.971 L 442.119 627.971 Q 442.373 628.41 442.286 628.776 L 442.286 628.776 L 442.286 628.776 Q 442.2 629.142 441.814 629.365 L 441.814 629.365 L 441.814 629.365 Q 441.469 629.564 441.119 629.482 L 441.119 629.482 L 441.119 629.482 Q 440.77 629.4 440.488 628.912 Z  M 426.891 637.725 L 425.558 638.495 L 421.685 634.931 L 421.685 634.931 Q 421.326 634.606 420.158 633.395 L 420.158 633.395 L 420.103 633.427 L 420.103 633.427 Q 420.517 634.767 420.685 635.527 L 420.685 635.527 L 421.79 640.672 L 420.491 641.422 L 414.185 635.177 L 415.362 634.497 L 415.362 634.497 Q 417.693 636.876 418.913 638.12 L 418.913 638.12 L 418.913 638.12 Q 420.133 639.365 420.48 639.841 L 420.48 639.841 L 420.534 639.809 L 420.534 639.809 Q 420.386 639.381 420.198 638.673 L 420.198 638.673 L 420.198 638.673 Q 420.01 637.965 419.924 637.536 L 419.924 637.536 L 418.826 632.495 L 420.043 631.792 L 423.827 635.281 L 423.827 635.281 Q 424.879 636.226 425.471 636.939 L 425.471 636.939 L 425.525 636.908 L 425.525 636.908 Q 425.412 636.648 425.237 636.073 L 425.237 636.073 L 425.237 636.073 Q 425.062 635.497 423.493 629.799 L 423.493 629.799 L 424.657 629.127 L 426.891 637.725 Z  M 416.106 643.956 L 414.773 644.726 L 410.9 641.162 L 410.9 641.162 Q 410.541 640.837 409.372 639.626 L 409.372 639.626 L 409.318 639.658 L 409.318 639.658 Q 409.732 640.998 409.9 641.758 L 409.9 641.758 L 411.005 646.903 L 409.706 647.653 L 403.4 641.408 L 404.577 640.728 L 404.577 640.728 Q 406.908 643.107 408.128 644.351 L 408.128 644.351 L 408.128 644.351 Q 409.347 645.596 409.695 646.072 L 409.695 646.072 L 409.749 646.04 L 409.749 646.04 Q 409.6 645.612 409.413 644.904 L 409.413 644.904 L 409.413 644.904 Q 409.225 644.196 409.139 643.767 L 409.139 643.767 L 408.041 638.727 L 409.258 638.023 L 413.042 641.512 L 413.042 641.512 Q 414.093 642.457 414.686 643.17 L 414.686 643.17 L 414.74 643.139 L 414.74 643.139 Q 414.626 642.88 414.452 642.304 L 414.452 642.304 L 414.452 642.304 Q 414.277 641.728 412.708 636.03 L 412.708 636.03 L 413.872 635.358 L 416.106 643.956 Z " fill-rule="evenodd" fill="rgb(254,254,254)"/></g></g></svg>